<?xml version="1.0" encoding="UTF-8" standalone="no"?>
<!-- Created with Inkscape (http://www.inkscape.org/) -->

<svg
   width="200mm"
   height="200mm"
   viewBox="0 0 200 200"
   version="1.1"
   id="svg1420"
   sodipodi:docname="grass.svg"
   inkscape:version="1.1.1 (3bf5ae0d25, 2021-09-20)"
   xmlns:inkscape="http://www.inkscape.org/namespaces/inkscape"
   xmlns:sodipodi="http://sodipodi.sourceforge.net/DTD/sodipodi-0.dtd"
   xmlns="http://www.w3.org/2000/svg"
   xmlns:svg="http://www.w3.org/2000/svg">
  <sodipodi:namedview
     id="namedview1422"
     pagecolor="#ffffff"
     bordercolor="#666666"
     borderopacity="1.0"
     inkscape:pageshadow="2"
     inkscape:pageopacity="0.0"
     inkscape:pagecheckerboard="0"
     inkscape:document-units="mm"
     showgrid="false"
     width="200mm"
     inkscape:zoom="0.77682379"
     inkscape:cx="603.44359"
     inkscape:cy="203.54627"
     inkscape:window-width="1920"
     inkscape:window-height="1057"
     inkscape:window-x="-8"
     inkscape:window-y="-8"
     inkscape:window-maximized="1"
     inkscape:current-layer="layer2"
     inkscape:snap-nodes="false"
     inkscape:rotation="1" />
  <defs
     id="defs1417" />
  <g
     inkscape:label="Layer 1"
     inkscape:groupmode="layer"
     id="layer1"
     style="display:inline">
    <rect
       style="fill:#7d4c2c;fill-opacity:1;stroke:#7d4c2c;stroke-width:0.248643;stroke-opacity:1"
       id="rect8452"
       width="199.75136"
       height="200.01595"
       x="-199.87569"
       y="-200.14027"
       transform="scale(-1)" />
    <path
       sodipodi:type="star"
       style="fill:#7d4c2c;fill-opacity:1;stroke:#7d4c2c;stroke-opacity:1"
       id="path9836-9"
       inkscape:flatsided="true"
       sodipodi:sides="5"
       sodipodi:cx="1218.314"
       sodipodi:cy="557.22418"
       sodipodi:r1="160.46304"
       sodipodi:r2="129.81734"
       sodipodi:arg1="-2.3250921"
       sodipodi:arg2="-1.6967736"
       inkscape:rounded="0"
       inkscape:randomized="0"
       transform="matrix(-0.26109709,-0.04280945,0.04280945,-0.26109709,479.44606,320.20589)"
       inkscape:transform-center-x="-0.47923942"
       inkscape:transform-center-y="-3.5956795"
       d="m 1108.4328,440.2861 187.1407,-23.70099 80.3707,170.65743 -137.469,129.17307 -165.3311,-90.82407 z" />
    <path
       style="fill:#6d4c2c;fill-opacity:1;stroke:#6d4c2c;stroke-width:0.120419;stroke-opacity:1"
       d="m 160.86862,155.8959 c 0.41253,-0.0642 9.87934,-1.51453 21.03738,-3.22298 l 20.28737,-3.10627 11.71698,-18.81619 c 6.44434,-10.34891 11.72026,-18.75259 11.72426,-18.67484 0.0135,0.26204 -16.68961,45.76217 -16.80517,45.77818 -0.21607,0.0299 -48.19925,-1.7464 -48.45506,-1.79379 -0.14067,-0.0261 0.0817,-0.0999 0.49424,-0.16411 z"
       id="path14153-5" />
    <path
       style="fill:#855838;fill-opacity:1;stroke:#7d4c2c;stroke-width:0.085149;stroke-opacity:1"
       d="m 146.23703,107.28913 c 0.0493,-0.0703 11.34499,-7.672985 33.49001,-22.541034 3.8095,-2.557676 6.97202,-4.650001 7.02783,-4.649626 0.0558,3.4e-5 3.09358,2.344067 6.75059,5.208187 8.1747,6.402341 24.34788,19.081613 26.04443,20.418043 0.68642,0.54072 2.23085,1.7541 3.43206,2.69642 1.20121,0.9423 2.16702,1.72354 2.14624,1.73608 -0.0208,0.0126 -8.53483,-4.86029 -18.92013,-10.828525 -10.38527,-5.968227 -18.97301,-10.898967 -19.08385,-10.957187 -0.17951,-0.0943 -2.40954,0.92963 -20.43259,9.38191 -23.63035,11.081892 -20.52306,9.633292 -20.45459,9.535732 z"
       id="path15367-1" />
    <path
       sodipodi:type="star"
       style="fill:#7d4c2c;fill-opacity:1;stroke:#7d4c2c;stroke-opacity:1"
       id="path9836-6"
       inkscape:flatsided="true"
       sodipodi:sides="5"
       sodipodi:cx="1218.314"
       sodipodi:cy="557.22418"
       sodipodi:r1="160.46304"
       sodipodi:r2="129.81734"
       sodipodi:arg1="-2.3250921"
       sodipodi:arg2="-1.6967736"
       inkscape:rounded="0"
       inkscape:randomized="0"
       transform="matrix(-0.26458333,0,0,-0.26458333,370.84833,197.46693)"
       inkscape:transform-center-x="1.6483962"
       inkscape:transform-center-y="-2.4543214"
       d="m 1108.4328,440.2861 187.1407,-23.70099 80.3707,170.65743 -137.469,129.17307 -165.3311,-90.82407 z" />
    <path
       style="fill:#7d4c2c;fill-opacity:1;stroke:#7d4c2c;stroke-width:0.120419;stroke-opacity:1"
       d="M 17.957868,65.934424 C 12.479678,54.300674 7.7092878,44.175454 7.3570478,43.433934 l -0.64045,-1.3482 18.2097902,-17.10956 c 10.0154,-9.41025 18.22646,-17.1096402 18.2468,-17.1097502 0.0204,-1.1e-4 9.85044,5.3903602 21.84465,11.9788202 20.85,11.45298 21.80105,11.98994 21.65759,12.22774 -0.0825,0.13679 -4.0158,9.54173 -8.74059,20.89985 l -8.59053,20.65113 -17.62788,5.72985 c -9.69534,3.15142 -19.01621,6.18054 -20.71304,6.73137 l -3.08515,1.00152 z"
       id="path13966-0" />
    <path
       style="fill:#6d4c2c;fill-opacity:1;stroke:#6d4c2c;stroke-width:0.120419;stroke-opacity:1"
       d="m 29.883308,86.867614 c 0.39671,-0.13009 9.50412,-3.09305 20.23871,-6.58435 l 19.51746,-6.34783 8.51815,-20.46406 c 4.68498,-11.25524 8.53167,-20.40183 8.5482,-20.32575 0.0557,0.25641 -9.06541,47.85956 -9.17686,47.89405 -0.20838,0.0645 -47.84672,6.07523 -48.10683,6.06985 -0.14304,-0.003 0.0645,-0.11181 0.46117,-0.24191 z"
       id="path14153-0" />
    <path
       sodipodi:type="star"
       style="fill:#7d4c2c;fill-opacity:1;stroke:#7d4c2c;stroke-opacity:1"
       id="path16263-4"
       inkscape:flatsided="true"
       sodipodi:sides="5"
       sodipodi:cx="1218.314"
       sodipodi:cy="557.22418"
       sodipodi:r1="160.46304"
       sodipodi:r2="129.81734"
       sodipodi:arg1="-2.3250921"
       sodipodi:arg2="-1.6967736"
       inkscape:rounded="0"
       inkscape:randomized="0"
       transform="matrix(-0.26458333,0,0,-0.26458333,370.84833,197.46693)"
       inkscape:transform-center-x="1.6483962"
       inkscape:transform-center-y="-2.4543214"
       d="m 1108.4328,440.2861 187.1407,-23.70099 80.3707,170.65743 -137.469,129.17307 -165.3311,-90.82407 z" />
    <path
       style="fill:#7d4c2c;fill-opacity:1;stroke:#7d4c2c;stroke-width:0.120419;stroke-opacity:1"
       d="M 17.957868,65.934424 C 12.479678,54.300674 7.7092878,44.175454 7.3570478,43.433934 l -0.64045,-1.3482 18.2097902,-17.10956 c 10.0154,-9.41025 18.22646,-17.1096402 18.2468,-17.1097502 0.0204,-1.1e-4 9.85044,5.3903602 21.84465,11.9788202 20.85,11.45298 21.80105,11.98994 21.65759,12.22774 -0.0825,0.13679 -4.0158,9.54173 -8.74059,20.89985 l -8.59053,20.65113 -17.62788,5.72985 c -9.69534,3.15142 -19.01621,6.18054 -20.71304,6.73137 l -3.08515,1.00152 z"
       id="path16265-6" />
    <path
       style="fill:#6d4c2c;fill-opacity:1;stroke:#6d4c2c;stroke-width:0.120419;stroke-opacity:1"
       d="m 29.883308,86.867614 c 0.39671,-0.13009 9.50412,-3.09305 20.23871,-6.58435 l 19.51746,-6.34783 8.51815,-20.46406 c 4.68498,-11.25524 8.53167,-20.40183 8.5482,-20.32575 0.0557,0.25641 -9.06541,47.85956 -9.17686,47.89405 -0.20838,0.0645 -47.84672,6.07523 -48.10683,6.06985 -0.14304,-0.003 0.0645,-0.11181 0.46117,-0.24191 z"
       id="path16267-2" />
    <path
       sodipodi:type="star"
       style="fill:#7d4c2c;fill-opacity:1;stroke:#7d4c2c;stroke-opacity:1"
       id="path9836-4"
       inkscape:flatsided="true"
       sodipodi:sides="5"
       sodipodi:cx="1218.314"
       sodipodi:cy="557.22418"
       sodipodi:r1="160.46304"
       sodipodi:r2="129.81734"
       sodipodi:arg1="-2.3250921"
       sodipodi:arg2="-1.6967736"
       inkscape:rounded="0"
       inkscape:randomized="0"
       transform="matrix(-0.16201005,-0.20918194,0.20918194,-0.16201005,210.45021,397.55456)"
       inkscape:transform-center-x="2.0578812"
       inkscape:transform-center-y="2.0468098"
       d="m 1108.4328,440.2861 187.1407,-23.70099 80.3707,170.65743 -137.469,129.17307 -165.3311,-90.82407 z" />
    <path
       style="fill:#7d4c2c;fill-opacity:1;stroke:#7d4c2c;stroke-width:0.120419;stroke-opacity:1"
       d="m 98.358568,38.016054 c 5.843342,-11.45471 10.927412,-21.4261 11.297982,-22.15864 l 0.67374,-1.33188 24.67721,3.92028 c 13.57248,2.15617 24.68749,3.93339 24.70003,3.94942 0.0126,0.0161 1.76997,11.08847 3.90539,24.60546 3.71207,23.49709 3.8699,24.57779 3.59405,24.60998 -0.15866,0.0185 -10.00274,2.66768 -21.87566,5.88704 l -21.58714,5.85338 -15.324,-10.42825 C 99.991967,67.187304 91.889758,61.672934 90.415258,60.668694 l -2.68091,-1.82589 z"
       id="path13966-7" />
    <path
       style="fill:#6d4c2c;fill-opacity:1;stroke:#6d4c2c;stroke-width:0.120419;stroke-opacity:1"
       d="m 89.110808,60.262244 c 0.34576,0.234 8.26497,5.6201 17.598242,11.96917 l 16.96961,11.54377 21.39492,-5.79605 c 11.7672,-3.18785 21.35399,-5.74728 21.30396,-5.68762 -0.16861,0.20103 -43.38914,22.13825 -43.48465,22.07126 -0.17858,-0.12528 -34.100702,-34.10807 -34.255722,-34.31701 -0.0852,-0.1149 0.12791,-0.0175 0.47364,0.21648 z"
       id="path14153-3" />
    <path
       style="fill:#855838;fill-opacity:1;stroke:#7d4c2c;stroke-width:0.085149;stroke-opacity:1"
       d="m 111.5049,14.707824 c 0.0839,-0.0178 13.53272,2.10932 39.87362,6.30671 4.53129,0.72206 8.27192,1.34416 8.31253,1.38246 0.0409,0.038 0.66845,3.82336 1.39521,8.41124 1.62455,10.25556 4.83003,30.55484 5.16193,32.68889 0.13429,0.86343 0.43862,2.80377 0.67629,4.31188 0.23768,1.50809 0.4127,2.73793 0.38894,2.73295 -0.024,-0.004 -2.93854,-9.3718 -6.47731,-20.81519 -3.53875,-11.44338 -6.46804,-20.90281 -6.50954,-21.02093 -0.0672,-0.19131 -2.3974,-0.96048 -21.35039,-7.04783 -24.8496,-7.98118 -21.58786,-6.92538 -21.47128,-6.95018 z"
       id="path15367-9" />
    <path
       sodipodi:type="star"
       style="fill:#7d4c2c;fill-opacity:1;stroke:#7d4c2c;stroke-opacity:1"
       id="path16263-7"
       inkscape:flatsided="true"
       sodipodi:sides="5"
       sodipodi:cx="1218.314"
       sodipodi:cy="557.22418"
       sodipodi:r1="160.46304"
       sodipodi:r2="129.81734"
       sodipodi:arg1="-2.3250921"
       sodipodi:arg2="-1.6967736"
       inkscape:rounded="0"
       inkscape:randomized="0"
       transform="matrix(-0.16201005,-0.20918194,0.20918194,-0.16201005,210.45021,397.55456)"
       inkscape:transform-center-x="2.0578812"
       inkscape:transform-center-y="2.0468098"
       d="m 1108.4328,440.2861 187.1407,-23.70099 80.3707,170.65743 -137.469,129.17307 -165.3311,-90.82407 z" />
    <path
       style="fill:#7d4c2c;fill-opacity:1;stroke:#7d4c2c;stroke-width:0.120419;stroke-opacity:1"
       d="m 98.358568,38.016054 c 5.843342,-11.45471 10.927412,-21.4261 11.297982,-22.15864 l 0.67374,-1.33188 24.67721,3.92028 c 13.57248,2.15617 24.68749,3.93339 24.70003,3.94942 0.0126,0.0161 1.76997,11.08847 3.90539,24.60546 3.71207,23.49709 3.8699,24.57779 3.59405,24.60998 -0.15866,0.0185 -10.00274,2.66768 -21.87566,5.88704 l -21.58714,5.85338 -15.324,-10.42825 C 99.991967,67.187304 91.889758,61.672934 90.415258,60.668694 l -2.68091,-1.82589 z"
       id="path16265-1" />
    <path
       style="fill:#6d4c2c;fill-opacity:1;stroke:#6d4c2c;stroke-width:0.120419;stroke-opacity:1"
       d="m 89.110808,60.262244 c 0.34576,0.234 8.26497,5.6201 17.598242,11.96917 l 16.96961,11.54377 21.39492,-5.79605 c 11.7672,-3.18785 21.35399,-5.74728 21.30396,-5.68762 -0.16861,0.20103 -43.38914,22.13825 -43.48465,22.07126 -0.17858,-0.12528 -34.100702,-34.10807 -34.255722,-34.31701 -0.0852,-0.1149 0.12791,-0.0175 0.47364,0.21648 z"
       id="path16267-7" />
    <path
       style="fill:#6d4c2c;fill-opacity:1;stroke:#6d4c2c;stroke-width:0.162707;stroke-opacity:1"
       d="m 47.039708,188.7245 c 0.56776,-0.0329 13.59336,-0.75726 28.94582,-1.60972 l 27.913612,-1.54991 18.48772,-23.61295 c 10.16826,-12.98714 18.48332,-23.52765 18.47792,-23.42338 -0.0182,0.35146 -28.96944,58.93885 -29.12822,58.94543 -0.29685,0.0123 -65.049222,-8.4977 -65.389162,-8.59368 -0.18695,-0.0528 0.12466,-0.12286 0.69232,-0.15574 z"
       id="path14153-8" />
    <path
       style="fill:#855838;fill-opacity:1;stroke:#7d4c2c;stroke-width:0.115051;stroke-opacity:1"
       d="m 33.976038,121.98179 c 0.0765,-0.0874 16.43482,-8.78882 48.49983,-25.798348 5.51598,-2.926048 10.09086,-5.313836 10.16641,-5.306216 0.0757,0.0072 3.86481,3.524219 8.420552,7.814585 10.18371,9.590509 30.32983,28.581599 32.44225,30.582279 0.85469,0.80946 2.77814,2.62645 4.27434,4.03775 1.49621,1.4113 2.69594,2.57751 2.66604,2.59159 -0.0299,0.0141 -10.88592,-7.57856 -24.12449,-16.87254 -13.23854,-9.29399 -24.186332,-16.97333 -24.328382,-17.06522 -0.23007,-0.14881 -3.39324,0.9324 -28.98268,9.90681 -33.55076,11.76649 -29.14019,10.23075 -29.03387,10.10931 z"
       id="path15367-2" />
    <path
       sodipodi:type="star"
       style="fill:#7d4c2c;fill-opacity:1;stroke:#7d4c2c;stroke-opacity:1"
       id="path18742"
       inkscape:flatsided="true"
       sodipodi:sides="5"
       sodipodi:cx="1218.314"
       sodipodi:cy="557.22418"
       sodipodi:r1="160.46304"
       sodipodi:r2="129.81734"
       sodipodi:arg1="-2.3250921"
       sodipodi:arg2="-1.6967736"
       inkscape:rounded="0"
       inkscape:randomized="0"
       transform="matrix(-0.26109709,-0.04280945,0.04280945,-0.26109709,279.44106,320.20589)"
       inkscape:transform-center-x="-0.47923942"
       inkscape:transform-center-y="-3.5956795"
       d="m 1108.4328,440.2861 187.1407,-23.70099 80.3707,170.65743 -137.469,129.17307 -165.3311,-90.82407 z" />
    <path
       style="fill:#6d4c2c;fill-opacity:1;stroke:#6d4c2c;stroke-width:0.120419;stroke-opacity:1"
       d="m -39.136368,155.8959 c 0.41253,-0.0642 9.87934,-1.51453 21.03738,-3.22298 L 2.1883815,149.56665 13.905362,130.75046 c 6.444336,-10.34891 11.720256,-18.75258 11.724256,-18.67483 0.0135,0.26204 -16.6896165,45.76216 -16.8051665,45.77817 -0.21607,0.0299 -48.1992495,-1.7464 -48.4550595,-1.79379 -0.14067,-0.0261 0.0817,-0.0999 0.49424,-0.16411 z"
       id="path18744" />
    <path
       style="fill:#855838;fill-opacity:1;stroke:#7d4c2c;stroke-width:0.085149;stroke-opacity:1"
       d="m -53.767968,107.28914 c 0.0493,-0.0703 11.345,-7.672994 33.49002,-22.541043 3.8095,-2.557676 6.97202,-4.650001 7.02783,-4.649626 0.0558,3.4e-5 3.09358,2.344067 6.7505895,5.208187 8.17469,6.402341 24.3478765,19.081622 26.0444265,20.418052 0.68642,0.54072 2.23085,1.7541 3.43206,2.69642 1.20121,0.9423 2.16702,1.72354 2.14624,1.73608 -0.0208,0.0126 -8.53483,-4.86029 -18.9201365,-10.828534 -10.38527,-5.968227 -18.9729995,-10.898967 -19.0838395,-10.957187 -0.17951,-0.0943 -2.40954,0.92963 -20.43259,9.38191 -23.63035,11.081901 -20.52306,9.633301 -20.4546,9.535741 z"
       id="path18746" />
  </g>
  <g
     inkscape:groupmode="layer"
     id="layer2"
     inkscape:label="Grass"
     style="display:inline">
    <path
       style="fill:#4d9030;fill-opacity:1;stroke:#4d9030;stroke-width:0.643647;stroke-opacity:1"
       d="M 135.04195,163.79195 C 123.28341,142.9379 104.98589,108.66316 93.372142,86.457027 69.441423,40.700187 70.170903,40.962989 69.727623,41.400185 69.550225,41.575151 65.51451,61.618692 58.707616,88.841272 51.900719,116.06385 45.063605,141.37838 44.882262,141.55724 44.700919,141.73609 34.056707,118.29746 22.266378,94.197186 L -0.06383912,50.284653 0.72456539,27.283298 C 1.1597062,14.588255 0.46270782,3.2210347 0.270811,2.0390846 L -0.07809224,-0.109916 32.624897,0.22028216 c 17.986644,0.18160892 53.123387,0.29818897 78.081653,0.25906665 42.26844,-0.0662562 78.28327,-0.078221 187.94973,-0.0624401 23.89592,0.003439 64.44662,0.004282 90.11266,0.001874 25.66604,-0.002408 68.96842,-0.005379 96.22751,-0.006603 27.25909,-0.001224 70.56148,-0.005563 96.22753,-0.009643 25.66605,-0.00408 70.16442,-1.20729929 98.13098,-1.12785904 27.96657,0.0794403 56.02756,1.23682229 63.11207,1.02599815 l 13.68252,-0.45281818 0.2604,23.69381736 -0.086,24.764004 -30.12941,47.344721 c -16.91371,26.57785 -33.52049,53.06055 -33.91289,53.47355 -0.53096,0.55884 -9.27335,-12.81832 -28.24307,-40.43211 C 650.019,88.283912 640.96176,76.145407 640.78487,76.129464 c -0.1769,-0.01596 -3.61463,8.131927 -10.43005,24.277736 -11.38568,26.97282 -10.34519,34.51657 -24.09009,65.30192 l -15.29698,37.78031 -4.55083,-22.33615 c -2.13221,-10.4652 -3.22112,-21.31876 -3.51153,-22.26047 -0.44969,-1.45824 -60.1522,-85.342037 -62.34321,-87.693759 -0.60791,-0.652497 -0.46703,-0.01803 -8.5841,22.759815 l -8.51522,29.247714 -2.08692,27.00542 c -1.15803,14.98533 -2.54339,28.76541 -2.75125,30.65256 l -0.95933,8.70983 -15.44763,-28.99962 c -11.19826,-21.02233 -51.2805,-88.196825 -53.2059,-90.69608 -0.45951,-0.596471 -1.97293,4.544397 -11.2739,25.414583 -12.29453,27.587337 -13.9967,30.241967 -25.18478,62.624207 -6.45647,18.68731 -14.38338,40.23738 -13.20747,37.20753 0.1306,-0.3365 -15.60655,-27.67494 -37.52133,-89.94751 -7.97664,-22.666229 -16.07548,-41.289858 -16.04535,-40.988132 0.2595,2.598355 1.25978,1.346929 1.14683,1.493652 -0.11294,0.146727 -8.35241,26.225911 -18.1113,58.63447 -9.75889,32.40855 -19.17451,58.58154 -19.35154,58.58424 -0.17702,0.003 -6.56236,-8.95416 -9.21555,-18.30622 L 273.43807,147.93099 236.61638,97.716695 C 216.63151,70.463029 206.51671,44.629499 205.99933,47.960603 c -0.37319,2.402765 -9.93902,18.599026 -27.79622,40.376712 l -28.50076,40.126845 5.17156,36.25051 c 2.87857,20.17767 8.03013,42.8827 6.46877,42.86228 -5.91546,-0.0774 -13.27839,-22.81237 -25.03693,-43.66643 z"
       id="path6193"
       transform="scale(0.26458333)"
       sodipodi:nodetypes="cssssscsscsssssssscccsssssscsssscsscssssssssscscssscsscc" />
    <path
       style="fill:#4d7930;fill-opacity:1;stroke:#4d8230;stroke-width:0.643647;stroke-opacity:1"
       d="m 539.68131,260.71119 c 0.17654,-0.61831 7.4686,-18.5985 16.20456,-39.95599 8.73597,-21.35748 16.02162,-39.31387 16.19034,-39.90307 0.20861,-0.72854 -7.93724,-10.35283 -25.46138,-30.0825 -18.60134,-20.94245 -25.8176,-28.66013 -25.94598,-27.74886 -0.0978,0.69432 0.13712,13.71943 0.52206,28.94469 l 0.69991,27.68231 -16.66758,25.44061 c -12.49163,19.06663 -16.78691,25.16503 -17.14388,24.34069 -0.26196,-0.60496 -2.86016,-11.17373 -5.77377,-23.48617 l -5.29748,-22.38626 -22.52076,-29.57319 c -12.38642,-16.26525 -22.8016,-29.66262 -23.14484,-29.77192 -0.34324,-0.10931 -9.07726,13.80619 -19.40894,30.92332 l -18.78486,31.12207 -0.647,22.81471 c -0.35586,12.5481 -0.76994,22.93596 -0.92019,23.08416 -0.25892,0.25536 -31.61521,-19.23252 -32.66895,-20.3037 -0.27441,-0.27895 -7.0626,-20.97271 -15.08487,-45.98613 -8.02227,-25.01343 -14.79041,-45.8539 -15.0403,-46.31217 -0.26236,-0.48113 -3.9472,8.33296 -8.72027,20.85876 -8.30693,21.79963 -34.55896,85.5133 -35.24331,85.5355 -0.20152,0.007 -4.82585,-14.13926 -10.2763,-31.43511 -9.35275,-29.679 -10.04747,-31.5927 -12.3569,-34.03855 -1.34585,-1.42536 -13.86335,-14.83565 -27.81666,-29.80066 -13.95332,-14.96501 -25.56066,-27.27639 -25.79409,-27.35862 -0.53538,-0.1886 -45.23165,66.32836 -45.48787,67.69504 -0.10391,0.55426 6.10888,15.781 13.80622,33.8372 7.69733,18.05619 13.89202,32.93116 13.76596,33.05548 -0.12605,0.12432 -16.5064,-9.42425 -36.40078,-21.21904 -34.63654,-20.53501 -36.23022,-21.56248 -37.55342,-24.21125 -0.76001,-1.52139 -11.00654,-23.68612 -22.770066,-49.25496 C 82.176386,117.64875 72.443113,96.607354 72.310412,96.458931 c -0.132696,-0.148423 -0.36595,-0.14689 -0.518333,0.0034 C 71.63969,96.612635 66.717897,115.9609 60.854764,139.45848 54.991631,162.95606 50.124276,182.4135 50.03842,182.69725 49.952564,182.981 38.872841,165.09109 25.416813,142.94191 L 0.95130675,102.67066 0.5137098,98.162001 C 0.27303151,95.682239 0.13883337,84.529868 0.21549171,73.378954 L -0.08185883,50.372874 23.9034,97.677978 c 18.358026,36.206752 20.401177,44.958142 20.880545,43.915282 0.526121,-1.14458 25.07989,-98.854613 25.086634,-99.830534 0.0015,-0.218542 10.455186,19.513501 23.23039,43.848985 25.844531,49.231239 66.787751,122.597799 67.838861,121.561109 0.42819,-0.42232 -1.69713,-13.65655 -6.31933,-39.34998 -3.83048,-21.29251 -6.79265,-39.15241 -6.58261,-39.68867 0.58804,-1.50132 57.6563,-80.370902 58.14173,-80.353137 0.23509,0.0086 15.46197,22.344296 33.83752,49.634871 l 33.41008,49.619226 7.84544,17.75492 c 4.31499,9.7652 8.09286,18.01111 8.39526,18.32425 0.30985,0.32084 1.27675,-1.7795 2.21529,-4.81216 1.15846,-3.7433 29.42477,-97.288595 34.18822,-113.143435 0.0816,-0.271752 5.52787,12.94486 12.10272,29.370249 11.69104,29.206716 37.24031,92.256846 39.67149,97.900766 0.67369,1.56392 1.36241,2.70785 1.53051,2.54206 0.16809,-0.16579 5.80568,-16.17464 12.52797,-35.57523 11.42955,-32.98577 13.0069,-37.04279 24.31761,-62.545849 6.65239,-14.999632 12.30162,-27.487768 12.55383,-27.751415 0.60055,-0.627761 37.41361,62.652884 55.16787,94.832054 l 13.89952,25.19254 0.47977,-3.20867 c 0.26387,-1.76477 1.46748,-16.38083 2.67471,-32.48013 l 2.19493,-29.27145 8.00589,-28.447776 c 6.32468,-22.473824 8.1682,-28.273277 8.7788,-27.616805 0.42509,0.457035 14.80383,20.923722 31.95274,45.481521 l 31.17983,44.65056 3.65341,21.43271 c 2.00937,11.78799 3.86544,21.78116 4.12459,22.20703 0.30816,0.50641 0.67305,0.55487 1.05458,0.14007 0.32087,-0.34884 5.84095,-16.51767 12.26687,-35.93074 10.7987,-32.62354 12.60177,-37.47515 23.80964,-64.06582 6.6694,-15.823135 12.32669,-28.539433 12.57175,-28.258446 0.24507,0.280988 11.69503,16.881314 25.44442,36.889616 13.74933,20.0083 25.20056,36.38012 25.44707,36.38182 0.24658,0.002 14.63767,-21.90326 31.98026,-48.677705 l 32.57225,-48.815472 -0.30271,3.736114 c -0.45793,5.652152 0.65062,48.729173 0.0142,48.968503 -1.03545,0.39077 -24.5172,35.76044 -36.44318,55.3436 -5.72201,9.39586 -17.53621,30.18359 -22.29167,39.2233 -1.61427,3.06859 -3.11051,5.58148 -3.325,5.58419 -0.21455,0.003 -11.82313,-16.57709 -25.79692,-36.844 -13.97379,-20.26692 -25.6091,-36.64001 -25.85619,-36.38465 -0.24711,0.25535 -6.79721,18.66824 -14.5558,40.91752 l -14.1065,40.45323 -36.63593,25.65424 c -20.14758,14.10985 -36.80042,25.65311 -37.00412,25.6517 -0.20371,-10e-4 -0.22592,-0.50845 -0.0494,-1.12675 z"
       id="path7490"
       transform="scale(0.26458333)"
       sodipodi:nodetypes="sssssscssscssscsssssscssssssssssssssscsscssssssssscssssssssssscsscssscssssssscscscsscssscccss" />
    <path
       sodipodi:type="star"
       style="fill:#4d9c30;fill-opacity:1;stroke:#4d8830;stroke-width:1.94481;stroke-miterlimit:4;stroke-dasharray:none;stroke-opacity:1"
       id="path8642"
       inkscape:flatsided="true"
       sodipodi:sides="5"
       sodipodi:cx="122.83572"
       sodipodi:cy="15.009347"
       sodipodi:r1="35.546547"
       sodipodi:r2="28.757759"
       sodipodi:arg1="0.74107079"
       sodipodi:arg2="1.3693893"
       inkscape:rounded="0"
       inkscape:randomized="0"
       d="M 149.06004,39.006048 108.11726,47.365552 87.514883,11.00988 115.7247,-19.818665 l 38.037,17.3025835 z"
       transform="matrix(0.20930199,0,0,0.21441995,34.053805,-20.050888)"
       inkscape:transform-center-x="0.45992593"
       inkscape:transform-center-y="-0.26500233" />
    <path
       style="fill:#4d9c30;fill-opacity:1;stroke:#4d9c30;stroke-width:1.41742;stroke-miterlimit:4;stroke-dasharray:none;stroke-opacity:1"
       d="M 711.84385,14.852235 668.00162,5.8859983 590.47412,14.063533 512.94662,22.241068 436.74954,13.930093 360.55245,5.6191185 306.7333,9.4769156 252.91415,13.334714 188.14761,10.277253 123.38108,7.2197919 65.277113,12.196201 C 33.319936,14.933225 5.8721537,17.369386 4.282043,17.609891 L 1.3909327,18.047175 0.92259579,8.9996937 0.45425894,-0.04778775 6.8343464,0.30207918 C 15.93509,0.80113972 69.598044,0.9016228 276.78916,0.80756562 c 100.39756,-0.0455765 193.39838,-0.0628742 206.6685,-0.0384383 13.27011,0.024435 41.94987,0.0735476 63.7328,0.10913838 21.78293,0.0355908 56.19176,-0.24795231 76.46408,-0.63009602 20.27231,-0.38214189 48.33329,-0.54443418 62.35771,-0.3606452 14.02443,0.1837899 35.43578,0.41769784 47.58079,0.51979593 l 22.08183,0.18563413 0.23467,11.68518946 c 0.12907,6.426854 0.13159,11.652595 0.006,11.612758 -0.12599,-0.03983 -19.95807,-4.107237 -44.0713,-9.038667 z"
       id="path14766"
       transform="scale(0.26458333)" />
  </g>
</svg>
