<?xml version="1.0" encoding="UTF-8" standalone="no"?>
<!-- Created with Inkscape (http://www.inkscape.org/) -->

<svg
   width="200mm"
   height="200mm"
   viewBox="0 0 200 200"
   version="1.1"
   id="svg5"
   sodipodi:docname="svg_bedrock.svg"
   inkscape:version="1.1.1 (3bf5ae0d25, 2021-09-20)"
   xmlns:inkscape="http://www.inkscape.org/namespaces/inkscape"
   xmlns:sodipodi="http://sodipodi.sourceforge.net/DTD/sodipodi-0.dtd"
   xmlns="http://www.w3.org/2000/svg"
   xmlns:svg="http://www.w3.org/2000/svg">
  <sodipodi:namedview
     id="namedview7"
     pagecolor="#ffffff"
     bordercolor="#666666"
     borderopacity="1.0"
     inkscape:pageshadow="2"
     inkscape:pageopacity="0.0"
     inkscape:pagecheckerboard="0"
     inkscape:document-units="mm"
     showgrid="false"
     width="200mm"
     inkscape:snap-global="false"
     inkscape:zoom="0.70710678"
     inkscape:rotation="-2"
     inkscape:cx="483.89577"
     inkscape:cy="589.29609"
     inkscape:window-width="1920"
     inkscape:window-height="1057"
     inkscape:window-x="-8"
     inkscape:window-y="-8"
     inkscape:window-maximized="1"
     inkscape:current-layer="layer1" />
  <defs
     id="defs2" />
  <g
     inkscape:label="Layer 1"
     inkscape:groupmode="layer"
     id="layer1">
    <rect
       style="fill:#4f5050;stroke:#4f5050;stroke-width:0.665874;fill-opacity:1;stroke-opacity:1"
       id="rect864"
       width="199.33412"
       height="199.33412"
       x="0.332937"
       y="0.332937" />
    <path
       style="fill:#756e6e;fill-opacity:1;stroke:#756e6e;stroke-width:0.428024;stroke-opacity:1"
       d="m 155.19218,-18.392083 -3.64647,-5.726321 0.10115,-10.424536 -0.11917,-10.099687 3.76286,-6.28307 6.73613,-3.937288 41.19263,0.0831 42.34315,-0.124191 5.73074,3.650362 3.60159,5.39515 0.0169,10.820636 -0.0116,10.759573 -3.18882,5.711163 -5.15744,4.027228 -42.84441,-0.2381 -42.10267,0.145 z m 94.16683,-1.526543 3.16162,-3.613745 v -8.875969 c 0,-4.881782 -0.0504,-10.153962 -0.11201,-11.715954 l -0.112,-2.839987 -3.46695,-3.232798 -3.80093,-2.007375 -41.46228,-0.461274 -39.2062,-0.0141 -5.8145,2.853881 -3.43372,5.891792 -0.0675,4.283522 c -0.0574,3.614261 -0.14974,8.801669 -0.20528,11.527573 l -0.10099,4.956186 3.63444,3.42915 3.63443,3.42915 42.09512,0.002 42.09512,0.002 z"
       id="path11505"
       sodipodi:nodetypes="cccccccccccccccccccssccccccccscccccc" />
    <path
       style="fill:#807575;fill-opacity:1;stroke:#7c7575;stroke-width:0.30266;stroke-opacity:1"
       d="m 158.98772,-19.397308 c -1.80271,-1.700426 -3.81927,-3.63529 -3.80479,-3.649249 0.0145,-0.01397 2.23255,0.900179 4.25258,1.380974 l 3.67278,0.874173 20.77226,0.204729 c 11.42475,0.112601 28.00646,0.280326 36.84822,0.372721 8.84176,0.09239 17.79413,0.181906 19.89416,0.198914 l 3.1796,-0.650272 2.72056,-2.44159 1.40075,-3.037637 0.76243,-9.195565 0.18768,-10.557951 -0.90812,-2.957428 c -0.52187,-1.699543 -3.00341,-2.935487 -2.97021,-2.968689 0.0332,-0.0332 2.84983,1.132798 4.36753,2.547062 l 2.75946,2.571393 0.0743,0.602094 c 0.0409,0.331152 0.11026,5.570696 0.15417,11.643431 l 0.0798,11.041338 -3.11678,3.556994 -3.11678,3.556992 -41.96602,-2.6e-4 -41.96602,-2.7e-4 -3.27764,-3.091681 z"
       id="path11507"
       sodipodi:nodetypes="csscssscccccssscssccccccc" />
    <path
       style="fill:#8e8282;fill-opacity:1;stroke:#857575;stroke-width:0.428024;stroke-opacity:1"
       d="m 160.71016,-21.621583 c -1.32589,-0.326496 -3.1406,-0.827817 -4.03269,-1.114047 l -1.62199,-0.520417 0.17531,-10.284068 0.1753,-10.284067 1.67632,-2.868126 1.67633,-2.868128 2.85235,-1.414105 2.85235,-1.414103 21.72156,0.0254 c 11.94685,0.01397 28.58073,0.111644 36.96416,0.217046 8.38342,0.105399 16.63884,0.189553 18.34537,0.187007 l 3.10277,-0.0046 1.17203,0.954916 c 1.56063,1.271516 1.75576,1.568291 2.38084,3.620974 l 0.53451,1.755245 -0.16184,5.626629 c -0.089,3.094645 -0.30351,7.424155 -0.47667,9.621136 l -0.31482,3.99451 -0.67629,1.51356 c -0.59926,1.341143 -0.83146,1.656351 -2.03842,2.767063 l -1.36212,1.253503 -1.73243,0.316341 c -1.67852,0.306498 -2.87723,0.304053 -38.52102,-0.07853 -20.23372,-0.217176 -37.5742,-0.398155 -38.53439,-0.402176 -1.42276,-0.006 -2.19189,-0.117159 -4.15651,-0.600941 z"
       id="path11509" />
    <path
       style="fill:#756e6e;fill-opacity:1;stroke:#756e6e;stroke-width:0.353771;stroke-opacity:1"
       d="m -0.88367001,-36.721015 -3.01555719,-4.730293 0.083666,-8.611308 -0.098553,-8.342963 3.11181379,-5.190202 5.57065021,-3.252442 34.0655062,0.06865 35.016972,-0.102589 4.739205,3.015424 2.978452,4.456725 0.01395,8.938511 -0.0096,8.888069 -2.6371,4.717772 -4.265104,3.326742 -35.43149,-0.196687 -34.8181033,0.119781 z m 77.87415801,-1.261018 2.614594,-2.985176 v -7.332096 c 0,-4.032653 -0.04169,-8.387798 -0.09263,-9.678099 l -0.09261,-2.346004 -2.867111,-2.67049 -3.143296,-1.658215 -34.288502,-0.381041 -32.4227748,-0.01165 -4.8084744,2.357481 -2.83961993,4.866983 -0.055835,3.538452 c -0.04748,2.985602 -0.1238365,7.27072 -0.1697655,9.522485 l -0.083482,4.094114 3.0056108,2.832689 3.0056021,2.832688 34.8118487,0.0016 34.811858,0.0015 z"
       id="path11511"
       sodipodi:nodetypes="cccccccccccccccccccssccccccccscccccc" />
    <path
       style="fill:#7c7575;fill-opacity:1;stroke:#7c7575;stroke-width:0.250154;stroke-opacity:1"
       d="m 2.2551727,-37.551393 c -1.49081172,-1.404656 -3.15846897,-3.002973 -3.14649267,-3.014504 0.0120326,-0.01154 1.84627601,0.743603 3.51680747,1.14077 l 3.037314,0.72212 17.1782635,0.169119 c 9.448046,0.09301 23.160795,0.231567 30.472766,0.307891 7.311971,0.07632 14.715406,0.150265 16.45208,0.164315 l 2.629474,-0.537165 2.249845,-2.016903 1.158399,-2.509275 0.630514,-7.596103 0.155209,-8.721517 -0.750999,-2.443017 c -0.431581,-1.403927 -2.483761,-2.424893 -2.45631,-2.45232 0.02746,-0.02743 2.356756,0.935761 3.611861,2.10403 l 2.282026,2.124129 0.06143,0.497367 c 0.03377,0.273551 0.0912,4.601737 0.127499,9.61819 l 0.06603,9.120824 -2.577509,2.938296 -2.577519,2.938297 -34.705095,-2.19e-4 -34.705085,-2.18e-4 -2.7105496,-2.553922 z"
       id="path11513"
       sodipodi:nodetypes="csscssscccccssscssccccccc" />
    <path
       style="fill:#847d7d;fill-opacity:1;stroke:#7c7575;stroke-width:0.353771;stroke-opacity:1"
       d="m 3.6795927,-39.388781 c -1.09648,-0.269705 -2.597219,-0.683827 -3.33495622,-0.920271 l -1.34135168,-0.429896 0.14497828,-8.495273 0.14496798,-8.495272 1.38627964,-2.369249 1.3862892,-2.36925 2.3588495,-1.168137 2.3588321,-1.168136 17.9633155,0.02098 c 9.879821,0.01154 23.635706,0.09222 30.568647,0.179293 6.932931,0.08707 13.760009,0.156582 15.171269,0.154479 l 2.565929,-0.0038 0.969247,0.78882 c 1.29061,1.05035 1.451981,1.295504 1.968908,2.991147 l 0.442032,1.44994 -0.133837,4.647942 c -0.07365,2.556367 -0.250997,6.132809 -0.394202,7.94765 l -0.260346,3.299711 -0.559285,1.250294 c -0.495574,1.107866 -0.687601,1.368247 -1.685731,2.285764 l -1.126447,1.03547 -1.432686,0.261318 c -1.388107,0.253186 -2.379413,0.251166 -31.856135,-0.06487 -16.732897,-0.179401 -31.0731475,-0.328901 -31.8672001,-0.332222 -1.1766014,-0.005 -1.8126634,-0.09678 -3.4373672,-0.496414 z"
       id="path11515" />
    <path
       style="fill:#756e6e;fill-opacity:1;stroke:#756e6e;stroke-width:0.353771;stroke-opacity:1"
       d="m -0.88367001,-36.721015 -3.01555719,-4.730293 0.083666,-8.611308 -0.098553,-8.342963 3.11181379,-5.190202 5.57065021,-3.252442 34.0655062,0.06865 35.016972,-0.102589 4.739205,3.015424 2.978452,4.456725 0.01395,8.938511 -0.0096,8.888069 -2.6371,4.717772 -4.265104,3.326742 -35.43149,-0.196687 -34.8181033,0.119781 z m 77.87415801,-1.261018 2.614594,-2.985176 v -7.332096 c 0,-4.032653 -0.04169,-8.387798 -0.09263,-9.678099 l -0.09261,-2.346004 -2.867111,-2.67049 -3.143296,-1.658215 -34.288502,-0.381041 -32.4227748,-0.01165 -4.8084744,2.357481 -2.83961993,4.866983 -0.055835,3.538452 c -0.04748,2.985602 -0.1238365,7.27072 -0.1697655,9.522485 l -0.083482,4.094114 3.0056108,2.832689 3.0056021,2.832688 34.8118487,0.0016 34.811858,0.0015 z"
       id="path12012"
       sodipodi:nodetypes="cccccccccccccccccccssccccccccscccccc" />
    <path
       style="fill:#7c7575;fill-opacity:1;stroke:#7c7575;stroke-width:0.250154;stroke-opacity:1"
       d="m 2.2551727,-37.551393 c -1.49081172,-1.404656 -3.15846897,-3.002973 -3.14649267,-3.014504 0.0120326,-0.01154 1.84627601,0.743603 3.51680747,1.14077 l 3.037314,0.72212 17.1782635,0.169119 c 9.448046,0.09301 23.160795,0.231567 30.472766,0.307891 7.311971,0.07632 14.715406,0.150265 16.45208,0.164315 l 2.629474,-0.537165 2.249845,-2.016903 1.158399,-2.509275 0.630514,-7.596103 0.155209,-8.721517 -0.750999,-2.443017 c -0.431581,-1.403927 -2.483761,-2.424893 -2.45631,-2.45232 0.02746,-0.02743 2.356756,0.935761 3.611861,2.10403 l 2.282026,2.124129 0.06143,0.497367 c 0.03377,0.273551 0.0912,4.601737 0.127499,9.61819 l 0.06603,9.120824 -2.577509,2.938296 -2.577519,2.938297 -34.705095,-2.19e-4 -34.705085,-2.18e-4 -2.7105496,-2.553922 z"
       id="path12014"
       sodipodi:nodetypes="csscssscccccssscssccccccc" />
    <path
       style="fill:#847d7d;fill-opacity:1;stroke:#7c7575;stroke-width:0.353771;stroke-opacity:1"
       d="m 3.6795927,-39.388781 c -1.09648,-0.269705 -2.597219,-0.683827 -3.33495622,-0.920271 l -1.34135168,-0.429896 0.14497828,-8.495273 0.14496798,-8.495272 1.38627964,-2.369249 1.3862892,-2.36925 2.3588495,-1.168137 2.3588321,-1.168136 17.9633155,0.02098 c 9.879821,0.01154 23.635706,0.09222 30.568647,0.179293 6.932931,0.08707 13.760009,0.156582 15.171269,0.154479 l 2.565929,-0.0038 0.969247,0.78882 c 1.29061,1.05035 1.451981,1.295504 1.968908,2.991147 l 0.442032,1.44994 -0.133837,4.647942 c -0.07365,2.556367 -0.250997,6.132809 -0.394202,7.94765 l -0.260346,3.299711 -0.559285,1.250294 c -0.495574,1.107866 -0.687601,1.368247 -1.685731,2.285764 l -1.126447,1.03547 -1.432686,0.261318 c -1.388107,0.253186 -2.379413,0.251166 -31.856135,-0.06487 -16.732897,-0.179401 -31.0731475,-0.328901 -31.8672001,-0.332222 -1.1766014,-0.005 -1.8126634,-0.09678 -3.4373672,-0.496414 z"
       id="path12016" />
    <path
       style="fill:#756e6e;fill-opacity:1;stroke:#756e6e;stroke-width:0.353771;stroke-opacity:1"
       d="m -0.88367001,-36.721015 -3.01555719,-4.730293 0.083666,-8.611308 -0.098553,-8.342963 3.11181379,-5.190202 5.57065021,-3.252442 34.0655062,0.06865 35.016972,-0.102589 4.739205,3.015424 2.978452,4.456725 0.01395,8.938511 -0.0096,8.888069 -2.6371,4.717772 -4.265104,3.326742 -35.43149,-0.196687 -34.8181033,0.119781 z m 77.87415801,-1.261018 2.614594,-2.985176 v -7.332096 c 0,-4.032653 -0.04169,-8.387798 -0.09263,-9.678099 l -0.09261,-2.346004 -2.867111,-2.67049 -3.143296,-1.658215 -34.288502,-0.381041 -32.4227748,-0.01165 -4.8084744,2.357481 -2.83961993,4.866983 -0.055835,3.538452 c -0.04748,2.985602 -0.1238365,7.27072 -0.1697655,9.522485 l -0.083482,4.094114 3.0056108,2.832689 3.0056021,2.832688 34.8118487,0.0016 34.811858,0.0015 z"
       id="path12030"
       sodipodi:nodetypes="cccccccccccccccccccssccccccccscccccc" />
    <path
       style="fill:#7c7575;fill-opacity:1;stroke:#7c7575;stroke-width:0.250154;stroke-opacity:1"
       d="m 2.2551727,-37.551393 c -1.49081172,-1.404656 -3.15846897,-3.002973 -3.14649267,-3.014504 0.0120326,-0.01154 1.84627601,0.743603 3.51680747,1.14077 l 3.037314,0.72212 17.1782635,0.169119 c 9.448046,0.09301 23.160795,0.231567 30.472766,0.307891 7.311971,0.07632 14.715406,0.150265 16.45208,0.164315 l 2.629474,-0.537165 2.249845,-2.016903 1.158399,-2.509275 0.630514,-7.596103 0.155209,-8.721517 -0.750999,-2.443017 c -0.431581,-1.403927 -2.483761,-2.424893 -2.45631,-2.45232 0.02746,-0.02743 2.356756,0.935761 3.611861,2.10403 l 2.282026,2.124129 0.06143,0.497367 c 0.03377,0.273551 0.0912,4.601737 0.127499,9.61819 l 0.06603,9.120824 -2.577509,2.938296 -2.577519,2.938297 -34.705095,-2.19e-4 -34.705085,-2.18e-4 -2.7105496,-2.553922 z"
       id="path12032"
       sodipodi:nodetypes="csscssscccccssscssccccccc" />
    <path
       style="fill:#847d7d;fill-opacity:1;stroke:#7c7575;stroke-width:0.353771;stroke-opacity:1"
       d="m 3.6795927,-39.388781 c -1.09648,-0.269705 -2.597219,-0.683827 -3.33495622,-0.920271 l -1.34135168,-0.429896 0.14497828,-8.495273 0.14496798,-8.495272 1.38627964,-2.369249 1.3862892,-2.36925 2.3588495,-1.168137 2.3588321,-1.168136 17.9633155,0.02098 c 9.879821,0.01154 23.635706,0.09222 30.568647,0.179293 6.932931,0.08707 13.760009,0.156582 15.171269,0.154479 l 2.565929,-0.0038 0.969247,0.78882 c 1.29061,1.05035 1.451981,1.295504 1.968908,2.991147 l 0.442032,1.44994 -0.133837,4.647942 c -0.07365,2.556367 -0.250997,6.132809 -0.394202,7.94765 l -0.260346,3.299711 -0.559285,1.250294 c -0.495574,1.107866 -0.687601,1.368247 -1.685731,2.285764 l -1.126447,1.03547 -1.432686,0.261318 c -1.388107,0.253186 -2.379413,0.251166 -31.856135,-0.06487 -16.732897,-0.179401 -31.0731475,-0.328901 -31.8672001,-0.332222 -1.1766014,-0.005 -1.8126634,-0.09678 -3.4373672,-0.496414 z"
       id="path12034" />
    <path
       style="fill:#756e6e;fill-opacity:1;stroke:#756e6e;stroke-width:0.353771;stroke-opacity:1"
       d="m -0.88367001,-36.721015 -3.01555719,-4.730293 0.083666,-8.611308 -0.098553,-8.342963 3.11181379,-5.190202 5.57065021,-3.252442 34.0655062,0.06865 35.016972,-0.102589 4.739205,3.015424 2.978452,4.456725 0.01395,8.938511 -0.0096,8.888069 -2.6371,4.717772 -4.265104,3.326742 -35.43149,-0.196687 -34.8181033,0.119781 z m 77.87415801,-1.261018 2.614594,-2.985176 v -7.332096 c 0,-4.032653 -0.04169,-8.387798 -0.09263,-9.678099 l -0.09261,-2.346004 -2.867111,-2.67049 -3.143296,-1.658215 -34.288502,-0.381041 -32.4227748,-0.01165 -4.8084744,2.357481 -2.83961993,4.866983 -0.055835,3.538452 c -0.04748,2.985602 -0.1238365,7.27072 -0.1697655,9.522485 l -0.083482,4.094114 3.0056108,2.832689 3.0056021,2.832688 34.8118487,0.0016 34.811858,0.0015 z"
       id="path12036"
       sodipodi:nodetypes="cccccccccccccccccccssccccccccscccccc" />
    <path
       style="fill:#7c7575;fill-opacity:1;stroke:#7c7575;stroke-width:0.250154;stroke-opacity:1"
       d="m 2.2551727,-37.551393 c -1.49081172,-1.404656 -3.15846897,-3.002973 -3.14649267,-3.014504 0.0120326,-0.01154 1.84627601,0.743603 3.51680747,1.14077 l 3.037314,0.72212 17.1782635,0.169119 c 9.448046,0.09301 23.160795,0.231567 30.472766,0.307891 7.311971,0.07632 14.715406,0.150265 16.45208,0.164315 l 2.629474,-0.537165 2.249845,-2.016903 1.158399,-2.509275 0.630514,-7.596103 0.155209,-8.721517 -0.750999,-2.443017 c -0.431581,-1.403927 -2.483761,-2.424893 -2.45631,-2.45232 0.02746,-0.02743 2.356756,0.935761 3.611861,2.10403 l 2.282026,2.124129 0.06143,0.497367 c 0.03377,0.273551 0.0912,4.601737 0.127499,9.61819 l 0.06603,9.120824 -2.577509,2.938296 -2.577519,2.938297 -34.705095,-2.19e-4 -34.705085,-2.18e-4 -2.7105496,-2.553922 z"
       id="path12038"
       sodipodi:nodetypes="csscssscccccssscssccccccc" />
    <path
       style="fill:#847d7d;fill-opacity:1;stroke:#7c7575;stroke-width:0.353771;stroke-opacity:1"
       d="m 3.6795927,-39.388781 c -1.09648,-0.269705 -2.597219,-0.683827 -3.33495622,-0.920271 l -1.34135168,-0.429896 0.14497828,-8.495273 0.14496798,-8.495272 1.38627964,-2.369249 1.3862892,-2.36925 2.3588495,-1.168137 2.3588321,-1.168136 17.9633155,0.02098 c 9.879821,0.01154 23.635706,0.09222 30.568647,0.179293 6.932931,0.08707 13.760009,0.156582 15.171269,0.154479 l 2.565929,-0.0038 0.969247,0.78882 c 1.29061,1.05035 1.451981,1.295504 1.968908,2.991147 l 0.442032,1.44994 -0.133837,4.647942 c -0.07365,2.556367 -0.250997,6.132809 -0.394202,7.94765 l -0.260346,3.299711 -0.559285,1.250294 c -0.495574,1.107866 -0.687601,1.368247 -1.685731,2.285764 l -1.126447,1.03547 -1.432686,0.261318 c -1.388107,0.253186 -2.379413,0.251166 -31.856135,-0.06487 -16.732897,-0.179401 -31.0731475,-0.328901 -31.8672001,-0.332222 -1.1766014,-0.005 -1.8126634,-0.09678 -3.4373672,-0.496414 z"
       id="path12040" />
    <path
       style="fill:#464646;fill-opacity:1;stroke:#464646;stroke-width:0.397355;stroke-opacity:1"
       d="m 32.556315,162.4812 3.80435,4.73029 -0.10555,8.61131 0.12433,8.34296 -3.92578,5.1902 -7.0278,3.25244 -42.97619,-0.0686 -44.176555,0.10259 -5.97887,-3.01542 -3.75753,-4.45673 -0.0176,-8.93851 0.012,-8.88807 3.3269,-4.71777 5.38075,-3.32674 44.699495,0.19669 43.92565,-0.11978 z m -98.244105,1.26101 -3.29851,2.98518 v 7.3321 c 0,4.03265 0.0526,8.38779 0.11686,9.6781 l 0.11684,2.346 3.61708,2.67049 3.9655,1.65821 43.257525,0.38105 40.90377,0.0117 6.06625,-2.35749 3.5824,-4.86698 0.0704,-3.53845 c 0.0599,-2.9856 0.15623,-7.27072 0.21417,-9.52249 l 0.10532,-4.09411 -3.79181,-2.83269 -3.79179,-2.83269 -43.91776,-0.002 -43.917785,-0.002 z"
       id="path12060"
       sodipodi:nodetypes="cccccccccccccccccccssccccccccscccccc" />
    <path
       style="fill:#4b4b4b;fill-opacity:1;stroke:#4b4b4b;stroke-width:0.280973;stroke-opacity:1"
       d="m 28.596425,163.31157 c 1.88078,1.40466 3.98465,3.00298 3.96954,3.01451 -0.0152,0.0115 -2.32921,-0.7436 -4.43672,-1.14077 l -3.8318,-0.72212 -21.6716698,-0.16912 c -11.91942,-0.093 -29.2190802,-0.23157 -38.4436802,-0.30789 -9.2246,-0.0763 -18.564595,-0.15027 -20.755545,-0.16432 l -3.31728,0.53717 -2.83834,2.0169 -1.46141,2.50928 -0.79544,7.5961 -0.19581,8.72152 0.94744,2.44301 c 0.54447,1.40393 3.13345,2.4249 3.09882,2.45232 -0.0346,0.0274 -2.97322,-0.93576 -4.55663,-2.10403 l -2.87895,-2.12413 -0.0775,-0.49736 c -0.0426,-0.27355 -0.11505,-4.60174 -0.16085,-9.61819 l -0.0833,-9.12083 3.25172,-2.93829 3.25173,-2.9383 43.783095,2.2e-4 43.78307,2.2e-4 3.41957,2.55392 z"
       id="path12062"
       sodipodi:nodetypes="csscssscccccssscssccccccc" />
    <path
       style="fill:#4f4f4f;fill-opacity:1;stroke:#4f5050;stroke-width:0.397355;stroke-opacity:1"
       d="m 26.799415,165.14896 c 1.38329,0.26971 3.27659,0.68383 4.2073,0.92027 l 1.69222,0.4299 -0.18291,8.49527 -0.18288,8.49527 -1.7489,2.36925 -1.74891,2.36925 -2.97586,1.16814 -2.97585,1.16814 -22.66206984,-0.021 c -12.46414016,-0.0115 -29.81822016,-0.0922 -38.56465016,-0.1793 -8.74641,-0.0871 -17.359285,-0.15658 -19.139695,-0.15448 l -3.23712,0.004 -1.22277,-0.78882 c -1.6282,-1.05035 -1.83179,-1.2955 -2.48393,-2.99114 l -0.55766,-1.44994 0.16885,-4.64794 c 0.0929,-2.55637 0.31665,-6.13281 0.49732,-7.94765 l 0.32844,-3.29972 0.70558,-1.25029 c 0.62521,-1.10787 0.86746,-1.36825 2.12668,-2.28576 l 1.4211,-1.03547 1.80744,-0.26132 c 1.7512,-0.25319 3.00181,-0.25117 40.188915,0.0649 21.1098002,0.1794 39.20111,0.3289 40.20286,0.33222 1.48438,0.005 2.28682,0.0968 4.3365,0.49641 z"
       id="path12064" />
    <path
       style="fill:#464646;fill-opacity:1;stroke:#464646;stroke-width:0.397355;stroke-opacity:1"
       d="m 232.55654,162.4812 3.80435,4.73029 -0.10555,8.61131 0.12433,8.34296 -3.92578,5.1902 -7.0278,3.25244 -42.97619,-0.0686 -44.17654,0.10259 -5.97887,-3.01542 -3.75753,-4.45673 -0.0176,-8.93851 0.012,-8.88807 3.3269,-4.71777 5.38075,-3.32674 44.69948,0.19669 43.92565,-0.11978 z m -98.24409,1.26101 -3.29851,2.98518 v 7.3321 c 0,4.03265 0.0526,8.38779 0.11686,9.6781 l 0.11684,2.346 3.61708,2.67049 3.9655,1.65821 43.25751,0.38105 40.90377,0.0117 6.06625,-2.35749 3.5824,-4.86698 0.0704,-3.53845 c 0.0599,-2.9856 0.15623,-7.27072 0.21417,-9.52249 l 0.10532,-4.09411 -3.79181,-2.83269 -3.79179,-2.83269 -43.91776,-0.002 -43.91777,-0.002 z"
       id="path12084"
       sodipodi:nodetypes="cccccccccccccccccccssccccccccscccccc" />
    <path
       style="fill:#4b4b4b;fill-opacity:1;stroke:#4b4b4b;stroke-width:0.280973;stroke-opacity:1"
       d="m 228.59665,163.31157 c 1.88078,1.40466 3.98465,3.00298 3.96954,3.01451 -0.0152,0.0115 -2.32921,-0.7436 -4.43672,-1.14077 l -3.8318,-0.72212 -21.67167,-0.16912 c -11.91942,-0.093 -29.21908,-0.23157 -38.44368,-0.30789 -9.2246,-0.0763 -18.56458,-0.15027 -20.75553,-0.16432 l -3.31728,0.53717 -2.83834,2.0169 -1.46141,2.50928 -0.79544,7.5961 -0.19581,8.72152 0.94744,2.44301 c 0.54447,1.40393 3.13345,2.4249 3.09882,2.45232 -0.0346,0.0274 -2.97322,-0.93576 -4.55663,-2.10403 l -2.87895,-2.12413 -0.0775,-0.49736 c -0.0426,-0.27355 -0.11505,-4.60174 -0.16085,-9.61819 l -0.0833,-9.12083 3.25172,-2.93829 3.25173,-2.9383 43.78308,2.2e-4 43.78307,2.2e-4 3.41957,2.55392 z"
       id="path12086"
       sodipodi:nodetypes="csscssscccccssscssccccccc" />
    <path
       style="fill:#4f5050;fill-opacity:1;stroke:#4f5050;stroke-width:0.397355;stroke-opacity:1"
       d="m 226.79964,165.14896 c 1.38329,0.26971 3.27659,0.68383 4.2073,0.92027 l 1.69222,0.4299 -0.18291,8.49527 -0.18288,8.49527 -1.7489,2.36925 -1.74891,2.36925 -2.97586,1.16814 -2.97585,1.16814 -22.66207,-0.021 c -12.46414,-0.0115 -29.81822,-0.0922 -38.56465,-0.1793 -8.74641,-0.0871 -17.35927,-0.15658 -19.13968,-0.15448 l -3.23712,0.004 -1.22277,-0.78882 c -1.6282,-1.05035 -1.83179,-1.2955 -2.48393,-2.99114 l -0.55766,-1.44994 0.16885,-4.64794 c 0.0929,-2.55637 0.31665,-6.13281 0.49732,-7.94765 l 0.32844,-3.29972 0.70558,-1.25029 c 0.62521,-1.10787 0.86746,-1.36825 2.12668,-2.28576 l 1.4211,-1.03547 1.80744,-0.26132 c 1.7512,-0.25319 3.00181,-0.25117 40.1889,0.0649 21.1098,0.1794 39.20111,0.3289 40.20286,0.33222 1.48438,0.005 2.28682,0.0968 4.3365,0.49641 z"
       id="path12088" />
    <path
       style="fill:#464646;fill-opacity:1;stroke:#464646;stroke-width:0.353771;stroke-opacity:1"
       d="m 120.80334,160.31173 3.19153,4.6134 0.24063,8.60835 0.41261,8.33333 -2.91418,5.30369 -5.44423,3.45989 -34.043935,1.21406 -34.98828,1.421 -4.84938,-2.83484 -3.14415,-4.34142 -0.35045,-8.93165 -0.32466,-8.88214 2.45759,-4.81372 4.13681,-3.48498 35.41377,-1.13754 34.788905,-1.4307 z m -77.771465,4.1923 -2.50033,3.0815 0.27607,7.3269 c 0.15184,4.02979 0.3575,8.38028 0.45694,9.66775 l 0.18087,2.34085 2.96563,2.56065 3.20351,1.53868 34.27853,-0.91028 32.400225,-1.20917 4.7163,-2.53686 2.65435,-4.97045 -0.0774,-3.53804 c -0.065,-2.98528 -0.15001,-7.27023 -0.1889,-9.52213 l -0.0707,-4.09435 -3.11014,-2.71751 -3.11013,-2.71751 -34.787225,1.30916 -34.78723,1.30926 z"
       id="path12588"
       sodipodi:nodetypes="cccccccccccccccccccssccccccccscccccc" />
    <path
       style="fill:#4b4b4b;fill-opacity:1;stroke:#4b4b4b;stroke-width:0.250154;stroke-opacity:1"
       d="m 117.69799,161.25971 c 1.54265,1.34752 3.2693,2.88192 3.25777,2.89389 -0.0116,0.012 -1.87297,-0.67356 -3.55727,-1.00754 l -3.06235,-0.60725 -17.172445,0.47781 c -9.44486,0.2628 -23.1531,0.64066 -30.46276,0.83971 -7.30966,0.19905 -14.71063,0.40392 -16.4466,0.45527 l -2.60738,0.63579 -2.17231,2.10018 -1.0631,2.55112 -0.34405,7.61445 0.17329,8.72118 0.84245,2.41301 c 0.48414,1.38668 2.57331,2.32965 2.54691,2.35809 -0.0265,0.0285 -2.39032,-0.84636 -3.68852,-1.96654 l -2.36039,-2.0367 -0.0801,-0.4947 c -0.0441,-0.27209 -0.2644,-4.59504 -0.48956,-9.60657 l -0.40937,-9.11187 2.46504,-3.03326 2.46506,-3.03327 34.6805,-1.30652 34.680485,-1.30652 2.80479,2.45005 z"
       id="path12590"
       sodipodi:nodetypes="csscssscccccssscssccccccc" />
    <path
       style="fill:#4f5050;fill-opacity:1;stroke:#4f5050;stroke-width:0.353771;stroke-opacity:1"
       d="m 116.34377,163.14943 c 1.10585,0.22822 2.62112,0.58555 3.36724,0.79404 l 1.35658,0.37909 0.175,8.49471 0.175,8.4947 -1.29608,2.41977 -1.2961,2.41977 -2.3132,1.25612 -2.31317,1.25613 -17.951375,0.6554 c -9.87325,0.36047 -23.62241,0.79779 -30.55372,0.97183 -6.93129,0.17403 -13.75615,0.36163 -15.16633,0.41687 l -2.56396,0.10041 -0.99827,-0.75177 c -1.32924,-1.00101 -1.49973,-1.23991 -2.08014,-2.91489 l -0.49631,-1.43227 -0.0413,-4.64968 c -0.0226,-2.55733 0.0199,-6.13791 0.0947,-7.95686 l 0.13592,-3.30717 0.51181,-1.27047 c 0.45351,-1.12574 0.63559,-1.39317 1.59847,-2.34762 l 1.08666,-1.07715 1.42184,-0.31507 c 1.37758,-0.30528 2.36826,-0.34058 31.83598,-1.13465 16.72779,-0.45076 31.063505,-0.84132 31.857125,-0.8679 1.17595,-0.0393 1.81502,0.0285 3.45361,0.36664 z"
       id="path12592" />
    <path
       style="fill:#464646;fill-opacity:1;stroke:#464646;stroke-width:0.455815;stroke-opacity:1"
       d="m 105.84869,111.84305 3.64596,6.49496 -0.10113,11.82382 0.11915,11.45536 -3.76234,7.12645 -6.735195,4.46579 -41.18689,-0.0943 -42.33725,0.14086 -5.7299398,-4.14035 -3.60109,-6.11934 -0.0169,-12.27309 0.0116,-12.20382 3.18837,-6.47778 5.1567198,-4.5678 42.83844,0.27006 42.0968,-0.16446 z m -94.153715,1.73145 -3.1611798,4.09881 v 10.06739 c 0,5.53706 0.0504,11.51693 0.112,13.28859 l 0.11198,3.22119 3.4664698,3.66674 3.8004,2.27682 41.4565,0.5232 39.20073,0.016 5.813705,-3.23696 3.43324,-6.68265 0.0675,-4.8585 c 0.0574,-4.0994 0.14972,-9.98311 0.20525,-13.07491 l 0.10098,-5.62146 -3.63394,-3.88944 -3.633935,-3.88944 -42.08925,-0.002 -42.08925,-0.002 z"
       id="path12594"
       sodipodi:nodetypes="cccccccccccccccccccssccccccccscccccc" />
    <path
       style="fill:#4b4b4b;fill-opacity:1;stroke:#4b4b4b;stroke-width:0.322311;stroke-opacity:1"
       d="m 102.05368,112.9832 c 1.80246,1.92868 3.81874,4.12326 3.80426,4.13909 -0.0145,0.0158 -2.23224,-1.02101 -4.25199,-1.56634 l -3.672275,-0.99152 -20.76937,-0.23221 c -11.42315,-0.12771 -28.00255,-0.31795 -36.84308,-0.42275 -8.84053,-0.10479 -17.79165,-0.20632 -19.89139,-0.22561 l -3.17915,0.73756 -2.72018,2.76932 -1.40056,3.44538 -0.76232,10.42988 -0.18765,11.97515 0.90799,3.3544 c 0.5218,1.92767 3.00299,3.32952 2.96979,3.36717 -0.0332,0.0377 -2.84943,-1.28485 -4.36692,-2.88895 l -2.7590698,-2.91655 -0.0743,-0.68291 c -0.0409,-0.37561 -0.11025,-6.31845 -0.15415,-13.20633 l -0.0798,-12.52341 3.1163498,-4.03445 3.11634,-4.03445 41.96017,3e-4 41.96017,3e-4 3.277195,3.50668 z"
       id="path12596"
       sodipodi:nodetypes="csscssscccccssscssccccccc" />
    <path
       style="fill:#4f5050;fill-opacity:1;stroke:#4f5050;stroke-width:0.455815;stroke-opacity:1"
       d="m 100.33147,115.50604 c 1.32572,0.37032 3.14017,0.93894 4.03214,1.26359 l 1.62176,0.59027 -0.17528,11.66449 -0.17528,11.6645 -1.67609,3.25311 -1.67609,3.25312 -2.851965,1.60392 -2.85195,1.60392 -21.71853,-0.0288 c -11.94519,-0.0158 -28.57675,-0.12663 -36.95901,-0.24618 -8.38225,-0.11955 -16.63652,-0.215 -18.34281,-0.21211 l -3.10234,0.005 -1.17187,-1.08309 c -1.56041,-1.4422 -1.75551,-1.77881 -2.38051,-4.10702 l -0.53443,-1.99085 0.16182,-6.38189 c 0.089,-3.51004 0.30346,-8.4207 0.4766,-10.91258 l 0.31478,-4.53069 0.67619,-1.71673 c 0.59918,-1.52116 0.83135,-1.87868 2.03814,-3.13848 l 1.36193,-1.42177 1.73219,-0.3588 c 1.67828,-0.34764 2.87682,-0.34486 38.51565,0.0891 20.23089,0.24633 37.56896,0.4516 38.52901,0.45616 1.42256,0.007 2.19159,0.13289 4.155935,0.68161 z"
       id="path12598" />
    <path
       style="fill:#464646;fill-opacity:1;stroke:#464646;stroke-width:0.376741;stroke-opacity:1"
       d="m 193.86999,115.3024 3.01513,5.36523 -0.0837,9.76721 0.0985,9.46283 -3.11138,5.88689 -5.56988,3.68901 -34.06075,-0.0779 -35.01208,0.11636 -4.73855,-3.42018 -2.97803,-5.05495 -0.014,-10.13833 0.01,-10.08111 2.63673,-5.35104 4.26451,-3.77329 35.42654,0.22309 34.81325,-0.13586 z m -77.8633,1.43028 -2.61422,3.38588 v 8.31628 c 0,4.57395 0.0417,9.51369 0.0926,10.97719 l 0.0926,2.6609 2.86671,3.02895 3.14285,1.8808 34.28372,0.43219 32.41825,0.0132 4.8078,-2.67393 2.83923,-5.52027 0.0558,-4.01342 c 0.0475,-3.38636 0.12381,-8.24667 0.16973,-10.80069 l 0.0835,-4.64366 -3.00519,-3.21292 -3.00518,-3.21292 -34.807,-0.002 -34.80699,-0.002 z"
       id="path12618"
       sodipodi:nodetypes="cccccccccccccccccccssccccccccscccccc" />
    <path
       style="fill:#4b4b4b;fill-opacity:1;stroke:#4b4b4b;stroke-width:0.266396;stroke-opacity:1"
       d="m 190.73158,116.24423 c 1.4906,1.59321 3.15803,3.40607 3.14605,3.41915 -0.012,0.0131 -1.84601,-0.84342 -3.51631,-1.2939 l -3.03689,-0.81905 -17.17587,-0.19182 c -9.44673,-0.10549 -23.15756,-0.26265 -30.46851,-0.34922 -7.31095,-0.0866 -14.71335,-0.17043 -16.44979,-0.18637 l -2.6291,0.60927 -2.24953,2.28763 -1.15824,2.84609 -0.63043,8.61573 -0.15519,9.89221 0.7509,2.77094 c 0.43152,1.59237 2.48341,2.75038 2.45597,2.78149 -0.0275,0.0311 -2.35643,-1.06137 -3.61136,-2.38645 l -2.28171,-2.40925 -0.0614,-0.56413 c -0.0338,-0.31027 -0.0912,-5.21943 -0.12748,-10.90924 l -0.066,-10.34511 2.57715,-3.3327 2.57716,-3.33271 34.70025,2.5e-4 34.70024,2.5e-4 2.71017,2.89674 z"
       id="path12620"
       sodipodi:nodetypes="csscssscccccssscssccccccc" />
    <path
       style="fill:#4f5050;fill-opacity:1;stroke:#4f5050;stroke-width:0.376741;stroke-opacity:1"
       d="m 189.30736,118.32826 c 1.09633,0.3059 2.59686,0.77561 3.33449,1.04379 l 1.34116,0.4876 -0.14495,9.6356 -0.14495,9.63559 -1.38609,2.68727 -1.38609,2.68727 -2.35852,1.32494 -2.35851,1.32493 -17.96081,-0.0238 c -9.87844,-0.0131 -23.6324,-0.10459 -30.56437,-0.20336 -6.93197,-0.0988 -13.75809,-0.1776 -15.16916,-0.17521 l -2.56557,0.004 -0.96911,-0.8947 c -1.29043,-1.19134 -1.45178,-1.4694 -1.96863,-3.39265 l -0.44197,-1.64457 0.13381,-5.27183 c 0.0736,-2.89951 0.25097,-6.95602 0.39415,-9.01446 l 0.26031,-3.74263 0.55921,-1.41812 c 0.4955,-1.25658 0.6875,-1.55191 1.68549,-2.59258 l 1.12629,-1.17447 1.43249,-0.29639 c 1.38791,-0.28717 2.37908,-0.28488 31.85168,0.0736 16.73057,0.20348 31.06882,0.37305 31.86276,0.37682 1.17644,0.006 1.81241,0.10977 3.43689,0.56304 z"
       id="path12622" />
    <path
       style="fill:#75756e;fill-opacity:1;stroke:#756e6e;stroke-width:0.428024;stroke-opacity:1"
       d="m -167.5947,-45.781658 -3.64647,-5.726321 0.10115,-10.424536 -0.11917,-10.099687 3.76286,-6.28307 6.73613,-3.937288 41.19263,0.0831 42.343147,-0.124191 5.73074,3.650362 3.60159,5.39515 0.0169,10.820636 -0.0116,10.759573 -3.18882,5.711163 -5.15744,4.027228 -42.844407,-0.2381 -42.10267,0.145 z m 94.166827,-1.526543 3.16162,-3.613745 v -8.875969 c 0,-4.881782 -0.0504,-10.153962 -0.11201,-11.715954 l -0.112,-2.839987 -3.46695,-3.232798 -3.80093,-2.007375 -41.462277,-0.461274 -39.2062,-0.0141 -5.8145,2.853881 -3.43372,5.891792 -0.0675,4.283522 c -0.0574,3.614261 -0.14974,8.801669 -0.20528,11.527573 l -0.10099,4.956186 3.63444,3.42915 3.63443,3.42915 42.09512,0.002 42.095117,0.002 z"
       id="path12624"
       sodipodi:nodetypes="cccccccccccccccccccssccccccccscccccc" />
    <path
       style="fill:#807e75;fill-opacity:1;stroke:#807e75;stroke-width:0.30266;stroke-opacity:1"
       d="m -163.79916,-46.786883 c -1.80271,-1.700426 -3.81927,-3.63529 -3.80479,-3.649249 0.0145,-0.01397 2.23255,0.900179 4.25258,1.380974 l 3.67278,0.874173 20.77226,0.204729 c 11.42475,0.112601 28.00646,0.280326 36.84822,0.372721 8.841757,0.09239 17.794127,0.181906 19.894157,0.198914 l 3.1796,-0.650272 2.72056,-2.44159 1.40075,-3.037637 0.76243,-9.195565 0.18768,-10.557951 -0.90812,-2.957428 c -0.52187,-1.699543 -3.00341,-2.935487 -2.97021,-2.968689 0.0332,-0.0332 2.84983,1.132798 4.36753,2.547062 l 2.75946,2.571393 0.0743,0.602094 c 0.0409,0.331152 0.11026,5.570696 0.15417,11.643431 l 0.0798,11.041338 -3.11678,3.556994 -3.11678,3.556992 -41.966017,-2.6e-4 -41.96602,-2.7e-4 -3.27764,-3.091681 z"
       id="path12626"
       sodipodi:nodetypes="csscssscccccssscssccccccc" />
    <path
       style="fill:#8e8b82;fill-opacity:1;stroke:#8e8b82;stroke-width:0.428024;stroke-opacity:1"
       d="m -162.07672,-49.011158 c -1.32589,-0.326496 -3.1406,-0.827817 -4.03269,-1.114047 l -1.62199,-0.520417 0.17531,-10.284068 0.1753,-10.284067 1.67632,-2.868126 1.67633,-2.868128 2.85235,-1.414105 2.85235,-1.414103 21.72156,0.0254 c 11.94685,0.01397 28.58073,0.111644 36.964157,0.217046 8.38342,0.105399 16.63884,0.189553 18.34537,0.187007 l 3.10277,-0.0046 1.17203,0.954916 c 1.56063,1.271516 1.75576,1.568291 2.38084,3.620974 l 0.53451,1.755245 -0.16184,5.626629 c -0.089,3.094645 -0.30351,7.424155 -0.47667,9.621136 l -0.31482,3.99451 -0.67629,1.51356 c -0.59926,1.341143 -0.83146,1.656351 -2.03842,2.767063 l -1.36212,1.253503 -1.73243,0.316341 c -1.67852,0.306498 -2.87723,0.304053 -38.521017,-0.07853 -20.23372,-0.217176 -37.5742,-0.398155 -38.53439,-0.402176 -1.42276,-0.006 -2.19189,-0.117159 -4.15651,-0.600941 z"
       id="path12628" />
    <path
       style="fill:#75756e;fill-opacity:1;stroke:#756e6e;stroke-width:0.428024;stroke-opacity:1"
       d="m -167.5947,-45.781658 -3.64647,-5.726321 0.10115,-10.424536 -0.11917,-10.099687 3.76286,-6.28307 6.73613,-3.937288 41.19263,0.0831 42.343147,-0.124191 5.73074,3.650362 3.60159,5.39515 0.0169,10.820636 -0.0116,10.759573 -3.18882,5.711163 -5.15744,4.027228 -42.844407,-0.2381 -42.10267,0.145 z m 94.166827,-1.526543 3.16162,-3.613745 v -8.875969 c 0,-4.881782 -0.0504,-10.153962 -0.11201,-11.715954 l -0.112,-2.839987 -3.46695,-3.232798 -3.80093,-2.007375 -41.462277,-0.461274 -39.2062,-0.0141 -5.8145,2.853881 -3.43372,5.891792 -0.0675,4.283522 c -0.0574,3.614261 -0.14974,8.801669 -0.20528,11.527573 l -0.10099,4.956186 3.63444,3.42915 3.63443,3.42915 42.09512,0.002 42.095117,0.002 z"
       id="path13584"
       sodipodi:nodetypes="cccccccccccccccccccssccccccccscccccc" />
    <path
       style="fill:#807e75;fill-opacity:1;stroke:#807e75;stroke-width:0.30266;stroke-opacity:1"
       d="m -163.79916,-46.786883 c -1.80271,-1.700426 -3.81927,-3.63529 -3.80479,-3.649249 0.0145,-0.01397 2.23255,0.900179 4.25258,1.380974 l 3.67278,0.874173 20.77226,0.204729 c 11.42475,0.112601 28.00646,0.280326 36.84822,0.372721 8.841757,0.09239 17.794127,0.181906 19.894157,0.198914 l 3.1796,-0.650272 2.72056,-2.44159 1.40075,-3.037637 0.76243,-9.195565 0.18768,-10.557951 -0.90812,-2.957428 c -0.52187,-1.699543 -3.00341,-2.935487 -2.97021,-2.968689 0.0332,-0.0332 2.84983,1.132798 4.36753,2.547062 l 2.75946,2.571393 0.0743,0.602094 c 0.0409,0.331152 0.11026,5.570696 0.15417,11.643431 l 0.0798,11.041338 -3.11678,3.556994 -3.11678,3.556992 -41.966017,-2.6e-4 -41.96602,-2.7e-4 -3.27764,-3.091681 z"
       id="path13586"
       sodipodi:nodetypes="csscssscccccssscssccccccc" />
    <path
       style="fill:#8e8b82;fill-opacity:1;stroke:#8e8b82;stroke-width:0.428024;stroke-opacity:1"
       d="m -162.07672,-49.011158 c -1.32589,-0.326496 -3.1406,-0.827817 -4.03269,-1.114047 l -1.62199,-0.520417 0.17531,-10.284068 0.1753,-10.284067 1.67632,-2.868126 1.67633,-2.868128 2.85235,-1.414105 2.85235,-1.414103 21.72156,0.0254 c 11.94685,0.01397 28.58073,0.111644 36.964157,0.217046 8.38342,0.105399 16.63884,0.189553 18.34537,0.187007 l 3.10277,-0.0046 1.17203,0.954916 c 1.56063,1.271516 1.75576,1.568291 2.38084,3.620974 l 0.53451,1.755245 -0.16184,5.626629 c -0.089,3.094645 -0.30351,7.424155 -0.47667,9.621136 l -0.31482,3.99451 -0.67629,1.51356 c -0.59926,1.341143 -0.83146,1.656351 -2.03842,2.767063 l -1.36212,1.253503 -1.73243,0.316341 c -1.67852,0.306498 -2.87723,0.304053 -38.521017,-0.07853 -20.23372,-0.217176 -37.5742,-0.398155 -38.53439,-0.402176 -1.42276,-0.006 -2.19189,-0.117159 -4.15651,-0.600941 z"
       id="path13588" />
    <path
       style="fill:#464646;fill-opacity:1;stroke:#464646;stroke-width:0.452285;stroke-opacity:1"
       d="m 192.5662,12.428407 3.64603,6.39466 -0.10114,11.64121 0.11916,11.27846 -3.76241,7.01638 -6.73531,4.39681 -41.18764,-0.0928 -42.33802,0.13869 -5.730045,-4.07641 -3.60115,-6.02483 -0.0169,-12.08354 0.0116,-12.01536 3.18843,-6.37772 5.156815,-4.4972604 42.83922,0.26589 42.09757,-0.16193 z m -94.155415,1.70471 -3.16124,4.03552 v 9.91191 c 0,5.45154 0.0504,11.33905 0.112,13.08335 l 0.11198,3.17145 3.46653,3.61011 3.800475,2.24166 41.45726,0.51511 39.20144,0.0157 5.8138,-3.18697 3.4333,-6.57944 0.0675,-4.78346 c 0.0574,-4.0361 0.14973,-9.82894 0.20526,-12.87299 l 0.10098,-5.53464 -3.634,-3.82938 -3.63399,-3.82937 -42.09002,-0.002 -42.09002,-0.002 z"
       id="path13596"
       sodipodi:nodetypes="cccccccccccccccccccssccccccccscccccc" />
    <path
       style="fill:#4b4b4b;fill-opacity:1;stroke:#4b4b4b;stroke-width:0.319815;stroke-opacity:1"
       d="m 188.77112,13.550957 c 1.80249,1.89888 3.81881,4.05958 3.80433,4.07517 -0.0145,0.0156 -2.23228,-1.00524 -4.25206,-1.54216 l -3.67234,-0.9762 -20.76975,-0.22862 c -11.42336,-0.12574 -28.00306,-0.31305 -36.84375,-0.41622 -8.84068,-0.10319 -17.79197,-0.20314 -19.89174,-0.22214 l -3.17922,0.72618 -2.72023,2.72655 -1.400585,3.39216 -0.76233,10.26881 -0.18766,11.7902 0.90801,3.3026 c 0.521815,1.8979 3.003045,3.27809 2.969845,3.31517 -0.0332,0.0371 -2.849485,-1.26501 -4.366995,-2.84434 l -2.75913,-2.87151 -0.0743,-0.67236 c -0.0409,-0.3698 -0.11025,-6.22087 -0.15415,-13.00236 l -0.0798,-12.33001 3.1164,-3.97215 3.116405,-3.97213 41.96094,2.9e-4 41.96093,3e-4 3.27724,3.45252 z"
       id="path13598"
       sodipodi:nodetypes="csscssscccccssscssccccccc" />
    <path
       style="fill:#4f5050;fill-opacity:1;stroke:#4f5050;stroke-width:0.452285;stroke-opacity:1"
       d="m 187.04889,16.034827 c 1.32573,0.36461 3.14022,0.92444 4.0322,1.24408 l 1.6218,0.58116 -0.17529,11.48434 -0.17528,11.48435 -1.67612,3.20288 -1.67613,3.20287 -2.852,1.57915 -2.85201,1.57914 -21.71893,-0.0284 c -11.94539,-0.0156 -28.57726,-0.12467 -36.95967,-0.24237 -8.38241,-0.1177 -16.63683,-0.21169 -18.34315,-0.20884 l -3.10239,0.006 -1.17189,-1.06637 c -1.56044,-1.41991 -1.75554,-1.75133 -2.380555,-4.04358 l -0.53444,-1.96011 0.16182,-6.28332 c 0.089,-3.45583 0.30347,-8.29065 0.47661,-10.74405 l 0.314785,-4.46072 0.6762,-1.69021 c 0.59919,-1.49767 0.83136,-1.84967 2.03818,-3.09001 l 1.36195,-1.39981 1.73222,-0.35326 c 1.67832,-0.34228 2.87688,-0.33954 38.51636,0.0877 20.23126,0.24253 37.56964,0.44463 38.52971,0.44912 1.42259,0.007 2.19163,0.13083 4.15601,0.67108 z"
       id="path13600" />
    <path
       style="fill:#464646;fill-opacity:1;stroke:#464646;stroke-width:0.373824;stroke-opacity:1"
       d="m 86.766675,14.449847 3.01519,5.28238 -0.0837,9.61636 0.0986,9.31669 -3.11144,5.79596 -5.56998,3.63205 -34.06138,-0.0766 -35.01273,0.11456 -4.7386398,-3.36736 -2.97809,-4.97688 -0.0139,-9.98176 0.01,-9.92541 2.63678,-5.2684 4.2645898,-3.71502 35.4272,0.21965 34.8139,-0.13376 z m -77.8647298,1.4082 -2.61428,3.33358 v 8.18784 c 0,4.50332 0.0417,9.36677 0.0926,10.80766 l 0.0926,2.61981 2.86677,2.98217 3.1429198,1.85176 34.28435,0.42551 32.41885,0.0131 4.80789,-2.63262 2.83928,-5.43503 0.0558,-3.95144 c 0.0475,-3.33405 0.12382,-8.1193 0.16974,-10.63387 l 0.0835,-4.57196 -3.00525,-3.1633 -3.00523,-3.1633 -34.80764,-0.002 -34.80765,-10e-4 z"
       id="path13620"
       sodipodi:nodetypes="cccccccccccccccccccssccccccccscccccc" />
    <path
       style="fill:#4b4b4b;fill-opacity:1;stroke:#4b4b4b;stroke-width:0.264333;stroke-opacity:1"
       d="m 83.628215,15.377147 c 1.49063,1.56859 3.15808,3.35345 3.14611,3.36633 -0.012,0.0128 -1.84605,-0.83039 -3.51638,-1.27392 l -3.03695,-0.8064 -17.17618,-0.18885 c -9.44691,-0.10386 -23.158,-0.2586 -30.46909,-0.34383 -7.31108,-0.0852 -14.71362,-0.16781 -16.45009,-0.1835 l -2.62915,0.59987 -2.24957,2.2523 -1.15825,2.80214 -0.6304498,8.48266 -0.15519,9.73944 0.7509098,2.72814 c 0.43153,1.56778 2.48346,2.70791 2.45601,2.73853 -0.0275,0.0306 -2.35646,-1.04497 -3.6114198,-2.34959 l -2.28175,-2.37204 -0.0614,-0.55542 c -0.0338,-0.30547 -0.0912,-5.13882 -0.12747,-10.74075 l -0.066,-10.18535 2.57718,-3.28123 2.5772098,-3.28123 34.7009,2.4e-4 34.70088,2.5e-4 2.71023,2.85199 z"
       id="path13622"
       sodipodi:nodetypes="csscssscccccssscssccccccc" />
    <path
       style="fill:#4f5050;fill-opacity:1;stroke:#4f5050;stroke-width:0.373824;stroke-opacity:1"
       d="m 82.203965,17.428967 c 1.09635,0.30119 2.5969,0.76364 3.33456,1.02768 l 1.34118,0.48007 -0.14496,9.48678 -0.14495,9.48679 -1.38611,2.64576 -1.38613,2.64577 -2.35856,1.30448 -2.35855,1.30447 -17.96113,-0.0234 c -9.87863,-0.0128 -23.63285,-0.10296 -30.56495,-0.20022 -6.93209,-0.0973 -13.75835,-0.17486 -15.16944,-0.1725 l -2.56562,0.004 -0.96912,-0.88089 c -1.29045,-1.17294 -1.45181,-1.44671 -1.9686698,-3.34026 l -0.44198,-1.61916 0.13382,-5.19042 c 0.0737,-2.85473 0.25096,-6.84858 0.39415,-8.87524 l 0.2603198,-3.68483 0.55922,-1.39622 c 0.49551,-1.23716 0.68752,-1.52794 1.68552,-2.55254 l 1.12631,-1.15632 1.43251,-0.29182 c 1.38795,-0.28274 2.37913,-0.28049 31.85228,0.0725 16.73088,0.20034 31.06939,0.36729 31.86334,0.371 1.17647,0.006 1.81246,0.10809 3.43696,0.55436 z"
       id="path13624" />
    <path
       style="fill:#464646;fill-opacity:1;stroke:#464646;stroke-width:0.445201;stroke-opacity:1"
       d="m 82.614595,62.695917 3.80379,5.93892 -0.10553,10.81157 0.12431,10.474664 -3.9252,6.51634 -7.02676,4.083459 -42.96985,-0.0862 -44.17003,0.1288 -5.97799,-3.785889 -3.75697,-5.59545 -0.0176,-11.222374 0.012,-11.15904 3.32641,-5.9232 5.37995,-4.17676 44.6929,0.24694 43.91916,-0.15038 z m -98.22959,1.58322 -3.29803,3.7479 v 9.20552 c 0,5.06302 0.0526,10.530954 0.11685,12.150934 l 0.11682,2.94542 3.61654,3.35283 3.96492,2.08189 43.25113,0.4784 40.89774,0.0146 6.06535,-2.95983 3.58187,-6.11053 0.0704,-4.44257 c 0.0599,-3.748444 0.15621,-9.128444 0.21414,-11.955554 l 0.1053,-5.1402 -3.79125,-3.55645 -3.79123,-3.55647 -43.91127,-0.003 -43.9113,-0.003 z"
       id="path13644"
       sodipodi:nodetypes="cccccccccccccccccccssccccccccscccccc" />
    <path
       style="fill:#4b4b4b;fill-opacity:1;stroke:#4b4b4b;stroke-width:0.314805;stroke-opacity:1"
       d="m 78.655295,63.738467 c 1.8805,1.76355 3.98406,3.77025 3.96895,3.78473 -0.0152,0.0144 -2.32886,-0.9336 -4.43606,-1.43225 l -3.83124,-0.90663 -21.66847,-0.21233 c -11.91766,-0.11676 -29.21476,-0.29072 -38.438,-0.38656 -9.2232398,-0.0958 -18.5618498,-0.18865 -20.7524798,-0.20629 l -3.31679,0.67441 -2.8379202,2.53225 -1.4612,3.15041 -0.79532,9.53696 -0.19578,10.949944 0.9473,3.06723 c 0.54439,1.76264 3.13299,3.04446 3.09836,3.0789 -0.0346,0.0344 -2.97278,-1.17485 -4.55595,-2.64162 l -2.87853,-2.66686 -0.0775,-0.62445 c -0.0426,-0.34344 -0.11503,-5.77752 -0.16082,-12.075724 l -0.0833,-11.45126 3.25124,-3.68906 3.25125,-3.68906 43.77663,2.7e-4 43.7766,2.8e-4 3.41907,3.20647 z"
       id="path13646"
       sodipodi:nodetypes="csscssscccccssscssccccccc" />
    <path
       style="fill:#4f5050;fill-opacity:1;stroke:#4f5050;stroke-width:0.445201;stroke-opacity:1"
       d="m 76.858545,66.045327 c 1.38309,0.33861 3.27611,0.85854 4.20668,1.1554 l 1.69197,0.53973 -0.18288,10.6659 -0.18285,10.665884 -1.74864,2.9746 -1.74866,2.97462 -2.97542,1.4666 -2.97541,1.4666 -22.65872,-0.0263 c -12.4623,-0.0145 -29.81382,-0.11579 -38.55896,-0.22511 -8.7451198,-0.10931 -17.3567198,-0.19659 -19.1368698,-0.19395 l -3.2366402,0.005 -1.22259,-0.99036 c -1.62796,-1.31872 -1.83152,-1.62651 -2.48356,-3.75541 l -0.55758,-1.8204 0.16883,-5.83553 c 0.0929,-3.209554 0.3166,-7.699804 0.49724,-9.978344 l 0.32839,-4.14282 0.70548,-1.56976 c 0.62512,-1.39093 0.86733,-1.71783 2.12637,-2.86979 l 1.4208902,-1.30004 1.80717,-0.32809 c 1.75094,-0.31787 3.00137,-0.31533 40.1829798,0.0815 21.10668,0.22524 39.19532,0.41294 40.19692,0.41711 1.48417,0.006 2.28649,0.12153 4.33586,0.62326 z"
       id="path13648" />
    <path
       style="fill:#464646;fill-opacity:1;stroke:#464646;stroke-width:0.445201;stroke-opacity:1"
       d="m 282.58532,62.695917 3.80378,5.93892 -0.10553,10.81157 0.12431,10.474664 -3.9252,6.51634 -7.02676,4.083459 -42.96985,-0.0862 -44.17003,0.1288 -5.97799,-3.785889 -3.75697,-5.59545 -0.0176,-11.222374 0.012,-11.15904 3.32641,-5.9232 5.37995,-4.17676 44.6929,0.24694 43.91916,-0.15038 z m -98.2296,1.58322 -3.29803,3.7479 v 9.20552 c 0,5.06302 0.0526,10.530954 0.11685,12.150934 l 0.11682,2.94542 3.61654,3.35283 3.96492,2.08189 43.25113,0.4784 40.89774,0.0146 6.06535,-2.95983 3.58187,-6.11053 0.0704,-4.44257 c 0.0599,-3.748444 0.15621,-9.128444 0.21414,-11.955554 l 0.10531,-5.1402 -3.79125,-3.55645 -3.79124,-3.55647 -43.91127,-0.003 -43.9113,-0.003 z"
       id="path13668"
       sodipodi:nodetypes="cccccccccccccccccccssccccccccscccccc" />
    <path
       style="fill:#4b4b4b;fill-opacity:1;stroke:#4b4b4b;stroke-width:0.314805;stroke-opacity:1"
       d="m 278.62601,63.738467 c 1.8805,1.76355 3.98406,3.77025 3.96895,3.78473 -0.0152,0.0144 -2.32886,-0.9336 -4.43606,-1.43225 l -3.83124,-0.90663 -21.66847,-0.21233 c -11.91766,-0.11676 -29.21476,-0.29072 -38.438,-0.38656 -9.22324,-0.0958 -18.56185,-0.18865 -20.75248,-0.20629 l -3.31679,0.67441 -2.83792,2.53225 -1.46119,3.15041 -0.79533,9.53696 -0.19578,10.949944 0.9473,3.06723 c 0.54439,1.76264 3.13299,3.04446 3.09836,3.0789 -0.0346,0.0344 -2.97278,-1.17485 -4.55595,-2.64162 l -2.87853,-2.66686 -0.0775,-0.62445 c -0.0426,-0.34344 -0.11503,-5.77752 -0.16082,-12.075724 l -0.0833,-11.45126 3.25124,-3.68906 3.25125,-3.68906 43.77662,2.7e-4 43.77661,2.8e-4 3.41907,3.20647 z"
       id="path13670"
       sodipodi:nodetypes="csscssscccccssscssccccccc" />
    <path
       style="fill:#4f5050;fill-opacity:1;stroke:#4f5050;stroke-width:0.445201;stroke-opacity:1"
       d="m 276.82927,66.045327 c 1.38308,0.33861 3.2761,0.85854 4.20667,1.1554 l 1.69197,0.53973 -0.18288,10.6659 -0.18285,10.665884 -1.74864,2.9746 -1.74866,2.97462 -2.97542,1.4666 -2.97541,1.4666 -22.65872,-0.0263 c -12.4623,-0.0145 -29.81382,-0.11579 -38.55896,-0.22511 -8.74512,-0.10931 -17.35672,-0.19659 -19.13686,-0.19395 l -3.23665,0.005 -1.22259,-0.99036 c -1.62796,-1.31872 -1.83152,-1.62651 -2.48356,-3.75541 l -0.55758,-1.8204 0.16883,-5.83553 c 0.0929,-3.209554 0.3166,-7.699804 0.49724,-9.978344 l 0.3284,-4.14282 0.70547,-1.56976 c 0.62512,-1.39093 0.86733,-1.71783 2.12637,-2.86979 l 1.42089,-1.30004 1.80717,-0.32809 c 1.75094,-0.31787 3.00137,-0.31533 40.18298,0.0815 21.10668,0.22524 39.19532,0.41294 40.19693,0.41711 1.48416,0.006 2.28648,0.12153 4.33586,0.62326 z"
       id="path13672" />
    <path
       style="fill:#464646;fill-opacity:1;stroke:#464646;stroke-width:0.396369;stroke-opacity:1"
       d="m 170.8486,59.972137 3.19106,5.79215 0.24059,10.80786 0.41255,10.462574 -2.91375,6.65883 -5.44343,4.3439 -34.03889,1.52426 -34.983135,1.784079 -4.84866,-3.559169 -3.14369,-5.45068 -0.35039,-11.213764 -0.32462,-11.1516 2.45723,-6.04366 4.1362,-4.37542 35.408555,-1.42819 34.78376,-1.79625 z m -77.759985,5.26346 -2.49996,3.86886 0.27603,9.19898 c 0.15181,5.05944 0.35744,10.521514 0.45687,12.137944 l 0.18084,2.93895 2.96519,3.21491 3.20304,1.93182 34.273485,-1.14287 32.39543,-1.5181 4.7156,-3.18505 2.65396,-6.24044 -0.0774,-4.442054 c -0.065,-3.74803 -0.14999,-9.12783 -0.18888,-11.9551 l -0.0707,-5.1405 -3.10967,-3.41186 -3.10967,-3.41185 -34.78208,1.64366 -34.782095,1.64379 z"
       id="path13692"
       sodipodi:nodetypes="cccccccccccccccccccssccccccccscccccc" />
    <path
       style="fill:#4b4b4b;fill-opacity:1;stroke:#4b4b4b;stroke-width:0.280276;stroke-opacity:1"
       d="m 167.74371,61.162327 c 1.54241,1.69183 3.26881,3.61827 3.25728,3.6333 -0.0116,0.0151 -1.87269,-0.84565 -3.55674,-1.26497 l -3.0619,-0.76241 -17.1699,0.59989 c -9.44346,0.32995 -23.14968,0.80437 -30.45826,1.05427 -7.30858,0.2499 -14.70846,0.50712 -16.44418,0.57159 l -2.606995,0.79824 -2.17199,2.63681 -1.06295,3.20294 -0.34399,9.56001 0.17326,10.949504 0.84233,3.02955 c 0.48406,1.74098 2.57293,2.92489 2.54653,2.9606 -0.0265,0.0357 -2.38997,-1.06261 -3.68798,-2.469 l -2.36004,-2.55709 -0.0801,-0.6211 c -0.0441,-0.34161 -0.26436,-5.76911 -0.48948,-12.061134 l -0.40931,-11.44003 2.46467,-3.80828 2.4647,-3.80828 34.675395,-1.64036 34.67535,-1.64035 2.80437,3.07606 z"
       id="path13694"
       sodipodi:nodetypes="csscssscccccssscssccccccc" />
    <path
       style="fill:#4f5050;fill-opacity:1;stroke:#4f5050;stroke-width:0.396369;stroke-opacity:1"
       d="m 166.38968,63.534887 c 1.10569,0.28654 2.62074,0.73516 3.36674,0.99693 l 1.35639,0.47594 0.17497,10.66518 0.17498,10.665184 -1.2959,3.03803 -1.2959,3.03803 -2.31286,1.57708 -2.31283,1.57708 -17.94871,0.82286 c -9.87179,0.45256 -23.61892,1.00162 -30.54921,1.22012 -6.93027,0.21851 -13.75412,0.45404 -15.1641,0.52339 l -2.563585,0.12607 -0.99812,-0.94385 c -1.32905,-1.25677 -1.49951,-1.55672 -2.07984,-3.65966 l -0.49623,-1.79823 -0.0413,-5.83771 c -0.0226,-3.210754 0.0199,-7.706204 0.0947,-9.989914 l 0.1359,-4.15217 0.51173,-1.59509 c 0.45345,-1.41338 0.6355,-1.74912 1.59824,-2.94744 l 1.0865,-1.35237 1.42163,-0.39559 c 1.377375,-0.38327 2.367925,-0.4276 31.831285,-1.42455 16.72533,-0.56595 31.05891,-1.05628 31.85241,-1.08966 1.17578,-0.0493 1.81475,0.0358 3.45311,0.46031 z"
       id="path13696" />
  </g>
</svg>
