<?xml version="1.0" encoding="UTF-8" standalone="no"?>
<!-- Created with Inkscape (http://www.inkscape.org/) -->

<svg
   width="200mm"
   height="200mm"
   viewBox="0 0 200 200"
   version="1.1"
   id="svg856"
   xmlns="http://www.w3.org/2000/svg"
   xmlns:svg="http://www.w3.org/2000/svg">
  <defs
     id="defs853" />
  <g
     id="layer1">
    <path
       style="fill:#fff46f;fill-opacity:1;stroke:#fff46f;stroke-width:0.0745235;stroke-opacity:1"
       d="m -86.697125,47.849097 c 3.618552,-7.084463 6.766915,-13.251528 6.996395,-13.704586 l 0.41722,-0.823736 15.28162,2.424599 c 8.404899,1.333539 15.287985,2.432707 15.295751,2.442621 0.0078,0.01 1.096072,6.857952 2.418453,15.217885 2.298738,14.532385 2.396476,15.200772 2.225653,15.220681 -0.09825,0.01144 -6.194301,1.649896 -13.54673,3.640993 l -13.368062,3.620174 -9.489546,-6.449621 c -5.219254,-3.547294 -10.236632,-6.957799 -11.149731,-7.578897 l -1.660182,-1.129269 z"
       id="path16265-1" />
    <path
       style="fill:#ffe86f;fill-opacity:1;stroke:#ffe86f;stroke-width:0.0745235;stroke-opacity:1"
       d="m -92.383325,61.345541 c 0.214116,0.144723 5.118169,3.475896 10.897892,7.402643 l 10.508608,7.139544 13.249027,-3.584717 c 7.286962,-1.971609 13.223681,-3.554554 13.1927,-3.517656 -0.104414,0.124332 -26.869177,13.691976 -26.928323,13.650544 -0.110588,-0.07748 -21.117213,-21.095022 -21.21321,-21.224246 -0.05276,-0.07106 0.07921,-0.01082 0.293306,0.133888 z"
       id="path16267-7" />
    <path
       style="fill:#fff49e;fill-opacity:1;stroke:#fff49e;stroke-width:0.052696;stroke-opacity:1"
       d="m -78.55612,33.433517 c 0.05196,-0.01101 8.380278,1.304564 24.692154,3.900549 2.806049,0.446576 5.122473,0.83133 5.147621,0.855018 0.02533,0.0235 0.413945,2.364656 0.863999,5.202149 1.006019,6.342818 2.991046,18.897434 3.196579,20.217293 0.08316,0.53401 0.27162,1.734064 0.418799,2.666794 0.147186,0.932717 0.255569,1.693344 0.240855,1.690263 -0.01486,-0.0025 -1.819721,-5.796232 -4.011141,-12.873694 -2.191408,-7.077455 -4.005402,-12.927885 -4.031101,-13.000939 -0.04161,-0.118321 -1.484615,-0.594034 -13.221451,-4.358914 -15.388374,-4.936167 -13.368508,-4.283181 -13.296314,-4.298519 z"
       id="path16269-4" />
    <rect
       style="fill:#fff46f;stroke:#fff46f;stroke-width:0.394855;fill-opacity:1;stroke-opacity:1"
       id="rect989"
       width="199.60515"
       height="199.60515"
       x="0.1974275"
       y="0.1974275" />
    <path
       style="fill:#fff46f;fill-opacity:1;stroke:#fff46f;stroke-width:0.0745235;stroke-opacity:1"
       d="M 68.062847,24.995126 C 76.006333,24.56545 82.920372,24.190017 83.427392,24.16087 l 0.92185,-0.05301 5.5796,14.431726 c 3.06877,7.937458 5.57578,14.441303 5.5711,14.452993 -0.005,0.01194 -5.37941,4.392578 -11.9439,9.735304 -11.411286,9.287459 -11.940136,9.707712 -12.043156,9.570006 -0.05927,-0.07925 -4.538105,-4.527373 -9.952984,-9.884778 l -9.845236,-9.740744 0.810211,-11.445198 c 0.445612,-6.29487 0.874356,-12.346459 0.952752,-13.447989 l 0.142539,-2.00278 z"
       id="path16265-1-2" />
    <path
       style="fill:#ffe86f;fill-opacity:1;stroke:#ffe86f;stroke-width:0.0745235;stroke-opacity:1"
       d="m 53.536405,26.857745 c -0.01759,0.257842 -0.434654,6.171595 -0.926844,13.141701 l -0.894895,12.672921 9.754782,9.655625 c 5.365141,5.310583 9.71597,9.64886 9.668503,9.640606 -0.159955,-0.02783 -25.335945,-16.355816 -25.329826,-16.427765 0.01145,-0.134545 7.633207,-28.856034 7.696723,-29.003955 0.03492,-0.08135 0.04914,0.06305 0.03156,0.320867 z"
       id="path16267-7-7" />
    <path
       style="fill:#fff49e;fill-opacity:1;stroke:#fff49e;stroke-width:0.052696;stroke-opacity:1"
       d="m 84.617132,24.79346 c 0.0356,0.03943 3.08146,7.901618 9.03037,23.310274 1.02335,2.650675 1.85423,4.846929 1.84637,4.880566 -0.008,0.03368 -1.83675,1.545729 -4.06423,3.360183 -4.97922,4.055956 -14.83794,12.078701 -15.875966,12.919399 -0.419959,0.34018 -1.362986,1.105904 -2.095576,1.701689 -0.732573,0.595787 -1.335837,1.071572 -1.340562,1.057305 -0.0053,-0.01414 4.097864,-4.484996 9.116883,-9.934972 5.019021,-5.449964 9.166621,-9.957238 9.216881,-10.016156 0.0814,-0.0954 -0.23208,-1.582113 -2.87217,-13.621946 -3.4615,-15.785617 -3.01152,-13.711059 -2.962,-13.656342 z"
       id="path16269-4-56" />
    <path
       style="fill:#fff46f;fill-opacity:1;stroke:#fff46f;stroke-width:0.0745235;stroke-opacity:1"
       d="m 149.40712,74.188002 c 6.62374,4.405628 12.38993,8.23915 12.81374,8.518975 l 0.77058,0.508757 -4.15772,14.903692 c -2.28676,8.197034 -4.16651,14.909084 -4.17725,14.915664 -0.0111,0.007 -6.93833,0.30394 -15.39468,0.66079 -14.69998,0.62034 -15.37516,0.64093 -15.37539,0.46896 -1.1e-4,-0.099 -0.93009,-6.34243 -2.06658,-13.87444 l -2.06634,-13.694558 7.49336,-8.688993 c 4.12135,-4.778957 8.0837,-9.373009 8.80523,-10.209018 l 1.31186,-1.520019 z"
       id="path16265-1-2-9" />
    <path
       style="fill:#ffe86f;fill-opacity:1;stroke:#ffe86f;stroke-width:0.0745235;stroke-opacity:1"
       d="m 136.65018,66.994438 c -0.16829,0.196139 -4.03886,4.686698 -8.60132,9.979011 l -8.29538,9.622393 2.04474,13.572248 c 1.12463,7.46473 2.01768,13.54361 1.98457,13.50862 -0.11158,-0.11793 -10.52669,-28.259726 -10.47876,-28.313735 0.0896,-0.101019 23.37336,-18.564012 23.51272,-18.644589 0.0766,-0.04433 0.002,0.0799 -0.16654,0.276075 z"
       id="path16267-7-7-9" />
    <path
       style="fill:#fff49e;fill-opacity:1;stroke:#fff49e;stroke-width:0.052696;stroke-opacity:1"
       d="m 162.79618,83.925444 c 0.005,0.05289 -2.25515,8.175893 -6.70105,24.083446 -0.76481,2.7365 -1.41216,4.99367 -1.43857,5.01593 -0.0266,0.0222 -2.39649,0.14059 -5.26685,0.26291 -6.41628,0.27345 -19.11559,0.80849 -20.45029,0.86161 -0.54003,0.0215 -1.75377,0.0714 -2.69721,0.11082 -0.94343,0.0395 -1.71147,0.0601 -1.70672,0.0458 0.004,-0.0143 5.96641,-1.14436 13.24819,-2.51133 7.28176,-1.36696 13.30136,-2.49942 13.37687,-2.51659 0.12229,-0.0278 0.76006,-1.40687 5.84353,-12.63567 6.665,-14.722278 5.78513,-12.790415 5.7921,-12.716946 z"
       id="path16269-4-56-2" />
    <path
       style="fill:#fff46f;fill-opacity:1;stroke:#fff46f;stroke-width:0.0745235;stroke-opacity:1"
       d="m 173.91185,180.06271 c -5.7643,5.48236 -10.78063,10.25534 -11.14745,10.60657 l -0.66691,0.63864 -13.61129,-7.35796 c -7.48619,-4.04689 -13.61458,-7.36772 -13.61861,-7.37965 -0.004,-0.0124 1.24162,-6.8331 2.76815,-15.15817 2.65361,-14.47179 2.7832,-15.13474 2.95094,-15.09684 0.0966,0.0218 6.39082,0.49896 13.98737,1.06035 l 13.8119,1.02071 6.81179,9.23302 c 3.7465,5.07816 7.34793,9.96029 8.0032,10.84918 l 1.19141,1.61617 z"
       id="path16265-1-2-9-5" />
    <path
       style="fill:#ffe86f;fill-opacity:1;stroke:#ffe86f;stroke-width:0.0745235;stroke-opacity:1"
       d="m 183.75425,169.21771 c -0.15395,-0.20758 -3.67481,-4.97727 -7.82411,-10.59935 l -7.54419,-10.22199 -13.68785,-1.01466 c -7.52831,-0.55804 -13.65393,-1.0347 -13.61246,-1.05924 0.13973,-0.0827 29.8901,-4.00053 29.93214,-3.94181 0.0786,0.10976 12.92106,26.90692 12.96873,27.06068 0.0262,0.0845 -0.0784,-0.0158 -0.23228,-0.22359 z"
       id="path16267-7-7-9-3" />
    <path
       style="fill:#fff49e;fill-opacity:1;stroke:#fff49e;stroke-width:0.052696;stroke-opacity:1"
       d="m 161.44872,190.96019 c -0.0527,-0.007 -7.4726,-4.01138 -21.99888,-11.87287 -2.49889,-1.35237 -4.55641,-2.48396 -4.57226,-2.51465 -0.0157,-0.0309 0.39413,-2.36803 0.91112,-5.1941 1.15564,-6.31727 3.44894,-18.81925 3.693,-20.13252 0.0988,-0.53136 0.31914,-1.72597 0.48983,-2.65468 0.17061,-0.92871 0.32077,-1.68221 0.33366,-1.67441 0.0131,0.007 -0.20667,6.07165 -0.48785,13.47529 -0.28118,7.40361 -0.51124,13.52449 -0.51124,13.60193 0,0.12541 1.20339,1.05301 11.02599,8.49907 12.8786,9.76265 11.18983,8.47644 11.11665,8.46695 z"
       id="path16269-4-56-2-2" />
    <path
       style="fill:#fff46f;fill-opacity:1;stroke:#fff46f;stroke-width:0.0745235;stroke-opacity:1"
       d="m 26.884983,89.378613 c 4.008298,-6.87147 7.495924,-12.853219 7.750343,-13.292753 l 0.462534,-0.799182 15.122496,3.273669 c 8.317357,1.800536 15.128375,3.282126 15.13557,3.292466 0.0073,0.0108 0.711635,6.90843 1.56539,15.32913 1.484131,14.638027 1.544408,15.310827 1.372751,15.321167 -0.09885,0.006 -6.276726,1.30164 -13.728821,2.8793 l -13.549254,2.86847 -9.114813,-6.96918 c -5.01316,-3.83304 -9.832371,-7.51824 -10.70938,-8.18933 l -1.594573,-1.22016 z"
       id="path16265-1-2-9-5-9-7" />
    <path
       style="fill:#ffe86f;fill-opacity:1;stroke:#ffe86f;stroke-width:0.0745235;stroke-opacity:1"
       d="m 20.454437,102.53668 c 0.205696,0.15646 4.916196,3.75613 10.467767,7.9993 l 10.093785,7.71489 13.428432,-2.83971 c 7.385624,-1.56187 13.40144,-2.81102 13.368451,-2.7759 -0.111151,0.11836 -27.591426,12.1711 -27.648163,12.12642 -0.106072,-0.0835 -19.90702,-22.24066 -19.995648,-22.37505 -0.04871,-0.0739 0.0797,-0.007 0.285384,0.15001 z"
       id="path16267-7-7-9-3-6-9" />
    <path
       style="fill:#fff49e;fill-opacity:1;stroke:#fff49e;stroke-width:0.052696;stroke-opacity:1"
       d="m 35.81783,75.439852 c 0.05256,-0.008 8.29441,1.770219 24.435966,5.272511 2.776756,0.60247 5.068104,1.1159 5.091878,1.14096 0.02369,0.0253 0.281344,2.38406 0.572329,5.24226 0.650471,6.38907 1.931743,19.034907 2.063298,20.364167 0.05318,0.53784 0.174451,1.74654 0.269313,2.68603 0.09494,0.93946 0.160691,1.70496 0.146138,1.70106 -0.01453,-0.003 -1.493412,-5.88875 -3.286429,-13.077487 -1.793009,-7.18872 -3.277674,-13.13127 -3.299253,-13.20564 -0.03495,-0.12044 -1.449151,-0.67597 -12.957572,-5.08999 -15.088905,-5.787278 -13.108616,-5.022597 -13.03569,-5.033875 z"
       id="path16269-4-56-2-2-6-4" />
    <path
       style="fill:#fff46f;fill-opacity:1;stroke:#fff46f;stroke-width:0.0745235;stroke-opacity:1"
       d="m 110.34496,104.17801 c 7.24369,3.28824 13.5493,6.14905 14.01244,6.35742 l 0.8421,0.37881 -1.71778,15.37712 c -0.94481,8.45741 -1.72561,15.38384 -1.73517,15.39205 -0.01,0.008 -6.80014,1.41095 -15.09025,3.11718 -14.411007,2.96601 -15.07418,3.09444 -15.101935,2.92472 -0.01602,-0.0977 -1.933611,-6.11168 -4.261418,-13.36455 l -4.232371,-13.18701 6.005465,-9.77669 c 3.302995,-5.3772 6.478655,-10.5464 7.057005,-11.487147 l 1.05157,-1.710461 z"
       id="path16265-1-2-9-5-9-7-8" />
    <path
       style="fill:#ffe86f;fill-opacity:1;stroke:#ffe86f;stroke-width:0.0745235;stroke-opacity:1"
       d="m 96.600816,99.119831 c -0.134705,0.220549 -3.236341,5.272899 -6.892548,11.227449 l -6.647682,10.82646 4.191466,13.06976 c 2.305333,7.18834 4.160178,13.04581 4.121883,13.01657 -0.129057,-0.0985 -14.915663,-26.20965 -14.876988,-26.27064 0.07227,-0.11402 20.099427,-22.066919 20.2241,-22.168763 0.06856,-0.05598 0.01507,0.07857 -0.12019,0.299168 z"
       id="path16267-7-7-9-3-6-9-7" />
    <path
       style="fill:#fff49e;fill-opacity:1;stroke:#fff49e;stroke-width:0.052696;stroke-opacity:1"
       d="m 125.12039,111.64606 c 0.0133,0.0515 -0.91698,8.43148 -2.75851,24.84565 -0.31677,2.82365 -0.59437,5.15534 -0.61688,5.18155 -0.0228,0.0262 -2.34305,0.52249 -5.1568,1.10282 -6.28971,1.29726 -18.739511,3.85873 -20.048483,4.12488 -0.529634,0.10765 -1.719721,0.35127 -2.64468,0.54124 -0.924926,0.19001 -1.679758,0.33336 -1.677359,0.31849 0.0015,-0.0147 5.706208,-2.08492 12.675162,-4.60016 6.96894,-2.51523 12.72956,-4.59692 12.80135,-4.62595 0.11626,-0.047 0.52499,-1.51042 3.74498,-13.40827 4.22177,-15.5995 3.66258,-13.55168 3.68122,-13.48028 z"
       id="path16269-4-56-2-2-6-4-2" />
    <path
       style="fill:#fff46f;fill-opacity:1;stroke:#fff46f;stroke-width:0.0745235;stroke-opacity:1"
       d="m 40.148227,130.71834 c 7.24369,3.28824 13.5493,6.14905 14.01244,6.35742 l 0.8421,0.37881 -1.71778,15.37712 c -0.94481,8.45741 -1.72561,15.38384 -1.73517,15.39205 -0.01,0.008 -6.80014,1.41095 -15.09025,3.11718 -14.41101,2.96601 -15.07418,3.09444 -15.10194,2.92472 -0.016,-0.0977 -1.93361,-6.11168 -4.26141,-13.36455 l -4.23237,-13.18701 6.00546,-9.77669 c 3.303,-5.3772 6.47865,-10.5464 7.057,-11.48715 l 1.05157,-1.71046 z"
       id="path16265-1-2-9-5-9-7-8-9" />
    <path
       style="fill:#ffe86f;fill-opacity:1;stroke:#ffe86f;stroke-width:0.0745235;stroke-opacity:1"
       d="m 26.404077,125.66016 c -0.1347,0.22055 -3.23634,5.2729 -6.89254,11.22745 l -6.64769,10.82646 4.19147,13.06976 c 2.30533,7.18834 4.16018,13.04581 4.12188,13.01657 -0.12905,-0.0985 -14.9156604,-26.20965 -14.8769804,-26.27064 0.0723,-0.11402 20.0994204,-22.06692 20.2241004,-22.16876 0.0686,-0.056 0.0151,0.0786 -0.12019,0.29917 z"
       id="path16267-7-7-9-3-6-9-7-4" />
    <path
       style="fill:#fff49e;fill-opacity:1;stroke:#fff49e;stroke-width:0.052696;stroke-opacity:1"
       d="m 54.923657,138.18639 c 0.0133,0.0515 -0.91698,8.43148 -2.75851,24.84565 -0.31677,2.82365 -0.59437,5.15534 -0.61688,5.18155 -0.0228,0.0262 -2.34305,0.52249 -5.1568,1.10282 -6.28971,1.29726 -18.73951,3.85873 -20.04848,4.12488 -0.52964,0.10765 -1.71973,0.35127 -2.64468,0.54124 -0.92493,0.19001 -1.67976,0.33336 -1.67736,0.31849 0.002,-0.0147 5.70621,-2.08492 12.67516,-4.60016 6.96894,-2.51523 12.72956,-4.59692 12.80135,-4.62595 0.11626,-0.047 0.52499,-1.51042 3.74498,-13.40827 4.22177,-15.5995 3.66258,-13.55168 3.68122,-13.48028 z"
       id="path16269-4-56-2-2-6-4-2-3" />
    <path
       style="fill:#fff46f;fill-opacity:1;stroke:#fff46f;stroke-width:0.0745235;stroke-opacity:1"
       d="m 91.578271,170.22752 c 7.243694,3.28824 13.549299,6.14905 14.012439,6.35742 l 0.8421,0.37881 -1.71778,15.37712 c -0.94481,8.45741 -1.72561,15.38384 -1.73517,15.39205 -0.01,0.008 -6.800139,1.41095 -15.090249,3.11718 -14.41101,2.96601 -15.07418,3.09444 -15.10194,2.92472 -0.016,-0.0977 -1.93361,-6.11168 -4.26141,-13.36455 l -4.23237,-13.18701 6.00546,-9.77669 c 3.303,-5.3772 6.47865,-10.5464 7.057,-11.48715 l 1.05157,-1.71046 z"
       id="path16265-1-2-9-5-9-7-8-9-9" />
    <path
       style="fill:#ffe86f;fill-opacity:1;stroke:#ffe86f;stroke-width:0.0745235;stroke-opacity:1"
       d="m 77.834121,165.16934 c -0.1347,0.22055 -3.23634,5.2729 -6.89254,11.22745 l -6.64769,10.82646 4.19147,13.06976 c 2.30533,7.18834 4.16018,13.04581 4.12188,13.01657 -0.12905,-0.0985 -14.91566,-26.20965 -14.87698,-26.27064 0.0723,-0.11402 20.09942,-22.06692 20.2241,-22.16876 0.0686,-0.056 0.0151,0.0786 -0.12019,0.29917 z"
       id="path16267-7-7-9-3-6-9-7-4-1" />
    <path
       style="fill:#fff49e;fill-opacity:1;stroke:#fff49e;stroke-width:0.052696;stroke-opacity:1"
       d="m 106.3537,177.69557 c 0.0133,0.0515 -0.91698,8.43148 -2.75851,24.84565 -0.31677,2.82365 -0.59437,5.15534 -0.61688,5.18155 -0.0228,0.0262 -2.34305,0.52249 -5.156799,1.10282 -6.28971,1.29726 -18.73951,3.85873 -20.04848,4.12488 -0.52964,0.10765 -1.71973,0.35127 -2.64468,0.54124 -0.92493,0.19001 -1.67976,0.33336 -1.67736,0.31849 0.002,-0.0147 5.70621,-2.08492 12.67516,-4.60016 6.96894,-2.51523 12.729564,-4.59692 12.801354,-4.62595 0.11626,-0.047 0.52499,-1.51042 3.744975,-13.40827 4.22177,-15.5995 3.66258,-13.55168 3.68122,-13.48028 z"
       id="path16269-4-56-2-2-6-4-2-3-1" />
    <path
       style="fill:#fff46f;fill-opacity:1;stroke:#fff46f;stroke-width:0.0745235;stroke-opacity:1"
       d="m 118.80172,19.852809 c 5.69206,-5.557342 10.64551,-10.3955563 11.00769,-10.7515673 l 0.65849,-0.647301 13.70642,7.1791993 c 7.53852,3.948572 13.70985,7.18892 13.71403,7.200797 0.004,0.01228 -1.15209,6.848757 -2.56955,15.193101 -2.464,14.505279 -2.58489,15.169869 -2.75312,15.134167 -0.0968,-0.02054 -6.3968,-0.415293 -14.00004,-0.877217 l -13.82409,-0.839866 -6.93204,-9.143078 c -3.81262,-5.028705 -7.47764,-9.863288 -8.14449,-10.743531 l -1.21245,-1.600438 z"
       id="path3431" />
    <path
       style="fill:#ffe86f;fill-opacity:1;stroke:#ffe86f;stroke-width:0.0745235;stroke-opacity:1"
       d="m 109.10208,30.825673 c 0.15666,0.205549 3.73964,4.928748 7.96216,10.496059 l 7.67731,10.12239 13.69996,0.835438 c 7.53498,0.459479 13.66631,0.855928 13.62516,0.880998 -0.13866,0.08447 -29.8352,4.391357 -29.878,4.333204 -0.0801,-0.108718 -13.27206,-26.735537 -13.32175,-26.88866 -0.0273,-0.08419 0.0785,0.01507 0.23519,0.220538 z"
       id="path3433" />
    <path
       style="fill:#fff49e;fill-opacity:1;stroke:#fff49e;stroke-width:0.052696;stroke-opacity:1"
       d="m 131.12117,8.7931387 c 0.0528,0.0062 7.52446,3.9132523 22.15239,11.5839633 2.51636,1.319562 4.58852,2.424126 4.60477,2.454607 0.0162,0.03061 -0.36311,2.372989 -0.84307,5.205577 -1.07287,6.331853 -3.20236,18.862777 -3.42922,20.17914 -0.0917,0.532608 -0.29655,1.729971 -0.45504,2.660847 -0.15848,0.93087 -0.29875,1.686262 -0.3117,1.678641 -0.0131,-0.0073 0.1272,-6.073835 0.31146,-13.480511 0.18427,-7.406667 0.3342,-13.530034 0.33319,-13.60747 -0.002,-0.125397 -1.21706,-1.037162 -11.13627,-8.354056 C 129.34242,7.5206037 131.04787,8.7846097 131.12117,8.7931387 Z"
       id="path3435" />
    <path
       style="fill:#fff46f;fill-opacity:1;stroke:#fff46f;stroke-width:0.0745235;stroke-opacity:1"
       d="m 91.578271,-29.772924 c 7.243694,3.28824 13.549299,6.14905 14.012439,6.35742 l 0.8421,0.37881 -1.71778,15.3771201 c -0.94481,8.45740995 -1.72561,15.38384 -1.73517,15.39205 -0.01,0.008 -6.800139,1.41095 -15.090249,3.1171799 -14.41101,2.96601 -15.07418,3.09444 -15.10194,2.92472 -0.016,-0.0977 -1.93361,-6.1116799 -4.26141,-13.36454995 l -4.23237,-13.18701005 6.00546,-9.77669 c 3.303,-5.3772 6.47865,-10.5464 7.057,-11.48715 l 1.05157,-1.71046 z"
       id="path3437" />
    <path
       style="fill:#ffe86f;fill-opacity:1;stroke:#ffe86f;stroke-width:0.0745235;stroke-opacity:1"
       d="m 77.834121,-34.831104 c -0.1347,0.22055 -3.23634,5.2729 -6.89254,11.22745 l -6.64769,10.82646 4.19147,13.06976005 c 2.30533,7.18834005 4.16018,13.04580995 4.12188,13.01656995 -0.12905,-0.0985 -14.91566,-26.20965 -14.87698,-26.27064 0.0723,-0.11402 20.09942,-22.06692 20.2241,-22.16876 0.0686,-0.056 0.0151,0.0786 -0.12019,0.29917 z"
       id="path3439" />
    <path
       style="fill:#fff49e;fill-opacity:1;stroke:#fff49e;stroke-width:0.052696;stroke-opacity:1"
       d="m 106.3537,-22.304874 c 0.0133,0.0515 -0.91698,8.43148 -2.75851,24.8456501 -0.31677,2.82365 -0.59437,5.15534 -0.61688,5.18155 -0.0228,0.0262 -2.34305,0.52249 -5.156799,1.10282 -6.28971,1.2972599 -18.73951,3.8587299 -20.04848,4.1248799 -0.52964,0.10765 -1.71973,0.35127 -2.64468,0.54124 -0.92493,0.19001 -1.67976,0.33336 -1.67736,0.31849 0.002,-0.0147 5.70621,-2.08492 12.67516,-4.6001599 6.96894,-2.51523 12.729564,-4.59692 12.801354,-4.62595 0.11626,-0.047 0.52499,-1.51042 3.744975,-13.40827 4.22177,-15.5995001 3.66258,-13.5516801 3.68122,-13.4802801 z"
       id="path3441" />
    <path
       style="fill:#fff46f;fill-opacity:1;stroke:#fff46f;stroke-width:0.0745235;stroke-opacity:1"
       d="m 210.50909,116.00939 c -3.09267,7.32932 -5.78324,13.70942 -5.97909,14.17799 l -0.35608,0.85196 -15.41768,-1.30452 c -8.47973,-0.7175 -15.42461,-1.31215 -15.43308,-1.32147 -0.009,-0.01 -1.59292,-6.75984 -3.521,-15.00118 -3.35167,-14.326214 -3.49785,-14.985701 -3.32894,-15.018007 0.0972,-0.01858 6.05759,-2.096917 13.24538,-4.618521 l 13.06869,-4.584727 9.93432,5.740929 c 5.46389,3.157512 10.71646,6.193306 11.67239,6.746216 l 1.73806,1.00528 z"
       id="path4169" />
    <path
       style="fill:#ffe86f;fill-opacity:1;stroke:#ffe86f;stroke-width:0.0745235;stroke-opacity:1"
       d="m 215.19662,102.13446 c -0.22409,-0.12875 -5.35786,-3.093682 -11.40838,-6.588796 l -11.00095,-6.354749 -12.95256,4.54069 c -7.1239,2.497402 -12.92948,4.508764 -12.90128,4.469708 0.095,-0.131621 25.79995,-15.613636 25.86195,-15.576623 0.11596,0.06918 22.59834,19.50004 22.7035,19.62192 0.0578,0.067 -0.0781,0.0169 -0.30229,-0.11212 z"
       id="path4171" />
    <path
       style="fill:#fff49e;fill-opacity:1;stroke:#fff49e;stroke-width:0.052696;stroke-opacity:1"
       d="m 203.44024,130.9799 c -0.051,0.0148 -8.45306,-0.69039 -24.91074,-2.09076 -2.83113,-0.2409 -5.16944,-0.45582 -5.19624,-0.47762 -0.0268,-0.022 -0.58517,-2.32819 -1.2408,-5.12535 -1.46558,-6.25264 -4.36023,-18.62922 -4.6614,-19.93058 -0.12186,-0.52654 -0.3973,-1.70966 -0.61203,-2.62919 -0.2148,-0.9195 -0.37831,-1.670215 -0.36337,-1.668216 0.0148,0.0013 2.23728,5.648206 4.93864,12.547156 2.70134,6.89894 4.93685,12.60161 4.96781,12.67259 0.0501,0.11496 1.52396,0.48428 13.50395,3.38383 15.70717,3.80163 13.64508,3.29758 13.5742,3.31814 z"
       id="path4173" />
    <path
       style="fill:#fff46f;fill-opacity:1;stroke:#fff46f;stroke-width:0.0745235;stroke-opacity:1"
       d="m 10.509316,116.00939 c -3.0926704,7.32932 -5.7832404,13.70942 -5.9790904,14.17799 l -0.35608,0.85196 -15.4176796,-1.30452 c -8.47973,-0.7175 -15.42461,-1.31215 -15.43308,-1.32147 -0.009,-0.01 -1.59292,-6.75984 -3.521,-15.00118 -3.35167,-14.326214 -3.49785,-14.985701 -3.32894,-15.018007 0.0972,-0.01858 6.05759,-2.096917 13.24538,-4.618521 l 13.0686896,-4.584727 9.93432,5.740929 c 5.46389,3.157512 10.7164604,6.193306 11.6723904,6.746216 l 1.73806,1.00528 z"
       id="path4175" />
    <path
       style="fill:#ffe86f;fill-opacity:1;stroke:#ffe86f;stroke-width:0.0745235;stroke-opacity:1"
       d="M 15.196846,102.13446 C 14.972756,102.00571 9.8389856,99.040778 3.7884656,95.545664 l -11.00095,-6.354749 -12.9525596,4.54069 c -7.1239,2.497402 -12.92948,4.508764 -12.90128,4.469708 0.095,-0.131621 25.7999496,-15.613636 25.8619496,-15.576623 0.11596,0.06918 22.5983404,19.50004 22.7035004,19.62192 0.0578,0.067 -0.0781,0.0169 -0.30229,-0.11212 z"
       id="path4177" />
    <path
       style="fill:#fff49e;fill-opacity:1;stroke:#fff49e;stroke-width:0.052696;stroke-opacity:1"
       d="m 3.4404656,130.9799 c -0.051,0.0148 -8.45306,-0.69039 -24.9107396,-2.09076 -2.83113,-0.2409 -5.16944,-0.45582 -5.19624,-0.47762 -0.0268,-0.022 -0.58517,-2.32819 -1.2408,-5.12535 -1.46558,-6.25264 -4.36023,-18.62922 -4.6614,-19.93058 -0.12186,-0.52654 -0.3973,-1.70966 -0.61203,-2.62919 -0.2148,-0.9195 -0.37831,-1.670215 -0.36337,-1.668216 0.0148,0.0013 2.23728,5.648206 4.93864,12.547156 2.70134,6.89894 4.93685,12.60161 4.96781,12.67259 0.0501,0.11496 1.52396,0.48428 13.50395,3.38383 15.7071696,3.80163 13.6450796,3.29758 13.5741996,3.31814 z"
       id="path4179" />
    <path
       style="fill:#fff46f;fill-opacity:1;stroke:#fff46f;stroke-width:0.0745235;stroke-opacity:1"
       d="m 179.81274,24.324714 c 4.00829,-6.87147 7.49592,-12.853219 7.75034,-13.292753 l 0.46253,-0.799182 15.1225,3.273669 c 8.31736,1.800536 15.12837,3.282126 15.13557,3.292466 0.007,0.0108 0.71163,6.90843 1.56539,15.32913 1.48413,14.638027 1.54441,15.310827 1.37275,15.321167 -0.0988,0.006 -6.27673,1.30164 -13.72882,2.8793 l -13.54926,2.86847 -9.11481,-6.96918 c -5.01316,-3.83304 -9.83237,-7.51824 -10.70938,-8.18933 l -1.59457,-1.22016 z"
       id="path4181" />
    <path
       style="fill:#ffe86f;fill-opacity:1;stroke:#ffe86f;stroke-width:0.0745235;stroke-opacity:1"
       d="m 173.38219,37.482781 c 0.2057,0.15646 4.9162,3.75613 10.46777,7.9993 l 10.09378,7.71489 13.42843,-2.83971 c 7.38563,-1.56187 13.40144,-2.81102 13.36845,-2.7759 -0.11115,0.11836 -27.59142,12.1711 -27.64816,12.12642 -0.10607,-0.0835 -19.90702,-22.24066 -19.99565,-22.37505 -0.0487,-0.0739 0.0797,-0.007 0.28539,0.15001 z"
       id="path4183" />
    <path
       style="fill:#fff49e;fill-opacity:1;stroke:#fff49e;stroke-width:0.052696;stroke-opacity:1"
       d="m 188.74558,10.385953 c 0.0526,-0.008 8.29441,1.770219 24.43597,5.272511 2.77675,0.60247 5.0681,1.1159 5.09188,1.14096 0.0237,0.0253 0.28134,2.38406 0.57233,5.24226 0.65047,6.38907 1.93174,19.034907 2.06329,20.364167 0.0532,0.53784 0.17445,1.74654 0.26932,2.68603 0.0949,0.93946 0.16069,1.70496 0.14613,1.70106 -0.0145,-0.003 -1.49341,-5.88875 -3.28642,-13.077487 -1.79301,-7.18872 -3.27768,-13.13127 -3.29926,-13.20564 -0.035,-0.12044 -1.44915,-0.67597 -12.95757,-5.08999 -15.0889,-5.7872781 -13.10862,-5.022597 -13.03569,-5.033875 z"
       id="path4185" />
    <path
       style="fill:#fff46f;fill-opacity:1;stroke:#fff46f;stroke-width:0.0745235;stroke-opacity:1"
       d="m -20.187492,24.324714 c 4.00829,-6.87147 7.49592,-12.853219 7.75034,-13.292753 l 0.46253,-0.799182 15.1224998,3.273669 c 8.3173602,1.800536 15.1283702,3.282126 15.1355702,3.292466 0.007,0.0108 0.71163,6.90843 1.56539,15.32913 1.48413,14.638027 1.54441,15.310827 1.37275,15.321167 -0.0988,0.006 -6.27673,1.30164 -13.7288202,2.8793 l -13.54926,2.86847 -9.1148098,-6.96918 c -5.01316,-3.83304 -9.83237,-7.51824 -10.70938,-8.18933 l -1.59457,-1.22016 z"
       id="path4427" />
    <path
       style="fill:#ffe86f;fill-opacity:1;stroke:#ffe86f;stroke-width:0.0745235;stroke-opacity:1"
       d="m -26.618042,37.482781 c 0.2057,0.15646 4.9162,3.75613 10.46777,7.9993 l 10.0937798,7.71489 13.42843,-2.83971 c 7.3856302,-1.56187 13.4014402,-2.81102 13.3684502,-2.7759 -0.11115,0.11836 -27.5914202,12.1711 -27.6481602,12.12642 -0.10607,-0.0835 -19.9070198,-22.24066 -19.9956498,-22.37505 -0.0487,-0.0739 0.0797,-0.007 0.28539,0.15001 z"
       id="path4429" />
    <path
       style="fill:#fff49e;fill-opacity:1;stroke:#fff49e;stroke-width:0.052696;stroke-opacity:1"
       d="m -11.254652,10.385953 c 0.0526,-0.008 8.2944098,1.770219 24.43597,5.272511 2.77675,0.60247 5.0681,1.1159 5.09188,1.14096 0.0237,0.0253 0.28134,2.38406 0.57233,5.24226 0.65047,6.38907 1.93174,19.034907 2.06329,20.364167 0.0532,0.53784 0.17445,1.74654 0.26932,2.68603 0.0949,0.93946 0.16069,1.70496 0.14613,1.70106 -0.0145,-0.003 -1.49341,-5.88875 -3.28642,-13.077487 -1.79301,-7.18872 -3.27768,-13.13127 -3.29926,-13.20564 -0.035,-0.12044 -1.44915,-0.67597 -12.9575702,-5.08999 C -13.307882,9.6325459 -11.327602,10.397227 -11.254672,10.385949 Z"
       id="path4431" />
  </g>
</svg>
