<?xml version="1.0" encoding="UTF-8" standalone="no"?>
<!-- Created with Inkscape (http://www.inkscape.org/) -->

<svg
   width="200mm"
   height="200mm"
   viewBox="0 0 200 200"
   version="1.1"
   id="svg5"
   inkscape:version="1.1.1 (3bf5ae0d25, 2021-09-20)"
   sodipodi:docname="svg_gold_plant_3.svg"
   inkscape:export-filename="/home/jackdelahunt/Projects/Eiram/Assets/Resources/Sprites/New/stone_plant_3.png"
   inkscape:export-xdpi="8.1280003"
   inkscape:export-ydpi="8.1280003"
   xmlns:inkscape="http://www.inkscape.org/namespaces/inkscape"
   xmlns:sodipodi="http://sodipodi.sourceforge.net/DTD/sodipodi-0.dtd"
   xmlns="http://www.w3.org/2000/svg"
   xmlns:svg="http://www.w3.org/2000/svg">
  <sodipodi:namedview
     id="namedview7"
     pagecolor="#ffffff"
     bordercolor="#666666"
     borderopacity="1.0"
     inkscape:pageshadow="2"
     inkscape:pageopacity="0.0"
     inkscape:pagecheckerboard="0"
     inkscape:document-units="mm"
     showgrid="false"
     width="200mm"
     inkscape:snap-global="false"
     inkscape:zoom="0.74742565"
     inkscape:cx="364.58476"
     inkscape:cy="535.83925"
     inkscape:window-width="1920"
     inkscape:window-height="1017"
     inkscape:window-x="-8"
     inkscape:window-y="-8"
     inkscape:window-maximized="1"
     inkscape:current-layer="layer1" />
  <defs
     id="defs2">
    <inkscape:path-effect
       effect="bspline"
       id="path-effect6127"
       is_visible="true"
       lpeversion="1"
       weight="33.333333"
       steps="2"
       helper_size="0"
       apply_no_weight="true"
       apply_with_weight="true"
       only_selected="false" />
    <inkscape:path-effect
       effect="bspline"
       id="path-effect4838"
       is_visible="true"
       lpeversion="1"
       weight="33.333333"
       steps="2"
       helper_size="0"
       apply_no_weight="true"
       apply_with_weight="true"
       only_selected="false" />
    <inkscape:path-effect
       effect="bspline"
       id="path-effect4152"
       is_visible="true"
       lpeversion="1"
       weight="33.333333"
       steps="2"
       helper_size="0"
       apply_no_weight="true"
       apply_with_weight="true"
       only_selected="false" />
    <inkscape:path-effect
       effect="bspline"
       id="path-effect3851"
       is_visible="true"
       lpeversion="1"
       weight="33.333333"
       steps="2"
       helper_size="0"
       apply_no_weight="true"
       apply_with_weight="true"
       only_selected="false" />
    <inkscape:path-effect
       effect="bspline"
       id="path-effect3737"
       is_visible="true"
       lpeversion="1"
       weight="33.333333"
       steps="2"
       helper_size="0"
       apply_no_weight="true"
       apply_with_weight="true"
       only_selected="false" />
    <inkscape:path-effect
       effect="bspline"
       id="path-effect1053"
       is_visible="true"
       lpeversion="1"
       weight="33.333333"
       steps="2"
       helper_size="0"
       apply_no_weight="true"
       apply_with_weight="true"
       only_selected="false" />
  </defs>
  <g
     inkscape:label="Layer 1"
     inkscape:groupmode="layer"
     id="layer1">
    <g
       id="g4429">
      <path
         style="fill:none;stroke:#000000;stroke-width:0.242524px;stroke-linecap:butt;stroke-linejoin:miter;stroke-opacity:1"
         d="m 76.681827,200.69814 c 7.148074,-12.20939 14.296061,-24.41863 15.333859,-39.56851 1.037799,-15.14987 -4.034803,-33.23936 -8.773502,-42.9346 -4.7387,-9.69523 -9.143406,-10.99555 -16.510384,-6.90426 -7.366977,4.09129 -17.69544,13.57392 -22.859844,18.28327 -5.164404,4.70935 -5.164552,4.64493 -3.297632,-0.1872 1.866919,-4.83214 5.600814,-14.43151 11.05694,-21.42569 5.456127,-6.99419 12.634006,-11.382623 20.463884,-12.585918 7.829878,-1.203295 16.31104,0.778476 21.566361,5.628238 5.255322,4.84976 7.284741,12.56692 9.314121,20.28394"
         id="path3735"
         inkscape:path-effect="#path-effect3737"
         inkscape:original-d="m 76.681827,200.69814 c 7.148385,-12.20921 14.296373,-24.41845 21.444384,-36.62845 -5.072548,-18.08998 -10.145153,-36.17947 -15.218124,-54.2696 -4.404656,-1.30011 -8.80936,-2.60044 -13.214374,-3.90104 -10.328656,9.48327 -20.65712,18.96589 -30.986013,28.44844 8.7e-5,-0.0641 -5e-5,-0.12852 -4.45e-4,-0.19318 3.734269,-9.5995 7.468165,-19.19887 11.201915,-28.7987 7.178395,-4.38836 14.356278,-8.776792 21.534087,-13.165585 8.481722,1.982113 16.962884,3.963884 25.443995,5.94543 2.029719,7.717735 4.059138,15.434895 6.088378,23.151955"
         sodipodi:nodetypes="cccccccccc" />
      <path
         style="fill:none;stroke:#000000;stroke-width:0.264583px;stroke-linecap:butt;stroke-linejoin:miter;stroke-opacity:1"
         d="M 71.663872,200.68905 H 134.26369"
         id="path3887" />
      <path
         style="fill:none;stroke:#000000;stroke-width:0.242524px;stroke-linecap:butt;stroke-linejoin:miter;stroke-opacity:1"
         d="m 129.26943,200.69814 c -7.14807,-12.20939 -14.29606,-24.41863 -15.33386,-39.56851 -1.0378,-15.14987 4.03481,-33.23936 8.77351,-42.9346 4.7387,-9.69523 9.1434,-10.99555 16.51038,-6.90426 7.36698,4.09129 17.69544,13.57392 22.85985,18.28327 5.1644,4.70935 5.16455,4.64493 3.29763,-0.1872 -1.86692,-4.83214 -5.60082,-14.43151 -11.05694,-21.42569 -5.45613,-6.99418 -12.63401,-11.382626 -20.46389,-12.585921 -7.82988,-1.203296 -16.31104,0.778474 -21.56636,5.628241 -5.25532,4.84976 -7.28474,12.56692 -9.31412,20.28394"
         id="path4148"
         inkscape:path-effect="#path-effect4152"
         inkscape:original-d="m 129.26943,200.69814 c -7.14838,-12.20921 -14.29637,-24.41845 -21.44438,-36.62845 5.07255,-18.08998 10.14515,-36.17947 15.21812,-54.2696 4.40466,-1.30011 8.80936,-2.60044 13.21438,-3.90104 10.32865,9.48327 20.65712,18.96589 30.98601,28.44844 -8e-5,-0.0641 5e-5,-0.12852 4.5e-4,-0.19318 -3.73427,-9.5995 -7.46817,-19.19887 -11.20192,-28.7987 -7.17839,-4.38836 -14.35628,-8.776796 -21.53409,-13.165589 -8.48172,1.982113 -16.96288,3.963884 -25.44399,5.94543 -2.02972,7.717739 -4.05914,15.434899 -6.08838,23.151959"
         sodipodi:nodetypes="cccccccccc" />
    </g>
    <path
       style="fill:#008700;fill-opacity:1;stroke:#006700;stroke-width:2.05984255;stroke-linejoin:round;stroke-miterlimit:4;stroke-dasharray:none;stroke-opacity:1"
       d="m 292.17508,756.60857 c 7.07417,-11.71784 20.84945,-36.78068 27.16898,-49.43144 16.17415,-32.3783 24.17381,-57.13173 28.43387,-87.98325 1.56716,-11.34947 1.32877,-42.46743 -0.44213,-57.70943 -5.12976,-44.15177 -19.31109,-92.6972 -35.89172,-122.86429 -5.45245,-9.92027 -15.03367,-20.96954 -20.68231,-23.85126 -21.54907,-10.99352 -50.01179,5.56451 -122.36374,71.18443 -7.28463,6.60683 -14.46684,12.96503 -15.96045,14.12933 l -2.71567,2.11693 0.6893,-2.28698 c 4.48564,-14.88265 22.56817,-55.06234 31.96907,-71.03584 11.44743,-19.45084 27.50822,-37.55909 42.37221,-47.77389 30.27095,-20.80274 65.83786,-26.36414 98.60308,-15.41801 25.50216,8.5197 40.85175,23.58998 51.7291,50.78781 3.27288,8.18355 9.35318,27.36028 12.30756,38.81694 0.57025,2.21141 1.38022,4.02074 1.7999,4.02074 0.41969,0 2.17087,-5.21514 3.89153,-11.58919 6.92668,-25.65933 14.73419,-44.03195 23.76575,-55.92547 16.82732,-22.1596 49.60215,-34.48267 82.5711,-31.04606 13.87129,1.44592 24.92951,4.65008 37.98848,11.00732 35.57629,17.31889 59.44029,48.7919 83.96092,110.73178 6.39178,16.14582 7.21773,19.03417 5.10486,17.85175 -0.82484,-0.46161 -9.12703,-7.74596 -18.44932,-16.18745 -29.82063,-27.00311 -51.58252,-44.90425 -68.68521,-56.49988 -37.30305,-25.29146 -56.3743,-21.14198 -75.22451,16.36718 -23.34771,46.45854 -38.29862,119.20043 -34.20861,166.43793 3.56551,41.17977 16.26045,76.35407 46.77253,129.59431 l 9.89491,17.26553 h -97.41392 c -53.57766,0 -97.22116,-0.31929 -96.98556,-0.70954 z"
       id="path4486"
       transform="scale(0.26458333)" />
    <rect
       style="fill:#7f7878;fill-opacity:1;stroke:#7f7878;stroke-width:0.16199;stroke-opacity:1"
       id="rect846-80"
       width="49.745029"
       height="48.329063"
       x="16.898636"
       y="131.9463" />
    <path
       style="fill:#847c7c;fill-opacity:1;stroke:#847c7c;stroke-width:0.105281;stroke-opacity:1"
       d="m 34.14875,142.1296 c -1.4645,-1.31881 -2.65602,-2.40452 -2.64783,-2.41272 0.008,-0.008 1.34484,0.66532 2.97034,1.49669 1.62549,0.83136 2.98164,1.51157 3.01366,1.51157 0.032,0 1.95224,-0.34213 4.26714,-0.76029 l 4.20893,-0.76029 2.07385,-1.75699 c 1.14062,-0.96635 2.0812,-1.74984 2.09019,-1.74112 0.0163,0.0158 -3.47908,4.95148 -3.57576,5.04927 -0.0279,0.0282 -2.20155,0.43203 -4.83046,0.89745 -2.62891,0.46543 -4.80852,0.85253 -4.84358,0.86023 -0.0372,0.008 -1.17309,-0.98497 -2.72648,-2.3838 z"
       id="path3505-8" />
    <path
       style="fill:#7c7474;fill-opacity:1;stroke:#7c7474;stroke-width:0.0372226;stroke-opacity:1"
       d="m 31.4495,138.90586 c 0.0103,-0.0293 3.72866,-4.66528 3.74759,-4.67235 0.0392,-0.0146 8.34492,1.61065 11.10652,2.17335 1.54743,0.3153 2.80787,0.57508 2.80099,0.57732 -0.0116,0.004 -13.40948,-1.87035 -13.49719,-1.888 -0.0358,-0.007 -0.22647,0.16565 -1.99833,1.81194 -1.07731,1.00096 -2.00516,1.86348 -2.06191,1.9167 -0.0567,0.0532 -0.1007,0.0897 -0.0977,0.0811 z"
       id="path3507-87" />
    <path
       style="fill:#847c7c;fill-opacity:1;stroke:#847c7c;stroke-width:0.105281;stroke-opacity:1"
       d="m 52.51327,177.52949 c -1.94694,-0.431 -3.53753,-0.79272 -3.53465,-0.80379 0.003,-0.011 1.50708,-0.0768 3.34268,-0.1462 1.83559,-0.0693 3.36013,-0.13879 3.38786,-0.15434 0.0277,-0.0155 1.51482,-1.24438 3.30463,-2.73074 l 3.25421,-2.70247 0.89221,-2.52887 c 0.49071,-1.39088 0.90224,-2.52625 0.91451,-2.52306 0.0222,0.006 -0.46571,5.97806 -0.49912,6.1097 -0.01,0.038 -1.68451,1.44333 -3.72196,3.12311 -2.03746,1.67979 -3.72607,3.07354 -3.75247,3.09724 -0.028,0.0251 -1.52279,-0.2834 -3.5879,-0.74058 z"
       id="path3509-0" />
    <path
       style="fill:#7c7474;fill-opacity:1;stroke:#7c7474;stroke-width:0.0372226;stroke-opacity:1"
       d="m 48.51681,176.04823 c -0.006,-0.0305 0.82911,-5.85137 0.84188,-5.86669 0.0264,-0.0317 8.05628,-2.65755 10.73763,-3.51131 1.50246,-0.4784 2.7278,-0.8655 2.72299,-0.86023 -0.008,0.009 -12.57636,4.89213 -12.6614,4.91943 -0.0347,0.0111 -0.11092,0.25345 -0.79852,2.53979 -0.41806,1.39011 -0.77792,2.58774 -0.79968,2.6614 -0.0218,0.0736 -0.0411,0.12658 -0.0429,0.11761 z"
       id="path3511-8" />
    <path
       style="fill:#847c7c;fill-opacity:1;stroke:#847c7c;stroke-width:0.105281;stroke-opacity:1"
       d="m 33.4809,158.67783 6.94767,-0.55377 2.51929,-1.84283 c 1.38561,-1.01355 2.51091,-1.85097 2.50066,-1.86093 -0.0102,-0.01 -1.1427,0.44067 -2.51658,1.00139 l -2.49795,1.01947 -6.52542,0.55928 -6.5254,0.55927 -4.17694,-1.95202 c -2.29732,-1.0736 -4.18447,-1.94471 -4.19367,-1.93576 -0.0275,0.0266 7.38227,5.54714 7.45432,5.55367 0.0365,0.003 3.19279,-0.2432 7.01402,-0.54777 z"
       id="path4437-6" />
    <path
       style="fill:#7c7474;fill-opacity:1;stroke:#7c7474;stroke-width:0.105281;stroke-opacity:1"
       d="m 43.6064,151.44929 -1.98661,-2.21711 -5.88589,-0.77397 c -3.23724,-0.42568 -5.9484,-0.775 -6.0248,-0.77625 -0.12802,-0.002 -7.28313,1.68938 -7.4626,1.76417 -0.0756,0.0316 -3.47199,3.44464 -3.4502,3.4672 0.006,0.006 0.98881,-0.57498 2.18465,-1.2909 l 2.17426,-1.30167 3.17745,-0.77067 3.17746,-0.77068 5.76136,0.87036 5.76136,0.87034 2.25512,1.57313 c 1.24032,0.86524 2.26636,1.57315 2.28009,1.57315 0.0137,0 -0.86902,-0.99769 -1.96165,-2.2171 z"
       id="path4439-3" />
    <path
       style="fill:#847c7c;fill-opacity:1;stroke:#847c7c;stroke-width:0.14889;stroke-opacity:1"
       d="m 28.62227,177.90332 c -1.70234,-0.0212 -3.6496,-0.0425 -4.32723,-0.0472 l -1.23206,-0.008 -1.90176,-2.08726 c -1.04597,-1.148 -1.89243,-2.09695 -1.88104,-2.10878 0.0114,-0.0118 0.90777,0.52902 1.99192,1.20189 1.08415,0.67286 2.00091,1.24 2.03725,1.2603 0.0363,0.0203 2.07824,0.0901 4.53758,0.1551 2.45933,0.065 4.70536,0.12502 4.99117,0.13337 l 0.51965,0.0151 2.26812,-4.07451 c 1.24747,-2.24098 2.27829,-4.06463 2.29071,-4.05256 0.0125,0.012 -0.75363,2.19375 -1.70235,4.84818 l -1.72495,4.82622 -1.38592,-0.0114 c -0.76226,-0.006 -2.77875,-0.0289 -4.48109,-0.0501 z"
       id="path4869-2" />
    <path
       style="fill:#7c7474;fill-opacity:1;stroke:#7c7474;stroke-width:0.14889;stroke-opacity:1"
       d="m 19.61959,172.61984 c 0.0178,-0.0173 1.6518,-1.25308 3.63106,-2.74612 l 3.59866,-2.71463 4.86813,0.0378 c 2.67747,0.0207 5.02776,0.0544 5.22288,0.0747 0.30242,0.0315 -0.35636,0.13821 -4.46663,0.72313 l -4.82138,0.68609 -3.9875,1.98523 c -3.59474,1.78968 -4.15477,2.06016 -4.04522,1.95374 z"
       id="path4871-6" />
    <path
       style="fill:#847c7c;fill-opacity:1;stroke:#847c7c;stroke-width:0.14889;stroke-opacity:1"
       d="m 56.50055,160.4799 c -1.70234,-0.0212 -3.64959,-0.0425 -4.32723,-0.0472 l -1.23205,-0.008 -1.90177,-2.08727 c -1.04597,-1.148 -1.89243,-2.09694 -1.88103,-2.10877 0.0114,-0.0118 0.90776,0.52901 1.99191,1.20188 1.08415,0.67287 2.00091,1.24001 2.03725,1.2603 0.0363,0.0203 2.07825,0.0901 4.53758,0.1551 2.45933,0.065 4.70536,0.12503 4.99117,0.13337 l 0.51966,0.0151 2.26811,-4.07451 c 1.24747,-2.24098 2.27829,-4.06463 2.29072,-4.05256 0.0125,0.012 -0.75364,2.19375 -1.70236,4.84818 l -1.72495,4.82622 -1.38592,-0.0114 c -0.76226,-0.006 -2.77875,-0.0289 -4.48109,-0.0501 z"
       id="path4873-79" />
    <path
       style="fill:#7c7474;fill-opacity:1;stroke:#7c7474;stroke-width:0.14889;stroke-opacity:1"
       d="m 47.49787,155.19642 c 0.0178,-0.0173 1.6518,-1.25307 3.63106,-2.74612 l 3.59866,-2.71463 4.86813,0.0378 c 2.67747,0.0207 5.02777,0.0544 5.22288,0.0748 0.30242,0.0316 -0.35636,0.1382 -4.46663,0.72312 l -4.82138,0.68611 -3.98749,1.98522 c -3.59475,1.78968 -4.15478,2.06015 -4.04523,1.95373 z"
       id="path4875-0" />
    <path
       style="fill:#847c7c;fill-opacity:1;stroke:#847c7c;stroke-width:0.0652547;stroke-opacity:1"
       d="m 27.6024,165.43402 c 1.13535,-0.47702 2.06187,-0.8726 2.05894,-0.87908 -0.003,-0.006 -0.92295,0.11733 -2.04446,0.27515 -1.12152,0.15782 -2.05426,0.28161 -2.07277,0.2751 -0.0185,-0.006 -1.05304,-0.59828 -2.29897,-1.31503 l -2.26534,-1.30318 -0.81312,-1.45448 c -0.44723,-0.79995 -0.81895,-1.45177 -0.82605,-1.44847 -0.0128,0.006 0.92476,3.61766 0.95917,3.69479 0.01,0.0222 1.1774,0.70184 2.59441,1.51026 1.41701,0.80842 2.59158,1.47938 2.61015,1.49103 0.0197,0.0124 0.89378,-0.34013 2.09804,-0.84609 z"
       id="path4877-9" />
    <path
       style="fill:#7c7474;fill-opacity:1;stroke:#7c7474;stroke-width:0.0230711;stroke-opacity:1"
       d="m 29.86885,164.0888 c 4.2e-4,-0.0193 -1.13171,-3.50026 -1.1411,-3.50827 -0.0195,-0.0165 -5.17501,-0.75143 -6.89409,-0.98266 -0.96327,-0.12957 -1.74854,-0.23337 -1.74505,-0.23067 0.006,0.005 8.15838,1.62932 8.21292,1.6368 0.0223,0.003 0.0945,0.14343 0.75744,1.4714 0.40305,0.80741 0.75009,1.50308 0.77121,1.5459 0.0211,0.0429 0.0385,0.0732 0.0387,0.0675 z"
       id="path4879-7" />
    <path
       style="fill:#847c7c;fill-opacity:1;stroke:#847c7c;stroke-width:0.0663812;stroke-opacity:1"
       d="m 45.94531,167.05196 5.60842,0.76463 2.18838,-0.51032 c 1.2036,-0.28066 2.18243,-0.51545 2.17518,-0.52174 -0.007,-0.006 -0.95537,0.042 -2.10693,0.10712 l -2.09374,0.11857 -5.27124,-0.69938 -5.27124,-0.69938 -3.15648,-1.55563 c -1.73608,-0.8556 -3.1632,-1.55324 -3.1714,-1.55032 -0.0245,0.009 5.38114,3.75529 5.43814,3.76909 0.0288,0.007 2.57628,0.35681 5.66091,0.77736 z"
       id="path4881-3" />
    <path
       style="fill:#7c7474;fill-opacity:1;stroke:#7c7474;stroke-width:0.0663812;stroke-opacity:1"
       d="M 54.72403,165.08636 53.34418,163.72838 48.71,162.48436 c -2.54879,-0.68421 -4.68407,-1.25378 -4.74506,-1.26571 -0.10219,-0.0199 -5.98369,-0.26969 -6.13426,-0.26043 -0.0634,0.004 -3.1012,1.13732 -3.0859,1.15138 0.004,0.004 0.84496,-0.12916 1.86876,-0.29521 l 1.86146,-0.30192 2.61371,0.10153 2.6137,0.10153 4.52551,1.27177 4.52551,1.27178 1.65526,1.08893 c 0.91039,0.59891 1.66424,1.09059 1.67522,1.09264 0.011,0.002 -0.60096,-0.6074 -1.35988,-1.35429 z"
       id="path4883-05" />
    <path
       style="fill:#ebd576;fill-opacity:1;stroke:#ebd576;stroke-width:0.0578656;stroke-opacity:1"
       d="m 58.61906,145.41776 1.2396,-2.56421 -0.8702,-0.98016 c -0.47861,-0.53911 -0.87878,-0.97736 -0.88926,-0.9739 -0.0105,0.004 0.0771,0.43246 0.19459,0.95336 l 0.21365,0.9471 -1.13279,2.40955 -1.1328,2.40955 -2.58163,1.4715 c -1.4199,0.80933 -2.57758,1.4745 -2.57264,1.47815 0.0148,0.0109 6.24825,-2.5364 6.27096,-2.56261 0.0117,-0.0132 0.57874,-1.17803 1.26052,-2.58833 z"
       id="path4881-6-2-8" />
    <path
       style="fill:#d6bd4f;fill-opacity:1;stroke:#d6bd4f;stroke-width:0.0578656;stroke-opacity:1"
       d="m 55.26473,141.48372 -2.26358,0.66033 -2.04924,2.13419 c -1.12708,1.17381 -2.06522,2.15709 -2.08476,2.18506 -0.0326,0.0469 -0.40826,2.72202 -0.39166,2.79011 0.007,0.0286 2.5458,1.3224 2.56922,1.3151 0.006,-0.002 -0.84159,-0.32397 -1.127,-0.78435 l -0.51894,-0.83708 0.15108,-1.18858 0.15108,-1.18859 2.0965,-2.08558 2.0965,-2.08557 1.81114,-0.77854 c 0.99613,-0.42819 2.36432,-0.70821 2.36765,-0.71325 0.003,-0.005 -1.56302,0.21357 -2.80799,0.57675 z"
       id="path4883-7-37-7"
       sodipodi:nodetypes="scscssscccccscs" />
    <path
       style="fill:#ebcf57;fill-opacity:1;stroke:#ebcf57;stroke-width:0.16553;stroke-linecap:round;stroke-linejoin:round;stroke-miterlimit:4;stroke-dasharray:none;stroke-opacity:1"
       d="m 57.30217,145.21811 -1.12938,2.39437 -1.72132,0.98064 c -0.94672,0.53936 -2.09618,1.19754 -2.55435,1.46266 l -0.83304,0.48201 -0.22145,-0.10931 c -0.3584,-0.17691 -0.56871,-0.32132 -0.7388,-0.5073 -0.0475,-0.052 -0.20953,-0.29439 -0.36008,-0.53878 l -0.27373,-0.44435 0.15454,-1.18858 0.15454,-1.18858 2.09063,-2.07672 2.09065,-2.07672 0.90487,-0.38908 c 0.49769,-0.21399 1.00791,-0.42969 1.13385,-0.47932 0.44926,-0.17708 0.9928,-0.34194 1.71893,-0.52136 0.16041,-0.0397 0.29575,-0.071 0.30077,-0.0696 0.005,0.001 0.0352,0.1254 0.067,0.27575 0.0319,0.15035 0.12438,0.56956 0.2056,0.93159 0.0812,0.36203 0.14599,0.66052 0.1439,0.66331 -0.002,0.003 -0.512,1.08253 -1.13316,2.39943 z"
       id="path1308-59-5" />
    <path
       style="fill:#ebd576;fill-opacity:1;stroke:#ebd576;stroke-width:0.0834784;stroke-opacity:1"
       d="m 45.68691,160.9668 8.94302,0.79913 3.35753,-0.502 c 1.84664,-0.27609 3.34735,-0.50721 3.33492,-0.51358 -0.0125,-0.006 -1.4953,0.0372 -3.29528,0.0967 l -3.27267,0.10826 -8.40221,-0.73169 -8.40222,-0.73168 -5.21692,-1.58221 c -2.86931,-0.87021 -5.22708,-1.57984 -5.2395,-1.57694 -0.0371,0.009 9.07382,3.80762 9.1657,3.82181 0.0465,0.007 4.10897,0.3727 9.02763,0.81222 z"
       id="path4881-6-9-5" />
    <path
       style="fill:#d6bd4f;fill-opacity:1;stroke:#d6bd4f;stroke-width:0.0834784;stroke-opacity:1"
       d="m 59.169,159.03508 -2.3912,-1.37392 -7.48947,-1.27642 c -4.11919,-0.70203 -7.56949,-1.28651 -7.66733,-1.29883 -0.16393,-0.0206 -9.45228,-0.30304 -9.68752,-0.29451 -0.099,0.004 -4.46756,1.50139 -4.44121,1.51561 0.007,0.004 1.08459,-0.49873 2.66723,-0.66043 l 2.87752,-0.294 4.12616,0.11599 4.12615,0.11598 7.32312,1.30378 7.32312,1.30379 2.78033,1.10461 c 1.52918,0.60753 2.5617,1.43545 2.5793,1.43755 0.0175,0.002 -0.81102,-0.94354 -2.1262,-1.6992 z"
       id="path4883-7-2-5"
       sodipodi:nodetypes="scscssscccccscs" />
    <path
       style="fill:#ebcf57;fill-opacity:1;stroke:#ebcf57;stroke-width:0.238797;stroke-linecap:round;stroke-linejoin:round;stroke-miterlimit:4;stroke-dasharray:none;stroke-opacity:1"
       d="m 46.31908,160.17988 -8.34944,-0.7293 -3.4767,-1.05494 c -1.91219,-0.58022 -4.24544,-1.28475 -5.185,-1.56564 l -1.70831,-0.51069 0.36878,-0.13073 c 0.59687,-0.21156 1.0878,-0.33485 1.72466,-0.43308 0.17785,-0.0274 1.01075,-0.11964 1.85092,-0.2049 l 1.52756,-0.15502 4.12629,0.11807 4.12631,0.11805 7.29213,1.30008 7.29214,1.30007 1.3895,0.55189 c 0.76423,0.30353 1.53492,0.61464 1.71265,0.69135 0.63408,0.27367 1.23008,0.60372 1.88484,1.04376 0.14465,0.0972 0.25943,0.17919 0.2551,0.18217 -0.004,0.003 -0.43303,0.0185 -0.95266,0.0345 -0.51962,0.0159 -1.96832,0.0626 -3.21933,0.10375 -1.251,0.0411 -2.28252,0.0737 -2.29227,0.0724 -0.01,-10e-4 -3.77496,-0.33058 -8.36717,-0.7317 z"
       id="path1308-0-3" />
    <path
       style="fill:#ebd576;fill-opacity:1;stroke:#ebd576;stroke-width:0.0663812;stroke-opacity:1"
       d="m 30.94921,174.66517 5.65872,-0.22295 2.05902,-0.88261 c 1.13247,-0.48543 2.05224,-0.88664 2.04394,-0.89157 -0.008,-0.005 -0.93222,0.20737 -2.05316,0.47178 l -2.0381,0.48072 -5.31495,0.22852 -5.31497,0.22852 -3.39211,-0.98163 c -1.86566,-0.5399 -3.39826,-0.97812 -3.40579,-0.97382 -0.0225,0.0128 5.98607,2.75893 6.04469,2.7626 0.0297,0.002 2.60041,-0.097 5.71271,-0.21956 z"
       id="path4881-6-5-5" />
    <path
       style="fill:#d6bd4f;fill-opacity:1;stroke:#d6bd4f;stroke-width:0.0663812;stroke-opacity:1"
       d="m 39.22405,171.2048 -1.60774,-1.09612 -4.78852,-0.4181 c -2.63369,-0.22995 -4.83941,-0.41903 -4.90161,-0.42017 -0.10422,-0.002 -5.93675,0.77516 -6.08319,0.81045 -0.0617,0.0148 -2.67174,2.0046 -2.6541,2.01576 0.005,0.003 0.63766,-0.62037 1.61434,-0.96177 l 1.77578,-0.62072 2.59021,-0.35461 2.5902,-0.3546 4.68673,0.46431 4.68672,0.46431 1.82914,0.78351 c 1.00603,0.43094 1.71939,1.13799 1.73057,1.13809 0.0112,0 -0.58427,-0.84748 -1.46853,-1.45034 z"
       id="path4883-7-3-4"
       sodipodi:nodetypes="scscssscccccscs" />
    <path
       style="fill:#ebcf57;fill-opacity:1;stroke:#ebcf57;stroke-width:0.189889;stroke-linecap:round;stroke-linejoin:round;stroke-miterlimit:4;stroke-dasharray:none;stroke-opacity:1"
       d="m 31.28039,173.80928 -5.28176,0.22487 -2.26064,-0.6547 c -1.24335,-0.36007 -2.76021,-0.79602 -3.37079,-0.96876 l -1.11016,-0.31406 0.21999,-0.17224 c 0.35605,-0.27875 0.65304,-0.45748 1.04336,-0.6279 0.10899,-0.0476 0.62242,-0.23434 1.14095,-0.41499 l 0.94277,-0.32847 2.59047,-0.35256 2.59048,-0.35254 4.66703,0.46414 4.66705,0.46414 0.91411,0.39142 c 0.50277,0.21527 1.0102,0.43736 1.12762,0.49352 0.41893,0.20036 0.81864,0.46121 1.26408,0.82494 0.0984,0.0804 0.17689,0.14892 0.17442,0.1524 -0.003,0.004 -0.26934,0.0677 -0.59304,0.14283 -0.3237,0.0751 -1.22599,0.28667 -2.00509,0.47017 -0.77909,0.1835 -1.42161,0.33347 -1.42782,0.33327 -0.006,-1.3e-4 -2.38806,0.10083 -5.29303,0.22452 z"
       id="path1308-5-6" />
    <path
       style="fill:#ebd576;fill-opacity:1;stroke:#ebd576;stroke-width:0.105281;stroke-opacity:1"
       d="m 48.09257,172.02819 c -1.4645,-1.3188 -2.65603,-2.40451 -2.64784,-2.4127 0.008,-0.008 1.34484,0.66531 2.97034,1.49668 1.62549,0.83136 2.98165,1.51157 3.01366,1.51157 0.032,0 1.95224,-0.34212 4.26715,-0.76029 l 4.20892,-0.76029 2.07386,-1.75699 c 1.14062,-0.96634 2.0812,-1.74984 2.09018,-1.74112 0.0163,0.0158 -3.47908,4.95148 -3.57575,5.04928 -0.0279,0.0282 -2.20156,0.43202 -4.83047,0.89745 -2.62891,0.46542 -4.80852,0.85252 -4.84358,0.86022 -0.0372,0.008 -1.17309,-0.98497 -2.72647,-2.38381 z"
       id="path3505-1-6-7" />
    <path
       style="fill:#d6bd4f;fill-opacity:1;stroke:#d6bd4f;stroke-width:0.0372226;stroke-opacity:1"
       d="m 45.45982,169.27302 c -3.6e-4,-0.0311 3.66215,-5.13385 3.68108,-5.1409 0.0392,-0.0146 8.34493,1.61065 11.10652,2.17334 1.54743,0.3153 3.80273,1.2907 3.79584,1.29292 -0.0116,0.004 -14.40433,-2.58595 -14.49204,-2.60361 -0.0358,-0.007 -0.22647,0.16566 -1.99833,1.81196 -1.0773,1.00095 -2.06724,2.70554 -2.12399,2.75877 -0.0567,0.0532 0.0329,-0.16982 0.0309,-0.29248 z"
       id="path3507-2-2-7"
       sodipodi:nodetypes="ssssssss" />
    <path
       style="fill:#ebcf57;fill-opacity:1;stroke:#ebcf57;stroke-width:0.244442;stroke-linecap:round;stroke-linejoin:round;stroke-miterlimit:4;stroke-dasharray:none;stroke-opacity:1"
       d="m 50.07161,171.83423 c -3.55115,-1.78752 -4.3436,-2.18155 -4.45675,-2.21601 -0.1408,-0.0429 0.51894,-1.07258 1.25902,-1.965 0.54023,-0.65144 2.58589,-2.56212 2.74385,-2.56281 0.12698,-4.6e-4 13.98885,2.46973 14.16377,2.52408 0.0645,0.02 -0.0949,0.19661 -0.38248,0.42342 -0.43775,0.34528 -2.78399,2.31134 -3.34052,2.79924 -0.18215,0.15968 -0.80909,0.29329 -4.39138,0.93591 -2.29839,0.4123 -4.19164,0.74875 -4.20724,0.74766 -0.0156,-9.1e-4 -0.64031,-0.31 -1.38827,-0.68649 z"
       id="path5603-6-7" />
    <path
       style="fill:#ebd576;fill-opacity:1;stroke:#ebd576;stroke-width:0.126492;stroke-opacity:1"
       d="m 40.98976,147.82278 c 2.37784,-0.78797 4.31559,-1.44142 4.30614,-1.45213 -0.009,-0.0107 -2.04889,0.19376 -4.53208,0.45439 -2.48318,0.26062 -4.55159,0.46504 -4.59646,0.45427 -0.0449,-0.0107 -2.65152,-0.98851 -5.79255,-2.17276 l -5.71096,-2.1532 -2.47285,-2.403 c -1.36006,-1.32165 -2.4849,-2.39854 -2.49964,-2.39309 -0.0267,0.01 3.65394,5.97679 3.76528,6.10423 0.0321,0.0367 2.97876,1.15961 6.54818,2.49533 3.56942,1.33571 6.52849,2.44433 6.57573,2.46359 0.0501,0.0204 1.88705,-0.56185 4.40921,-1.39763 z"
       id="path3505-1-7-3-95" />
    <path
       style="fill:#d6bd4f;fill-opacity:1;stroke:#d6bd4f;stroke-width:0.044722;stroke-opacity:1"
       d="m 45.35926,146.03309 c 0.008,-0.0299 -3.8655,-6.21537 -3.8903,-6.22861 -0.0514,-0.0273 -12.09236,-1.24194 -16.10143,-1.62413 -2.24642,-0.21415 -5.64778,-0.0254 -5.63868,-0.0209 0.0153,0.008 20.82494,2.3323 20.9522,2.34465 0.052,0.005 0.27652,0.23697 2.35345,2.43097 1.26279,1.33397 2.22951,3.32167 2.29591,3.39243 0.0664,0.0707 -0.004,-0.17592 0.0288,-0.29435 z"
       id="path3507-2-0-6-9"
       sodipodi:nodetypes="ssssssss" />
    <path
       style="fill:#ebcf57;fill-opacity:1;stroke:#ebcf57;stroke-width:0.29369;stroke-linecap:round;stroke-linejoin:round;stroke-miterlimit:4;stroke-dasharray:none;stroke-opacity:1"
       d="m 38.2641,146.9691 c 5.41782,-0.54147 6.62562,-0.65758 6.7927,-0.653 0.20791,0.006 -0.4626,-1.21577 -1.27958,-2.33098 -0.59635,-0.81407 -2.99177,-3.35682 -3.21296,-3.41059 -0.17784,-0.0432 -20.21398,-2.30545 -20.47253,-2.31149 -0.0954,-0.002 0.0845,0.22278 0.43154,0.53965 0.52827,0.48238 3.33127,3.17996 3.99082,3.84073 0.21587,0.21626 1.06152,0.55676 5.92332,2.38504 3.11933,1.17301 5.6896,2.13617 5.71172,2.14037 0.0221,0.004 0.97386,-0.0857 2.11497,-0.19973 z"
       id="path5603-9-0-6" />
    <rect
       style="fill:#7f7878;fill-opacity:1;stroke:#7f7878;stroke-width:0.16199;stroke-opacity:1"
       id="rect846-80-7"
       width="49.745029"
       height="48.329063"
       x="141.50412"
       y="133.00829" />
    <path
       style="fill:#847c7c;fill-opacity:1;stroke:#847c7c;stroke-width:0.105281;stroke-opacity:1"
       d="m 158.75424,143.19158 c -1.4645,-1.31881 -2.65602,-2.40452 -2.64783,-2.41272 0.008,-0.008 1.34484,0.66532 2.97034,1.49669 1.62549,0.83136 2.98164,1.51157 3.01366,1.51157 0.032,0 1.95224,-0.34213 4.26714,-0.76029 l 4.20893,-0.76029 2.07385,-1.75699 c 1.14062,-0.96635 2.0812,-1.74984 2.09019,-1.74112 0.0163,0.0158 -3.47908,4.95148 -3.57576,5.04927 -0.0279,0.0282 -2.20155,0.43203 -4.83046,0.89745 -2.62891,0.46543 -4.80852,0.85253 -4.84358,0.86023 -0.0372,0.008 -1.17309,-0.98497 -2.72648,-2.3838 z"
       id="path3505-8-1" />
    <path
       style="fill:#7c7474;fill-opacity:1;stroke:#7c7474;stroke-width:0.0372226;stroke-opacity:1"
       d="m 156.05499,139.96784 c 0.0103,-0.0293 3.72866,-4.66528 3.74759,-4.67235 0.0392,-0.0146 8.34492,1.61065 11.10652,2.17335 1.54743,0.3153 2.80787,0.57508 2.80099,0.57732 -0.0116,0.004 -13.40948,-1.87035 -13.49719,-1.888 -0.0358,-0.007 -0.22647,0.16565 -1.99833,1.81194 -1.07731,1.00096 -2.00516,1.86348 -2.06191,1.9167 -0.0567,0.0532 -0.1007,0.0897 -0.0977,0.0811 z"
       id="path3507-87-7" />
    <path
       style="fill:#847c7c;fill-opacity:1;stroke:#847c7c;stroke-width:0.105281;stroke-opacity:1"
       d="m 177.11876,178.59147 c -1.94694,-0.431 -3.53753,-0.79272 -3.53465,-0.80379 0.003,-0.011 1.50708,-0.0768 3.34268,-0.1462 1.83559,-0.0693 3.36013,-0.13879 3.38786,-0.15434 0.0277,-0.0155 1.51482,-1.24438 3.30463,-2.73074 l 3.25421,-2.70247 0.89221,-2.52887 c 0.49071,-1.39088 0.90224,-2.52625 0.91451,-2.52306 0.0222,0.006 -0.46571,5.97806 -0.49912,6.1097 -0.01,0.038 -1.68451,1.44333 -3.72196,3.12311 -2.03746,1.67979 -3.72607,3.07354 -3.75247,3.09724 -0.028,0.0251 -1.52279,-0.2834 -3.5879,-0.74058 z"
       id="path3509-0-2" />
    <path
       style="fill:#7c7474;fill-opacity:1;stroke:#7c7474;stroke-width:0.0372226;stroke-opacity:1"
       d="m 173.1223,177.11021 c -0.006,-0.0305 0.82911,-5.85137 0.84188,-5.86669 0.0264,-0.0317 8.05628,-2.65755 10.73763,-3.51131 1.50246,-0.4784 2.7278,-0.8655 2.72299,-0.86023 -0.008,0.009 -12.57636,4.89213 -12.6614,4.91943 -0.0347,0.0111 -0.11092,0.25345 -0.79852,2.53979 -0.41806,1.39011 -0.77792,2.58774 -0.79968,2.6614 -0.0218,0.0736 -0.0411,0.12658 -0.0429,0.11761 z"
       id="path3511-8-2" />
    <path
       style="fill:#847c7c;fill-opacity:1;stroke:#847c7c;stroke-width:0.105281;stroke-opacity:1"
       d="m 158.08639,159.73981 6.94767,-0.55377 2.51929,-1.84283 c 1.38561,-1.01355 2.51091,-1.85097 2.50066,-1.86093 -0.0102,-0.01 -1.1427,0.44067 -2.51658,1.00139 l -2.49795,1.01947 -6.52542,0.55928 -6.5254,0.55927 -4.17694,-1.95202 c -2.29732,-1.0736 -4.18447,-1.94471 -4.19367,-1.93576 -0.0275,0.0266 7.38227,5.54714 7.45432,5.55367 0.0365,0.003 3.19279,-0.2432 7.01402,-0.54777 z"
       id="path4437-6-9" />
    <path
       style="fill:#7c7474;fill-opacity:1;stroke:#7c7474;stroke-width:0.105281;stroke-opacity:1"
       d="m 168.21189,152.51127 -1.98661,-2.21711 -5.88589,-0.77397 c -3.23724,-0.42568 -5.9484,-0.775 -6.0248,-0.77625 -0.12802,-0.002 -7.28313,1.68938 -7.4626,1.76417 -0.0756,0.0316 -3.47199,3.44464 -3.4502,3.4672 0.006,0.006 0.98881,-0.57498 2.18465,-1.2909 l 2.17426,-1.30167 3.17745,-0.77067 3.17746,-0.77068 5.76136,0.87036 5.76136,0.87034 2.25512,1.57313 c 1.24032,0.86524 2.26636,1.57315 2.28009,1.57315 0.0137,0 -0.86902,-0.99769 -1.96165,-2.2171 z"
       id="path4439-3-6" />
    <path
       style="fill:#847c7c;fill-opacity:1;stroke:#847c7c;stroke-width:0.14889;stroke-opacity:1"
       d="m 153.22776,178.9653 c -1.70234,-0.0212 -3.6496,-0.0425 -4.32723,-0.0472 l -1.23206,-0.008 -1.90176,-2.08726 c -1.04597,-1.148 -1.89243,-2.09695 -1.88104,-2.10878 0.0114,-0.0118 0.90777,0.52902 1.99192,1.20189 1.08415,0.67286 2.00091,1.24 2.03725,1.2603 0.0363,0.0203 2.07824,0.0901 4.53758,0.1551 2.45933,0.065 4.70536,0.12502 4.99117,0.13337 l 0.51965,0.0151 2.26812,-4.07451 c 1.24747,-2.24098 2.27829,-4.06463 2.29071,-4.05256 0.0125,0.012 -0.75363,2.19375 -1.70235,4.84818 l -1.72495,4.82622 -1.38592,-0.0114 c -0.76226,-0.006 -2.77875,-0.0289 -4.48109,-0.0501 z"
       id="path4869-2-6" />
    <path
       style="fill:#7c7474;fill-opacity:1;stroke:#7c7474;stroke-width:0.14889;stroke-opacity:1"
       d="m 144.22508,173.68182 c 0.0178,-0.0173 1.6518,-1.25308 3.63106,-2.74612 l 3.59866,-2.71463 4.86813,0.0378 c 2.67747,0.0207 5.02776,0.0544 5.22288,0.0747 0.30242,0.0315 -0.35636,0.13821 -4.46663,0.72313 l -4.82138,0.68609 -3.9875,1.98523 c -3.59474,1.78968 -4.15477,2.06016 -4.04522,1.95374 z"
       id="path4871-6-8" />
    <path
       style="fill:#847c7c;fill-opacity:1;stroke:#847c7c;stroke-width:0.14889;stroke-opacity:1"
       d="m 181.10604,161.54188 c -1.70234,-0.0212 -3.64959,-0.0425 -4.32723,-0.0472 l -1.23205,-0.008 -1.90177,-2.08727 c -1.04597,-1.148 -1.89243,-2.09694 -1.88103,-2.10877 0.0114,-0.0118 0.90776,0.52901 1.99191,1.20188 1.08415,0.67287 2.00091,1.24001 2.03725,1.2603 0.0363,0.0203 2.07825,0.0901 4.53758,0.1551 2.45933,0.065 4.70536,0.12503 4.99117,0.13337 l 0.51966,0.0151 2.26811,-4.07451 c 1.24747,-2.24098 2.27829,-4.06463 2.29072,-4.05256 0.0125,0.012 -0.75364,2.19375 -1.70236,4.84818 l -1.72495,4.82622 -1.38592,-0.0114 c -0.76226,-0.006 -2.77875,-0.0289 -4.48109,-0.0501 z"
       id="path4873-79-4" />
    <path
       style="fill:#7c7474;fill-opacity:1;stroke:#7c7474;stroke-width:0.14889;stroke-opacity:1"
       d="m 172.10336,156.2584 c 0.0178,-0.0173 1.6518,-1.25307 3.63106,-2.74612 l 3.59866,-2.71463 4.86813,0.0378 c 2.67747,0.0207 5.02777,0.0544 5.22288,0.0748 0.30242,0.0316 -0.35636,0.1382 -4.46663,0.72312 l -4.82138,0.68611 -3.98749,1.98522 c -3.59475,1.78968 -4.15478,2.06015 -4.04523,1.95373 z"
       id="path4875-0-7" />
    <path
       style="fill:#847c7c;fill-opacity:1;stroke:#847c7c;stroke-width:0.0652547;stroke-opacity:1"
       d="m 152.20789,166.496 c 1.13535,-0.47702 2.06187,-0.8726 2.05894,-0.87908 -0.003,-0.006 -0.92295,0.11733 -2.04446,0.27515 -1.12152,0.15782 -2.05426,0.28161 -2.07277,0.2751 -0.0185,-0.006 -1.05304,-0.59828 -2.29897,-1.31503 l -2.26534,-1.30318 -0.81312,-1.45448 c -0.44723,-0.79995 -0.81895,-1.45177 -0.82605,-1.44847 -0.0128,0.006 0.92476,3.61766 0.95917,3.69479 0.01,0.0222 1.1774,0.70184 2.59441,1.51026 1.41701,0.80842 2.59158,1.47938 2.61015,1.49103 0.0197,0.0124 0.89378,-0.34013 2.09804,-0.84609 z"
       id="path4877-9-6" />
    <path
       style="fill:#7c7474;fill-opacity:1;stroke:#7c7474;stroke-width:0.0230711;stroke-opacity:1"
       d="m 154.47434,165.15078 c 4.2e-4,-0.0193 -1.13171,-3.50026 -1.1411,-3.50827 -0.0195,-0.0165 -5.17501,-0.75143 -6.89409,-0.98266 -0.96327,-0.12957 -1.74854,-0.23337 -1.74505,-0.23067 0.006,0.005 8.15838,1.62932 8.21292,1.6368 0.0223,0.003 0.0945,0.14343 0.75744,1.4714 0.40305,0.80741 0.75009,1.50308 0.77121,1.5459 0.0211,0.0429 0.0385,0.0732 0.0387,0.0675 z"
       id="path4879-7-5" />
    <path
       style="fill:#847c7c;fill-opacity:1;stroke:#847c7c;stroke-width:0.0663812;stroke-opacity:1"
       d="m 170.5508,168.11394 5.60842,0.76463 2.18838,-0.51032 c 1.2036,-0.28066 2.18243,-0.51545 2.17518,-0.52174 -0.007,-0.006 -0.95537,0.042 -2.10693,0.10712 l -2.09374,0.11857 -5.27124,-0.69938 -5.27124,-0.69938 -3.15648,-1.55563 c -1.73608,-0.8556 -3.1632,-1.55324 -3.1714,-1.55032 -0.0245,0.009 5.38114,3.75529 5.43814,3.76909 0.0288,0.007 2.57628,0.35681 5.66091,0.77736 z"
       id="path4881-3-1" />
    <path
       style="fill:#7c7474;fill-opacity:1;stroke:#7c7474;stroke-width:0.0663812;stroke-opacity:1"
       d="m 179.32952,166.14834 -1.37985,-1.35798 -4.63418,-1.24402 c -2.54879,-0.68421 -4.68407,-1.25378 -4.74506,-1.26571 -0.10219,-0.0199 -5.98369,-0.26969 -6.13426,-0.26043 -0.0634,0.004 -3.1012,1.13732 -3.0859,1.15138 0.004,0.004 0.84496,-0.12916 1.86876,-0.29521 l 1.86146,-0.30192 2.61371,0.10153 2.6137,0.10153 4.52551,1.27177 4.52551,1.27178 1.65526,1.08893 c 0.91039,0.59891 1.66424,1.09059 1.67522,1.09264 0.011,0.002 -0.60096,-0.6074 -1.35988,-1.35429 z"
       id="path4883-05-6" />
    <path
       style="fill:#ebd576;fill-opacity:1;stroke:#ebd576;stroke-width:0.0578656;stroke-opacity:1"
       d="m 183.22455,146.47974 1.2396,-2.56421 -0.8702,-0.98016 c -0.47861,-0.53911 -0.87878,-0.97736 -0.88926,-0.9739 -0.0105,0.004 0.0771,0.43246 0.19459,0.95336 l 0.21365,0.9471 -1.13279,2.40955 -1.1328,2.40955 -2.58163,1.4715 c -1.4199,0.80933 -2.57758,1.4745 -2.57264,1.47815 0.0148,0.0109 6.24825,-2.5364 6.27096,-2.56261 0.0117,-0.0132 0.57874,-1.17803 1.26052,-2.58833 z"
       id="path4881-6-2-8-4" />
    <path
       style="fill:#d6bd4f;fill-opacity:1;stroke:#d6bd4f;stroke-width:0.0578656;stroke-opacity:1"
       d="m 179.87022,142.5457 -2.26358,0.66033 -2.04924,2.13419 c -1.12708,1.17381 -2.06522,2.15709 -2.08476,2.18506 -0.0326,0.0469 -0.40826,2.72202 -0.39166,2.79011 0.007,0.0286 2.5458,1.3224 2.56922,1.3151 0.006,-0.002 -0.84159,-0.32397 -1.127,-0.78435 l -0.51894,-0.83708 0.15108,-1.18858 0.15108,-1.18859 2.0965,-2.08558 2.0965,-2.08557 1.81114,-0.77854 c 0.99613,-0.42819 2.36432,-0.70821 2.36765,-0.71325 0.003,-0.005 -1.56302,0.21357 -2.80799,0.57675 z"
       id="path4883-7-37-7-2"
       sodipodi:nodetypes="scscssscccccscs" />
    <path
       style="fill:#ebcf57;fill-opacity:1;stroke:#ebcf57;stroke-width:0.16553;stroke-linecap:round;stroke-linejoin:round;stroke-miterlimit:4;stroke-dasharray:none;stroke-opacity:1"
       d="m 181.90766,146.28009 -1.12938,2.39437 -1.72132,0.98064 c -0.94672,0.53936 -2.09618,1.19754 -2.55435,1.46266 l -0.83304,0.48201 -0.22145,-0.10931 c -0.3584,-0.17691 -0.56871,-0.32132 -0.7388,-0.5073 -0.0475,-0.052 -0.20953,-0.29439 -0.36008,-0.53878 l -0.27373,-0.44435 0.15454,-1.18858 0.15454,-1.18858 2.09063,-2.07672 2.09065,-2.07672 0.90487,-0.38908 c 0.49769,-0.21399 1.00791,-0.42969 1.13385,-0.47932 0.44926,-0.17708 0.9928,-0.34194 1.71893,-0.52136 0.16041,-0.0397 0.29575,-0.071 0.30077,-0.0696 0.005,10e-4 0.0352,0.1254 0.067,0.27575 0.0319,0.15035 0.12438,0.56956 0.2056,0.93159 0.0812,0.36203 0.14599,0.66052 0.1439,0.66331 -0.002,0.003 -0.512,1.08253 -1.13316,2.39943 z"
       id="path1308-59-5-1" />
    <path
       style="fill:#ebd576;fill-opacity:1;stroke:#ebd576;stroke-width:0.0834784;stroke-opacity:1"
       d="m 170.2924,162.02878 8.94302,0.79913 3.35753,-0.502 c 1.84664,-0.27609 3.34735,-0.50721 3.33492,-0.51358 -0.0125,-0.006 -1.4953,0.0372 -3.29528,0.0967 l -3.27267,0.10826 -8.40221,-0.73169 -8.40222,-0.73168 -5.21692,-1.58221 c -2.86931,-0.87021 -5.22708,-1.57984 -5.2395,-1.57694 -0.0371,0.009 9.07382,3.80762 9.1657,3.82181 0.0465,0.007 4.10897,0.3727 9.02763,0.81222 z"
       id="path4881-6-9-5-7" />
    <path
       style="fill:#d6bd4f;fill-opacity:1;stroke:#d6bd4f;stroke-width:0.0834784;stroke-opacity:1"
       d="m 183.77449,160.09706 -2.3912,-1.37392 -7.48947,-1.27642 c -4.11919,-0.70203 -7.56949,-1.28651 -7.66733,-1.29883 -0.16393,-0.0206 -9.45228,-0.30304 -9.68752,-0.29451 -0.099,0.004 -4.46756,1.50139 -4.44121,1.51561 0.007,0.004 1.08459,-0.49873 2.66723,-0.66043 l 2.87752,-0.294 4.12616,0.11599 4.12615,0.11598 7.32312,1.30378 7.32312,1.30379 2.78033,1.10461 c 1.52918,0.60753 2.5617,1.43545 2.5793,1.43755 0.0175,0.002 -0.81102,-0.94354 -2.1262,-1.6992 z"
       id="path4883-7-2-5-3"
       sodipodi:nodetypes="scscssscccccscs" />
    <path
       style="fill:#ebcf57;fill-opacity:1;stroke:#ebcf57;stroke-width:0.238797;stroke-linecap:round;stroke-linejoin:round;stroke-miterlimit:4;stroke-dasharray:none;stroke-opacity:1"
       d="m 170.92457,161.24186 -8.34944,-0.7293 -3.4767,-1.05494 c -1.91219,-0.58022 -4.24544,-1.28475 -5.185,-1.56564 l -1.70831,-0.51069 0.36878,-0.13073 c 0.59687,-0.21156 1.0878,-0.33485 1.72466,-0.43308 0.17785,-0.0274 1.01075,-0.11964 1.85092,-0.2049 l 1.52756,-0.15502 4.12629,0.11807 4.12631,0.11805 7.29213,1.30008 7.29214,1.30007 1.3895,0.55189 c 0.76423,0.30353 1.53492,0.61464 1.71265,0.69135 0.63408,0.27367 1.23008,0.60372 1.88484,1.04376 0.14465,0.0972 0.25943,0.17919 0.2551,0.18217 -0.004,0.003 -0.43303,0.0185 -0.95266,0.0345 -0.51962,0.0159 -1.96832,0.0626 -3.21933,0.10375 -1.251,0.0411 -2.28252,0.0737 -2.29227,0.0724 -0.01,-0.001 -3.77496,-0.33058 -8.36717,-0.7317 z"
       id="path1308-0-3-3" />
    <path
       style="fill:#ebd576;fill-opacity:1;stroke:#ebd576;stroke-width:0.0663812;stroke-opacity:1"
       d="m 155.5547,175.72715 5.65872,-0.22295 2.05902,-0.88261 c 1.13247,-0.48543 2.05224,-0.88664 2.04394,-0.89157 -0.008,-0.005 -0.93222,0.20737 -2.05316,0.47178 l -2.0381,0.48072 -5.31495,0.22852 -5.31497,0.22852 -3.39211,-0.98163 c -1.86566,-0.5399 -3.39826,-0.97812 -3.40579,-0.97382 -0.0225,0.0128 5.98607,2.75893 6.04469,2.7626 0.0297,0.002 2.60041,-0.097 5.71271,-0.21956 z"
       id="path4881-6-5-5-0" />
    <path
       style="fill:#d6bd4f;fill-opacity:1;stroke:#d6bd4f;stroke-width:0.0663812;stroke-opacity:1"
       d="m 163.82954,172.26678 -1.60774,-1.09612 -4.78852,-0.4181 c -2.63369,-0.22995 -4.83941,-0.41903 -4.90161,-0.42017 -0.10422,-0.002 -5.93675,0.77516 -6.08319,0.81045 -0.0617,0.0148 -2.67174,2.0046 -2.6541,2.01576 0.005,0.003 0.63766,-0.62037 1.61434,-0.96177 l 1.77578,-0.62072 2.59021,-0.35461 2.5902,-0.3546 4.68673,0.46431 4.68672,0.46431 1.82914,0.78351 c 1.00603,0.43094 1.71939,1.13799 1.73057,1.13809 0.0112,0 -0.58427,-0.84748 -1.46853,-1.45034 z"
       id="path4883-7-3-4-2"
       sodipodi:nodetypes="scscssscccccscs" />
    <path
       style="fill:#ebcf57;fill-opacity:1;stroke:#ebcf57;stroke-width:0.189889;stroke-linecap:round;stroke-linejoin:round;stroke-miterlimit:4;stroke-dasharray:none;stroke-opacity:1"
       d="m 155.88588,174.87126 -5.28176,0.22487 -2.26064,-0.6547 c -1.24335,-0.36007 -2.76021,-0.79602 -3.37079,-0.96876 l -1.11016,-0.31406 0.21999,-0.17224 c 0.35605,-0.27875 0.65304,-0.45748 1.04336,-0.6279 0.10899,-0.0476 0.62242,-0.23434 1.14095,-0.41499 l 0.94277,-0.32847 2.59047,-0.35256 2.59048,-0.35254 4.66703,0.46414 4.66705,0.46414 0.91411,0.39142 c 0.50277,0.21527 1.0102,0.43736 1.12762,0.49352 0.41893,0.20036 0.81864,0.46121 1.26408,0.82494 0.0984,0.0804 0.17689,0.14892 0.17442,0.1524 -0.003,0.004 -0.26934,0.0677 -0.59304,0.14283 -0.3237,0.0751 -1.22599,0.28667 -2.00509,0.47017 -0.77909,0.1835 -1.42161,0.33347 -1.42782,0.33327 -0.006,-1.3e-4 -2.38806,0.10083 -5.29303,0.22452 z"
       id="path1308-5-6-9" />
    <path
       style="fill:#ebd576;fill-opacity:1;stroke:#ebd576;stroke-width:0.105281;stroke-opacity:1"
       d="m 172.69806,173.09017 c -1.4645,-1.3188 -2.65603,-2.40451 -2.64784,-2.4127 0.008,-0.008 1.34484,0.66531 2.97034,1.49668 1.62549,0.83136 2.98165,1.51157 3.01366,1.51157 0.032,0 1.95224,-0.34212 4.26715,-0.76029 l 4.20892,-0.76029 2.07386,-1.75699 c 1.14062,-0.96634 2.0812,-1.74984 2.09018,-1.74112 0.0163,0.0158 -3.47908,4.95148 -3.57575,5.04928 -0.0279,0.0282 -2.20156,0.43202 -4.83047,0.89745 -2.62891,0.46542 -4.80852,0.85252 -4.84358,0.86022 -0.0372,0.008 -1.17309,-0.98497 -2.72647,-2.38381 z"
       id="path3505-1-6-7-0" />
    <path
       style="fill:#d6bd4f;fill-opacity:1;stroke:#d6bd4f;stroke-width:0.0372226;stroke-opacity:1"
       d="m 170.06531,170.335 c -3.6e-4,-0.0311 3.66215,-5.13385 3.68108,-5.1409 0.0392,-0.0146 8.34493,1.61065 11.10652,2.17334 1.54743,0.3153 3.80273,1.2907 3.79584,1.29292 -0.0116,0.004 -14.40433,-2.58595 -14.49204,-2.60361 -0.0358,-0.007 -0.22647,0.16566 -1.99833,1.81196 -1.0773,1.00095 -2.06724,2.70554 -2.12399,2.75877 -0.0567,0.0532 0.0329,-0.16982 0.0309,-0.29248 z"
       id="path3507-2-2-7-6"
       sodipodi:nodetypes="ssssssss" />
    <path
       style="fill:#ebcf57;fill-opacity:1;stroke:#ebcf57;stroke-width:0.244442;stroke-linecap:round;stroke-linejoin:round;stroke-miterlimit:4;stroke-dasharray:none;stroke-opacity:1"
       d="m 174.6771,172.89621 c -3.55115,-1.78752 -4.3436,-2.18155 -4.45675,-2.21601 -0.1408,-0.0429 0.51894,-1.07258 1.25902,-1.965 0.54023,-0.65144 2.58589,-2.56212 2.74385,-2.56281 0.12698,-4.6e-4 13.98885,2.46973 14.16377,2.52408 0.0645,0.02 -0.0949,0.19661 -0.38248,0.42342 -0.43775,0.34528 -2.78399,2.31134 -3.34052,2.79924 -0.18215,0.15968 -0.80909,0.29329 -4.39138,0.93591 -2.29839,0.4123 -4.19164,0.74875 -4.20724,0.74766 -0.0156,-9.1e-4 -0.64031,-0.31 -1.38827,-0.68649 z"
       id="path5603-6-7-6" />
    <path
       style="fill:#ebd576;fill-opacity:1;stroke:#ebd576;stroke-width:0.126492;stroke-opacity:1"
       d="m 165.59525,148.88476 c 2.37784,-0.78797 4.31559,-1.44142 4.30614,-1.45213 -0.009,-0.0107 -2.04889,0.19376 -4.53208,0.45439 -2.48318,0.26062 -4.55159,0.46504 -4.59646,0.45427 -0.0449,-0.0107 -2.65152,-0.98851 -5.79255,-2.17276 l -5.71096,-2.1532 -2.47285,-2.403 c -1.36006,-1.32165 -2.4849,-2.39854 -2.49964,-2.39309 -0.0267,0.01 3.65394,5.97679 3.76528,6.10423 0.0321,0.0367 2.97876,1.15961 6.54818,2.49533 3.56942,1.33571 6.52849,2.44433 6.57573,2.46359 0.0501,0.0204 1.88705,-0.56185 4.40921,-1.39763 z"
       id="path3505-1-7-3-95-4" />
    <path
       style="fill:#d6bd4f;fill-opacity:1;stroke:#d6bd4f;stroke-width:0.044722;stroke-opacity:1"
       d="m 169.96475,147.09507 c 0.008,-0.0299 -3.8655,-6.21537 -3.8903,-6.22861 -0.0514,-0.0273 -12.09236,-1.24194 -16.10143,-1.62413 -2.24642,-0.21415 -5.64778,-0.0254 -5.63868,-0.0209 0.0153,0.008 20.82494,2.3323 20.9522,2.34465 0.052,0.005 0.27652,0.23697 2.35345,2.43097 1.26279,1.33397 2.22951,3.32167 2.29591,3.39243 0.0664,0.0707 -0.004,-0.17592 0.0288,-0.29435 z"
       id="path3507-2-0-6-9-6"
       sodipodi:nodetypes="ssssssss" />
    <path
       style="fill:#ebcf57;fill-opacity:1;stroke:#ebcf57;stroke-width:0.29369;stroke-linecap:round;stroke-linejoin:round;stroke-miterlimit:4;stroke-dasharray:none;stroke-opacity:1"
       d="m 162.86959,148.03108 c 5.41782,-0.54147 6.62562,-0.65758 6.7927,-0.653 0.20791,0.006 -0.4626,-1.21577 -1.27958,-2.33098 -0.59635,-0.81407 -2.99177,-3.35682 -3.21296,-3.41059 -0.17784,-0.0432 -20.21398,-2.30545 -20.47253,-2.31149 -0.0954,-0.002 0.0845,0.22278 0.43154,0.53965 0.52827,0.48238 3.33127,3.17996 3.99082,3.84073 0.21587,0.21626 1.06152,0.55676 5.92332,2.38504 3.11933,1.17301 5.6896,2.13617 5.71172,2.14037 0.0221,0.004 0.97386,-0.0857 2.11497,-0.19973 z"
       id="path5603-9-0-6-9" />
  </g>
</svg>
