<?xml version="1.0" encoding="UTF-8" standalone="no"?>
<!-- Created with Inkscape (http://www.inkscape.org/) -->

<svg
   width="200mm"
   height="200mm"
   viewBox="0 0 200 200"
   version="1.1"
   id="svg4530"
   inkscape:version="1.1.1 (3bf5ae0d25, 2021-09-20)"
   sodipodi:docname="svg_sandstone.svg"
   xmlns:inkscape="http://www.inkscape.org/namespaces/inkscape"
   xmlns:sodipodi="http://sodipodi.sourceforge.net/DTD/sodipodi-0.dtd"
   xmlns="http://www.w3.org/2000/svg"
   xmlns:svg="http://www.w3.org/2000/svg">
  <sodipodi:namedview
     id="namedview4532"
     pagecolor="#ffffff"
     bordercolor="#666666"
     borderopacity="1.0"
     inkscape:pageshadow="2"
     inkscape:pageopacity="0.0"
     inkscape:pagecheckerboard="0"
     inkscape:document-units="mm"
     showgrid="false"
     width="200mm"
     inkscape:snap-global="false"
     inkscape:zoom="0.13732434"
     inkscape:cx="-433.13336"
     inkscape:cy="-41.615282"
     inkscape:window-width="1920"
     inkscape:window-height="1057"
     inkscape:window-x="-8"
     inkscape:window-y="-8"
     inkscape:window-maximized="1"
     inkscape:current-layer="layer1" />
  <defs
     id="defs4527" />
  <g
     inkscape:label="Layer 1"
     inkscape:groupmode="layer"
     id="layer1">
    <path
       style="fill:#f2e588;fill-opacity:1;stroke:#f2e588;stroke-width:1.41742;stroke-opacity:1"
       d="M 18.652781,739.2031 39.581196,718.19022 H 378.21078 716.84036 l 19.90992,19.92536 19.90991,19.92535 -3.53311,0.51719 c -1.94321,0.28445 -172.70377,0.77383 -379.46791,1.08752 l -375.9348044,0.57034 z"
       id="path5524"
       transform="scale(0.26458333)" />
    <rect
       style="fill:#fff488;fill-opacity:1;stroke:#fff488;stroke-width:0.355369;stroke-opacity:1"
       id="rect5118"
       width="179.64462"
       height="179.64464"
       x="10.177685"
       y="10.177685" />
    <path
       style="fill:#f2e5bd;fill-opacity:1;stroke:#f2e5bd;stroke-width:0.379823;stroke-opacity:1"
       d="m 5.1332863,4.5155713 5.5770797,5.6621137 h 90.239234 90.23924 l 5.30566,-5.3690715 5.30567,-5.36906858 -0.94152,-0.139361 c -0.51783,-0.07665 -46.02272,-0.208516 -101.121977,-0.293043 L -0.44379353,-1.1465421 Z"
       id="path5942" />
    <path
       style="fill:#f2e588;fill-opacity:1;stroke:#f2e588;stroke-width:0.391466;stroke-opacity:1"
       d="m 195.91617,4.6877806 -6.07157,5.5230674 -0.51888,89.864222 -0.51888,89.86421 5.69642,5.31285 5.69641,5.31286 0.15407,-0.93684 c 0.0847,-0.51526 0.48704,-45.83033 0.89403,-100.700142 l 0.73997,-99.763296 z"
       id="path7546" />
    <path
       style="fill:#f2e5bd;fill-opacity:1;stroke:#f2e5bd;stroke-width:0.380211;stroke-opacity:1"
       d="m 4.5425788,195.45687 5.6613062,-5.58932 -0.0131,-90.423827 -0.0131,-90.4238228 -5.3698402,-5.315723 -5.36984402,-5.3157233 -0.139224,0.94346105 c -0.07657,0.51890304 -0.201818,46.11689905 -0.278326,101.32886505 L -1.1187232,201.0462 Z"
       id="path7584" />
    <path
       style="fill:none;stroke:#e1d588;stroke-width:0.809731;stroke-linecap:butt;stroke-linejoin:miter;stroke-miterlimit:4;stroke-dasharray:none;stroke-opacity:1"
       d="M 10.573858,189.62205 -3.3576313,203.22239"
       id="path7732" />
    <path
       style="fill:none;stroke:#e1d588;stroke-width:0.809731;stroke-linecap:butt;stroke-linejoin:miter;stroke-miterlimit:4;stroke-dasharray:none;stroke-opacity:1"
       d="M 203.30891,-2.976865 189.37742,10.623478"
       id="path7732-7" />
    <path
       style="fill:none;stroke:#f2e5e5;stroke-width:0.794014;stroke-linecap:butt;stroke-linejoin:miter;stroke-miterlimit:4;stroke-dasharray:none;stroke-opacity:1"
       d="M -2.5947926,-3.2730064 10.500771,10.639234"
       id="path8214" />
    <path
       style="fill:none;stroke:#e1d588;stroke-width:0.679489;stroke-linecap:butt;stroke-linejoin:miter;stroke-miterlimit:4;stroke-dasharray:none;stroke-opacity:1"
       d="m 188.39767,189.60391 11.99882,11.11951"
       id="path8504" />
    <path
       sodipodi:type="star"
       style="fill:#fff49c;fill-opacity:1;stroke:#fff488;stroke-width:2.51339;stroke-miterlimit:4;stroke-dasharray:none;stroke-opacity:1"
       id="path8726"
       inkscape:flatsided="true"
       sodipodi:sides="7"
       sodipodi:cx="209.8288"
       sodipodi:cy="195.66856"
       sodipodi:r1="178.48866"
       sodipodi:r2="144.40038"
       sodipodi:arg1="0.19598113"
       sodipodi:arg2="0.64478008"
       inkscape:rounded="0"
       inkscape:randomized="0"
       d="M 384.90067,230.42548 291.81027,354.21585 136.98615,358.61688 37.014032,240.3145 67.174952,88.392828 204.75713,17.25197 346.15837,80.462446 Z"
       transform="matrix(0.37072987,0.10960518,-0.03769503,0.12750011,51.620778,-4.546858)"
       inkscape:transform-center-x="-0.21793465"
       inkscape:transform-center-y="2.8881515" />
    <path
       sodipodi:type="star"
       style="fill:#fff49c;fill-opacity:1;stroke:#fff488;stroke-width:2.51339;stroke-miterlimit:4;stroke-dasharray:none;stroke-opacity:1"
       id="path9212"
       inkscape:flatsided="true"
       sodipodi:sides="7"
       sodipodi:cx="209.8288"
       sodipodi:cy="195.66856"
       sodipodi:r1="178.48866"
       sodipodi:r2="144.40038"
       sodipodi:arg1="0.19598113"
       sodipodi:arg2="0.64478008"
       inkscape:rounded="0"
       inkscape:randomized="0"
       d="M 384.90067,230.42548 291.81027,354.21585 136.98615,358.61688 37.014032,240.3145 67.174952,88.392828 204.75713,17.25197 346.15837,80.462446 Z"
       transform="matrix(0.37072987,0.10960518,-0.03769503,0.12750011,51.590673,-4.546858)"
       inkscape:transform-center-x="-0.21793465"
       inkscape:transform-center-y="2.8881515" />
    <path
       style="fill:#fff4b8;fill-opacity:1;stroke:#fff4b8;stroke-width:0.571955;stroke-miterlimit:4;stroke-dasharray:none;stroke-opacity:1"
       d="m 676.53696,204.64967 c -9.31938,-17.59816 -20.15525,-29.92881 -20.34299,-30.15482 -0.18774,-0.22601 -40.3746,-21.21246 -90.76212,-46.08419 L 474.20652,83.38102 413.82412,72.737934 c -33.75991,-5.950569 -61.7465,-9.030864 -61.84037,-9.02707 -0.0939,0.0038 -0.17067,-0.293873 -0.17067,-0.661484 0,-0.624517 0.0485,-0.661295 0.73958,-0.560391 0.40677,0.0594 25.8915,2.917878 56.63273,6.352183 30.74123,3.434304 59.12761,6.609256 63.08084,7.055447 l 7.1877,0.811258 92.34498,43.478493 c 50.78975,23.91316 93.00215,43.80078 93.80534,44.1947 l 1.46036,0.71621 7.70974,20.70827 c 4.24037,11.38955 10.22151,27.4507 13.29143,35.69145 3.06992,8.24074 5.54429,15.02056 5.49859,15.06625 -0.0457,0.0457 -7.70802,-14.31541 -17.02741,-31.91358 z"
       id="path9510"
       sodipodi:nodetypes="ssscsssssscsscssss"
       transform="scale(0.26458333)" />
    <path
       sodipodi:type="star"
       style="fill:#fff49c;fill-opacity:1;stroke:#fff488;stroke-width:2.51339;stroke-miterlimit:4;stroke-dasharray:none;stroke-opacity:1"
       id="path20507"
       inkscape:flatsided="true"
       sodipodi:sides="7"
       sodipodi:cx="209.8288"
       sodipodi:cy="195.66856"
       sodipodi:r1="178.48866"
       sodipodi:r2="144.40038"
       sodipodi:arg1="0.19598113"
       sodipodi:arg2="0.64478008"
       inkscape:rounded="0"
       inkscape:randomized="0"
       d="M 384.90067,230.42548 291.81027,354.21585 136.98615,358.61688 37.014032,240.3145 67.174952,88.392828 204.75713,17.25197 346.15837,80.462446 Z"
       transform="matrix(0.37072987,0.10960518,-0.03769503,0.12750011,67.803381,-93.11772)"
       inkscape:transform-center-x="-0.21793465"
       inkscape:transform-center-y="2.8881515" />
    <path
       style="fill:#fff4b8;fill-opacity:1;stroke:#fff4b8;stroke-width:0.15133;stroke-miterlimit:4;stroke-dasharray:none;stroke-opacity:1"
       d="m 195.21311,-34.423971 c -2.46575,-4.65618 -5.33274,-7.918664 -5.38242,-7.978463 -0.0497,-0.0598 -10.68244,-5.612463 -24.01414,-12.193108 l -24.1367,-11.914093 -15.97618,-2.815983 c -8.93231,-1.574421 -16.33709,-2.389416 -16.36193,-2.388412 -0.0248,10e-4 -0.0452,-0.07775 -0.0452,-0.175018 0,-0.165236 0.0128,-0.174967 0.19568,-0.14827 0.10763,0.01572 6.85046,0.772022 14.98408,1.680682 8.13362,0.90866 15.64418,1.748699 16.69014,1.866754 l 1.90175,0.214645 24.43294,11.503685 c 13.43812,6.327023 24.60682,11.588956 24.81933,11.69318 l 0.38638,0.189498 2.03987,5.479063 c 1.12193,3.013485 2.70444,7.262997 3.51669,9.443362 0.81225,2.180363 1.46693,3.97419 1.45484,3.986279 -0.0121,0.01209 -2.03942,-3.787619 -4.50517,-8.443801 z"
       id="path20509"
       sodipodi:nodetypes="ssscsssssscsscssss" />
    <path
       style="fill:#ebd574;fill-opacity:1;stroke:#ebd574;stroke-width:0.428024;stroke-miterlimit:4;stroke-dasharray:none;stroke-opacity:1"
       d="m 151.18272,-19.456812 c -0.88887,-0.262938 -11.3388,-3.25002 -23.22207,-6.637957 -11.88326,-3.387939 -21.87998,-6.254469 -22.21493,-6.370063 -0.33495,-0.115597 -2.24579,-1.518269 -4.24632,-3.117051 -2.000522,-1.598785 -9.024667,-7.203541 -15.609207,-12.455017 -6.584542,-5.251474 -12.154648,-9.723776 -12.378018,-9.938451 l -0.406124,-0.390316 2.459537,-2.351252 c 8.671552,-8.289779 10.599391,-10.096395 10.683475,-10.011705 0.05187,0.05224 -1.759868,2.670846 -4.026079,5.81912 -2.266215,3.148275 -4.080452,5.789277 -4.031639,5.868893 0.120181,0.196024 27.695815,22.91362 28.248305,23.27176 0.24064,0.155993 10.42568,3.823264 22.63341,8.149487 12.20773,4.326226 22.69336,8.043735 23.3014,8.261133 1.52353,0.544716 0.77311,0.482642 -1.19174,-0.09858 z"
       id="path20511" />
    <path
       sodipodi:type="star"
       style="fill:#fff49c;fill-opacity:1;stroke:#fff488;stroke-width:2.51339;stroke-miterlimit:4;stroke-dasharray:none;stroke-opacity:1"
       id="path20513"
       inkscape:flatsided="true"
       sodipodi:sides="7"
       sodipodi:cx="209.8288"
       sodipodi:cy="195.66856"
       sodipodi:r1="178.48866"
       sodipodi:r2="144.40038"
       sodipodi:arg1="0.19598113"
       sodipodi:arg2="0.64478008"
       inkscape:rounded="0"
       inkscape:randomized="0"
       d="M 384.90067,230.42548 291.81027,354.21585 136.98615,358.61688 37.014032,240.3145 67.174952,88.392828 204.75713,17.25197 346.15837,80.462446 Z"
       transform="matrix(0.09741385,-0.21434184,0.09712843,0.07257645,-0.66416221,83.062362)"
       inkscape:transform-center-x="-1.8527626"
       inkscape:transform-center-y="1.5384814" />
    <path
       style="fill:#ebd574;fill-opacity:1;stroke:#ebd574;stroke-width:1.61773;stroke-miterlimit:4;stroke-dasharray:none;stroke-opacity:1"
       d="m 510.12289,261.21846 c -3.35952,-0.99378 -42.85532,-12.28354 -87.76845,-25.08834 -44.91313,-12.80481 -82.69601,-23.63894 -83.96195,-24.07583 -1.26594,-0.4369 -8.48802,-5.73834 -16.04907,-11.78098 -7.56104,-6.04265 -34.10899,-27.22598 -58.99544,-47.07408 -24.88646,-19.84809 -45.93883,-36.75128 -46.78306,-37.56265 l -1.53496,-1.47521 9.29589,-8.88662 c 32.77437,-31.331452 40.06069,-38.159607 40.37849,-37.839517 0.19604,0.197449 -6.65147,10.094536 -15.21668,21.993526 -8.56522,11.898991 -15.42218,21.880731 -15.23769,22.181641 0.45423,0.74088 104.67711,86.60266 106.76525,87.95626 0.90952,0.58958 39.40414,14.45013 85.54359,30.80121 46.13946,16.35109 85.77019,30.40152 88.0683,31.22318 5.75823,2.05877 2.92197,1.82416 -4.50422,-0.37259 z"
       id="path12152"
       transform="scale(0.26458333)" />
    <path
       style="fill:#fff4b8;fill-opacity:1;stroke:#fff4b8;stroke-width:0.11147;stroke-miterlimit:4;stroke-dasharray:none;stroke-opacity:1"
       d="m 49.045916,17.100124 c -3.679691,-0.01284 -6.297301,0.76021 -6.345186,0.772418 -0.0479,0.01221 -4.701604,5.277246 -10.242095,12.018452 L 22.427692,42.095769 19.70221,52.031202 c -1.523827,5.554913 -2.408636,10.339422 -2.408723,10.356836 -1.09e-4,0.01737 -0.0616,0.0025 -0.136674,-0.03308 -0.127561,-0.06052 -0.134633,-0.07288 -0.107709,-0.188631 0.01581,-0.06818 0.832503,-4.419729 1.814789,-9.670237 0.982286,-5.250508 1.890079,-10.098457 2.017331,-10.773213 l 0.23136,-1.226839 9.724331,-12.558461 c 5.348379,-6.907151 9.796157,-12.646583 9.883956,-12.754279 l 0.159629,-0.195834 4.300249,0.60661 c 2.365138,0.33362 5.700373,0.803809 7.411661,1.044874 1.711282,0.241043 3.118705,0.448681 3.127628,0.461409 0.0093,0.01231 -2.994445,0.01264 -6.674129,-2.13e-4 z"
       id="path20515"
       sodipodi:nodetypes="ssscsssssscsscssss" />
    <path
       style="fill:#ebd574;fill-opacity:1;stroke:#ebd574;stroke-width:0.315284;stroke-miterlimit:4;stroke-dasharray:none;stroke-opacity:1"
       d="m 59.080442,52.806993 c -0.233682,0.513855 -2.900466,6.593112 -5.926198,13.509469 -3.025739,6.91634 -5.583814,12.72865 -5.684615,12.91624 -0.100788,0.1876 -1.24963,0.98551 -2.552954,1.77318 -1.303319,0.78766 -5.872687,3.55648 -10.154125,6.15295 -4.281447,2.59646 -7.926364,4.78194 -8.09979,4.85665 l -0.315357,0.13581 -1.730243,-2.54956 c -6.100322,-8.98898 -7.428463,-10.97406 -7.360181,-11.00076 0.04211,-0.0165 2.001129,2.18633 4.35335,4.89513 2.352228,2.70879 4.328441,4.92152 4.391589,4.91718 0.155478,-0.0107 18.645417,-10.61905 18.940976,-10.86712 0.128733,-0.10805 3.311483,-5.75634 7.072759,-12.55175 3.7613,-6.795397 6.993209,-12.631626 7.182039,-12.969381 0.473102,-0.846317 0.399244,-0.353965 -0.117268,0.781952 z"
       id="path20517" />
    <path
       sodipodi:type="star"
       style="fill:#fff49c;fill-opacity:1;stroke:#fff488;stroke-width:2.51339;stroke-miterlimit:4;stroke-dasharray:none;stroke-opacity:1"
       id="path20519"
       inkscape:flatsided="true"
       sodipodi:sides="7"
       sodipodi:cx="209.8288"
       sodipodi:cy="195.66856"
       sodipodi:r1="178.48866"
       sodipodi:r2="144.40038"
       sodipodi:arg1="0.19598113"
       sodipodi:arg2="0.64478008"
       inkscape:rounded="0"
       inkscape:randomized="0"
       d="M 384.90067,230.42548 291.81027,354.21585 136.98615,358.61688 37.014032,240.3145 67.174952,88.392828 204.75713,17.25197 346.15837,80.462446 Z"
       transform="matrix(-0.14859403,-0.15871483,0.14804349,-0.02787601,100.94992,123.84412)"
       inkscape:transform-center-x="-0.75349741"
       inkscape:transform-center-y="-2.6538513" />
    <path
       style="fill:#fff4b8;fill-opacity:1;stroke:#fff4b8;stroke-width:0.11097;stroke-miterlimit:4;stroke-dasharray:none;stroke-opacity:1"
       d="m 70.04177,62.623476 c -2.777135,2.302345 -3.943438,4.296356 -3.966784,4.331956 -0.0234,0.03561 1.928531,5.352423 4.741605,11.897736 l 5.092956,11.850134 8.232282,6.234137 c 4.602669,3.485511 8.888239,6.219351 8.906177,6.227341 0.0179,0.008 -0.04424,0.0395 -0.136891,0.0706 -0.158422,0.0525 -0.176564,0.0512 -0.276071,-0.0184 -0.05868,-0.041 -3.94744,-2.53491 -8.641932,-5.54211 -4.69448,-3.007191 -9.028417,-5.78434 -9.630957,-6.171442 L 73.266617,90.799646 67.577425,78.980781 c -3.129061,-6.500378 -5.726424,-11.904048 -5.7719,-12.008167 l -0.08272,-0.189313 3.857587,-2.421212 c 2.121651,-1.331676 5.113245,-3.209675 6.648031,-4.173353 1.534747,-0.963681 2.80672,-1.751976 2.826588,-1.751775 0.01956,-4e-5 -2.236079,1.884105 -5.01324,4.186444 z"
       id="path20521"
       sodipodi:nodetypes="ssscsssssscsscssss" />
    <path
       style="fill:#ebd574;fill-opacity:1;stroke:#ebd574;stroke-width:0.313869;stroke-miterlimit:4;stroke-dasharray:none;stroke-opacity:1"
       d="m 114.52192,72.589591 c 0.35613,0.380584 4.64282,4.821835 9.52597,9.869455 4.88312,5.047621 8.97527,9.299113 9.09363,9.447771 0.11839,0.148651 0.0811,1.232661 -0.083,2.408898 -0.16401,1.176238 -0.73145,5.303405 -1.26092,9.171475 -0.52948,3.86805 -1.00608,7.14968 -1.05905,7.29249 l -0.0964,0.25966 -3.93744,-0.0757 c -13.88221,-0.26688 -16.9336,-0.33776 -16.90995,-0.39275 0.0146,-0.0339 3.7651,-0.25963 8.33446,-0.50157 4.56937,-0.24195 8.34306,-0.47393 8.386,-0.51552 0.10573,-0.10239 3.0181,-16.531689 2.98344,-16.830052 -0.0151,-0.129954 -3.46834,-4.698599 -7.67388,-10.152539 -4.20551,-5.453939 -7.81629,-10.139006 -8.02389,-10.411262 -0.52027,-0.682179 -0.0664,-0.411636 0.72094,0.429651 z"
       id="path20523" />
    <path
       sodipodi:type="star"
       style="fill:#fff49c;fill-opacity:1;stroke:#fff488;stroke-width:2.51339;stroke-miterlimit:4;stroke-dasharray:none;stroke-opacity:1"
       id="path20525"
       inkscape:flatsided="true"
       sodipodi:sides="7"
       sodipodi:cx="209.8288"
       sodipodi:cy="195.66856"
       sodipodi:r1="178.48866"
       sodipodi:r2="144.40038"
       sodipodi:arg1="0.19598113"
       sodipodi:arg2="0.64478008"
       inkscape:rounded="0"
       inkscape:randomized="0"
       d="M 384.90067,230.42548 291.81027,354.21585 136.98615,358.61688 37.014032,240.3145 67.174952,88.392828 204.75713,17.25197 346.15837,80.462446 Z"
       transform="matrix(0.36179416,-0.13623111,0.04685212,0.12442698,38.249656,161.98946)"
       inkscape:transform-center-x="-5.0784425"
       inkscape:transform-center-y="0.21232262" />
    <path
       style="fill:#fff4b8;fill-opacity:1;stroke:#fff4b8;stroke-width:0.15133;stroke-miterlimit:4;stroke-dasharray:none;stroke-opacity:1"
       d="m 175.27222,131.93929 c -4.77543,-2.22602 -9.0301,-3.09846 -9.1058,-3.11618 -0.0757,-0.0177 -11.9055,1.96808 -26.50797,4.76219 l -26.4374,5.05866 -14.440493,7.3919 c -8.073705,4.13282 -14.471002,7.94983 -14.49021,7.96562 -0.01918,0.0158 -0.08298,-0.0348 -0.141631,-0.11232 -0.09968,-0.13178 -0.09534,-0.14726 0.06662,-0.2363 0.09531,-0.0524 5.929286,-3.51687 12.964373,-7.69886 7.035091,-4.18198 13.531851,-8.04283 14.437281,-8.57966 l 1.64621,-0.97606 26.42608,-5.56469 c 14.53434,-3.06058 26.6162,-5.60157 26.84856,-5.64664 l 0.42247,-0.082 4.93218,3.13923 c 2.71271,1.72658 6.53839,4.16109 8.50152,5.41003 1.96313,1.24895 3.56741,2.28466 3.56506,2.30159 -0.002,0.017 -3.91145,-1.79049 -8.68688,-4.01652 z"
       id="path20527"
       sodipodi:nodetypes="ssscsssssscsscssss" />
    <path
       style="fill:#ebd574;fill-opacity:1;stroke:#ebd574;stroke-width:0.428024;stroke-miterlimit:4;stroke-dasharray:none;stroke-opacity:1"
       d="m 149.18507,170.43802 c -0.86754,0.32651 -11.00381,4.24819 -22.52506,8.71485 -11.52125,4.46665 -21.22334,8.21108 -21.56021,8.32095 -0.33688,0.10987 -2.70703,0.1439 -5.267023,0.0756 -2.559991,-0.0683 -11.543181,-0.30093 -19.962653,-0.51704 -8.419467,-0.2161 -15.559834,-0.42274 -15.86749,-0.45921 l -0.559366,-0.0663 0.543179,-3.35897 c 1.915068,-11.84266 2.362753,-14.4465 2.480904,-14.42969 0.07286,0.0103 0.207634,3.19178 0.299457,7.06979 0.09181,3.878 0.238086,7.07877 0.325048,7.11282 0.2141,0.0838 35.911514,1.5669 36.568204,1.51924 0.28602,-0.0208 10.62137,-3.24017 22.96742,-7.15423 12.34605,-3.91407 22.95144,-7.27474 23.56752,-7.46816 1.5437,-0.48464 0.90776,-0.0815 -1.00994,0.64029 z"
       id="path20529" />
    <path
       sodipodi:type="star"
       style="fill:#fff49c;fill-opacity:1;stroke:#fff488;stroke-width:2.51339;stroke-miterlimit:4;stroke-dasharray:none;stroke-opacity:1"
       id="path20656"
       inkscape:flatsided="true"
       sodipodi:sides="7"
       sodipodi:cx="209.8288"
       sodipodi:cy="195.66856"
       sodipodi:r1="178.48866"
       sodipodi:r2="144.40038"
       sodipodi:arg1="0.19598113"
       sodipodi:arg2="0.64478008"
       inkscape:rounded="0"
       inkscape:randomized="0"
       d="M 384.90067,230.42548 291.81027,354.21585 136.98615,358.61688 37.014032,240.3145 67.174952,88.392828 204.75713,17.25197 346.15837,80.462446 Z"
       transform="matrix(-0.0545358,0.09689052,0.10068072,-0.01646631,29.535233,149.89413)"
       inkscape:transform-center-x="-2.2391362"
       inkscape:transform-center-y="-0.32785834" />
    <path
       style="fill:#fff4b8;fill-opacity:1;stroke:#fff4b8;stroke-width:0.0628187;stroke-miterlimit:4;stroke-dasharray:none;stroke-opacity:1"
       d="m 25.220092,182.18963 c -2.332043,-0.45706 -3.567349,-1.09113 -3.590989,-1.10197 -0.02358,-0.0108 -0.112636,-2.67477 0.03756,-6.0331 l 0.271917,-6.08018 3.658929,-4.26639 c 2.045721,-2.38534 4.077946,-4.38615 4.087334,-4.39304 0.0094,-0.007 -0.0376,-0.009 -0.104282,-0.004 -0.113375,0.008 -0.124528,0.0119 -0.170219,0.061 -0.02687,0.0289 -1.867711,1.85017 -4.090749,4.04727 -2.223031,2.1971 -4.275102,4.22585 -4.560148,4.50834 l -0.518274,0.5136 -0.657207,6.18137 c -0.36146,3.39975 -0.659543,6.22519 -0.662395,6.27875 l -0.0053,0.0974 3.045743,0.30048 c 1.675164,0.16527 4.037273,0.39844 5.249139,0.51816 1.211875,0.11971 2.213643,0.21446 2.226159,0.21056 0.01255,-0.004 -1.885248,-0.38107 -4.2173,-0.83813 z"
       id="path20658"
       sodipodi:nodetypes="ssscsssssscsscssss" />
    <path
       style="fill:#ebd574;fill-opacity:1;stroke:#ebd574;stroke-width:0.177677;stroke-miterlimit:4;stroke-dasharray:none;stroke-opacity:1"
       d="m 50.899718,169.34712 c 0.130657,-0.2323 1.738148,-2.96828 3.572215,-6.07996 1.834059,-3.11168 3.365674,-5.72858 3.403577,-5.81532 0.0379,-0.0868 -0.255859,-0.54618 -0.652779,-1.02096 -0.39692,-0.47478 -1.78457,-2.14222 -3.083643,-3.70543 -1.299065,-1.5632 -2.418505,-2.88415 -2.487646,-2.93543 l -0.125708,-0.0932 -2.474159,0.78967 c -8.723119,2.78414 -10.637472,3.40136 -10.608787,3.42049 0.01767,0.0118 2.448594,-0.61219 5.402005,-1.38664 2.953401,-0.77445 5.400546,-1.40019 5.438088,-1.39054 0.09247,0.0237 6.030203,6.53577 6.082602,6.67087 0.0228,0.0589 -1.025241,2.68941 -2.329021,5.8457 -1.30378,3.15629 -2.422567,5.86725 -2.486183,6.02437 -0.159417,0.39368 0.06062,0.18993 0.349416,-0.32357 z"
       id="path20660" />
    <path
       sodipodi:type="star"
       style="fill:#fff49c;fill-opacity:1;stroke:#fff488;stroke-width:2.51339;stroke-miterlimit:4;stroke-dasharray:none;stroke-opacity:1"
       id="path20525-3"
       inkscape:flatsided="true"
       sodipodi:sides="7"
       sodipodi:cx="209.8288"
       sodipodi:cy="195.66856"
       sodipodi:r1="178.48866"
       sodipodi:r2="144.40038"
       sodipodi:arg1="0.19598113"
       sodipodi:arg2="0.64478008"
       inkscape:rounded="0"
       inkscape:randomized="0"
       transform="matrix(0.1495025,-0.09587499,0.01936048,0.08756763,126.28925,103.95228)"
       inkscape:transform-center-x="-2.0985314"
       inkscape:transform-center-y="0.14942466"
       d="M 384.90067,230.42548 291.81027,354.21585 136.98615,358.61688 37.014032,240.3145 67.174952,88.392828 204.75713,17.25197 346.15837,80.462446 Z" />
    <path
       style="fill:#fff4b8;fill-opacity:1;stroke:#fff4b8;stroke-width:0.0816079;stroke-miterlimit:4;stroke-dasharray:none;stroke-opacity:1"
       d="m 182.91045,82.803956 c -1.97333,-1.5666 -3.73146,-2.180594 -3.76275,-2.193068 -0.0312,-0.01243 -4.91964,1.385073 -10.95376,3.351476 l -10.92461,3.560122 -5.96717,5.202172 c -3.33625,2.90855 -5.97979,5.59483 -5.98772,5.60595 -0.008,0.0111 -0.0343,-0.0245 -0.0586,-0.079 -0.0411,-0.0927 -0.0393,-0.10364 0.0275,-0.16631 0.0393,-0.0368 2.45013,-2.47505 5.35722,-5.4182 2.90706,-2.943136 5.59169,-5.660277 5.96583,-6.03808 l 0.68026,-0.686917 10.91993,-3.916252 c 6.00596,-2.153936 10.99849,-3.942202 11.09451,-3.97392 l 0.17458,-0.05771 2.0381,2.209287 c 1.12095,1.215114 2.70183,2.928444 3.51304,3.807404 0.81122,0.878974 1.47414,1.607868 1.47317,1.619784 -8.2e-4,0.01198 -1.61631,-1.260089 -3.58964,-2.826696 z"
       id="path20527-1"
       sodipodi:nodetypes="ssscsssssscsscssss" />
    <path
       style="fill:#ebd574;fill-opacity:1;stroke:#ebd574;stroke-width:0.230821;stroke-miterlimit:4;stroke-dasharray:none;stroke-opacity:1"
       d="m 172.13058,109.8981 c -0.35848,0.22979 -4.54704,2.98974 -9.30793,6.13322 -4.76087,3.14349 -8.77002,5.77869 -8.90922,5.85602 -0.13921,0.0773 -1.11861,0.10127 -2.17646,0.0532 -1.05786,-0.0481 -4.76994,-0.21178 -8.24908,-0.36387 -3.47914,-0.15208 -6.42972,-0.29751 -6.55684,-0.32318 l -0.23114,-0.0467 0.22444,-2.36394 c 0.79135,-8.33447 0.97635,-10.16697 1.02518,-10.15514 0.0301,0.007 0.0858,2.24627 0.12374,4.97549 0.038,2.72921 0.0984,4.98181 0.13432,5.00577 0.0885,0.0589 14.83955,1.10273 15.11091,1.06919 0.11819,-0.0147 4.38902,-2.28033 9.49072,-5.03491 5.10169,-2.75459 9.48411,-5.11973 9.73869,-5.25585 0.63789,-0.34108 0.37511,-0.0574 -0.41734,0.45061 z"
       id="path20529-9" />
    <path
       sodipodi:type="star"
       style="fill:#fff49c;fill-opacity:1;stroke:#fff488;stroke-width:2.51339;stroke-miterlimit:4;stroke-dasharray:none;stroke-opacity:1"
       id="path20683"
       inkscape:flatsided="true"
       sodipodi:sides="7"
       sodipodi:cx="209.8288"
       sodipodi:cy="195.66856"
       sodipodi:r1="178.48866"
       sodipodi:r2="144.40038"
       sodipodi:arg1="0.19598113"
       sodipodi:arg2="0.64478008"
       inkscape:rounded="0"
       inkscape:randomized="0"
       d="M 384.90067,230.42548 291.81027,354.21585 136.98615,358.61688 37.014032,240.3145 67.174952,88.392828 204.75713,17.25197 346.15837,80.462446 Z"
       transform="matrix(-0.20939213,-0.10764208,0.07717823,-0.0935136,90.214364,159.90697)"
       inkscape:transform-center-x="-1.3974541"
       inkscape:transform-center-y="-1.437999" />
    <path
       style="fill:#fff4b8;fill-opacity:1;stroke:#fff4b8;stroke-width:0.11147;stroke-miterlimit:4;stroke-dasharray:none;stroke-opacity:1"
       d="m 26.727391,107.07221 c -0.190365,3.67478 0.455489,6.32664 0.465372,6.37506 0.0099,0.0484 5.044254,4.95075 11.510289,10.81004 l 11.706581,10.60812 9.792358,3.20168 c 5.474929,1.79007 10.211176,2.90469 10.228561,2.90562 0.01738,9.5e-4 -9.74e-4,0.0616 -0.03966,0.13492 -0.06658,0.12449 -0.07931,0.13096 -0.193607,0.0985 -0.06736,-0.0191 -4.374415,-1.04478 -9.571417,-2.27925 -5.197001,-1.23447 -9.995505,-2.37511 -10.663329,-2.53477 L 48.74829,136.10184 36.67364,125.78291 c -6.641051,-5.67543 -12.1592,-10.39495 -12.262534,-10.48784 l -0.187904,-0.16889 0.813384,-4.26597 c 0.447346,-2.34629 1.077908,-5.65496 1.401259,-7.35262 0.323329,-1.69766 0.598631,-3.09342 0.611775,-3.10172 0.01274,-0.009 -0.131852,2.99156 -0.32223,6.66634 z"
       id="path20685"
       sodipodi:nodetypes="ssscsssssscsscssss" />
    <path
       style="fill:#ebd574;fill-opacity:1;stroke:#ebd574;stroke-width:0.315284;stroke-miterlimit:4;stroke-dasharray:none;stroke-opacity:1"
       d="m 62.87682,98.772172 c 0.501987,0.258203 6.445498,3.215198 13.207806,6.571108 6.762298,3.35592 12.444415,6.19145 12.626923,6.30118 0.182519,0.10973 0.924069,1.29573 1.647939,2.63554 0.723859,1.3398 3.268989,6.03744 5.655862,10.43917 2.386862,4.40173 4.39393,8.14785 4.46019,8.32468 l 0.12044,0.32154 -2.630075,1.60522 c -9.272843,5.65951 -11.319692,6.89033 -11.343067,6.82084 -0.01445,-0.0429 2.280336,-1.89331 5.099472,-4.1121 2.819127,-2.21879 5.124629,-4.08594 5.123341,-4.14923 -0.0032,-0.15581 -9.707068,-19.13605 -9.940589,-19.44324 -0.101713,-0.13379 -5.589862,-3.58536 -12.195881,-7.67012 -6.605999,-4.08479 -12.279497,-7.594523 -12.607753,-7.79943 -0.822498,-0.513384 -0.334285,-0.415857 0.775381,0.15486 z"
       id="path20687" />
    <path
       style="fill:#e1d778;fill-opacity:1;stroke:#e1d778;stroke-width:1.14391;stroke-miterlimit:4;stroke-dasharray:none;stroke-opacity:1"
       d="m 748.02729,630.509 -9.56005,-121.28656 7.6535,-68.36456 7.6535,-68.36457 -0.86156,-20.33872 c -0.47386,-11.18629 -0.85858,-21.17208 -0.85493,-22.19064 l 0.007,-1.85192 4.79165,0.0172 4.79165,0.0172 -0.37003,33.5645 c -0.20351,18.46047 -0.76777,86.19883 -1.25392,150.52969 -0.91386,120.93054 -2.95295,244.95818 -3.20059,245.20405 -0.0779,0.0773 -3.53783,-60.22799 -8.79585,-126.9356 z"
       id="path21624"
       transform="scale(0.26458333)"
       sodipodi:nodetypes="ccccsccccssscc" />
    <path
       style="fill:#e1d778;fill-opacity:1;stroke:#e1d778;stroke-width:1.14391;stroke-miterlimit:4;stroke-dasharray:none;stroke-opacity:1"
       d="m 752.01462,327.08781 c -0.0292,-0.0627 -1.11527,-25.61643 -2.41357,-56.78609 l -2.36053,-56.67212 1.91198,-75.54469 1.91198,-75.544702 5.17224,-27.061694 c 2.84474,-14.883931 6.56936,-38.440623 6.69939,-39.0033803 0.15498,-0.670738 -0.71807,9.8965009 -0.0782,9.8987932 l 0.56035,-9.530921 -0.19776,96.3482331 c -0.098,47.748681 -0.86788,119.940661 -1.17879,160.429031 l -0.56528,73.61522 -4.70438,-0.0169 c -2.58741,-0.009 -4.72825,-0.0682 -4.75741,-0.13083 z"
       id="path21663"
       transform="scale(0.26458333)"
       sodipodi:nodetypes="sscccssscssccss" />
    <path
       style="fill:#e1d778;fill-opacity:1;stroke:#e1d778;stroke-width:0.30266;stroke-miterlimit:4;stroke-dasharray:none;stroke-opacity:1"
       d="m 344.73725,160.19558 -2.52943,-32.0904 2.02499,-18.08812 2.02499,-18.088129 -0.22796,-5.381287 c -0.12537,-2.959705 -0.22716,-5.601779 -0.2262,-5.871273 l 0.002,-0.489987 1.26779,0.0046 1.26779,0.0046 -0.0979,8.880608 c -0.0538,4.884332 -0.20314,22.806778 -0.33176,39.827648 -0.2418,31.9962 -0.54166,63.28002 -0.60718,63.34507 -0.0206,0.0205 -1.1757,-14.40349 -2.56688,-32.05321 z"
       id="path26434" />
    <path
       style="fill:#e1d778;fill-opacity:1;stroke:#e1d778;stroke-width:0.30266;stroke-miterlimit:4;stroke-dasharray:none;stroke-opacity:1"
       d="m 345.79223,79.915392 c -0.008,-0.01659 -0.29508,-6.77768 -0.63859,-15.024653 l -0.62456,-14.994498 0.50588,-19.987865 0.50588,-19.9878692 1.36849,-7.1600731 c 0.75267,-3.9380401 1.39664,-7.2818972 1.43104,-7.4307934 0.041,-0.1774661 0.15152,-0.2704017 0.32081,-0.2697952 l 0.25826,9.26e-4 -0.16232,22.9694879 c -0.0893,12.633216 -0.22963,31.734299 -0.31189,42.446847 l -0.14957,19.47736 -1.2447,-0.0045 c -0.68458,-0.0024 -1.25101,-0.01804 -1.25873,-0.03462 z"
       id="path26436" />
    <path
       style="fill:#e1d778;fill-opacity:1;stroke:#e1d778;stroke-width:0.30266;stroke-miterlimit:4;stroke-dasharray:none;stroke-opacity:1"
       d="m 35.022644,198.64878 32.052676,-2.96946 18.1142,1.77664 18.11421,1.77663 5.37765,-0.30176 c 2.95771,-0.16597 5.59813,-0.304 5.86762,-0.30673 l 0.48996,-0.005 0.0124,1.26774 0.0124,1.26774 -8.88111,0.0239 c -4.88462,0.0132 -22.80742,0.10978 -39.82845,0.21469 -31.996506,0.1972 -67.4069802,-0.28235 -67.4729232,-0.34697 -0.02078,-0.0203 18.5114882,-0.76428 36.1404612,-2.39748 z"
       id="path26438"
       sodipodi:nodetypes="ccccssccccsccc" />
    <path
       style="fill:#e1d778;fill-opacity:1;stroke:#e1d778;stroke-width:0.30266;stroke-miterlimit:4;stroke-dasharray:none;stroke-opacity:1"
       d="m 115.30975,198.60225 c 0.0165,-0.008 6.773,-0.38804 15.01447,-0.84467 l 14.98452,-0.83022 19.99293,0.23161 19.99293,0.23161 7.17817,1.27013 c 3.948,0.69857 7.30037,1.2966 7.44973,1.32895 0.17801,0.0386 0.27245,0.1478 0.27417,0.31708 l 0.19982,0.41668 -23.16638,-0.006 c -12.63325,0.084 -31.73446,0.20577 -42.44713,0.27049 l -19.47758,0.11767 -0.0121,-1.24465 c -0.007,-0.68455 8.4e-4,-1.25114 0.0173,-1.25909 z"
       id="path26440"
       sodipodi:nodetypes="cscccsscccscccc" />
    <path
       style="fill:#e1d7d3;fill-opacity:1;stroke:#e1d7d3;stroke-width:0.340226;stroke-miterlimit:4;stroke-dasharray:none;stroke-opacity:1"
       d="M 2.5510147,164.38445 5.7473151,132.29405 3.1884502,114.20593 0.62958461,96.117802 0.9176388,90.736515 c 0.1584287,-2.959705 0.287057,-5.601779 0.2858363,-5.871273 l -0.00237,-0.489987 -1.60203651,0.0046 -1.60203729,0.0046 0.1237107,8.880607 c 0.068039,4.884332 0.2566958,22.806778 0.4192343,39.827648 0.3055404,31.9962 0.3156053,67.42857 0.3984004,67.49362 0.02604,0.0205 1.85451825,-18.55204 3.6124813,-36.20176 z"
       id="path26921"
       sodipodi:nodetypes="ccccsccccssscc" />
    <path
       style="fill:#e1d7d3;fill-opacity:1;stroke:#e1d7d3;stroke-width:0.340226;stroke-miterlimit:4;stroke-dasharray:none;stroke-opacity:1"
       d="m 1.2178945,84.104263 c 0.00973,-0.01659 0.3728785,-6.77768 0.8069516,-15.024652 L 2.8140644,54.085112 2.1748144,34.097247 1.5355644,14.109378 -0.1937193,6.9493049 c -0.9511078,-3.93804 -2.1963946,-10.170748 -2.2398684,-10.3196442 -0.051813,-0.1774661 0.2400798,2.6184492 0.026143,2.6190557 L -0.56199922,-1.6115461 -2.5286808,22.21913 c -1.0390802,12.590744 0.2901671,31.734299 0.394116,42.446847 l 0.1889952,19.47736 1.57285976,-0.0045 c 0.86507219,-0.0024 1.58083934,-0.01805 1.59058834,-0.03462 z"
       id="path26923"
       sodipodi:nodetypes="sscccssscssccss" />
    <path
       style="fill:#e1d7d3;fill-opacity:1;stroke:#e1d7d3;stroke-width:0.340226;stroke-miterlimit:4;stroke-dasharray:none;stroke-opacity:1"
       d="m 35.779523,0.66559592 32.051998,3.56083798 18.116036,-2.353108 18.116043,-2.35310798 5.37766,0.349199 c 2.95772,0.19206 5.59816,0.350709 5.86765,0.352553 l 0.48998,0.0032 0.0136,-1.60198602 0.0136,-1.601986 -8.88144,0.02276 c -4.88479,0.01252 -22.808219,-0.0025 -39.829837,-0.03348 -31.997606,-0.05815 -67.83839297,1.7206899 -67.90437997,1.8027409 -0.02079,0.0258 18.94035497,-0.1062429 36.56895297,1.85221512 z"
       id="path28256"
       sodipodi:nodetypes="ccccsccccssscc" />
    <path
       style="fill:#e1d7d3;fill-opacity:1;stroke:#e1d7d3;stroke-width:0.340226;stroke-miterlimit:4;stroke-dasharray:none;stroke-opacity:1"
       d="m 116.06968,0.24503692 c 0.0165,0.0099 6.773,0.449891 15.0145,0.97767198 l 14.98456,0.959596 19.99384,-0.412024 19.99384,-0.412024 7.17927,-1.64778998 c 3.9486,-0.90628602 10.19505,-2.08065002 10.34444,-2.12242902 0.17804,-0.04979 -2.62101,0.210303 -2.61919,-0.0036 l 0.83923,1.85510702 -23.80678,-2.23741702 c -12.57812,-1.182121 -31.73555,-0.07055 -42.44858,-0.08837 l -19.47825,-0.0324 -0.0134,1.5728099 c -0.007,0.86504308 8e-5,1.58094208 0.0165,1.59087908 z"
       id="path28258"
       sodipodi:nodetypes="sscccssscssccss" />
    <path
       sodipodi:type="star"
       style="fill:#fff4a9;fill-opacity:1;stroke:#fff497;stroke-width:2.51339;stroke-miterlimit:4;stroke-dasharray:none;stroke-opacity:1"
       id="path28631"
       inkscape:flatsided="true"
       sodipodi:sides="5"
       sodipodi:cx="-374.81833"
       sodipodi:cy="59.149872"
       sodipodi:r1="102.8627"
       sodipodi:r2="83.217674"
       sodipodi:arg1="0.78015939"
       sodipodi:arg2="1.4084779"
       inkscape:rounded="0"
       inkscape:randomized="0"
       d="m -301.70337,131.50275 -119.33287,19.54184 -55.46128,-107.453532 85.0559,-85.951785 108.02873,54.332412 z"
       transform="matrix(0.10774185,0,0,0.09503806,212.32061,170.48708)"
       inkscape:transform-center-x="0.55345113"
       inkscape:transform-center-y="-0.45693772" />
    <path
       sodipodi:type="star"
       style="fill:#fff4a9;fill-opacity:1;stroke:#fff497;stroke-width:2.51339;stroke-miterlimit:4;stroke-dasharray:none;stroke-opacity:1"
       id="path31759"
       inkscape:flatsided="true"
       sodipodi:sides="5"
       sodipodi:cx="-374.81833"
       sodipodi:cy="59.149872"
       sodipodi:r1="102.8627"
       sodipodi:r2="83.217674"
       sodipodi:arg1="0.78015939"
       sodipodi:arg2="1.4084779"
       inkscape:rounded="0"
       inkscape:randomized="0"
       d="m -301.70337,131.50275 -119.33287,19.54184 -55.46128,-107.453532 85.0559,-85.951785 108.02873,54.332412 z"
       transform="matrix(0.10774185,0,0,0.09503806,181.10756,77.16948)"
       inkscape:transform-center-x="0.55345113"
       inkscape:transform-center-y="-0.45693772" />
    <path
       sodipodi:type="star"
       style="fill:#fff4a9;fill-opacity:1;stroke:#fff497;stroke-width:2.51339;stroke-miterlimit:4;stroke-dasharray:none;stroke-opacity:1"
       id="path31761"
       inkscape:flatsided="true"
       sodipodi:sides="5"
       sodipodi:cx="-374.81833"
       sodipodi:cy="59.149872"
       sodipodi:r1="102.8627"
       sodipodi:r2="83.217674"
       sodipodi:arg1="0.78015939"
       sodipodi:arg2="1.4084779"
       inkscape:rounded="0"
       inkscape:randomized="0"
       d="m -301.70337,131.50275 -119.33287,19.54184 -55.46128,-107.453532 85.0559,-85.951785 108.02873,54.332412 z"
       transform="matrix(0.10774185,0,0,0.09503806,211.18345,18.513222)"
       inkscape:transform-center-x="0.55345113"
       inkscape:transform-center-y="-0.45693772" />
    <path
       sodipodi:type="star"
       style="fill:#fff4a9;fill-opacity:1;stroke:#fff497;stroke-width:2.51339;stroke-miterlimit:4;stroke-dasharray:none;stroke-opacity:1"
       id="path31763"
       inkscape:flatsided="true"
       sodipodi:sides="5"
       sodipodi:cx="-374.81833"
       sodipodi:cy="59.149872"
       sodipodi:r1="102.8627"
       sodipodi:r2="83.217674"
       sodipodi:arg1="0.78015939"
       sodipodi:arg2="1.4084779"
       inkscape:rounded="0"
       inkscape:randomized="0"
       d="m -301.70337,131.50275 -119.33287,19.54184 -55.46128,-107.453532 85.0559,-85.951785 108.02873,54.332412 z"
       transform="matrix(0.10774185,0,0,0.09503806,67.708369,133.83902)"
       inkscape:transform-center-x="0.55345113"
       inkscape:transform-center-y="-0.45693772" />
  </g>
</svg>
