<?xml version="1.0" encoding="UTF-8" standalone="no"?>
<!-- Created with Inkscape (http://www.inkscape.org/) -->

<svg
   width="200mm"
   height="200mm"
   viewBox="0 0 200 200"
   version="1.1"
   id="svg8426"
   sodipodi:docname="svg_log.svg"
   inkscape:export-filename="E:\JacksDocuments\Projects\Eiram\Assets\Resources\Sprites\New\dirt.png"
   inkscape:export-xdpi="8.1280003"
   inkscape:export-ydpi="8.1280003"
   inkscape:version="1.1.1 (3bf5ae0d25, 2021-09-20)"
   xmlns:inkscape="http://www.inkscape.org/namespaces/inkscape"
   xmlns:sodipodi="http://sodipodi.sourceforge.net/DTD/sodipodi-0.dtd"
   xmlns="http://www.w3.org/2000/svg"
   xmlns:svg="http://www.w3.org/2000/svg">
  <sodipodi:namedview
     id="namedview37"
     pagecolor="#ffffff"
     bordercolor="#666666"
     borderopacity="1.0"
     inkscape:pageshadow="2"
     inkscape:pageopacity="0.0"
     inkscape:pagecheckerboard="0"
     inkscape:document-units="mm"
     showgrid="false"
     inkscape:zoom="0.4078533"
     inkscape:cx="-1153.6011"
     inkscape:cy="574.96164"
     inkscape:window-width="1920"
     inkscape:window-height="1057"
     inkscape:window-x="-8"
     inkscape:window-y="-8"
     inkscape:window-maximized="1"
     inkscape:current-layer="layer1"
     inkscape:snap-global="false" />
  <defs
     id="defs8423" />
  <g
     id="layer1">
    <rect
       style="fill:#676767;fill-opacity:1;stroke:#565164;stroke-width:1.10958;stroke-miterlimit:4;stroke-dasharray:none;stroke-opacity:1"
       id="rect3123"
       width="198.89041"
       height="198.89043"
       x="0.55479109"
       y="0.55479109" />
    <path
       style="fill:#606060;fill-opacity:1;stroke:#505050;stroke-width:1.07375;stroke-linecap:butt;stroke-linejoin:miter;stroke-miterlimit:4;stroke-dasharray:none;stroke-opacity:1"
       d="m 205.17516,202.27238 -0.72057,-21.17094 -6.38401,-30.2938 -10.6063,2.92524 -2.39327,16.75474 2.64205,15.11318 -0.16488,16.24126 z"
       id="path1425-6-5-1" />
    <path
       style="fill:#505050;fill-opacity:1;stroke:#7d4c2c;stroke-opacity:1"
       id="path13444"
       d="m 1108.4328,440.2861 187.1407,-23.70099 80.3707,170.65743 -137.469,129.17307 -165.3311,-90.82407 z"
       transform="matrix(0.07459994,0.04708071,-0.04906252,0.07158656,192.38996,-118.52554)" />
    <path
       style="fill:#595959;fill-opacity:1;stroke:#646464;stroke-opacity:1"
       id="path13446"
       d="m 1108.4328,440.2861 187.1407,-23.70099 80.3707,170.65743 -137.469,129.17307 -165.3311,-90.82407 z"
       transform="matrix(0.06475968,0.04277361,-0.04259083,0.06503759,200.63648,-109.54128)" />
    <path
       style="fill:#505050;fill-opacity:1;stroke:#7d4c2c;stroke-opacity:1"
       id="path13448"
       d="m 1108.4328,440.2861 187.1407,-23.70099 80.3707,170.65743 -137.469,129.17307 -165.3311,-90.82407 z"
       transform="matrix(0.07459994,0.04708071,-0.04906252,0.07158656,192.38996,-118.52554)" />
    <path
       style="fill:#595959;fill-opacity:1;stroke:#646464;stroke-opacity:1"
       id="path13450"
       d="m 1108.4328,440.2861 187.1407,-23.70099 80.3707,170.65743 -137.469,129.17307 -165.3311,-90.82407 z"
       transform="matrix(0.06475968,0.04277361,-0.04259083,0.06503759,200.63648,-109.54128)" />
    <path
       style="fill:#606060;fill-opacity:1;stroke:#505050;stroke-width:1.77607;stroke-linecap:butt;stroke-linejoin:miter;stroke-miterlimit:4;stroke-dasharray:none;stroke-opacity:1"
       d="m 161.82946,88.455277 8.97662,61.971753 0.71814,49.71363 c 4.54815,-3.63205 11.12464,14.89782 14.36258,-6.12907 l 0.35907,-34.73143 -4.66784,-50.39462 3.23158,-21.79228 z"
       id="path1425-8"
       sodipodi:nodetypes="cccccccc" />
    <path
       style="fill:#606060;fill-opacity:1;stroke:#505050;stroke-width:1.66781;stroke-linecap:butt;stroke-linejoin:miter;stroke-miterlimit:4;stroke-dasharray:none;stroke-opacity:1"
       d="m 157.74217,-0.11517592 -0.38025,38.77774292 6.50621,55.5317 14.15312,-5.269851 4.20418,-30.664413 -2.53088,-27.699585 1.23692,-29.74239406 z"
       id="path1425" />
    <path
       style="fill:#606060;fill-opacity:1;stroke:#505050;stroke-width:1.37852;stroke-linecap:butt;stroke-linejoin:miter;stroke-miterlimit:4;stroke-dasharray:none;stroke-opacity:1"
       d="m 122.51534,201.6324 2.72819,-21.05829 12.73155,-29.80558 17.27855,3.56371 2.7282,16.84663 -5.45638,14.90279 -0.9094,16.19868 z"
       id="path1425-7" />
    <path
       style="fill:#606060;fill-opacity:1;stroke:#505050;stroke-width:1.37852;stroke-linecap:butt;stroke-linejoin:miter;stroke-miterlimit:4;stroke-dasharray:none;stroke-opacity:1"
       d="m 134.31638,158.98786 -4.40212,-25.07663 1.65982,-53.63433 20.54649,1.865741 2.01701,25.183109 -0.69188,27.21318 3.96666,22.83015 z"
       id="path1425-2-67"
       sodipodi:nodetypes="cccccccc" />
    <path
       style="fill:#606060;fill-opacity:1;stroke:#505050;stroke-width:1.77827;stroke-linecap:butt;stroke-linejoin:miter;stroke-miterlimit:4;stroke-dasharray:none;stroke-opacity:1"
       d="m 134.90636,99.300396 4.0437,-58.640931 0.89438,-40.01619974 C 145.5088,3.5668309 153.6993,-11.348492 157.73188,5.5767685 l 0.44718,27.9565135 -5.81341,40.564356 -6.03051,23.055478 z"
       id="path1425-8-2"
       sodipodi:nodetypes="cccccccc" />
    <path
       style="fill:#606060;fill-opacity:1;stroke:#505050;stroke-width:1.84279;stroke-linecap:butt;stroke-linejoin:miter;stroke-miterlimit:4;stroke-dasharray:none;stroke-opacity:1"
       d="m 34.526432,95.292699 10.258439,58.378751 0.820681,46.83134 c 5.197614,-3.42148 12.713208,14.03406 16.413512,-5.77373 l 0.410334,-32.71777 -5.334392,-47.47285 3.693044,-20.528791 z"
       id="path1425-8-28-9"
       sodipodi:nodetypes="cccccccc" />
    <path
       style="fill:#606060;fill-opacity:1;stroke:#505050;stroke-width:1.56194;stroke-linecap:butt;stroke-linejoin:miter;stroke-miterlimit:4;stroke-dasharray:none;stroke-opacity:1"
       d="M 30.40051,-0.15947277 30.815686,35.371325 42.855396,104.61083 55.31027,98.233511 57.386089,69.080018 51.988973,31.27162 51.573809,-1.07052 Z"
       id="path1425-2-5-4"
       sodipodi:nodetypes="cccccccc" />
    <path
       style="fill:#606060;fill-opacity:1;stroke:#505050;stroke-width:1.60729;stroke-linecap:butt;stroke-linejoin:miter;stroke-miterlimit:4;stroke-dasharray:none;stroke-opacity:1"
       d="m 90.447425,198.88662 1.681782,-34.88867 -8.808212,-68.523353 -13.784992,5.665003 -3.980344,28.51147 3.542939,37.36123 -1.490771,31.75941 z"
       id="path1425-2-5-0"
       sodipodi:nodetypes="cccccccc" />
    <path
       style="fill:#606060;fill-opacity:1;stroke:#505050;stroke-width:1.91347;stroke-linecap:butt;stroke-linejoin:miter;stroke-miterlimit:4;stroke-dasharray:none;stroke-opacity:1"
       d="M 88.730821,104.55083 81.905661,45.879049 84.413142,-0.89002295 C 78.565037,2.3159042 71.731377,-15.405785 66.309816,4.2132291 l -2.811699,32.6347819 2.309475,47.590432 -5.465956,20.338837 z"
       id="path1425-8-28-5"
       sodipodi:nodetypes="cccccccc" />
    <path
       style="fill:#606060;fill-opacity:1;stroke:#505050;stroke-width:1.37107;stroke-linecap:butt;stroke-linejoin:miter;stroke-miterlimit:4;stroke-dasharray:none;stroke-opacity:1"
       d="m 117.06142,209.6615 2.83643,-37.42811 -0.53473,-58.08755 -9.57877,-3.8906 -4.78782,27.11217 -0.19905,28.51965 -2.79182,28.10545 z"
       id="path1425-6-5" />
    <path
       style="fill:#606060;fill-opacity:1;stroke:#505050;stroke-width:1.8063;stroke-linecap:butt;stroke-linejoin:miter;stroke-miterlimit:4;stroke-dasharray:none;stroke-opacity:1"
       d="M 122.15008,117.15454 120.6937,51.652793 122.34041,0.95896613 C 117.56226,4.3939666 111.78876,-14.869675 107.50653,6.3649687 l -2.02192,35.3659523 2.31959,51.618328 3.08623,23.391971 c 5.31081,-0.47429 -5.53515,12.49141 11.25965,0.41332 z"
       id="path1425-8-9-7"
       sodipodi:nodetypes="cccccccc" />
    <path
       style="fill:#606060;fill-opacity:1;stroke:#505050;stroke-width:1.37107;stroke-linecap:butt;stroke-linejoin:miter;stroke-miterlimit:4;stroke-dasharray:none;stroke-opacity:1"
       d="m 19.442894,206.37908 2.83642,-37.42811 -0.53473,-58.08755 -9.57876,-3.8906 -4.7878201,27.11217 -0.19905,28.51965 -2.79182,28.10545 z"
       id="path1425-6-5-8" />
    <path
       style="fill:#606060;fill-opacity:1;stroke:#505050;stroke-width:1.8063;stroke-linecap:butt;stroke-linejoin:miter;stroke-miterlimit:4;stroke-dasharray:none;stroke-opacity:1"
       d="m 24.531544,113.87212 -1.45638,-65.501749 1.64671,-50.6938274 c -4.77814,3.435001 -10.55164,-15.8286406 -14.8338701,5.406003 l -2.02192,35.3659524 2.3195901,51.618328 3.08623,23.391973 c 5.31081,-0.47429 -5.5351501,12.49141 11.25964,0.41332 z"
       id="path1425-8-9-7-7"
       sodipodi:nodetypes="cccccccc" />
    <path
       style="fill:#606060;fill-opacity:1;stroke:#505050;stroke-width:1.38512;stroke-linecap:butt;stroke-linejoin:miter;stroke-miterlimit:4;stroke-dasharray:none;stroke-opacity:1"
       d="m 200.03938,90.181541 -4.55951,-50.324885 1.225,-40.07126885 C 193.15039,2.5006057 188.85546,-12.726466 185.6699,4.0585973 l -1.50412,27.9552487 1.72556,40.802045 -3.20798,17.401786 z"
       id="path1425-8-9-7-9"
       sodipodi:nodetypes="cccccccc" />
    <path
       style="fill:#606060;fill-opacity:1;stroke:#505050;stroke-width:1.07375;stroke-linecap:butt;stroke-linejoin:miter;stroke-miterlimit:4;stroke-dasharray:none;stroke-opacity:1"
       d="m 199.95585,158.07378 0.84015,-25.30063 -5.80118,-49.759705 -8.4494,4.032513 -2.28986,20.661402 2.38806,27.12363 -0.74008,23.03158 z"
       id="path1425-2-0-2-2"
       sodipodi:nodetypes="cccccccc" />
  </g>
</svg>
