<?xml version="1.0" encoding="UTF-8" standalone="no"?>
<!-- Created with Inkscape (http://www.inkscape.org/) -->

<svg
   width="200mm"
   height="200mm"
   viewBox="0 0 200 200"
   version="1.1"
   id="svg5"
   inkscape:version="1.1.1 (3bf5ae0, 2021-09-20)"
   sodipodi:docname="svg_stone_plant_3.svg"
   inkscape:export-filename="/home/jackdelahunt/Projects/Eiram/Assets/Resources/Sprites/New/stone_plant_3.png"
   inkscape:export-xdpi="8.1280003"
   inkscape:export-ydpi="8.1280003"
   xmlns:inkscape="http://www.inkscape.org/namespaces/inkscape"
   xmlns:sodipodi="http://sodipodi.sourceforge.net/DTD/sodipodi-0.dtd"
   xmlns="http://www.w3.org/2000/svg"
   xmlns:svg="http://www.w3.org/2000/svg">
  <sodipodi:namedview
     id="namedview7"
     pagecolor="#ffffff"
     bordercolor="#666666"
     borderopacity="1.0"
     inkscape:pageshadow="2"
     inkscape:pageopacity="0.0"
     inkscape:pagecheckerboard="0"
     inkscape:document-units="mm"
     showgrid="false"
     width="200mm"
     inkscape:snap-global="false"
     inkscape:zoom="0.74742565"
     inkscape:cx="606.74932"
     inkscape:cy="571.96325"
     inkscape:window-width="1920"
     inkscape:window-height="1016"
     inkscape:window-x="0"
     inkscape:window-y="32"
     inkscape:window-maximized="1"
     inkscape:current-layer="layer1" />
  <defs
     id="defs2">
    <inkscape:path-effect
       effect="bspline"
       id="path-effect6127"
       is_visible="true"
       lpeversion="1"
       weight="33.333333"
       steps="2"
       helper_size="0"
       apply_no_weight="true"
       apply_with_weight="true"
       only_selected="false" />
    <inkscape:path-effect
       effect="bspline"
       id="path-effect4838"
       is_visible="true"
       lpeversion="1"
       weight="33.333333"
       steps="2"
       helper_size="0"
       apply_no_weight="true"
       apply_with_weight="true"
       only_selected="false" />
    <inkscape:path-effect
       effect="bspline"
       id="path-effect4152"
       is_visible="true"
       lpeversion="1"
       weight="33.333333"
       steps="2"
       helper_size="0"
       apply_no_weight="true"
       apply_with_weight="true"
       only_selected="false" />
    <inkscape:path-effect
       effect="bspline"
       id="path-effect3851"
       is_visible="true"
       lpeversion="1"
       weight="33.333333"
       steps="2"
       helper_size="0"
       apply_no_weight="true"
       apply_with_weight="true"
       only_selected="false" />
    <inkscape:path-effect
       effect="bspline"
       id="path-effect3737"
       is_visible="true"
       lpeversion="1"
       weight="33.333333"
       steps="2"
       helper_size="0"
       apply_no_weight="true"
       apply_with_weight="true"
       only_selected="false" />
    <inkscape:path-effect
       effect="bspline"
       id="path-effect1053"
       is_visible="true"
       lpeversion="1"
       weight="33.333333"
       steps="2"
       helper_size="0"
       apply_no_weight="true"
       apply_with_weight="true"
       only_selected="false" />
  </defs>
  <g
     inkscape:label="Layer 1"
     inkscape:groupmode="layer"
     id="layer1">
    <path
       style="fill:#008700;fill-opacity:1;stroke:#006d00;stroke-width:0.905435;stroke-linecap:butt;stroke-linejoin:miter;stroke-miterlimit:4;stroke-dasharray:none;stroke-opacity:1"
       d="m 203.04022,200.83667 2.38135,-38.92024 8.02618,-35.64503 7.53561,34.82986 1.65778,39.61142 z"
       id="path1248"
       sodipodi:nodetypes="cccccc" />
    <g
       id="g4429">
      <path
         style="fill:none;stroke:#000000;stroke-width:0.242524px;stroke-linecap:butt;stroke-linejoin:miter;stroke-opacity:1"
         d="m 76.681827,200.69814 c 7.148074,-12.20939 14.296061,-24.41863 15.333859,-39.56851 1.037799,-15.14987 -4.034803,-33.23936 -8.773502,-42.9346 -4.7387,-9.69523 -9.143406,-10.99555 -16.510384,-6.90426 -7.366977,4.09129 -17.69544,13.57392 -22.859844,18.28327 -5.164404,4.70935 -5.164552,4.64493 -3.297632,-0.1872 1.866919,-4.83214 5.600814,-14.43151 11.05694,-21.42569 5.456127,-6.99419 12.634006,-11.382623 20.463884,-12.585918 7.829878,-1.203295 16.31104,0.778476 21.566361,5.628238 5.255322,4.84976 7.284741,12.56692 9.314121,20.28394"
         id="path3735"
         inkscape:path-effect="#path-effect3737"
         inkscape:original-d="m 76.681827,200.69814 c 7.148385,-12.20921 14.296373,-24.41845 21.444384,-36.62845 -5.072548,-18.08998 -10.145153,-36.17947 -15.218124,-54.2696 -4.404656,-1.30011 -8.80936,-2.60044 -13.214374,-3.90104 -10.328656,9.48327 -20.65712,18.96589 -30.986013,28.44844 8.7e-5,-0.0641 -5e-5,-0.12852 -4.45e-4,-0.19318 3.734269,-9.5995 7.468165,-19.19887 11.201915,-28.7987 7.178395,-4.38836 14.356278,-8.776792 21.534087,-13.165585 8.481722,1.982113 16.962884,3.963884 25.443995,5.94543 2.029719,7.717735 4.059138,15.434895 6.088378,23.151955"
         sodipodi:nodetypes="cccccccccc" />
      <path
         style="fill:none;stroke:#000000;stroke-width:0.264583px;stroke-linecap:butt;stroke-linejoin:miter;stroke-opacity:1"
         d="M 71.663872,200.68905 H 134.26369"
         id="path3887" />
      <path
         style="fill:none;stroke:#000000;stroke-width:0.242524px;stroke-linecap:butt;stroke-linejoin:miter;stroke-opacity:1"
         d="m 129.26943,200.69814 c -7.14807,-12.20939 -14.29606,-24.41863 -15.33386,-39.56851 -1.0378,-15.14987 4.03481,-33.23936 8.77351,-42.9346 4.7387,-9.69523 9.1434,-10.99555 16.51038,-6.90426 7.36698,4.09129 17.69544,13.57392 22.85985,18.28327 5.1644,4.70935 5.16455,4.64493 3.29763,-0.1872 -1.86692,-4.83214 -5.60082,-14.43151 -11.05694,-21.42569 -5.45613,-6.99418 -12.63401,-11.382626 -20.46389,-12.585921 -7.82988,-1.203296 -16.31104,0.778474 -21.56636,5.628241 -5.25532,4.84976 -7.28474,12.56692 -9.31412,20.28394"
         id="path4148"
         inkscape:path-effect="#path-effect4152"
         inkscape:original-d="m 129.26943,200.69814 c -7.14838,-12.20921 -14.29637,-24.41845 -21.44438,-36.62845 5.07255,-18.08998 10.14515,-36.17947 15.21812,-54.2696 4.40466,-1.30011 8.80936,-2.60044 13.21438,-3.90104 10.32865,9.48327 20.65712,18.96589 30.98601,28.44844 -8e-5,-0.0641 5e-5,-0.12852 4.5e-4,-0.19318 -3.73427,-9.5995 -7.46817,-19.19887 -11.20192,-28.7987 -7.17839,-4.38836 -14.35628,-8.776796 -21.53409,-13.165589 -8.48172,1.982113 -16.96288,3.963884 -25.44399,5.94543 -2.02972,7.717739 -4.05914,15.434899 -6.08838,23.151959"
         sodipodi:nodetypes="cccccccccc" />
    </g>
    <rect
       style="fill:#7f7878;fill-opacity:1;stroke:#7f7878;stroke-width:0.159663;stroke-opacity:1"
       id="rect846"
       width="49.187378"
       height="47.482658"
       x="16.367022"
       y="128.55476" />
    <path
       style="fill:#7c7474;fill-opacity:1;stroke:#7c7474;stroke-width:0.0366878;stroke-opacity:1"
       d="m 30.754766,135.39244 c 0.01017,-0.0288 3.686852,-4.58358 3.70558,-4.59052 0.03878,-0.0143 8.251367,1.58244 10.982011,2.13528 1.530075,0.30978 2.776389,0.56502 2.769585,0.56721 -0.0115,0.004 -13.259161,-1.83759 -13.345876,-1.85494 -0.03542,-0.007 -0.223932,0.16275 -1.975935,1.78022 -1.065224,0.98343 -1.982683,1.83083 -2.038794,1.88313 -0.05611,0.0523 -0.09957,0.0881 -0.09657,0.0796 z"
       id="path3507" />
    <rect
       style="fill:#7f7878;fill-opacity:1;stroke:#7f7878;stroke-width:0.159663;stroke-opacity:1"
       id="rect846-6"
       width="49.187378"
       height="47.482658"
       x="138.68994"
       y="129.33583" />
    <path
       style="fill:#008700;fill-opacity:1;stroke:#006700;stroke-width:2.05984255;stroke-linejoin:round;stroke-miterlimit:4;stroke-dasharray:none;stroke-opacity:1"
       d="m 292.17508,756.60857 c 7.07417,-11.71784 20.84945,-36.78068 27.16898,-49.43144 16.17415,-32.3783 24.17381,-57.13173 28.43387,-87.98325 1.56716,-11.34947 1.32877,-42.46743 -0.44213,-57.70943 -5.12976,-44.15177 -19.31109,-92.6972 -35.89172,-122.86429 -5.45245,-9.92027 -15.03367,-20.96954 -20.68231,-23.85126 -21.54907,-10.99352 -50.01179,5.56451 -122.36374,71.18443 -7.28463,6.60683 -14.46684,12.96503 -15.96045,14.12933 l -2.71567,2.11693 0.6893,-2.28698 c 4.48564,-14.88265 22.56817,-55.06234 31.96907,-71.03584 11.44743,-19.45084 27.50822,-37.55909 42.37221,-47.77389 30.27095,-20.80274 65.83786,-26.36414 98.60308,-15.41801 25.50216,8.5197 40.85175,23.58998 51.7291,50.78781 3.27288,8.18355 9.35318,27.36028 12.30756,38.81694 0.57025,2.21141 1.38022,4.02074 1.7999,4.02074 0.41969,0 2.17087,-5.21514 3.89153,-11.58919 6.92668,-25.65933 14.73419,-44.03195 23.76575,-55.92547 16.82732,-22.1596 49.60215,-34.48267 82.5711,-31.04606 13.87129,1.44592 24.92951,4.65008 37.98848,11.00732 35.57629,17.31889 59.44029,48.7919 83.96092,110.73178 6.39178,16.14582 7.21773,19.03417 5.10486,17.85175 -0.82484,-0.46161 -9.12703,-7.74596 -18.44932,-16.18745 -29.82063,-27.00311 -51.58252,-44.90425 -68.68521,-56.49988 -37.30305,-25.29146 -56.3743,-21.14198 -75.22451,16.36718 -23.34771,46.45854 -38.29862,119.20043 -34.20861,166.43793 3.56551,41.17977 16.26045,76.35407 46.77253,129.59431 l 9.89491,17.26553 h -97.41392 c -53.57766,0 -97.22116,-0.31929 -96.98556,-0.70954 z"
       id="path4486"
       transform="scale(0.26458333)" />
    <path
       style="fill:#847c7c;fill-opacity:1;stroke:#847c7c;stroke-width:0.103768;stroke-opacity:1"
       d="m 33.423759,138.55971 c -1.448086,-1.2957 -2.626252,-2.3624 -2.618154,-2.37045 0.0081,-0.008 1.329767,0.65366 2.937041,1.47047 1.607274,0.81681 2.948221,1.48511 2.979882,1.48511 0.03166,0 1.93035,-0.33614 4.219304,-0.74698 l 4.161737,-0.74697 2.050611,-1.72622 c 1.127831,-0.94943 2.057874,-1.71921 2.066752,-1.71063 0.01604,0.0155 -3.440077,4.86476 -3.535665,4.96084 -0.02754,0.0277 -2.176879,0.42446 -4.776314,0.88173 -2.599439,0.45728 -4.754617,0.8376 -4.789284,0.84516 -0.03677,0.008 -1.159934,-0.96772 -2.69591,-2.34206 z"
       id="path3505" />
    <path
       style="fill:#847c7c;fill-opacity:1;stroke:#847c7c;stroke-width:0.0712968;stroke-opacity:1"
       d="m 53.97183,135.51125 c -1.016189,0.87164 -1.842962,1.58923 -1.83728,1.59465 0.0057,0.005 0.933159,-0.43973 2.061058,-0.98921 1.127899,-0.54949 2.068903,-0.99906 2.091121,-0.99906 0.02222,0 1.354616,0.22612 2.960881,0.5025 l 2.920484,0.5025 1.439008,1.16126 c 0.791452,0.6387 1.444106,1.15654 1.450336,1.15077 0.01126,-0.0104 -2.414061,-3.27261 -2.48114,-3.33724 -0.01933,-0.0186 -1.527617,-0.28554 -3.351761,-0.59316 -1.824146,-0.30762 -3.336534,-0.56346 -3.360862,-0.56855 -0.0258,-0.005 -0.813979,0.651 -1.891845,1.57554 z"
       id="path3505-7" />
    <path
       style="fill:#7c7474;fill-opacity:1;stroke:#7c7474;stroke-width:0.0252074;stroke-opacity:1"
       d="m 52.098874,137.64193 c 0.0071,0.0194 2.587235,3.08346 2.600377,3.08812 0.02721,0.01 5.790367,-1.06453 7.706586,-1.43644 1.073724,-0.20839 1.948321,-0.38009 1.943546,-0.38157 -0.0081,-0.003 -9.304567,1.23618 -9.365419,1.24785 -0.02486,0.005 -0.157144,-0.10948 -1.386605,-1.19758 -0.747517,-0.66157 -1.391341,-1.23163 -1.430716,-1.26682 -0.03937,-0.0352 -0.06987,-0.0593 -0.06777,-0.0535 z"
       id="path3507-5" />
    <path
       style="fill:#847c7c;fill-opacity:1;stroke:#847c7c;stroke-width:0.0712968;stroke-opacity:1"
       d="m 18.690331,134.03115 c -1.016189,0.87164 -1.842962,1.58923 -1.83728,1.59465 0.0057,0.005 0.933159,-0.43973 2.061058,-0.98921 1.127899,-0.54949 2.068903,-0.99906 2.091121,-0.99906 0.02222,0 1.354616,0.22612 2.960881,0.5025 l 2.920484,0.5025 1.439008,1.16126 c 0.791452,0.6387 1.444106,1.15654 1.450336,1.15077 0.01126,-0.0104 -2.414061,-3.27261 -2.48114,-3.33724 -0.01933,-0.0186 -1.527617,-0.28554 -3.351761,-0.59316 -1.824146,-0.30762 -3.336534,-0.56346 -3.360862,-0.56855 -0.0258,-0.005 -0.813979,0.651 -1.891845,1.57554 z"
       id="path3505-7-3" />
    <path
       style="fill:#7c7474;fill-opacity:1;stroke:#7c7474;stroke-width:0.0252074;stroke-opacity:1"
       d="m 16.817375,136.16183 c 0.0071,0.0194 2.587235,3.08346 2.600377,3.08812 0.02721,0.01 5.790367,-1.06453 7.706586,-1.43644 1.073724,-0.20839 1.948321,-0.38009 1.943546,-0.38157 -0.0081,-0.003 -9.304567,1.23618 -9.365419,1.24785 -0.02486,0.005 -0.157144,-0.10948 -1.386605,-1.19758 -0.747517,-0.66157 -1.391341,-1.23163 -1.430716,-1.26682 -0.03937,-0.0352 -0.06987,-0.0593 -0.06777,-0.0535 z"
       id="path3507-5-5" />
    <path
       style="fill:#847c7c;fill-opacity:1;stroke:#847c7c;stroke-width:0.103768;stroke-opacity:1"
       d="m 51.582403,173.33963 c -1.925113,-0.42346 -3.497874,-0.77883 -3.495024,-0.78971 0.0028,-0.0109 1.490182,-0.0755 3.305202,-0.14364 1.815021,-0.0681 3.322467,-0.13635 3.349889,-0.15163 0.02742,-0.0153 1.497837,-1.22259 3.267588,-2.68293 l 3.217728,-2.65513 0.882201,-2.48458 c 0.485214,-1.36652 0.892127,-2.48201 0.904258,-2.47887 0.02193,0.006 -0.460483,5.87336 -0.493521,6.0027 -0.0095,0.0373 -1.665624,1.41805 -3.680234,3.06841 -2.014621,1.65037 -3.684302,3.01972 -3.71041,3.04299 -0.02771,0.0247 -1.505718,-0.27844 -3.547677,-0.72761 z"
       id="path3509" />
    <path
       style="fill:#7c7474;fill-opacity:1;stroke:#7c7474;stroke-width:0.0366878;stroke-opacity:1"
       d="m 47.630743,171.88431 c -0.0062,-0.0299 0.819814,-5.74889 0.832444,-5.76394 0.02612,-0.0312 7.965967,-2.611 10.617256,-3.44982 1.485616,-0.47001 2.697216,-0.85033 2.692462,-0.84515 -0.008,0.009 -12.43537,4.80645 -12.519457,4.83327 -0.03433,0.011 -0.109673,0.24901 -0.789565,2.49531 -0.413383,1.36576 -0.769202,2.54241 -0.79072,2.61478 -0.02153,0.0724 -0.04062,0.12438 -0.04244,0.11555 z"
       id="path3511" />
    <path
       style="fill:#847c7c;fill-opacity:1;stroke:#847c7c;stroke-width:0.103768;stroke-opacity:1"
       d="m 32.763386,154.81813 6.869791,-0.54407 2.491048,-1.81055 c 1.370072,-0.99581 2.482759,-1.81856 2.472628,-1.82834 -0.01009,-0.01 -1.129893,0.43295 -2.488368,0.98385 l -2.469954,1.00161 -6.452257,0.54948 -6.452259,0.54948 -4.130117,-1.91783 c -2.271562,-1.0548 -4.137556,-1.91064 -4.14665,-1.90186 -0.02716,0.0263 7.299512,5.44999 7.370753,5.4564 0.03607,0.004 3.157001,-0.23893 6.935385,-0.53817 z"
       id="path4437" />
    <path
       style="fill:#7c7474;fill-opacity:1;stroke:#7c7474;stroke-width:0.103768;stroke-opacity:1"
       d="m 42.775379,147.71619 -1.964337,-2.17827 -5.819905,-0.76042 c -3.20095,-0.41823 -5.881719,-0.76143 -5.957266,-0.76266 -0.126585,-0.002 -7.201484,1.65979 -7.378944,1.73328 -0.07473,0.031 -3.433064,3.38431 -3.411523,3.40647 0.0057,0.006 0.977732,-0.56491 2.160168,-1.26829 l 2.149884,-1.27887 3.141833,-0.75718 3.141836,-0.75717 5.696773,0.8551 5.696773,0.8551 2.229842,1.5456 c 1.226416,0.85007 2.240954,1.54558 2.254529,1.54558 0.01354,0 -0.859271,-0.98022 -1.939663,-2.17827 z"
       id="path4439" />
    <path
       style="fill:#847c7c;fill-opacity:1;stroke:#847c7c;stroke-width:0.146751;stroke-opacity:1"
       d="m 27.959226,173.70691 c -1.683259,-0.0209 -3.608681,-0.0417 -4.278716,-0.0463 l -1.218246,-0.008 -1.880445,-2.05072 c -1.034245,-1.12788 -1.871222,-2.06022 -1.85995,-2.07184 0.01128,-0.0116 0.897586,0.51975 1.969585,1.18084 1.071999,0.66108 1.978485,1.21828 2.014412,1.23822 0.03593,0.0199 2.054947,0.0885 4.486711,0.15239 2.431763,0.0639 4.65261,0.12284 4.935217,0.13103 l 0.51383,0.0149 2.242692,-4.00315 c 1.233481,-2.20173 2.252746,-3.99345 2.265034,-3.98158 0.01229,0.0119 -0.745183,2.15532 -1.68327,4.76326 l -1.705612,4.7417 -1.370385,-0.0113 c -0.753712,-0.006 -2.747597,-0.0283 -4.430857,-0.0492 z"
       id="path4869" />
    <path
       style="fill:#7c7474;fill-opacity:1;stroke:#7c7474;stroke-width:0.146751;stroke-opacity:1"
       d="m 19.057469,168.51597 c 0.01762,-0.017 1.633285,-1.23112 3.590358,-2.69802 l 3.558315,-2.6671 4.813556,0.0371 c 2.647457,0.0204 4.971404,0.0534 5.164328,0.0735 0.299035,0.0311 -0.352361,0.13579 -4.416557,0.71046 l -4.767326,0.67408 -3.942797,1.95046 c -3.554446,1.75834 -4.108193,2.02408 -3.999877,1.91952 z"
       id="path4871" />
    <path
       style="fill:#847c7c;fill-opacity:1;stroke:#847c7c;stroke-width:0.146751;stroke-opacity:1"
       d="m 55.524987,156.58864 c -1.683262,-0.0209 -3.608686,-0.0417 -4.278714,-0.0463 l -1.218251,-0.008 -1.880444,-2.05071 c -1.034243,-1.12789 -1.871219,-2.06021 -1.85995,-2.07183 0.01127,-0.0116 0.897589,0.51975 1.969584,1.18083 1.072,0.66108 1.978484,1.21828 2.014417,1.23822 0.03592,0.02 2.054939,0.0885 4.486706,0.15239 2.431766,0.0639 4.652612,0.12284 4.935217,0.13103 l 0.513832,0.0149 2.242688,-4.00315 c 1.233487,-2.20173 2.252749,-3.99345 2.265038,-3.98159 0.01229,0.0119 -0.745184,2.15534 -1.683273,4.76328 l -1.705613,4.74168 -1.370379,-0.0112 c -0.753712,-0.006 -2.747596,-0.0283 -4.430858,-0.0492 z"
       id="path4873" />
    <path
       style="fill:#7c7474;fill-opacity:1;stroke:#7c7474;stroke-width:0.146751;stroke-opacity:1"
       d="m 46.623231,151.39769 c 0.01762,-0.017 1.633284,-1.23112 3.590352,-2.69802 l 3.558317,-2.66709 4.813561,0.0371 c 2.647452,0.0204 4.971404,0.0534 5.164325,0.0735 0.299036,0.031 -0.352362,0.13579 -4.416557,0.71046 l -4.767322,0.67408 -3.942799,1.95046 c -3.554448,1.75834 -4.108196,2.02407 -3.999877,1.91951 z"
       id="path4875" />
    <path
       style="fill:#847c7c;fill-opacity:1;stroke:#847c7c;stroke-width:0.064317;stroke-opacity:1"
       d="m 26.95079,161.456 c 1.122625,-0.46866 2.038759,-0.85732 2.035857,-0.86369 -0.0029,-0.006 -0.912598,0.11528 -2.021543,0.27033 -1.108944,0.15506 -2.031231,0.27669 -2.049525,0.27029 -0.0183,-0.006 -1.041236,-0.58781 -2.273204,-1.292 l -2.239941,-1.28036 -0.804012,-1.42901 c -0.442209,-0.78595 -0.809761,-1.42634 -0.816786,-1.4231 -0.0127,0.006 0.914391,3.5543 0.948423,3.63008 0.0098,0.0218 1.1642,0.68955 2.565324,1.48381 1.401125,0.79425 2.562524,1.45347 2.580887,1.46492 0.01947,0.0122 0.883758,-0.33417 2.07452,-0.83127 z"
       id="path4877" />
    <path
       style="fill:#7c7474;fill-opacity:1;stroke:#7c7474;stroke-width:0.0227396;stroke-opacity:1"
       d="m 29.191836,160.13433 c 4.87e-4,-0.019 -1.119021,-3.43895 -1.128312,-3.44681 -0.01924,-0.0163 -5.116995,-0.73828 -6.816809,-0.96547 -0.952464,-0.1273 -1.728931,-0.22927 -1.725482,-0.22661 0.0058,0.004 8.066917,1.60078 8.12085,1.60812 0.02203,0.004 0.09348,0.14092 0.748952,1.44563 0.398527,0.79328 0.741681,1.47675 0.762566,1.51883 0.02088,0.0421 0.03809,0.0719 0.03823,0.0663 z"
       id="path4879" />
    <path
       style="fill:#847c7c;fill-opacity:1;stroke:#847c7c;stroke-width:0.0654273;stroke-opacity:1"
       d="m 45.088073,163.0456 5.545545,0.75124 2.163841,-0.50138 c 1.190116,-0.27575 2.157972,-0.50643 2.150805,-0.51261 -0.0072,-0.006 -0.944661,0.0412 -2.083314,0.10525 l -2.070265,0.11648 -5.212145,-0.68712 -5.212151,-0.68713 -3.121101,-1.52838 c -1.716609,-0.84062 -3.127736,-1.52604 -3.135844,-1.52318 -0.0242,0.009 5.320812,3.68953 5.377181,3.70309 0.0285,0.007 2.547394,0.35055 5.597448,0.76374 z"
       id="path4881" />
    <path
       style="fill:#7c7474;fill-opacity:1;stroke:#7c7474;stroke-width:0.0654273;stroke-opacity:1"
       d="m 53.768376,161.11443 -1.364373,-1.3342 -4.582232,-1.22223 c -2.520221,-0.67223 -4.631558,-1.23182 -4.691865,-1.24355 -0.101044,-0.0195 -5.916607,-0.26497 -6.065495,-0.25587 -0.06269,0.004 -3.066434,1.11741 -3.051308,1.13121 0.004,0.004 0.835487,-0.12689 1.84781,-0.29004 l 1.840589,-0.29662 2.58441,0.0998 2.584409,0.0997 4.47478,1.2495 4.474773,1.24951 1.636701,1.06986 c 0.900184,0.58843 1.645584,1.0715 1.656445,1.0735 0.01088,0.002 -0.594236,-0.59676 -1.344644,-1.33056 z"
       id="path4883" />
    <path
       style="fill:#7c7474;fill-opacity:1;stroke:#7c7474;stroke-width:0.0366878;stroke-opacity:1"
       d="m 153.07768,136.17351 c 0.0102,-0.0288 3.68686,-4.58358 3.70558,-4.59052 0.0388,-0.0143 8.25137,1.58244 10.98201,2.13528 1.53008,0.30978 2.77639,0.56502 2.76959,0.56721 -0.0115,0.004 -13.25916,-1.83759 -13.34588,-1.85494 -0.0354,-0.007 -0.22393,0.16275 -1.97593,1.78022 -1.06523,0.98343 -1.98268,1.83083 -2.0388,1.88313 -0.0561,0.0523 -0.0996,0.0881 -0.0966,0.0796 z"
       id="path3507-2" />
    <path
       style="fill:#847c7c;fill-opacity:1;stroke:#847c7c;stroke-width:0.103768;stroke-opacity:1"
       d="m 155.74668,139.34078 c -1.44809,-1.2957 -2.62626,-2.3624 -2.61816,-2.37045 0.008,-0.008 1.32977,0.65366 2.93704,1.47047 1.60728,0.81681 2.94822,1.48511 2.97989,1.48511 0.0317,0 1.93035,-0.33614 4.2193,-0.74698 l 4.16174,-0.74697 2.05061,-1.72622 c 1.12783,-0.94943 2.05787,-1.71921 2.06675,-1.71063 0.016,0.0155 -3.44008,4.86476 -3.53567,4.96084 -0.0275,0.0277 -2.17687,0.42446 -4.77631,0.88173 -2.59944,0.45728 -4.75462,0.8376 -4.78928,0.84516 -0.0368,0.008 -1.15994,-0.96772 -2.69591,-2.34206 z"
       id="path3505-9" />
    <path
       style="fill:#847c7c;fill-opacity:1;stroke:#847c7c;stroke-width:0.0712968;stroke-opacity:1"
       d="m 176.29474,136.29232 c -1.01619,0.87164 -1.84295,1.58923 -1.83727,1.59465 0.006,0.005 0.93315,-0.43973 2.06105,-0.98921 1.1279,-0.54949 2.0689,-0.99906 2.09112,-0.99906 0.0222,0 1.35462,0.22612 2.96088,0.5025 l 2.92049,0.5025 1.439,1.16126 c 0.79146,0.6387 1.44411,1.15654 1.45034,1.15077 0.0113,-0.0104 -2.41406,-3.27261 -2.48114,-3.33724 -0.0193,-0.0186 -1.52762,-0.28554 -3.35176,-0.59316 -1.82415,-0.30762 -3.33653,-0.56346 -3.36086,-0.56855 -0.0258,-0.005 -0.81398,0.651 -1.89185,1.57554 z"
       id="path3505-7-1" />
    <path
       style="fill:#7c7474;fill-opacity:1;stroke:#7c7474;stroke-width:0.0252074;stroke-opacity:1"
       d="m 174.42179,138.423 c 0.007,0.0194 2.58723,3.08346 2.60037,3.08812 0.0272,0.01 5.79037,-1.06452 7.70659,-1.43644 1.07372,-0.20839 1.94832,-0.38009 1.94355,-0.38157 -0.008,-0.003 -9.30457,1.23618 -9.36542,1.24785 -0.0249,0.005 -0.15715,-0.10948 -1.38661,-1.19758 -0.74752,-0.66157 -1.39133,-1.23163 -1.43071,-1.26682 -0.0394,-0.0352 -0.0699,-0.0593 -0.0678,-0.0535 z"
       id="path3507-5-2" />
    <path
       style="fill:#847c7c;fill-opacity:1;stroke:#847c7c;stroke-width:0.0712968;stroke-opacity:1"
       d="m 141.01325,134.81222 c -1.01619,0.87165 -1.84296,1.58923 -1.83728,1.59465 0.006,0.005 0.93316,-0.43973 2.06106,-0.98921 1.1279,-0.54949 2.0689,-0.99906 2.09112,-0.99906 0.0222,0 1.35461,0.22612 2.96088,0.5025 l 2.92048,0.5025 1.43901,1.16126 c 0.79145,0.6387 1.44411,1.15654 1.45034,1.15077 0.0113,-0.0104 -2.41406,-3.27261 -2.48114,-3.33724 -0.0193,-0.0186 -1.52762,-0.28554 -3.35176,-0.59316 -1.82415,-0.30762 -3.33654,-0.56346 -3.36087,-0.56855 -0.0258,-0.005 -0.81398,0.651 -1.89184,1.57554 z"
       id="path3505-7-3-7" />
    <path
       style="fill:#7c7474;fill-opacity:1;stroke:#7c7474;stroke-width:0.0252074;stroke-opacity:1"
       d="m 139.14029,136.9429 c 0.007,0.0194 2.58724,3.08347 2.60038,3.08813 0.0272,0.01 5.79037,-1.06453 7.70659,-1.43645 1.07372,-0.20839 1.94832,-0.38008 1.94354,-0.38157 -0.008,-0.003 -9.30457,1.23618 -9.36542,1.24785 -0.0249,0.005 -0.15714,-0.10948 -1.3866,-1.19757 -0.74752,-0.66158 -1.39134,-1.23163 -1.43072,-1.26682 -0.0394,-0.0352 -0.0699,-0.0593 -0.0678,-0.0535 z"
       id="path3507-5-5-0" />
    <path
       style="fill:#847c7c;fill-opacity:1;stroke:#847c7c;stroke-width:0.103768;stroke-opacity:1"
       d="m 173.90532,174.1207 c -1.92511,-0.42346 -3.49787,-0.77883 -3.49502,-0.78971 0.003,-0.0109 1.49018,-0.0755 3.3052,-0.14364 1.81502,-0.0681 3.32246,-0.13635 3.34988,-0.15163 0.0274,-0.0153 1.49784,-1.22259 3.26759,-2.68293 l 3.21773,-2.65513 0.8822,-2.48458 c 0.48521,-1.36652 0.89213,-2.48201 0.90426,-2.47887 0.0219,0.006 -0.46048,5.87336 -0.49352,6.0027 -0.009,0.0373 -1.66563,1.41805 -3.68024,3.06841 -2.01462,1.65037 -3.6843,3.01972 -3.71041,3.04299 -0.0277,0.0247 -1.50572,-0.27844 -3.54767,-0.72761 z"
       id="path3509-9" />
    <path
       style="fill:#7c7474;fill-opacity:1;stroke:#7c7474;stroke-width:0.0366878;stroke-opacity:1"
       d="m 169.95366,172.66538 c -0.006,-0.0299 0.81981,-5.74888 0.83244,-5.76394 0.0261,-0.0312 7.96597,-2.61099 10.61726,-3.44981 1.48561,-0.47001 2.69721,-0.85034 2.69246,-0.84515 -0.008,0.009 -12.43537,4.80645 -12.51945,4.83327 -0.0343,0.011 -0.10968,0.24901 -0.78957,2.49531 -0.41338,1.36576 -0.7692,2.5424 -0.79072,2.61478 -0.0215,0.0724 -0.0406,0.12438 -0.0424,0.11555 z"
       id="path3511-3" />
    <path
       style="fill:#847c7c;fill-opacity:1;stroke:#847c7c;stroke-width:0.103768;stroke-opacity:1"
       d="m 155.0863,155.5992 6.86979,-0.54407 2.49105,-1.81055 c 1.37007,-0.99581 2.48276,-1.81856 2.47263,-1.82834 -0.0101,-0.01 -1.12989,0.43295 -2.48837,0.98385 l -2.46995,1.00161 -6.45226,0.54948 -6.45226,0.54948 -4.13011,-1.91783 c -2.27157,-1.0548 -4.13756,-1.91064 -4.14665,-1.90186 -0.0272,0.0263 7.29951,5.44999 7.37075,5.4564 0.0361,0.004 3.157,-0.23893 6.93538,-0.53817 z"
       id="path4437-6" />
    <path
       style="fill:#7c7474;fill-opacity:1;stroke:#7c7474;stroke-width:0.103768;stroke-opacity:1"
       d="m 165.0983,148.49727 -1.96434,-2.17827 -5.81991,-0.76043 c -3.20095,-0.41822 -5.88171,-0.76142 -5.95726,-0.76266 -0.12659,-0.002 -7.20149,1.65979 -7.37895,1.73328 -0.0747,0.031 -3.43306,3.38431 -3.41152,3.40648 0.006,0.006 0.97773,-0.56491 2.16017,-1.2683 l 2.14988,-1.27887 3.14184,-0.75718 3.14183,-0.75717 5.69678,0.8551 5.69677,0.8551 2.22984,1.5456 c 1.22642,0.85007 2.24095,1.54558 2.25453,1.54558 0.0135,0 -0.85927,-0.98022 -1.93966,-2.17826 z"
       id="path4439-0" />
    <path
       style="fill:#847c7c;fill-opacity:1;stroke:#847c7c;stroke-width:0.146751;stroke-opacity:1"
       d="m 150.28214,174.48798 c -1.68326,-0.0209 -3.60868,-0.0417 -4.27871,-0.0463 l -1.21825,-0.008 -1.88044,-2.05072 c -1.03425,-1.12788 -1.87123,-2.06022 -1.85995,-2.07184 0.0113,-0.0116 0.89758,0.51975 1.96958,1.18084 1.072,0.66108 1.97849,1.21828 2.01441,1.23822 0.0359,0.0199 2.05495,0.0885 4.48671,0.15239 2.43177,0.0639 4.65261,0.12284 4.93522,0.13103 l 0.51383,0.0149 2.24269,-4.00315 c 1.23348,-2.20173 2.25275,-3.99345 2.26504,-3.98158 0.0123,0.0119 -0.74519,2.15532 -1.68327,4.76326 l -1.70561,4.7417 -1.37039,-0.0113 c -0.75371,-0.006 -2.7476,-0.0283 -4.43086,-0.0492 z"
       id="path4869-6" />
    <path
       style="fill:#7c7474;fill-opacity:1;stroke:#7c7474;stroke-width:0.146751;stroke-opacity:1"
       d="m 141.38039,169.29705 c 0.0176,-0.017 1.63328,-1.23113 3.59035,-2.69803 l 3.55832,-2.6671 4.81356,0.0371 c 2.64745,0.0204 4.9714,0.0534 5.16432,0.0735 0.29904,0.0311 -0.35236,0.13579 -4.41655,0.71046 l -4.76733,0.67409 -3.9428,1.95045 c -3.55444,1.75834 -4.10819,2.02408 -3.99987,1.91953 z"
       id="path4871-2" />
    <path
       style="fill:#847c7c;fill-opacity:1;stroke:#847c7c;stroke-width:0.146751;stroke-opacity:1"
       d="m 177.8479,157.36971 c -1.68326,-0.0209 -3.60868,-0.0417 -4.27871,-0.0463 l -1.21825,-0.008 -1.88044,-2.05071 c -1.03425,-1.12789 -1.87122,-2.06021 -1.85995,-2.07183 0.0113,-0.0116 0.89758,0.51975 1.96958,1.18083 1.072,0.66108 1.97848,1.21828 2.01442,1.23822 0.0359,0.02 2.05494,0.0885 4.4867,0.15239 2.43176,0.0639 4.65261,0.12284 4.93522,0.13103 l 0.51383,0.0149 2.24269,-4.00315 c 1.23348,-2.20173 2.25274,-3.99345 2.26503,-3.98159 0.0123,0.0119 -0.74518,2.15534 -1.68327,4.76328 l -1.70561,4.74168 -1.37038,-0.0112 c -0.75371,-0.006 -2.7476,-0.0283 -4.43086,-0.0492 z"
       id="path4873-6" />
    <path
       style="fill:#7c7474;fill-opacity:1;stroke:#7c7474;stroke-width:0.146751;stroke-opacity:1"
       d="m 168.94615,152.17877 c 0.0176,-0.017 1.63328,-1.23113 3.59035,-2.69803 l 3.55831,-2.66709 4.81356,0.0371 c 2.64746,0.0204 4.97141,0.0534 5.16433,0.0735 0.29904,0.031 -0.35236,0.13579 -4.41656,0.71047 l -4.76732,0.67408 -3.94279,1.95045 c -3.55445,1.75835 -4.1082,2.02407 -3.99988,1.91952 z"
       id="path4875-1" />
    <path
       style="fill:#847c7c;fill-opacity:1;stroke:#847c7c;stroke-width:0.064317;stroke-opacity:1"
       d="m 149.27371,162.23707 c 1.12262,-0.46866 2.03876,-0.85732 2.03585,-0.86369 -0.003,-0.006 -0.91259,0.11529 -2.02154,0.27033 -1.10894,0.15506 -2.03123,0.27669 -2.04952,0.27029 -0.0183,-0.006 -1.04124,-0.58781 -2.27321,-1.292 l -2.23994,-1.28036 -0.80401,-1.42901 c -0.44221,-0.78595 -0.80976,-1.42634 -0.81679,-1.4231 -0.0127,0.006 0.91439,3.5543 0.94843,3.63008 0.01,0.0218 1.1642,0.68955 2.56532,1.48381 1.40113,0.79425 2.56252,1.45347 2.58089,1.46492 0.0195,0.0122 0.88376,-0.33417 2.07452,-0.83127 z"
       id="path4877-8" />
    <path
       style="fill:#7c7474;fill-opacity:1;stroke:#7c7474;stroke-width:0.0227396;stroke-opacity:1"
       d="m 151.51475,160.9154 c 4.9e-4,-0.019 -1.11902,-3.43895 -1.12831,-3.44681 -0.0192,-0.0163 -5.11699,-0.73828 -6.81681,-0.96547 -0.95246,-0.1273 -1.72893,-0.22927 -1.72548,-0.22661 0.006,0.004 8.06692,1.60078 8.12085,1.60813 0.022,0.004 0.0935,0.14092 0.74895,1.44563 0.39853,0.79328 0.74168,1.47675 0.76257,1.51883 0.0209,0.0421 0.0381,0.0719 0.0382,0.0663 z"
       id="path4879-7" />
    <path
       style="fill:#847c7c;fill-opacity:1;stroke:#847c7c;stroke-width:0.0654273;stroke-opacity:1"
       d="m 167.41099,163.82667 5.54555,0.75124 2.16383,-0.50138 c 1.19012,-0.27575 2.15797,-0.50643 2.15081,-0.51261 -0.007,-0.006 -0.94466,0.0412 -2.08332,0.10525 l -2.07026,0.11648 -5.21214,-0.68711 -5.21215,-0.68713 -3.1211,-1.52838 c -1.71661,-0.84062 -3.12774,-1.52604 -3.13585,-1.52318 -0.0242,0.009 5.32081,3.68953 5.37718,3.70309 0.0285,0.007 2.5474,0.35055 5.59745,0.76373 z"
       id="path4881-9" />
    <path
       style="fill:#7c7474;fill-opacity:1;stroke:#7c7474;stroke-width:0.0654273;stroke-opacity:1"
       d="m 176.09129,161.8955 -1.36437,-1.3342 -4.58223,-1.22223 c -2.52022,-0.67223 -4.63156,-1.23182 -4.69187,-1.24355 -0.10104,-0.0195 -5.9166,-0.26497 -6.06549,-0.25587 -0.0627,0.004 -3.06644,1.11742 -3.05131,1.13122 0.004,0.004 0.83549,-0.12689 1.84781,-0.29004 l 1.84059,-0.29662 2.58441,0.0998 2.58441,0.0997 4.47478,1.2495 4.47477,1.24951 1.6367,1.06986 c 0.90018,0.58843 1.64558,1.0715 1.65644,1.0735 0.0109,0.002 -0.59423,-0.59676 -1.34464,-1.33056 z"
       id="path4883-2" />
  </g>
</svg>
