<?xml version="1.0" encoding="UTF-8" standalone="no"?>
<!-- Created with Inkscape (http://www.inkscape.org/) -->

<svg
   width="200mm"
   height="200mm"
   viewBox="0 0 200 200"
   version="1.1"
   id="svg5"
   xmlns="http://www.w3.org/2000/svg"
   xmlns:svg="http://www.w3.org/2000/svg">
  <defs
     id="defs2" />
  <g
     id="layer1">
    <path
       style="fill:#009b00;fill-opacity:1;stroke:#009b00;stroke-width:0.480306;stroke-miterlimit:4;stroke-dasharray:none;stroke-opacity:1"
       d="m 107.82822,205.41326 c -0.0699,-0.18152 -0.54397,-1.35962 -1.05347,-2.618 -3.14011,-7.75543 -4.8455,-16.10742 -5.04819,-24.72308 -0.18076,-7.68366 0.48986,-12.99373 2.40547,-19.04684 1.96427,-6.2069 4.65707,-11.16991 9.50771,-17.52334 12.78286,-16.74317 19.53429,-30.99799 20.93125,-44.193766 0.55004,-5.195687 -0.0778,-11.50284 -1.58758,-15.948758 -1.68263,-4.954887 -4.18543,-9.073229 -8.09485,-13.320014 -6.78315,-7.368498 -16.33636,-13.067027 -29.780107,-17.763955 -4.976925,-1.738818 -5.040034,-1.751793 -5.407557,-1.111872 -0.352435,0.613648 -0.212016,0.785955 0.962764,1.181404 0.488928,0.164579 2.639094,1.042855 4.778152,1.951725 18.342388,7.793546 28.911538,18.531695 31.920008,32.430381 0.77173,3.565282 0.96384,9.579031 0.43269,13.544439 -1.81161,13.524806 -8.72617,27.633056 -21.77772,44.434606 -5.4637,7.03355 -9.072425,15.45516 -10.474883,24.44506 -0.493205,3.1615 -0.67146,10.99553 -0.331924,14.58752 0.483224,5.11207 1.515672,10.29981 3.01874,15.16828 0.810675,2.6258 2.935617,8.23366 3.179057,8.38973 0.0801,0.0514 1.58605,0.17282 3.34658,0.26994 2.6697,0.14727 3.17986,0.1218 3.07386,-0.15346 z"
       id="path3355" />
    <path
       style="fill:#f1f1cc;fill-opacity:1;stroke:#dcdcb8;stroke-width:2.12487;stroke-miterlimit:4;stroke-dasharray:none;stroke-opacity:1"
       id="path852"
       d="M 79.517882,64.900761 108.66138,73.629386 125.32757,46.290028 106.48434,20.664747 78.172398,32.166813 Z" />
    <path
       style="fill:#eee961;fill-opacity:1;stroke:#eee961;stroke-width:0.480305;stroke-miterlimit:4;stroke-dasharray:none;stroke-opacity:1"
       id="path10563"
       d="M 90.215656,34.437795 85.069019,54.308734 100.9176,65.753555 115.8592,52.955906 109.24503,33.601704 Z" />
  </g>
</svg>
