<?xml version="1.0" encoding="UTF-8" standalone="no"?>
<!-- Created with Inkscape (http://www.inkscape.org/) -->

<svg
   width="200mm"
   height="200mm"
   viewBox="0 0 200 200"
   version="1.1"
   id="svg8426"
   sodipodi:docname="svg_tilled_soil.svg"
   inkscape:export-filename="E:\JacksDocuments\Projects\Eiram\Assets\Resources\Sprites\New\tilled_soil.png"
   inkscape:export-xdpi="8.1280003"
   inkscape:export-ydpi="8.1280003"
   inkscape:version="1.1.1 (3bf5ae0d25, 2021-09-20)"
   xmlns:inkscape="http://www.inkscape.org/namespaces/inkscape"
   xmlns:sodipodi="http://sodipodi.sourceforge.net/DTD/sodipodi-0.dtd"
   xmlns="http://www.w3.org/2000/svg"
   xmlns:svg="http://www.w3.org/2000/svg">
  <sodipodi:namedview
     id="namedview37"
     pagecolor="#ffffff"
     bordercolor="#666666"
     borderopacity="1.0"
     inkscape:pageshadow="2"
     inkscape:pageopacity="0.0"
     inkscape:pagecheckerboard="0"
     inkscape:document-units="mm"
     showgrid="false"
     inkscape:zoom="0.81570659"
     inkscape:cx="479.95199"
     inkscape:cy="464.01489"
     inkscape:window-width="1920"
     inkscape:window-height="1057"
     inkscape:window-x="-8"
     inkscape:window-y="-8"
     inkscape:window-maximized="1"
     inkscape:current-layer="layer1"
     inkscape:snap-global="false" />
  <defs
     id="defs8423" />
  <g
     id="layer1">
    <rect
       style="fill:#6d4323;fill-opacity:1;stroke:#6d4323;stroke-width:0.248643;stroke-opacity:1"
       id="rect8452"
       width="199.75136"
       height="200.01595"
       x="-199.87569"
       y="-200.14027"
       transform="scale(-1)" />
    <path
       style="fill:#505050;fill-opacity:1;stroke:#7d4c2c;stroke-opacity:1"
       id="path13444"
       d="m 1108.4328,440.2861 187.1407,-23.70099 80.3707,170.65743 -137.469,129.17307 -165.3311,-90.82407 z"
       transform="matrix(0.07459994,0.04708071,-0.04906252,0.07158656,192.38996,-118.52554)" />
    <path
       style="fill:#646464;fill-opacity:1;stroke:#646464;stroke-opacity:1"
       id="path13446"
       d="m 1108.4328,440.2861 187.1407,-23.70099 80.3707,170.65743 -137.469,129.17307 -165.3311,-90.82407 z"
       transform="matrix(0.06475968,0.04277361,-0.04259083,0.06503759,200.63648,-109.54128)" />
    <path
       style="fill:#505050;fill-opacity:1;stroke:#7d4c2c;stroke-opacity:1"
       id="path13448"
       d="m 1108.4328,440.2861 187.1407,-23.70099 80.3707,170.65743 -137.469,129.17307 -165.3311,-90.82407 z"
       transform="matrix(0.07459994,0.04708071,-0.04906252,0.07158656,192.38996,-118.52554)" />
    <path
       style="fill:#646464;fill-opacity:1;stroke:#646464;stroke-opacity:1"
       id="path13450"
       d="m 1108.4328,440.2861 187.1407,-23.70099 80.3707,170.65743 -137.469,129.17307 -165.3311,-90.82407 z"
       transform="matrix(0.06475968,0.04277361,-0.04259083,0.06503759,200.63648,-109.54128)" />
    <path
       style="fill:#7d4c2c;fill-opacity:1;stroke:#7d4c2c;stroke-opacity:1"
       id="path9836"
       transform="matrix(0.26458333,0,0,0.26458333,-28.593575,14.186006)"
       d="m 1108.4328,440.2861 187.1407,-23.70099 80.3707,170.65743 -137.469,129.17307 -165.3311,-90.82407 z" />
    <path
       style="fill:#6d4c2c;fill-opacity:1;stroke:#6d4c2c;stroke-width:0.120419;stroke-opacity:1"
       d="m 312.37145,124.78532 c -0.39671,0.13009 -9.50412,3.09305 -20.23871,6.58435 l -19.51746,6.34783 -8.51815,20.46406 c -4.68498,11.25524 -8.53167,20.40183 -8.5482,20.32575 -0.0557,-0.25641 9.06541,-47.85956 9.17686,-47.89405 0.20838,-0.0645 47.84672,-6.07523 48.10683,-6.06985 0.14304,0.003 -0.0645,0.11181 -0.46117,0.24191 z"
       id="path14153" />
    <path
       style="fill:#855838;fill-opacity:1;stroke:#7d4c2c;stroke-width:0.085149;stroke-opacity:1"
       d="m 334.6748,170.38424 c -0.0373,0.0773 -9.95402,9.4075 -29.40161,27.6627 -3.34547,3.14035 -6.12778,5.7168 -6.18292,5.72546 -0.0551,0.009 -3.43209,-1.81264 -7.50432,-4.04732 -9.10289,-4.99532 -27.11447,-14.89072 -29.00489,-15.93504 -0.76487,-0.42253 -2.48527,-1.37004 -3.82312,-2.10558 -1.33785,-0.73553 -2.41734,-1.35021 -2.39886,-1.36595 0.0185,-0.0158 9.20877,3.41532 20.42288,7.62458 11.21409,4.20926 20.48647,7.68554 20.60527,7.72506 0.1924,0.064 2.22737,-1.30724 18.64537,-12.56427 21.52594,-14.75926 18.69398,-12.82699 18.6422,-12.71964 z"
       id="path15367" />
    <path
       style="fill:#6d4323;fill-opacity:1;stroke:#6d4323;stroke-width:0.0888515;stroke-opacity:1"
       d="M 80.754572,49.935045 C 74.689027,42.718307 69.408111,36.437774 69.019221,35.978279 L 68.312148,35.142853 78.881618,20.290386 C 84.694842,12.121523 89.463432,5.4351543 89.478517,5.4318013 c 0.01515,-0.0034 8.236099,2.163723 18.268933,4.8157457 17.44046,4.610116 18.23849,4.830523 18.17293,5.019257 -0.0377,0.108553 -1.33885,7.292182 -2.8914,15.96357 l -2.82285,15.766176 -12.09466,6.834637 c -6.65207,3.759058 -13.047314,7.372517 -14.211654,8.029917 l -2.116963,1.195266 z"
       id="path16265-1-8" />
    <path
       style="fill:#684124;fill-opacity:1;stroke:#744c2c;stroke-width:0.0888515;stroke-opacity:1"
       d="m 92.930673,62.417437 c 0.272002,-0.1546 6.520231,-3.687558 13.884977,-7.85099 l 13.39048,-7.569897 2.80131,-15.62423 c 1.54071,-8.593328 2.82203,-15.583077 2.84738,-15.532764 0.0854,0.169546 1.50389,34.788587 1.42712,34.83059 -0.14355,0.07853 -34.457926,11.951935 -34.651855,11.990163 -0.106634,0.02102 0.0286,-0.08829 0.300588,-0.242872 z"
       id="path16267-7-6" />
    <path
       style="fill:#714b2c;fill-opacity:1;stroke:#744728;stroke-width:0.0628276;stroke-opacity:1"
       d="m 68.812261,34.434603 c 0.0144,-0.05983 5.768148,-8.157042 17.059056,-24.00701 1.942321,-2.7265887 3.563739,-4.9696387 3.60317,-4.9845657 0.03931,-0.01521 2.858366,0.708301 6.264294,1.607163 7.613469,2.009291 22.679939,5.9929047 24.262249,6.4150067 0.6402,0.170782 2.0797,0.552902 3.19889,0.849171 1.11918,0.29625 2.02587,0.550061 2.01487,0.563999 -0.0104,0.01438 -7.42032,-0.892022 -16.46516,-2.013239 C 99.704809,11.743889 92.226803,10.819682 92.131854,10.811336 91.97809,10.797842 90.703965,12.081081 80.45752,22.569129 67.023261,36.320223 68.792303,34.517719 68.812261,34.434603 Z"
       id="path16269-4-2" />
    <path
       style="fill:#6d4323;fill-opacity:1;stroke:#6d4323;stroke-width:0.0888515;stroke-opacity:1"
       d="m 138.97942,35.788339 c 2.8195,-8.995694 5.27203,-16.826296 5.4501,-17.401328 l 0.32375,-1.0455 18.20624,0.917735 c 10.01345,0.504761 18.21521,0.92665 18.22616,0.937565 0.011,0.01098 2.60762,8.106501 5.77038,17.990217 5.49795,17.181251 5.74155,17.97251 5.54718,18.018798 -0.11178,0.02663 -6.86703,2.795042 -15.0116,6.152032 l -14.80834,6.1036 -12.26854,-6.51734 c -6.74772,-3.58454 -13.23452,-7.030934 -14.41512,-7.658655 l -2.14653,-1.141299 z"
       id="path5936" />
    <path
       style="fill:#684124;fill-opacity:1;stroke:#744c2c;stroke-width:0.0888515;stroke-opacity:1"
       d="m 135.00924,52.767898 c 0.27667,0.146089 6.61651,3.511881 14.08853,7.47957 l 13.58552,7.21399 14.6771,-6.04538 c 8.0724,-3.32498 14.65356,-6.005782 14.62479,-5.957343 -0.097,0.163209 -28.51454,19.985703 -28.59125,19.943593 -0.14341,-0.0788 -28.61457,-22.614228 -28.75114,-22.757124 -0.0751,-0.07859 0.0898,-0.0234 0.36645,0.122694 z"
       id="path5938" />
    <path
       style="fill:#714b2c;fill-opacity:1;stroke:#744728;stroke-width:0.0628276;stroke-opacity:1"
       d="m 145.61935,17.381985 c 0.0582,-0.02005 9.97923,0.473131 29.41445,1.462269 3.34334,0.170159 6.10644,0.329996 6.14024,0.3552 0.034,0.02494 0.94091,2.790457 2.01581,6.144981 2.40279,7.498586 7.15149,22.341682 7.64706,23.902543 0.20051,0.631522 0.65294,2.050493 1.0054,3.15328 0.35246,1.102768 0.62637,2.003591 0.6087,2.001818 -0.0177,-10e-4 -3.24062,-6.734629 -7.16213,-14.961904 -3.92147,-8.22727 -7.166,-15.027836 -7.21005,-15.112361 -0.0714,-0.136873 -1.83856,-0.520397 -16.19218,-3.514138 -18.81929,-3.925097 -16.3481,-3.403784 -16.2673,-3.431688 z"
       id="path5940" />
    <path
       style="fill:#6d4323;fill-opacity:1;stroke:#6d4323;stroke-width:0.0888515;stroke-opacity:1"
       d="m 85.142923,81.462722 c 2.8195,-8.995692 5.27203,-16.826294 5.4501,-17.401326 l 0.32375,-1.0455 18.206237,0.917735 c 10.01345,0.504761 18.21521,0.92665 18.22616,0.937565 0.011,0.01098 2.60762,8.106501 5.77038,17.990216 5.49795,17.181248 5.74155,17.972508 5.54718,18.018798 -0.11178,0.0266 -6.86703,2.79504 -15.0116,6.15203 l -14.80834,6.1036 -12.268537,-6.51734 c -6.74772,-3.58454 -13.23452,-7.030928 -14.41512,-7.658648 l -2.14653,-1.1413 z"
       id="path5942" />
    <path
       style="fill:#684124;fill-opacity:1;stroke:#744c2c;stroke-width:0.0888515;stroke-opacity:1"
       d="m 81.172743,98.442282 c 0.27667,0.14609 6.61651,3.511878 14.08853,7.479568 l 13.585517,7.21399 14.6771,-6.04538 c 8.0724,-3.32498 14.65356,-6.00578 14.62479,-5.95734 -0.097,0.16321 -28.51454,19.9857 -28.59125,19.94359 -0.14341,-0.0788 -28.614567,-22.614228 -28.751137,-22.757118 -0.0751,-0.0786 0.0898,-0.0234 0.36645,0.12269 z"
       id="path5944" />
    <path
       style="fill:#714b2c;fill-opacity:1;stroke:#744728;stroke-width:0.0628276;stroke-opacity:1"
       d="m 91.782853,63.05637 c 0.0582,-0.02005 9.979227,0.473131 29.414447,1.462269 3.34334,0.170159 6.10644,0.329996 6.14024,0.3552 0.034,0.02494 0.94091,2.790457 2.01581,6.144981 2.40279,7.498586 7.15149,22.341682 7.64706,23.902542 0.20051,0.63152 0.65294,2.05049 1.0054,3.15328 0.35246,1.10277 0.62637,2.003588 0.6087,2.001818 -0.0177,-10e-4 -3.24062,-6.734628 -7.16213,-14.961898 -3.92147,-8.227275 -7.166,-15.027841 -7.21005,-15.112366 -0.0714,-0.136873 -1.83856,-0.520397 -16.19218,-3.514138 C 89.230863,62.562961 91.702053,63.084274 91.782853,63.05637 Z"
       id="path5946" />
    <path
       style="fill:#6d4323;fill-opacity:1;stroke:#6d4323;stroke-width:0.0888515;stroke-opacity:1"
       d="m 143.77898,156.18279 c -8.0751,-4.86467 -15.10475,-9.09755 -15.62144,-9.40641 l -0.93944,-0.56156 5.19246,-17.47421 c 2.85587,-9.61082 5.20324,-17.48081 5.21644,-17.48887 0.0133,-0.008 8.49305,-0.6189 18.84416,-1.35741 17.99375,-1.28378 18.82016,-1.33357 18.81923,-1.13376 -5.3e-4,0.1149 1.0938,7.33293 2.43186,16.04 l 2.43283,15.83105 -9.23099,10.38179 c -5.07704,5.71001 -9.95822,11.19913 -10.84706,12.19804 l -1.61605,1.81617 z"
       id="path5948" />
    <path
       style="fill:#684124;fill-opacity:1;stroke:#744c2c;stroke-width:0.0888515;stroke-opacity:1"
       d="m 159.34016,164.05154 c 0.20731,-0.23433 4.97545,-5.59967 10.5959,-11.92298 l 10.21902,-11.49694 -2.40726,-15.68978 c -1.32401,-8.62938 -2.37433,-15.65754 -2.33406,-15.61815 0.13568,0.13281 12.68436,32.42861 12.62533,32.4932 -0.11046,0.12074 -28.73361,22.4628 -28.90471,22.56176 -0.0941,0.0544 -0.002,-0.0928 0.20578,-0.32711 z"
       id="path5950" />
    <path
       style="fill:#714b2c;fill-opacity:1;stroke:#744728;stroke-width:0.0628276;stroke-opacity:1"
       d="m 127.46201,145.38281 c -0.006,-0.0613 2.81704,-9.58505 8.3692,-28.23659 0.95511,-3.20852 1.76314,-5.85567 1.79561,-5.88256 0.0322,-0.0272 2.93375,-0.25511 6.44724,-0.50718 7.85397,-0.56347 23.39874,-1.67152 25.0325,-1.78436 0.66101,-0.0457 2.14669,-0.15009 3.30153,-0.23208 1.15482,-0.082 2.09484,-0.13535 2.08895,-0.11859 -0.005,0.0169 -7.30954,1.55804 -16.23031,3.42512 -8.92077,1.86703 -16.29531,3.41329 -16.38784,3.43613 -0.14986,0.037 -0.93998,1.6636 -7.23963,14.90382 -8.25953,17.3595 -7.16921,15.08139 -7.17725,14.99629 z"
       id="path5952" />
    <path
       style="fill:#6d4323;fill-opacity:1;stroke:#6d4323;stroke-width:0.0888515;stroke-opacity:1"
       d="m 30.901382,134.12625 c -8.0751,-4.86467 -15.10475,-9.09755 -15.62144,-9.40641 l -0.93944,-0.56156 5.19246,-17.47421 c 2.85587,-9.610819 5.20324,-17.480809 5.21644,-17.488869 0.0133,-0.008 8.49305,-0.6189 18.84416,-1.35741 17.99375,-1.28378 18.82016,-1.33357 18.81923,-1.13376 -5.3e-4,0.1149 1.0938,7.33293 2.43186,16.039999 l 2.43283,15.83105 -9.23099,10.38179 c -5.07704,5.71001 -9.95822,11.19913 -10.84706,12.19804 l -1.61605,1.81617 z"
       id="path5954" />
    <path
       style="fill:#684124;fill-opacity:1;stroke:#744c2c;stroke-width:0.0888515;stroke-opacity:1"
       d="m 46.462562,141.995 c 0.20731,-0.23433 4.97545,-5.59967 10.5959,-11.92298 l 10.21902,-11.49694 -2.40726,-15.68978 c -1.32401,-8.629379 -2.37433,-15.657539 -2.33406,-15.618149 0.13568,0.13281 12.68436,32.428609 12.62533,32.493199 -0.11046,0.12074 -28.73361,22.4628 -28.90471,22.56176 -0.0941,0.0544 -0.002,-0.0928 0.20578,-0.32711 z"
       id="path5956" />
    <path
       style="fill:#714b2c;fill-opacity:1;stroke:#744728;stroke-width:0.0628276;stroke-opacity:1"
       d="m 14.584412,123.32627 c -0.006,-0.0613 2.81704,-9.58505 8.3692,-28.236589 0.95511,-3.20852 1.76314,-5.85567 1.79561,-5.88256 0.0322,-0.0272 2.93375,-0.25511 6.44724,-0.50718 7.85397,-0.56347 23.39874,-1.67152 25.0325,-1.78436 0.66101,-0.0457 2.14669,-0.15009 3.30153,-0.23208 1.15482,-0.082 2.09484,-0.13535 2.08895,-0.11859 -0.005,0.0169 -7.30954,1.55804 -16.23031,3.42512 -8.92077,1.86703 -16.29531,3.41329 -16.38784,3.43613 -0.14986,0.037 -0.93998,1.6636 -7.23963,14.903819 -8.25953,17.3595 -7.16921,15.08139 -7.17725,14.99629 z"
       id="path5958" />
    <path
       style="fill:#6d4323;fill-opacity:1;stroke:#6d4323;stroke-width:0.0888515;stroke-opacity:1"
       d="m 20.197472,62.442489 c -8.0751,-4.86467 -15.1047497,-9.09755 -15.6214397,-9.40641 l -0.93944,-0.56156 5.19246,-17.47421 c 2.8558697,-9.61082 5.2032397,-17.48081 5.2164397,-17.48887 0.0133,-0.008 8.49305,-0.6189 18.84416,-1.35741 17.99375,-1.28378 18.82016,-1.33357 18.81923,-1.13376 -5.3e-4,0.1149 1.0938,7.33293 2.43186,16.04 l 2.43283,15.83105 -9.23099,10.38179 c -5.07704,5.71001 -9.95822,11.19913 -10.84706,12.19804 l -1.61605,1.81617 z"
       id="path5960" />
    <path
       style="fill:#684124;fill-opacity:1;stroke:#744c2c;stroke-width:0.0888515;stroke-opacity:1"
       d="m 35.758652,70.311239 c 0.20731,-0.23433 4.97545,-5.59967 10.5959,-11.92298 l 10.21902,-11.49694 -2.40726,-15.68978 c -1.32401,-8.62938 -2.37433,-15.65754 -2.33406,-15.61815 0.13568,0.13281 12.68436,32.42861 12.62533,32.4932 -0.11046,0.12074 -28.73361,22.4628 -28.90471,22.56176 -0.0941,0.0544 -0.002,-0.0928 0.20578,-0.32711 z"
       id="path5962" />
    <path
       style="fill:#714b2c;fill-opacity:1;stroke:#744728;stroke-width:0.0628276;stroke-opacity:1"
       d="m 3.8805023,51.642509 c -0.006,-0.0613 2.81704,-9.58505 8.3691997,-28.23659 0.95511,-3.20852 1.76314,-5.85567 1.79561,-5.88256 0.0322,-0.0272 2.93375,-0.25511 6.44724,-0.50718 7.85397,-0.56347 23.39874,-1.67152 25.0325,-1.78436 0.66101,-0.0457 2.14669,-0.15009 3.30153,-0.23208 1.15482,-0.082 2.09484,-0.13535 2.08895,-0.11859 -0.005,0.0169 -7.30954,1.55804 -16.23031,3.42512 -8.92077,1.86703 -16.29531,3.41329 -16.38784,3.43613 -0.14986,0.037 -0.93998,1.6636 -7.23963,14.90382 -8.2595297,17.3595 -7.1692097,15.08139 -7.1772497,14.99629 z"
       id="path5964" />
    <path
       style="fill:#6d4323;fill-opacity:1;stroke:#6d4323;stroke-width:0.0888515;stroke-opacity:1"
       d="m 82.654733,174.82507 c -8.593303,-3.87651 -16.073839,-7.24916 -16.623405,-7.49481 l -0.999204,-0.44663 3.091459,-17.96531 c 1.700323,-9.88093 3.10139,-17.97314 3.113542,-17.9827 0.01224,-0.01 8.360441,-1.61804 18.551794,-3.57439 17.716011,-3.4008 18.530751,-3.54789 18.553431,-3.34937 0.013,0.11416 1.95254,7.15233 4.31,15.64031 l 4.28626,15.43272 -7.93968,11.39974 c -4.36684,6.26989 -8.56526,12.29727 -9.329843,13.3942 l -1.390149,1.9944 z"
       id="path5966" />
    <path
       style="fill:#684124;fill-opacity:1;stroke:#744c2c;stroke-width:0.0888515;stroke-opacity:1"
       d="m 99.036635,180.80011 c 0.178172,-0.25718 4.278975,-6.14832 9.112935,-13.0914 l 8.78904,-12.62382 -4.24418,-15.29545 c -2.33432,-8.41249 -4.20768,-15.26734 -4.16303,-15.23297 0.15041,0.11584 16.42703,30.70276 16.37604,30.77387 -0.0954,0.13295 -25.87828,25.70041 -26.036497,25.81889 -0.08703,0.0652 -0.01248,-0.092 0.165692,-0.34912 z"
       id="path5968" />
    <path
       style="fill:#714b2c;fill-opacity:1;stroke:#744728;stroke-width:0.0628276;stroke-opacity:1"
       d="m 65.176022,166.02863 c -0.01289,-0.0602 1.664813,-9.85075 4.974348,-29.02764 0.569326,-3.2989 1.058917,-6.02297 1.087984,-6.05351 0.02879,-0.0308 2.883058,-0.59996 6.342164,-1.2654 7.732376,-1.48748 23.037342,-4.42443 24.646322,-4.72951 0.65099,-0.12344 2.11392,-0.40268 3.25099,-0.62054 1.13704,-0.21785 2.06417,-0.38191 2.0603,-0.36458 -0.003,0.0174 -7.07424,2.41077 -15.711932,5.31878 -8.637696,2.90797 -15.77788,5.31473 -15.867067,5.34834 -0.144436,0.0545 -0.736836,1.76301 -5.427985,15.65481 -6.150603,18.21378 -5.337091,15.82281 -5.355124,15.73925 z"
       id="path5970" />
    <path
       style="fill:#6d4323;fill-opacity:1;stroke:#6d4323;stroke-width:0.0728464;stroke-opacity:1"
       d="m 13.821505,160.5349 c 3.6061,-6.75585 6.7437,-12.63694 6.97243,-13.06909 l 0.41588,-0.78573 14.81271,3.25988 c 8.14699,1.79296 14.81876,3.26823 14.82619,3.27843 0.007,0.0103 0.97638,6.80367 2.15325,15.09664 2.0458,14.41602 2.13214,15.0786 1.96593,15.08837 -0.0956,0.005 -6.03811,1.26634 -13.20558,2.80161 l -13.03179,2.79141 -9.13468,-6.88386 c -5.0241,-3.78612 -9.8538599,-7.4262 -10.7328099,-8.08909 l -1.59807,-1.20521 z"
       id="path5972" />
    <path
       style="fill:#684124;fill-opacity:1;stroke:#744c2c;stroke-width:0.0728464;stroke-opacity:1"
       d="m 8.1243951,173.47457 c 0.20614,0.15454 4.9268299,3.71015 10.4904499,7.90139 l 10.11568,7.62046 12.9157,-2.76339 c 7.10363,-1.51988 12.89068,-2.73518 12.86012,-2.7007 -0.1031,0.11621 -26.27585,11.91659 -26.33277,11.87247 -0.10639,-0.0825 -20.2407699,-21.94614 -20.3323599,-22.07865 -0.0503,-0.0729 0.0771,-0.006 0.28318,0.14842 z"
       id="path5974" />
    <path
       style="fill:#714b2c;fill-opacity:1;stroke:#744728;stroke-width:0.0515103;stroke-opacity:1"
       d="m 21.914925,146.83263 c 0.0507,-0.008 8.12345,1.76304 23.93469,5.2505 2.71992,0.59993 4.96504,1.11102 4.98918,1.13573 0.0243,0.0245 0.37163,2.34803 0.77226,5.16285 0.89555,6.29218 2.66207,18.7462 2.84473,20.05531 0.0739,0.52965 0.24152,1.72002 0.37248,2.64526 0.13097,0.92524 0.22644,1.67906 0.21219,1.6752 -0.0143,-0.004 -1.69298,-5.80161 -3.73053,-12.88388 -2.0375,-7.08227 -3.72421,-12.93683 -3.74823,-13.0101 -0.0389,-0.11868 -1.43444,-0.66906 -12.78664,-5.04298 -14.88406,-5.73468 -12.93045,-4.97695 -12.86013,-4.98789 z"
       id="path5976" />
  </g>
</svg>
