<?xml version="1.0" encoding="UTF-8" standalone="no"?>
<!-- Created with Inkscape (http://www.inkscape.org/) -->

<svg
   width="200mm"
   height="200mm"
   viewBox="0 0 200 200"
   version="1.1"
   id="svg5"
   inkscape:version="1.1.1 (3bf5ae0, 2021-09-20)"
   sodipodi:docname="svg_wood_shovel.svg"
   inkscape:export-filename="/home/jackdelahunt/Projects/Eiram/Assets/Resources/Sprites/New/wood_shovel.png"
   inkscape:export-xdpi="8.1280003"
   inkscape:export-ydpi="8.1280003"
   xmlns:inkscape="http://www.inkscape.org/namespaces/inkscape"
   xmlns:sodipodi="http://sodipodi.sourceforge.net/DTD/sodipodi-0.dtd"
   xmlns="http://www.w3.org/2000/svg"
   xmlns:svg="http://www.w3.org/2000/svg">
  <sodipodi:namedview
     id="namedview7"
     pagecolor="#ffffff"
     bordercolor="#666666"
     borderopacity="1.0"
     inkscape:pageshadow="2"
     inkscape:pageopacity="0.0"
     inkscape:pagecheckerboard="0"
     inkscape:document-units="mm"
     showgrid="false"
     width="200mm"
     inkscape:snap-bbox="false"
     inkscape:snap-global="false"
     inkscape:zoom="0.70710678"
     inkscape:cx="368.40263"
     inkscape:cy="287.79246"
     inkscape:window-width="1920"
     inkscape:window-height="1016"
     inkscape:window-x="0"
     inkscape:window-y="32"
     inkscape:window-maximized="1"
     inkscape:current-layer="layer1" />
  <defs
     id="defs2">
    <inkscape:path-effect
       effect="bspline"
       id="path-effect23071"
       is_visible="true"
       lpeversion="1"
       weight="33.333333"
       steps="2"
       helper_size="0"
       apply_no_weight="true"
       apply_with_weight="true"
       only_selected="false" />
    <inkscape:path-effect
       effect="bspline"
       id="path-effect8965"
       is_visible="true"
       lpeversion="1"
       weight="33.333333"
       steps="2"
       helper_size="0"
       apply_no_weight="true"
       apply_with_weight="true"
       only_selected="false" />
    <inkscape:path-effect
       effect="bspline"
       id="path-effect3807"
       is_visible="true"
       lpeversion="1"
       weight="33.333333"
       steps="2"
       helper_size="0"
       apply_no_weight="true"
       apply_with_weight="true"
       only_selected="false" />
  </defs>
  <g
     inkscape:label="Layer 1"
     inkscape:groupmode="layer"
     id="layer1">
    <rect
       style="fill:#6e4720;fill-opacity:1;fill-rule:evenodd;stroke-width:0.305431"
       id="rect31"
       width="13.32756"
       height="230.87003"
       x="134.55452"
       y="-107.47186"
       transform="rotate(44.101361)" />
    <path
       style="fill:#e1a455;fill-opacity:1;stroke-width:0.00857617;stroke-miterlimit:4;stroke-dasharray:none"
       d="m 171.4178,16.463936 c 1.57251,-0.268501 2.4487,-0.175426 3.67018,0.26342 1.01514,0.364723 2.24912,1.124029 3.23875,2.122263 1.40414,1.416363 2.23024,2.715031 2.46099,4.020531 0.12029,0.680638 0.0563,1.54031 0.0879,2.588711 l 0.009,0.296666 -4.78601,-4.636814 -4.78602,-4.636813 z"
       id="path3846"
       sodipodi:nodetypes="csssscccc" />
    <path
       style="fill:#e1a455;fill-opacity:1;stroke-width:0.00857617;stroke-miterlimit:4;stroke-dasharray:none"
       d="m 20.319127,191.52898 c -1.573242,0.26406 -2.278573,0.4085 -3.549854,0.14693 -0.973467,-0.20031 -2.965136,-0.90654 -3.95193,-1.90756 -1.400172,-1.42028 -1.902613,-3.7462 -2.047429,-5.0348 -0.07719,-0.68685 0.14557,-1.17769 0.116888,-2.22618 l -0.0081,-0.29669 4.772851,4.65036 4.772852,4.65037 z"
       id="path3846-3"
       sodipodi:nodetypes="cscsscccc" />
    <path
       style="fill:#4d2d16;fill-opacity:1;stroke:#6e4720;stroke-width:0;stroke-miterlimit:4;stroke-dasharray:none;stroke-opacity:1"
       d="m 133.09473,59.248674 c -0.21746,-0.328956 -0.88618,-1.336678 -1.48608,-2.239363 -0.59991,-0.902687 -1.6202,-3.237693 -2.2673,-5.188904 -0.98647,-2.974449 -1.15612,-4.212248 -1.05002,-7.660921 0.0696,-2.262298 0.42659,-5.177727 0.7933,-6.478733 0.94178,-3.341168 3.65032,-8.517203 6.65029,-12.708762 5.62176,-7.854737 17.07369,-19.5800101 19.74551,-20.2168188 1.41699,-0.3377295 3.84703,0.5122846 8.48249,2.9671182 12.63718,6.6923496 19.50593,13.1634046 26.14384,24.6301296 3.15703,5.453642 3.76555,7.107359 3.0631,8.324312 -0.29761,0.515598 -3.89728,4.305808 -7.99927,8.422691 -8.07813,8.107442 -11.47449,10.945228 -17.43098,14.564132 -10.25985,6.233437 -20.57474,6.418824 -29.19994,0.524794 -2.41244,-1.64855 -4.55334,-3.590774 -5.44494,-4.939675 z"
       id="path23190" />
  </g>
</svg>
