<?xml version="1.0" encoding="UTF-8" standalone="no"?>
<!-- Created with Inkscape (http://www.inkscape.org/) -->

<svg
   width="200mm"
   height="200mm"
   viewBox="0 0 200 200"
   version="1.1"
   id="svg8426"
   sodipodi:docname="svg_trellis.svg"
   inkscape:export-filename="E:\JacksDocuments\Projects\Eiram\Assets\Resources\Sprites\New\dirt.png"
   inkscape:export-xdpi="8.1280003"
   inkscape:export-ydpi="8.1280003"
   inkscape:version="1.1.1 (3bf5ae0d25, 2021-09-20)"
   xmlns:inkscape="http://www.inkscape.org/namespaces/inkscape"
   xmlns:sodipodi="http://sodipodi.sourceforge.net/DTD/sodipodi-0.dtd"
   xmlns="http://www.w3.org/2000/svg"
   xmlns:svg="http://www.w3.org/2000/svg">
  <sodipodi:namedview
     id="namedview37"
     pagecolor="#ffffff"
     bordercolor="#666666"
     borderopacity="1.0"
     inkscape:pageshadow="2"
     inkscape:pageopacity="0.0"
     inkscape:pagecheckerboard="0"
     inkscape:document-units="mm"
     showgrid="false"
     inkscape:zoom="0.57679166"
     inkscape:cx="208.91426"
     inkscape:cy="292.13321"
     inkscape:window-width="1920"
     inkscape:window-height="1057"
     inkscape:window-x="1912"
     inkscape:window-y="-8"
     inkscape:window-maximized="1"
     inkscape:current-layer="layer1" />
  <defs
     id="defs8423" />
  <g
     id="layer1">
    <path
       style="fill:#505050;fill-opacity:1;stroke:#7d4c2c;stroke-opacity:1"
       id="path13444"
       d="m 1108.4328,440.2861 187.1407,-23.70099 80.3707,170.65743 -137.469,129.17307 -165.3311,-90.82407 z"
       transform="matrix(0.07459994,0.04708071,-0.04906252,0.07158656,192.38996,-118.52554)" />
    <path
       style="fill:#646464;fill-opacity:1;stroke:#646464;stroke-opacity:1"
       id="path13446"
       d="m 1108.4328,440.2861 187.1407,-23.70099 80.3707,170.65743 -137.469,129.17307 -165.3311,-90.82407 z"
       transform="matrix(0.06475968,0.04277361,-0.04259083,0.06503759,200.63648,-109.54128)" />
    <path
       style="fill:#505050;fill-opacity:1;stroke:#7d4c2c;stroke-opacity:1"
       id="path13448"
       d="m 1108.4328,440.2861 187.1407,-23.70099 80.3707,170.65743 -137.469,129.17307 -165.3311,-90.82407 z"
       transform="matrix(0.07459994,0.04708071,-0.04906252,0.07158656,192.38996,-118.52554)" />
    <path
       style="fill:#646464;fill-opacity:1;stroke:#646464;stroke-opacity:1"
       id="path13450"
       d="m 1108.4328,440.2861 187.1407,-23.70099 80.3707,170.65743 -137.469,129.17307 -165.3311,-90.82407 z"
       transform="matrix(0.06475968,0.04277361,-0.04259083,0.06503759,200.63648,-109.54128)" />
    <path
       style="fill:#6d4c2c;fill-opacity:1;stroke:#6d4c2c;stroke-width:0.162707;stroke-opacity:1"
       d="m 206.3009,125.14976 c 0.56775,-0.0329 13.59336,-0.75726 28.94582,-1.60972 l 27.91361,-1.54991 18.48772,-23.612949 c 10.16826,-12.98714 18.48332,-23.52765 18.47792,-23.42338 -0.0182,0.35146 -28.96944,58.938849 -29.12822,58.945429 -0.29685,0.0123 -65.04922,-8.4977 -65.38916,-8.59368 -0.18695,-0.0528 0.12466,-0.12286 0.69232,-0.15574 z"
       id="path14153-8" />
    <rect
       style="fill:#6d4c2c;fill-opacity:1;stroke:#6d4c2c;stroke-width:0.734249;stroke-opacity:1"
       id="rect2277"
       width="12.974436"
       height="170.0352"
       x="20.759098"
       y="30.206625" />
    <rect
       style="fill:#6d4c2c;fill-opacity:1;stroke:#6d4c2c;stroke-width:0.734249;stroke-opacity:1"
       id="rect2277-7"
       width="12.974436"
       height="170.0352"
       x="165.0997"
       y="31.392923" />
    <path
       style="fill:#855f44;fill-opacity:1;stroke:#855f44;stroke-width:0.407622;stroke-opacity:1"
       d="m 31.865148,178.8604 c -1.104491,-3.84913 -1.998026,-7.15153 -1.985633,-7.33867 0.01239,-0.18714 0.622792,-4.97457 1.356441,-10.63872 l 1.333908,-10.29846 -1.992779,-13.05107 c -1.096028,-7.17809 -1.99034,-13.19904 -1.98736,-13.37989 0.003,-0.18085 0.814815,-2.88316 1.804075,-6.00513 0.98926,-3.12197 1.798737,-5.80821 1.798838,-5.96942 1.01e-4,-0.16121 -1.284681,-7.27688 -2.85507,-15.812596 -1.570389,-8.535718 -2.854865,-15.66545 -2.85439,-15.843848 4.76e-4,-0.178398 1.175866,-4.556159 2.611982,-9.728356 1.436116,-5.172199 2.61112,-9.518774 2.61112,-9.659059 0,-0.140285 -0.58385,-2.523019 -1.297444,-5.294969 -0.713594,-2.771944 -1.297444,-5.203076 -1.297444,-5.402511 0,-0.199435 1.033156,-4.349628 2.295901,-9.222655 2.266844,-8.747913 2.297304,-8.88878 2.406795,-11.130571 0.06099,-1.248791 0.122554,33.289565 0.136806,76.751895 0.01425,43.46234 0.0026,79.02243 -0.02583,79.02243 -0.02846,0 -0.95542,-3.14928 -2.059912,-6.9984 z"
       id="path4641" />
    <path
       style="fill:#855f44;fill-opacity:1;stroke:#855f44;stroke-width:0.407622;stroke-opacity:1"
       d="m 167.01809,51.525224 c 1.10305,3.849544 1.99534,7.152279 1.98288,7.339414 -0.0125,0.187136 -0.62466,4.974336 -1.36043,10.638211 l -1.33779,10.297959 1.98789,13.051816 c 1.09334,7.178496 1.98538,13.199786 1.98234,13.380636 -0.003,0.18085 -0.8159,2.88285 -1.80633,6.00445 -0.99044,3.12161 -1.80092,5.80754 -1.80107,5.96876 4e-5,0.1612 1.28194,7.27735 2.84913,15.81366 1.56719,8.53631 2.84899,15.66651 2.84845,15.84491 -2.8e-4,0.17841 -1.17758,4.55573 -2.61564,9.72738 -1.43806,5.17166 -2.61469,9.51779 -2.61475,9.65808 4.2e-4,0.14029 0.58291,2.52324 1.29546,5.29545 0.71256,2.77222 1.29549,5.20357 1.29542,5.403 3.3e-4,0.19945 -1.03478,4.34924 -2.29937,9.22179 -2.27012,8.74706 -2.30062,8.88792 -2.41096,11.12968 -0.0615,1.24876 -0.11007,-33.28962 -0.10801,-76.75195 0.002,-43.462347 0.0267,-79.022429 0.0555,-79.022419 0.0285,1.1e-5 0.95424,3.149639 2.05729,6.999172 z"
       id="path4641-6" />
    <rect
       style="fill:#764d27;fill-opacity:1;stroke:#764d27;stroke-width:0.67701;stroke-opacity:1"
       id="rect2277-1"
       width="192.98274"
       height="9.7188148"
       x="4.3385048"
       y="53.201199" />
    <rect
       style="fill:#764d27;fill-opacity:1;stroke:#764d27;stroke-width:0.67701;stroke-opacity:1"
       id="rect2277-1-2"
       width="192.98274"
       height="9.7188148"
       x="4.3848696"
       y="96.665558" />
  </g>
</svg>
