<?xml version="1.0" encoding="UTF-8" standalone="no"?>
<!-- Created with Inkscape (http://www.inkscape.org/) -->

<svg
   width="200mm"
   height="200mm"
   viewBox="0 0 200 200"
   version="1.1"
   id="svg5"
   inkscape:version="1.1.1 (3bf5ae0, 2021-09-20)"
   sodipodi:docname="svg_wood_pickaxe.svg"
   inkscape:export-filename="/home/jackdelahunt/Projects/Eiram/Assets/Resources/Sprites/New/wood_pickaxe.png"
   inkscape:export-xdpi="8.1280003"
   inkscape:export-ydpi="8.1280003"
   xmlns:inkscape="http://www.inkscape.org/namespaces/inkscape"
   xmlns:sodipodi="http://sodipodi.sourceforge.net/DTD/sodipodi-0.dtd"
   xmlns="http://www.w3.org/2000/svg"
   xmlns:svg="http://www.w3.org/2000/svg">
  <sodipodi:namedview
     id="namedview7"
     pagecolor="#ffffff"
     bordercolor="#666666"
     borderopacity="1.0"
     inkscape:pageshadow="2"
     inkscape:pageopacity="0.0"
     inkscape:pagecheckerboard="0"
     inkscape:document-units="mm"
     showgrid="false"
     width="200mm"
     inkscape:snap-bbox="false"
     inkscape:snap-global="false"
     inkscape:zoom="1"
     inkscape:cx="476.5"
     inkscape:cy="371.5"
     inkscape:window-width="1920"
     inkscape:window-height="1016"
     inkscape:window-x="0"
     inkscape:window-y="32"
     inkscape:window-maximized="1"
     inkscape:current-layer="layer1" />
  <defs
     id="defs2">
    <inkscape:path-effect
       effect="bspline"
       id="path-effect26154"
       is_visible="true"
       lpeversion="1"
       weight="33.333333"
       steps="2"
       helper_size="0"
       apply_no_weight="true"
       apply_with_weight="true"
       only_selected="false" />
    <inkscape:path-effect
       effect="bspline"
       id="path-effect26150"
       is_visible="true"
       lpeversion="1"
       weight="33.333333"
       steps="2"
       helper_size="0"
       apply_no_weight="true"
       apply_with_weight="true"
       only_selected="false" />
    <inkscape:path-effect
       effect="bspline"
       id="path-effect8965"
       is_visible="true"
       lpeversion="1"
       weight="33.333333"
       steps="2"
       helper_size="0"
       apply_no_weight="true"
       apply_with_weight="true"
       only_selected="false" />
    <inkscape:path-effect
       effect="bspline"
       id="path-effect3807"
       is_visible="true"
       lpeversion="1"
       weight="33.333333"
       steps="2"
       helper_size="0"
       apply_no_weight="true"
       apply_with_weight="true"
       only_selected="false" />
  </defs>
  <g
     inkscape:label="Layer 1"
     inkscape:groupmode="layer"
     id="layer1">
    <rect
       style="fill:#6e4720;fill-opacity:1;fill-rule:evenodd;stroke-width:0.305431"
       id="rect31"
       width="13.32756"
       height="230.87003"
       x="129.34631"
       y="-99.163635"
       transform="rotate(40.708655)" />
    <path
       style="fill:#e1a455;fill-opacity:1;stroke-width:0.00857617;stroke-miterlimit:4;stroke-dasharray:none"
       d="m 162.72495,9.191768 c 1.55386,-0.36109 2.43402,-0.320031 3.67933,0.04576 1.03495,0.304008 2.3117,0.988957 3.35867,1.926876 1.4855,1.330785 2.38701,2.578288 2.69461,3.867845 0.16036,0.672326 0.14731,1.534281 0.24091,2.578974 l 0.0266,0.29561 -5.05202,-4.345455 -5.05204,-4.345453 z"
       id="path3846"
       sodipodi:nodetypes="csssscccc" />
    <path
       style="fill:#e1a455;fill-opacity:1;stroke-width:0.00857617;stroke-miterlimit:4;stroke-dasharray:none"
       d="m 22.251319,192.8919 c -1.554858,0.3567 -2.250406,0.54262 -3.534938,0.35675 -0.983615,-0.14235 -3.013587,-0.72948 -4.057892,-1.67035 -1.481769,-1.33493 -2.120976,-3.62704 -2.341796,-4.90481 -0.117697,-0.68108 0.07562,-1.18424 -0.01506,-2.22919 l -0.02568,-0.29569 5.03969,4.35975 5.039693,4.35977 z"
       id="path3846-3"
       sodipodi:nodetypes="cscsscccc" />
    <path
       style="fill:#4d2d16;stroke:#6e4720;stroke-width:1.19112;fill-opacity:1;stroke-opacity:1"
       d="m 195.94429,147.86489 c -0.17572,-0.39908 -2.70384,-6.50737 -5.61797,-13.57398 C 162.8177,67.583949 149.16986,47.363028 124.84183,37.26778 121.01326,35.67906 112.90497,33.31656 107.24166,32.139644 l -4.21446,-0.875826 4.01788,-1.677217 c 2.20985,-0.922471 6.31208,-2.786804 9.11607,-4.142963 13.13381,-6.352199 17.8586,-10.889011 21.2087,-20.3648504 0.62995,-1.7818246 1.20442,-2.9333171 1.49841,-3.0034391 0.87921,-0.2097114 3.1802,2.1141965 9.5002,9.5947605 11.37033,13.458346 21.08917,26.896268 27.60215,38.164568 14.31123,24.760239 19.12015,44.814023 20.07915,83.732513 0.29167,11.83616 0.26726,15.14417 -0.10548,14.2977 z"
       id="path27009" />
  </g>
</svg>
