<?xml version="1.0" encoding="UTF-8" standalone="no"?>
<!-- Created with Inkscape (http://www.inkscape.org/) -->

<svg
   width="200mm"
   height="200mm"
   viewBox="0 0 200 200"
   version="1.1"
   id="svg5"
   sodipodi:docname="svg_rose.svg"
   inkscape:version="1.1.1 (3bf5ae0d25, 2021-09-20)"
   xmlns:inkscape="http://www.inkscape.org/namespaces/inkscape"
   xmlns:sodipodi="http://sodipodi.sourceforge.net/DTD/sodipodi-0.dtd"
   xmlns="http://www.w3.org/2000/svg"
   xmlns:svg="http://www.w3.org/2000/svg">
  <sodipodi:namedview
     id="namedview13557"
     pagecolor="#ffffff"
     bordercolor="#eeeeee"
     borderopacity="1"
     inkscape:pageshadow="0"
     inkscape:pageopacity="0"
     inkscape:pagecheckerboard="0"
     inkscape:document-units="mm"
     showgrid="false"
     inkscape:zoom="1.1535833"
     inkscape:cx="424.32999"
     inkscape:cy="472.87438"
     inkscape:window-width="1920"
     inkscape:window-height="1057"
     inkscape:window-x="-8"
     inkscape:window-y="-8"
     inkscape:window-maximized="1"
     inkscape:current-layer="svg5" />
  <defs
     id="defs2" />
  <g
     id="layer1">
    <path
       style="fill:none;stroke:#000000;stroke-width:0.264583px;stroke-linecap:butt;stroke-linejoin:miter;stroke-opacity:1"
       d="m 143.73165,42.915138 7.6929,-0.306922"
       id="path3197" />
    <path
       style="fill:#aa0000;stroke:#892d30;stroke-width:8.36031507;stroke-opacity:1;stroke-miterlimit:4;stroke-dasharray:none"
       id="path852"
       d="M 628.19909,225.27632 508.83251,258.2664 440.57077,154.93654 517.74927,58.085083 633.70995,101.55746 Z"
       transform="scale(0.26458333)" />
    <path
       style="fill:none;stroke:#000000;stroke-width:0.264583px;stroke-linecap:butt;stroke-linejoin:miter;stroke-opacity:1"
       d="m 100.13532,205.72018 7.6929,-0.30692"
       id="path3199" />
    <path
       style="fill:#2a0000;stroke:#2a0000;stroke-width:1.88976;stroke-miterlimit:4;stroke-dasharray:none;stroke-opacity:1;fill-opacity:1"
       id="path10563"
       d="m 584.38291,110.1407 21.07971,75.10276 -64.91297,43.25602 -61.19814,-48.36907 27.09045,-73.14974 z"
       transform="scale(0.26458333)" />
    <path
       style="fill:#008000;fill-opacity:1;stroke:#306230;stroke-width:0.275488;stroke-miterlimit:4;stroke-dasharray:none;stroke-opacity:1"
       d="m 91.177538,127.33279 c -1.624303,-0.16092 -2.690581,-0.34715 -2.847337,-0.4973 -0.138016,-0.13219 -2.206711,-5.1449 -2.206711,-5.34713 0,-0.0703 0.338443,-0.5228 0.75209,-1.00563 2.764468,-3.22674 8.196224,-6.98742 14.71089,-10.18507 11.64775,-5.71717 26.58769,-9.14019 40.01121,-9.16729 5.58231,-0.0113 8.46549,0.36765 10.72098,1.40903 2.04173,0.94267 2.41928,2.09613 1.2594,3.84762 -3.29714,4.97886 -17.17484,12.13691 -32.01607,16.51371 -11.2368,3.31383 -23.546981,5.10947 -30.384452,4.43206 z"
       id="path12047" />
    <path
       style="fill:#008000;fill-opacity:1;stroke:#306230;stroke-width:0.275488;stroke-miterlimit:4;stroke-dasharray:none;stroke-opacity:1"
       d="m 81.289735,109.94949 c 0.986136,1.30069 1.574381,2.20931 1.570812,2.42635 -0.0031,0.19108 -2.273313,5.11582 -2.421633,5.25329 -0.05156,0.0478 -0.613495,0.10716 -1.248802,0.132 -4.245769,0.16594 -10.696303,-1.26141 -17.470034,-3.86573 -12.110937,-4.65632 -24.777242,-13.28671 -33.922084,-23.113376 -3.803,-4.0865 -5.484982,-6.45869 -6.254437,-8.82081 -0.696541,-2.13825 -0.107218,-3.199251 1.965818,-3.539188 5.892914,-0.96631 20.576486,4.346028 33.875213,12.255668 10.068923,5.98865 19.754037,13.796566 23.905147,19.271796 z"
       id="path12047-5" />
    <path
       style="fill:#008000;stroke:#308230;stroke-width:1.8897638;stroke-miterlimit:4;stroke-dasharray:none;stroke-opacity:1"
       d="m 380.72776,775.41821 c 0.28631,-0.68606 2.22799,-5.13872 4.31483,-9.8948 12.86134,-29.31187 19.8463,-60.87844 20.67648,-93.44156 0.74038,-29.04061 -2.00636,-49.11016 -9.85236,-71.98808 -8.04531,-23.45913 -19.07456,-42.21698 -38.9419,-66.22994 -52.35633,-63.28127 -80.00898,-117.15774 -85.73068,-167.03156 -2.25285,-19.63724 0.31864,-43.4753 6.50246,-60.27877 6.89174,-18.72713 17.14278,-34.29252 33.15507,-50.34336 27.78256,-27.84944 66.91081,-49.38719 121.974,-67.13936 20.3846,-6.57191 20.64308,-6.62095 22.14839,-4.20235 1.44351,2.3193 0.86838,2.97054 -3.94331,4.46515 -2.00256,0.62203 -10.80926,3.9415 -19.57046,7.3766 -75.12714,29.45592 -118.41653,70.04105 -130.73866,122.57152 -3.16087,13.47508 -3.94773,36.20421 -1.77221,51.19158 7.42003,51.11737 35.74081,104.43988 89.19765,167.94182 22.37835,26.58348 37.15903,58.41322 42.90325,92.39076 2.02008,11.949 2.75018,41.55791 1.3595,55.13395 -1.9792,19.32122 -6.20792,38.92842 -12.36422,57.32893 -3.32038,9.9243 -12.02378,31.11937 -13.02083,31.70923 -0.32805,0.19407 -6.4962,0.65318 -13.707,1.02024 -10.93464,0.55662 -13.02415,0.46036 -12.59,-0.58 z"
       id="path3355"
       transform="scale(0.26458333)" />
    <path
       style="fill:#aa0000;stroke:#892d30;stroke-width:8.36032;stroke-miterlimit:4;stroke-dasharray:none;stroke-opacity:1"
       id="path852-4"
       transform="matrix(0.09798672,0.06689684,-0.05909512,0.09644901,114.79891,101.42753)"
       d="M 628.19909,225.27632 508.83251,258.2664 440.57077,154.93654 517.74927,58.085083 633.70995,101.55746 Z" />
    <path
       style="fill:#2a0000;fill-opacity:1;stroke:#2a0000;stroke-width:1.88976;stroke-miterlimit:4;stroke-dasharray:none;stroke-opacity:1"
       id="path10563-3"
       transform="matrix(0.09798672,0.06689684,-0.05909512,0.09644901,114.79891,101.42753)"
       d="m 584.38291,110.1407 21.07971,75.10276 -64.91297,43.25602 -61.19814,-48.36907 27.09045,-73.14974 z" />
    <path
       style="fill:#008000;fill-opacity:1;stroke:#306230;stroke-width:0.106503;stroke-miterlimit:4;stroke-dasharray:none;stroke-opacity:1"
       d="m 121.25979,182.39328 c -0.62916,-0.0621 -1.04218,-0.13394 -1.1029,-0.19188 -0.0534,-0.051 -0.85475,-1.98517 -0.85475,-2.0632 0,-0.0271 0.13109,-0.20173 0.29131,-0.38803 1.0708,-1.24505 3.17476,-2.69611 5.69818,-3.92994 4.51168,-2.20598 10.29857,-3.52676 15.49809,-3.53722 2.16227,-0.004 3.27905,0.14186 4.1527,0.54368 0.79085,0.36373 0.9371,0.8088 0.48782,1.48461 -1.27712,1.92111 -6.65256,4.68306 -12.40122,6.37186 -4.35251,1.27865 -9.12078,1.9715 -11.76923,1.71012 z"
       id="path12047-6" />
    <path
       style="fill:#008000;stroke:#308230;stroke-width:0.218788;stroke-miterlimit:4;stroke-dasharray:none;stroke-opacity:1"
       d="m 106.28173,201.68533 c 0.0687,-0.047 0.52199,-0.34658 1.00754,-0.66568 2.99241,-1.96672 5.54229,-4.54402 7.54795,-7.62918 1.7887,-2.75142 2.70558,-4.87085 3.28875,-7.60226 0.59798,-2.80082 0.62576,-5.34782 0.0981,-8.9929 -1.39061,-9.60589 -0.91637,-16.65209 1.4703,-21.84514 0.93972,-2.04471 2.60039,-4.17186 4.19933,-5.37883 1.78198,-1.34519 3.70628,-2.16068 6.22381,-2.6376 4.36808,-0.82749 9.4749,-0.28723 15.91944,1.68414 2.38577,0.72982 2.414,0.74239 2.41857,1.07635 0.005,0.32028 -0.0905,0.3446 -0.65026,0.16685 -0.23299,-0.074 -1.29207,-0.343 -2.35357,-0.59772 -9.10215,-2.18478 -15.74233,-1.16626 -20.05402,3.0759 -1.10604,1.0882 -2.52631,3.22777 -3.19883,4.81881 -2.29372,5.42661 -2.66976,12.46408 -1.18436,22.16487 0.62184,4.06098 0.18916,8.11972 -1.25589,11.78109 -0.5082,1.28761 -2.18639,4.1922 -3.12493,5.40856 -1.33573,1.73111 -2.90877,3.33932 -4.5994,4.7022 -0.91183,0.73506 -3.01716,2.19707 -3.14972,2.18727 -0.0437,-0.003 -0.67515,-0.37156 -1.4034,-0.81856 -1.10435,-0.67779 -1.3034,-0.82689 -1.19937,-0.89816 z"
       id="path3355-3" />
    <path
       style="fill:#008000;stroke:#308230;stroke-width:0.100807;stroke-miterlimit:4;stroke-dasharray:none;stroke-opacity:1"
       d="m 137.75911,202.70119 c 0.0296,-0.0232 0.22488,-0.17078 0.43405,-0.32803 1.28915,-0.96917 2.38765,-2.23923 3.2517,-3.75954 0.77058,-1.35586 1.16557,-2.40027 1.41681,-3.74627 0.25761,-1.3802 0.26958,-2.63532 0.0423,-4.43156 -0.59908,-4.73362 -0.39478,-8.20588 0.63341,-10.76493 0.40484,-1.0076 1.12026,-2.05583 1.80909,-2.6506 0.76769,-0.66289 1.59669,-1.06475 2.68125,-1.29977 1.88179,-0.40777 4.08184,-0.14154 6.85818,0.82992 1.0278,0.35964 1.03996,0.36584 1.04193,0.53041 0.002,0.15783 -0.039,0.16981 -0.28014,0.0822 -0.10037,-0.0365 -0.55663,-0.16903 -1.01393,-0.29455 -3.92125,-1.07662 -6.78187,-0.57471 -8.63937,1.51575 -0.47649,0.53625 -1.08835,1.5906 -1.37807,2.37464 -0.98815,2.67414 -1.15015,6.1421 -0.51023,10.92249 0.26789,2.00119 0.0815,4.00127 -0.54104,5.80553 -0.21894,0.63452 -0.94191,2.06585 -1.34624,2.66525 -0.57544,0.85307 -1.25311,1.64557 -1.98144,2.31717 -0.39282,0.36223 -1.29981,1.08268 -1.35692,1.07785 -0.0188,-10e-4 -0.29085,-0.1831 -0.60459,-0.40337 -0.47576,-0.334 -0.56151,-0.40748 -0.51669,-0.4426 z"
       id="path3355-3-3" />
    <path
       style="fill:#008000;stroke:#308230;stroke-width:0.14038;stroke-miterlimit:4;stroke-dasharray:none;stroke-opacity:1"
       d="m 96.821972,200.1775 c -0.07184,-0.006 -0.542736,-0.0406 -1.046529,-0.077 -3.104942,-0.22415 -6.03829,-0.79357 -8.683077,-1.68558 -2.358681,-0.79551 -3.793925,-1.50095 -5.148154,-2.53037 -1.388609,-1.05559 -2.224164,-2.11923 -2.950238,-3.75549 -1.913178,-4.31203 -4.553725,-7.17471 -8.186425,-8.87502 -1.430338,-0.66948 -3.483867,-1.22867 -5.192715,-1.41395 -1.904516,-0.20654 -3.757862,-0.16209 -5.994342,0.14372 -3.880446,0.53061 -7.936189,1.78389 -12.642895,3.90683 -1.742421,0.78591 -1.761775,0.79687 -1.659022,0.93798 0.09839,0.13538 0.184902,0.12647 0.591574,-0.0607 0.169229,-0.078 0.960316,-0.4037 1.757899,-0.724 6.838936,-2.74671 12.661462,-3.65381 17.584589,-2.73962 1.262893,0.23452 3.121353,0.84723 4.185722,1.37996 3.63026,1.81704 6.18673,4.69579 8.051701,9.06673 0.780727,1.8298 2.433751,3.44668 4.798239,4.69326 0.831553,0.4384 3.147593,1.32042 4.31269,1.6424 1.658165,0.45823 3.473583,0.81717 5.30809,1.04949 0.989432,0.1253 3.19892,0.31588 3.305545,0.28512 0.03552,-0.01 0.440417,-0.2917 0.900771,-0.62572 0.698099,-0.50651 0.815321,-0.60911 0.706453,-0.61812 z"
       id="path3355-3-3-2" />
    <path
       style="fill:#006700;fill-opacity:1;stroke:#306230;stroke-width:0.190203;stroke-miterlimit:4;stroke-dasharray:none;stroke-opacity:1"
       d="m 98.42578,123.68494 c -1.103634,-0.11281 -1.828118,-0.24353 -1.934627,-0.34887 -0.09379,-0.0927 -1.499352,-3.60947 -1.499352,-3.75134 0,-0.0495 0.229954,-0.36677 0.511009,-0.70552 1.878321,-2.26375 5.56894,-4.90208 9.99534,-7.14542 7.91407,-4.01096 18.06505,-6.4124 27.18567,-6.4314 3.79291,-0.008 5.75189,0.25791 7.28437,0.9885 1.38727,0.66132 1.64381,1.47057 0.85571,2.69932 -2.24024,3.49298 -11.66947,8.51478 -21.75336,11.58538 -7.63486,2.32487 -15.99903,3.58461 -20.64476,3.10935 z"
       id="path12834" />
    <path
       style="fill:#006700;fill-opacity:1;stroke:#306230;stroke-width:0.073532;stroke-miterlimit:4;stroke-dasharray:none;stroke-opacity:1"
       d="m 124.06735,180.98575 c -0.42748,-0.0435 -0.70811,-0.094 -0.74936,-0.13461 -0.0363,-0.0358 -0.58077,-1.39272 -0.58077,-1.44747 0,-0.0191 0.0891,-0.14151 0.19794,-0.27222 0.72755,-0.87348 2.15709,-1.89148 3.87163,-2.75708 3.06547,-1.54764 6.99738,-2.47424 10.5302,-2.48157 1.46916,-0.003 2.22796,0.0995 2.82156,0.38141 0.53735,0.25517 0.63671,0.56742 0.33145,1.04154 -0.86774,1.34778 -4.5201,3.28545 -8.42603,4.47025 -2.95731,0.89706 -6.19712,1.38313 -7.99662,1.19975 z"
       id="path12834-5" />
    <path
       style="fill:#008000;fill-opacity:1;stroke:#306230;stroke-width:0.106503;stroke-miterlimit:4;stroke-dasharray:none;stroke-opacity:1"
       d="m 97.0827,185.06869 c 0.232021,0.5881 0.356684,0.98836 0.33286,1.06883 -0.02098,0.0708 -1.375896,1.66687 -1.445313,1.70249 -0.02409,0.0123 -0.239335,-0.0245 -0.478232,-0.082 -1.59661,-0.38418 -3.84823,-1.5935 -6.098102,-3.27518 -4.022592,-3.00672 -7.839883,-7.55214 -10.223231,-12.17326 -0.990823,-1.9219 -1.370964,-2.98207 -1.412372,-3.9428 -0.03749,-0.86968 0.291706,-1.20301 1.098095,-1.11186 2.292287,0.25907 7.203895,3.78041 11.331152,8.12378 3.124889,3.28852 5.918436,7.2144 6.895143,9.69001 z"
       id="path12047-6-8" />
    <path
       style="fill:#006700;fill-opacity:1;stroke:#306230;stroke-width:0.073532;stroke-miterlimit:4;stroke-dasharray:none;stroke-opacity:1"
       d="m 94.548554,183.21353 c 0.156481,0.40018 0.239683,0.67291 0.22239,0.72814 -0.01527,0.0486 -0.973903,1.15261 -1.02261,1.1776 -0.01699,0.009 -0.166566,-0.0147 -0.332564,-0.0518 -1.109307,-0.24847 -2.667712,-1.05549 -4.220656,-2.18566 -2.77656,-2.02064 -5.396196,-5.09571 -7.015761,-8.23543 -0.673468,-1.30571 -0.928734,-2.0276 -0.948956,-2.68443 -0.01833,-0.59458 0.214104,-0.82554 0.775299,-0.77044 1.595289,0.15663 4.986818,2.52134 7.824308,5.45539 2.148368,2.22147 4.060068,4.88193 4.71855,6.56664 z"
       id="path12834-5-6" />
    <path
       style="fill:#006700;fill-opacity:1;stroke:#306230;stroke-width:0.190203;stroke-miterlimit:4;stroke-dasharray:none;stroke-opacity:1"
       d="m 73.68715,107.11319 c 0.667489,0.88612 1.064099,1.50633 1.059243,1.65605 -0.0042,0.13181 -1.628042,3.55328 -1.732092,3.64972 -0.0363,0.0336 -0.425311,0.0807 -0.864815,0.10481 -2.937117,0.16124 -7.380913,-0.75207 -12.03518,-2.47352 -8.321506,-3.0778 -16.98315,-8.89031 -23.19705,-15.566646 -2.584191,-2.77636 -3.720831,-4.39387 -4.226742,-6.01446 -0.458005,-1.46701 -0.03887,-2.20527 1.398049,-2.46253 4.084683,-0.7314 14.177528,2.77051 23.284342,8.07893 6.895092,4.01918 13.504762,9.297296 16.314245,13.027646 z"
       id="path12834-9" />
    <path
       style="fill:#aa0000;stroke:#892d30;stroke-width:8.36032;stroke-miterlimit:4;stroke-dasharray:none;stroke-opacity:1"
       id="path852-2"
       transform="matrix(-0.0949607,0.0586645,0.04617774,0.0839954,107.57395,114.45994)"
       d="M 628.19909,225.27632 508.83251,258.2664 440.57077,154.93654 517.74927,58.085083 633.70995,101.55746 Z" />
    <path
       style="fill:#2a0000;fill-opacity:1;stroke:#2a0000;stroke-width:1.88976;stroke-miterlimit:4;stroke-dasharray:none;stroke-opacity:1"
       id="path10563-0"
       transform="matrix(-0.0949607,0.0586645,0.04617774,0.0839954,107.57395,114.45994)"
       d="m 584.38291,110.1407 21.07971,75.10276 -64.91297,43.25602 -61.19814,-48.36907 27.09045,-73.14974 z" />
    <path
       style="fill:#008000;stroke:#308230;stroke-width:0.195343;stroke-miterlimit:4;stroke-dasharray:none;stroke-opacity:1"
       d="m 107.22685,201.92672 c -0.059,-0.0408 -0.44888,-0.30091 -0.86667,-0.57798 -2.57488,-1.70756 -4.69585,-3.94924 -6.27837,-6.6357 -1.411354,-2.39582 -2.077272,-4.24273 -2.388668,-6.62465 -0.319301,-2.44242 -0.138148,-4.66502 0.639604,-7.84752 2.049614,-8.38678 2.187624,-14.5344 0.4279,-19.05922 -0.692863,-1.7816 -2.037871,-3.63302 -3.401006,-4.68167 -1.519227,-1.1687 -3.211451,-1.87476 -5.473177,-2.2836 -3.924273,-0.70936 -8.634484,-0.223 -14.683072,1.51615 -2.239216,0.64386 -2.266028,0.65489 -2.297285,0.94636 -0.02998,0.27947 0.05469,0.30047 0.580649,0.1437 0.218912,-0.0652 1.208463,-0.30304 2.199055,-0.52849 8.494335,-1.93312 14.479258,-1.06371 18.075115,2.62573 0.922408,0.94642 2.046706,2.8094 2.532197,4.1959 1.655879,4.72892 1.428827,10.86918 -0.715096,19.33907 -0.8975,3.5457 -0.83125,7.08636 0.192274,10.2773 0.359951,1.12216 1.657886,3.65201 2.416856,4.71076 1.080167,1.50677 2.387144,2.90562 3.821454,4.09002 0.77358,0.6388 2.57878,1.90851 2.70073,1.89957 0.0401,-0.003 0.64702,-0.32625 1.3487,-0.71844 1.06409,-0.59471 1.25807,-0.72536 1.16877,-0.78734 z"
       id="path3355-9" />
  </g>
</svg>
