<?xml version="1.0" encoding="UTF-8" standalone="no"?>
<!-- Created with Inkscape (http://www.inkscape.org/) -->

<svg
   width="200mm"
   height="200mm"
   viewBox="0 0 200 200"
   version="1.1"
   id="svg8426"
   sodipodi:docname="dirt.svg"
   inkscape:export-filename="E:\JacksDocuments\Projects\Eiram\Assets\Resources\Sprites\dirt.png"
   inkscape:export-xdpi="8.1280003"
   inkscape:export-ydpi="8.1280003"
   inkscape:version="1.1.1 (3bf5ae0d25, 2021-09-20)"
   xmlns:inkscape="http://www.inkscape.org/namespaces/inkscape"
   xmlns:sodipodi="http://sodipodi.sourceforge.net/DTD/sodipodi-0.dtd"
   xmlns="http://www.w3.org/2000/svg"
   xmlns:svg="http://www.w3.org/2000/svg">
  <sodipodi:namedview
     id="namedview37"
     pagecolor="#ffffff"
     bordercolor="#666666"
     borderopacity="1.0"
     inkscape:pageshadow="2"
     inkscape:pageopacity="0.0"
     inkscape:pagecheckerboard="0"
     inkscape:document-units="mm"
     showgrid="false"
     inkscape:zoom="0.28839583"
     inkscape:cx="182.04146"
     inkscape:cy="324.20718"
     inkscape:window-width="1920"
     inkscape:window-height="1057"
     inkscape:window-x="-8"
     inkscape:window-y="-8"
     inkscape:window-maximized="1"
     inkscape:current-layer="svg8426" />
  <defs
     id="defs8423" />
  <g
     id="layer1">
    <rect
       style="fill:#7d4c2c;fill-opacity:1;stroke:#7d4c2c;stroke-width:0.248643;stroke-opacity:1"
       id="rect8452"
       width="199.75136"
       height="200.01595"
       x="-199.87569"
       y="-200.14027"
       transform="scale(-1)" />
    <path
       style="fill:#505050;fill-opacity:1;stroke:#7d4c2c;stroke-opacity:1"
       id="path13444"
       d="m 1108.4328,440.2861 187.1407,-23.70099 80.3707,170.65743 -137.469,129.17307 -165.3311,-90.82407 z"
       transform="matrix(0.07459994,0.04708071,-0.04906252,0.07158656,192.38996,-118.52554)" />
    <path
       style="fill:#646464;fill-opacity:1;stroke:#646464;stroke-opacity:1"
       id="path13446"
       d="m 1108.4328,440.2861 187.1407,-23.70099 80.3707,170.65743 -137.469,129.17307 -165.3311,-90.82407 z"
       transform="matrix(0.06475968,0.04277361,-0.04259083,0.06503759,200.63648,-109.54128)" />
    <path
       style="fill:#505050;fill-opacity:1;stroke:#7d4c2c;stroke-opacity:1"
       id="path13448"
       d="m 1108.4328,440.2861 187.1407,-23.70099 80.3707,170.65743 -137.469,129.17307 -165.3311,-90.82407 z"
       transform="matrix(0.07459994,0.04708071,-0.04906252,0.07158656,192.38996,-118.52554)" />
    <path
       style="fill:#646464;fill-opacity:1;stroke:#646464;stroke-opacity:1"
       id="path13450"
       d="m 1108.4328,440.2861 187.1407,-23.70099 80.3707,170.65743 -137.469,129.17307 -165.3311,-90.82407 z"
       transform="matrix(0.06475968,0.04277361,-0.04259083,0.06503759,200.63648,-109.54128)" />
    <path
       style="fill:#7d4c2c;fill-opacity:1;stroke:#7d4c2c;stroke-opacity:1"
       id="path9836"
       transform="matrix(0.26458333,0,0,0.26458333,-28.593575,14.186006)"
       d="m 1108.4328,440.2861 187.1407,-23.70099 80.3707,170.65743 -137.469,129.17307 -165.3311,-90.82407 z" />
    <path
       style="fill:#6d4c2c;fill-opacity:1;stroke:#6d4c2c;stroke-width:0.120419;stroke-opacity:1"
       d="m 312.37145,124.78532 c -0.39671,0.13009 -9.50412,3.09305 -20.23871,6.58435 l -19.51746,6.34783 -8.51815,20.46406 c -4.68498,11.25524 -8.53167,20.40183 -8.5482,20.32575 -0.0557,-0.25641 9.06541,-47.85956 9.17686,-47.89405 0.20838,-0.0645 47.84672,-6.07523 48.10683,-6.06985 0.14304,0.003 -0.0645,0.11181 -0.46117,0.24191 z"
       id="path14153" />
    <path
       style="fill:#855838;fill-opacity:1;stroke:#7d4c2c;stroke-width:0.085149;stroke-opacity:1"
       d="m 334.6748,170.38424 c -0.0373,0.0773 -9.95402,9.4075 -29.40161,27.6627 -3.34547,3.14035 -6.12778,5.7168 -6.18292,5.72546 -0.0551,0.009 -3.43209,-1.81264 -7.50432,-4.04732 -9.10289,-4.99532 -27.11447,-14.89072 -29.00489,-15.93504 -0.76487,-0.42253 -2.48527,-1.37004 -3.82312,-2.10558 -1.33785,-0.73553 -2.41734,-1.35021 -2.39886,-1.36595 0.0185,-0.0158 9.20877,3.41532 20.42288,7.62458 11.21409,4.20926 20.48647,7.68554 20.60527,7.72506 0.1924,0.064 2.22737,-1.30724 18.64537,-12.56427 21.52594,-14.75926 18.69398,-12.82699 18.6422,-12.71964 z"
       id="path15367" />
    <path
       style="fill:#7d4c2c;fill-opacity:1;stroke:#7d4c2c;stroke-opacity:1"
       id="path9836-9"
       transform="matrix(-0.26109709,-0.04280945,0.04280945,-0.26109709,479.44581,320.20597)"
       d="m 1108.4328,440.2861 187.1407,-23.70099 80.3707,170.65743 -137.469,129.17307 -165.3311,-90.82407 z" />
    <path
       style="fill:#6d4c2c;fill-opacity:1;stroke:#6d4c2c;stroke-width:0.120419;stroke-opacity:1"
       d="m 160.86837,155.89598 c 0.41253,-0.0642 9.87934,-1.51453 21.03738,-3.22298 l 20.28737,-3.10627 11.71698,-18.81619 c 6.44434,-10.34891 11.72026,-18.75258 11.72426,-18.67483 0.0135,0.26204 -16.68961,45.76216 -16.80517,45.77817 -0.21607,0.0299 -48.19925,-1.7464 -48.45506,-1.79379 -0.14067,-0.0261 0.0817,-0.0999 0.49424,-0.16411 z"
       id="path14153-5" />
    <path
       style="fill:#855838;fill-opacity:1;stroke:#7d4c2c;stroke-width:0.085149;stroke-opacity:1"
       d="m 146.23678,107.28922 c 0.0493,-0.0703 11.34499,-7.672989 33.49001,-22.541041 3.8095,-2.557676 6.97202,-4.650001 7.02783,-4.649626 0.0558,3.4e-5 3.09358,2.344067 6.75059,5.208187 8.1747,6.402341 24.34788,19.08162 26.04443,20.41805 0.68642,0.54072 2.23085,1.7541 3.43206,2.69642 1.20121,0.9423 2.16702,1.72354 2.14624,1.73608 -0.0208,0.0126 -8.53483,-4.86029 -18.92013,-10.828529 -10.38527,-5.96823 -18.97301,-10.89897 -19.08385,-10.95719 -0.17951,-0.0943 -2.40954,0.92963 -20.43259,9.38191 -23.63035,11.081899 -20.52306,9.633299 -20.45459,9.535739 z"
       id="path15367-1" />
    <path
       style="fill:#7d4c2c;fill-opacity:1;stroke:#7d4c2c;stroke-opacity:1"
       id="path9836-6"
       transform="matrix(-0.26458333,0,0,-0.26458333,370.84831,197.46693)"
       d="m 1108.4328,440.2861 187.1407,-23.70099 80.3707,170.65743 -137.469,129.17307 -165.3311,-90.82407 z" />
    <path
       style="fill:#7d4c2c;fill-opacity:1;stroke:#7d4c2c;stroke-width:0.120419;stroke-opacity:1"
       d="M 17.957849,65.934423 C 12.479659,54.300673 7.7092687,44.175453 7.3570287,43.433933 l -0.64045,-1.3482 18.2097893,-17.10956 c 10.0154,-9.41025 18.226461,-17.1096403 18.246801,-17.1097503 0.0204,-1.1e-4 9.85044,5.3903603 21.84465,11.9788203 20.85,11.45298 21.80105,11.98994 21.65759,12.22774 -0.0825,0.13679 -4.0158,9.54173 -8.74059,20.89985 l -8.59053,20.65113 -17.62788,5.72985 c -9.69534,3.15142 -19.016211,6.18054 -20.713041,6.73137 l -3.08515,1.00152 z"
       id="path13966-0" />
    <path
       style="fill:#6d4c2c;fill-opacity:1;stroke:#6d4c2c;stroke-width:0.120419;stroke-opacity:1"
       d="m 29.883288,86.867613 c 0.39671,-0.13009 9.504121,-3.09305 20.238711,-6.58435 l 19.51746,-6.34783 8.51815,-20.46406 c 4.68498,-11.25524 8.53167,-20.40183 8.5482,-20.32575 0.0557,0.25641 -9.06541,47.85956 -9.17686,47.89405 -0.20838,0.0645 -47.846721,6.07523 -48.106831,6.06985 -0.14304,-0.003 0.0645,-0.11181 0.46117,-0.24191 z"
       id="path14153-0" />
    <path
       style="fill:#855838;fill-opacity:1;stroke:#7d4c2c;stroke-width:0.085149;stroke-opacity:1"
       d="m 7.5799387,41.268693 c 0.0373,-0.0773 9.9540203,-9.4075 29.4016103,-27.6627 3.34547,-3.14035 6.12778,-5.7168003 6.18292,-5.7254603 0.0551,-0.009 3.43209,1.81264 7.50432,4.0473203 9.10289,4.99532 27.11447,14.89072 29.00489,15.93504 0.76487,0.42253 2.48527,1.37004 3.82312,2.10558 1.33785,0.73553 2.41734,1.35021 2.39886,1.36595 -0.0185,0.0158 -9.20877,-3.41532 -20.42288,-7.62458 -11.21409,-4.20926 -20.48647,-7.68554 -20.60527,-7.72506 -0.1924,-0.064 -2.22737,1.30724 -18.64537,12.56427 C 4.6961987,43.308313 7.5281587,41.376043 7.5799387,41.268693 Z"
       id="path15367-6" />
    <path
       style="fill:#7d4c2c;fill-opacity:1;stroke:#7d4c2c;stroke-opacity:1"
       id="path16263-4"
       transform="matrix(-0.26458333,0,0,-0.26458333,370.84831,197.46693)"
       d="m 1108.4328,440.2861 187.1407,-23.70099 80.3707,170.65743 -137.469,129.17307 -165.3311,-90.82407 z" />
    <path
       style="fill:#7d4c2c;fill-opacity:1;stroke:#7d4c2c;stroke-width:0.120419;stroke-opacity:1"
       d="M 17.957849,65.934423 C 12.479659,54.300673 7.7092687,44.175453 7.3570287,43.433933 l -0.64045,-1.3482 18.2097893,-17.10956 c 10.0154,-9.41025 18.226461,-17.1096403 18.246801,-17.1097503 0.0204,-1.1e-4 9.85044,5.3903603 21.84465,11.9788203 20.85,11.45298 21.80105,11.98994 21.65759,12.22774 -0.0825,0.13679 -4.0158,9.54173 -8.74059,20.89985 l -8.59053,20.65113 -17.62788,5.72985 c -9.69534,3.15142 -19.016211,6.18054 -20.713041,6.73137 l -3.08515,1.00152 z"
       id="path16265-6" />
    <path
       style="fill:#6d4c2c;fill-opacity:1;stroke:#6d4c2c;stroke-width:0.120419;stroke-opacity:1"
       d="m 29.883288,86.867613 c 0.39671,-0.13009 9.504121,-3.09305 20.238711,-6.58435 l 19.51746,-6.34783 8.51815,-20.46406 c 4.68498,-11.25524 8.53167,-20.40183 8.5482,-20.32575 0.0557,0.25641 -9.06541,47.85956 -9.17686,47.89405 -0.20838,0.0645 -47.846721,6.07523 -48.106831,6.06985 -0.14304,-0.003 0.0645,-0.11181 0.46117,-0.24191 z"
       id="path16267-2" />
    <path
       style="fill:#855838;fill-opacity:1;stroke:#7d4c2c;stroke-width:0.085149;stroke-opacity:1"
       d="m 7.5799387,41.268693 c 0.0373,-0.0773 9.9540203,-9.4075 29.4016103,-27.6627 3.34547,-3.14035 6.12778,-5.7168003 6.18292,-5.7254603 0.0551,-0.009 3.43209,1.81264 7.50432,4.0473203 9.10289,4.99532 27.11447,14.89072 29.00489,15.93504 0.76487,0.42253 2.48527,1.37004 3.82312,2.10558 1.33785,0.73553 2.41734,1.35021 2.39886,1.36595 -0.0185,0.0158 -9.20877,-3.41532 -20.42288,-7.62458 -11.21409,-4.20926 -20.48647,-7.68554 -20.60527,-7.72506 -0.1924,-0.064 -2.22737,1.30724 -18.64537,12.56427 C 4.6961987,43.308313 7.5281587,41.376043 7.5799387,41.268693 Z"
       id="path16269-9" />
    <path
       style="fill:#7d4c2c;fill-opacity:1;stroke:#7d4c2c;stroke-opacity:1"
       id="path9836-4"
       transform="matrix(-0.16201005,-0.20918194,0.20918194,-0.16201005,210.45019,397.55456)"
       d="m 1108.4328,440.2861 187.1407,-23.70099 80.3707,170.65743 -137.469,129.17307 -165.3311,-90.82407 z" />
    <path
       style="fill:#7d4c2c;fill-opacity:1;stroke:#7d4c2c;stroke-width:0.120419;stroke-opacity:1"
       d="m 98.358546,38.016053 c 5.843344,-11.45471 10.927414,-21.4261 11.297984,-22.15864 l 0.67374,-1.33188 24.67721,3.92028 c 13.57248,2.15617 24.68749,3.93339 24.70003,3.94942 0.0126,0.0161 1.76997,11.08847 3.90539,24.60546 3.71207,23.49709 3.8699,24.57779 3.59405,24.60998 -0.15866,0.0185 -10.00274,2.66768 -21.87566,5.88704 l -21.58714,5.85338 -15.324,-10.42825 C 99.991946,67.187303 91.889736,61.672933 90.415236,60.668693 l -2.68091,-1.82589 z"
       id="path13966-7" />
    <path
       style="fill:#6d4c2c;fill-opacity:1;stroke:#6d4c2c;stroke-width:0.120419;stroke-opacity:1"
       d="m 89.110792,60.262243 c 0.34576,0.234 8.26497,5.6201 17.598238,11.96917 l 16.96961,11.54377 21.39492,-5.79605 c 11.7672,-3.18785 21.35399,-5.74728 21.30396,-5.68762 -0.16861,0.20103 -43.38914,22.13825 -43.48465,22.07126 -0.17858,-0.12528 -34.100698,-34.10807 -34.255718,-34.31701 -0.0852,-0.1149 0.12791,-0.0175 0.47364,0.21648 z"
       id="path14153-3" />
    <path
       style="fill:#855838;fill-opacity:1;stroke:#7d4c2c;stroke-width:0.085149;stroke-opacity:1"
       d="m 111.50488,14.707823 c 0.0839,-0.0178 13.53272,2.10932 39.87362,6.30671 4.53129,0.72206 8.27192,1.34416 8.31253,1.38246 0.0409,0.038 0.66845,3.82336 1.39521,8.41124 1.62455,10.25556 4.83003,30.55484 5.16193,32.68889 0.13429,0.86343 0.43862,2.80377 0.67629,4.31188 0.23768,1.50809 0.4127,2.73793 0.38894,2.73295 -0.024,-0.004 -2.93854,-9.3718 -6.47731,-20.81519 -3.53875,-11.44338 -6.46804,-20.90281 -6.50954,-21.02093 -0.0672,-0.19131 -2.3974,-0.96048 -21.35039,-7.04783 -24.8496,-7.98118 -21.58786,-6.92538 -21.47128,-6.95018 z"
       id="path15367-9" />
    <path
       style="fill:#7d4c2c;fill-opacity:1;stroke:#7d4c2c;stroke-opacity:1"
       id="path16263-7"
       transform="matrix(-0.16201005,-0.20918194,0.20918194,-0.16201005,210.45019,397.55456)"
       d="m 1108.4328,440.2861 187.1407,-23.70099 80.3707,170.65743 -137.469,129.17307 -165.3311,-90.82407 z" />
    <path
       style="fill:#7d4c2c;fill-opacity:1;stroke:#7d4c2c;stroke-width:0.120419;stroke-opacity:1"
       d="m 98.358546,38.016053 c 5.843344,-11.45471 10.927414,-21.4261 11.297984,-22.15864 l 0.67374,-1.33188 24.67721,3.92028 c 13.57248,2.15617 24.68749,3.93339 24.70003,3.94942 0.0126,0.0161 1.76997,11.08847 3.90539,24.60546 3.71207,23.49709 3.8699,24.57779 3.59405,24.60998 -0.15866,0.0185 -10.00274,2.66768 -21.87566,5.88704 l -21.58714,5.85338 -15.324,-10.42825 C 99.991946,67.187303 91.889736,61.672933 90.415236,60.668693 l -2.68091,-1.82589 z"
       id="path16265-1" />
    <path
       style="fill:#6d4c2c;fill-opacity:1;stroke:#6d4c2c;stroke-width:0.120419;stroke-opacity:1"
       d="m 89.110792,60.262243 c 0.34576,0.234 8.26497,5.6201 17.598238,11.96917 l 16.96961,11.54377 21.39492,-5.79605 c 11.7672,-3.18785 21.35399,-5.74728 21.30396,-5.68762 -0.16861,0.20103 -43.38914,22.13825 -43.48465,22.07126 -0.17858,-0.12528 -34.100698,-34.10807 -34.255718,-34.31701 -0.0852,-0.1149 0.12791,-0.0175 0.47364,0.21648 z"
       id="path16267-7" />
    <path
       style="fill:#855838;fill-opacity:1;stroke:#7d4c2c;stroke-width:0.085149;stroke-opacity:1"
       d="m 111.50488,14.707823 c 0.0839,-0.0178 13.53272,2.10932 39.87362,6.30671 4.53129,0.72206 8.27192,1.34416 8.31253,1.38246 0.0409,0.038 0.66845,3.82336 1.39521,8.41124 1.62455,10.25556 4.83003,30.55484 5.16193,32.68889 0.13429,0.86343 0.43862,2.80377 0.67629,4.31188 0.23768,1.50809 0.4127,2.73793 0.38894,2.73295 -0.024,-0.004 -2.93854,-9.3718 -6.47731,-20.81519 -3.53875,-11.44338 -6.46804,-20.90281 -6.50954,-21.02093 -0.0672,-0.19131 -2.3974,-0.96048 -21.35039,-7.04783 -24.8496,-7.98118 -21.58786,-6.92538 -21.47128,-6.95018 z"
       id="path16269-4" />
    <path
       style="fill:#6d4c2c;fill-opacity:1;stroke:#6d4c2c;stroke-width:0.162707;stroke-opacity:1"
       d="m 47.039695,188.7245 c 0.567751,-0.0329 13.593355,-0.75726 28.945817,-1.60972 l 27.913608,-1.54991 18.48772,-23.61295 c 10.16826,-12.98714 18.48332,-23.52765 18.47792,-23.42338 -0.0182,0.35146 -28.96944,58.93885 -29.12822,58.94543 -0.29685,0.0123 -65.049219,-8.4977 -65.389163,-8.59368 -0.186943,-0.0528 0.124668,-0.12286 0.692323,-0.15574 z"
       id="path14153-8" />
    <path
       style="fill:#855838;fill-opacity:1;stroke:#7d4c2c;stroke-width:0.115051;stroke-opacity:1"
       d="m 33.976018,121.98179 c 0.07653,-0.0874 16.434824,-8.78882 48.499831,-25.798349 5.515977,-2.926048 10.090864,-5.313836 10.166406,-5.306216 0.07571,0.0072 3.864814,3.524219 8.420555,7.814585 10.18371,9.59051 30.32983,28.5816 32.44225,30.58228 0.85469,0.80946 2.77814,2.62645 4.27434,4.03775 1.49621,1.4113 2.69594,2.57751 2.66604,2.59159 -0.0299,0.0141 -10.88592,-7.57856 -24.12449,-16.87254 -13.23854,-9.29399 -24.186329,-16.97333 -24.328385,-17.06522 -0.230067,-0.14881 -3.393231,0.9324 -28.982673,9.90681 -33.550763,11.76649 -29.140191,10.23075 -29.033874,10.10931 z"
       id="path15367-2" />
    <path
       style="fill:#7d4c2c;fill-opacity:1;stroke:#7d4c2c;stroke-opacity:1"
       id="path18742"
       transform="matrix(-0.26109709,-0.04280945,0.04280945,-0.26109709,279.44106,320.20597)"
       d="m 1108.4328,440.2861 187.1407,-23.70099 80.3707,170.65743 -137.469,129.17307 -165.3311,-90.82407 z" />
    <path
       style="fill:#6d4c2c;fill-opacity:1;stroke:#6d4c2c;stroke-width:0.120419;stroke-opacity:1"
       d="m -39.136374,155.89598 c 0.41253,-0.0642 9.87934,-1.51453 21.03738,-3.22298 l 20.287369,-3.10627 11.716981,-18.81619 c 6.44434,-10.34891 11.72026,-18.75258 11.72426,-18.67483 0.0135,0.26204 -16.689611,45.76216 -16.805171,45.77817 -0.21607,0.0299 -48.199249,-1.7464 -48.455059,-1.79379 -0.14067,-0.0261 0.0817,-0.0999 0.49424,-0.16411 z"
       id="path18744" />
    <path
       style="fill:#855838;fill-opacity:1;stroke:#7d4c2c;stroke-width:0.085149;stroke-opacity:1"
       d="m -53.767965,107.28922 c 0.0493,-0.0703 11.344991,-7.672989 33.490011,-22.541041 3.8095,-2.557676 6.97202,-4.650001 7.02783,-4.649626 0.0558,3.4e-5 3.093579,2.344067 6.750589,5.208187 8.1747,6.402341 24.347881,19.08162 26.044431,20.41805 0.68642,0.54072 2.23085,1.7541 3.43206,2.69642 1.20121,0.9423 2.16702,1.72354 2.14624,1.73608 -0.0208,0.0126 -8.53483,-4.86029 -18.920131,-10.828529 -10.38527,-5.96823 -18.973009,-10.89897 -19.083849,-10.95719 -0.17951,-0.0943 -2.40954,0.92963 -20.43259,9.38191 -23.630351,11.081899 -20.523061,9.633299 -20.454591,9.535739 z"
       id="path18746" />
  </g>
</svg>
