<?xml version="1.0" encoding="UTF-8" standalone="no"?>
<!-- Created with Inkscape (http://www.inkscape.org/) -->

<svg
   width="200mm"
   height="200mm"
   viewBox="0 0 200 200"
   version="1.1"
   id="svg5"
   inkscape:version="1.1.1 (3bf5ae0d25, 2021-09-20)"
   sodipodi:docname="svg_thorns_1.svg"
   inkscape:export-filename="E:\JacksDocuments\Projects\Eiram\Assets\Resources\Sprites\New\thorns.png"
   inkscape:export-xdpi="8.1280003"
   inkscape:export-ydpi="8.1280003"
   xmlns:inkscape="http://www.inkscape.org/namespaces/inkscape"
   xmlns:sodipodi="http://sodipodi.sourceforge.net/DTD/sodipodi-0.dtd"
   xmlns="http://www.w3.org/2000/svg"
   xmlns:svg="http://www.w3.org/2000/svg">
  <sodipodi:namedview
     id="namedview7"
     pagecolor="#ffffff"
     bordercolor="#666666"
     borderopacity="1.0"
     inkscape:pageshadow="2"
     inkscape:pageopacity="0.0"
     inkscape:pagecheckerboard="0"
     inkscape:document-units="mm"
     showgrid="false"
     width="200mm"
     inkscape:snap-global="false"
     inkscape:zoom="1.5536476"
     inkscape:cx="332.42269"
     inkscape:cy="611.85495"
     inkscape:window-width="1920"
     inkscape:window-height="1057"
     inkscape:window-x="-8"
     inkscape:window-y="-8"
     inkscape:window-maximized="1"
     inkscape:current-layer="layer1" />
  <defs
     id="defs2" />
  <g
     inkscape:label="Layer 1"
     inkscape:groupmode="layer"
     id="layer1">
    <path
       style="fill:#6d4323;fill-opacity:1;stroke:#6d4323;stroke-width:2.28782"
       d="M 214.89874,717.70488 119.59147,670.4019 82.843428,567.73571 C 62.589232,511.14981 52.665644,462.23457 52.874018,462.0262 c 0.208374,-0.20838 29.323209,40.45423 49.007362,94.17762 l 39.30598,92.57586 93.42233,47.32817 c 54.88083,27.80288 73.89688,24.67135 74.10063,24.46761 0.20374,-0.20375 -3.20031,-14.03715 -31.92724,-66.29484 -28.72694,-52.2577 -47.80564,-98.99034 -48.64586,-100.61577 -1.45605,-2.81676 -5.62205,-11.14771 3.09231,-152.78132 5.0287,-81.73105 13.76959,-147.71329 13.89594,-148.12326 0.12635,-0.40997 17.293,66.73995 14.39112,148.47875 l 2.93968,146.25878 45.51349,95.10313 c 25.46623,53.21319 46.69845,64.24821 47.0429,63.91329 1.05807,-1.02877 68.38212,-158.87739 68.38212,-160.30207 0,-0.73478 -15.21766,-36.91922 -34.79368,-86.04624 -19.57601,-49.12703 -23.63087,-92.67626 -23.45464,-92.84147 0.46545,-0.43634 91.80093,179.17077 91.80093,180.52237 0,0.62531 -14.46693,44.28884 -35.49379,96.52062 -21.02686,52.23178 -19.59782,63.55801 -19.59782,63.8657 0,0.30768 -20.76032,32.20451 -20.49656,31.80318 14.63683,-22.27099 28.29943,-40.82052 68.53073,-84.06311 L 514.4368,565.06125 488.86176,443.74585 C 459.76138,305.708 466.96679,306.71528 467.13594,306.20784 c 0.16915,-0.50744 27.24157,56.5524 45.68242,130.31435 l 33.49266,133.96799 -66.97461,87.81008 c -36.80675,48.25714 -71.53578,84.31889 -71.53825,84.69437 -0.003,0.37548 11.4906,-18.75057 12.1389,-18.75057 0.6483,0 39.09095,-5.77936 100.25002,-29.23128 l 106.83652,-46.4999 4.18376,-3.95641 c 1.50594,-1.4241 16.43455,-41.28938 35.64414,-93.72 19.2096,-52.43061 36.37317,-95.50424 36.57357,-95.30384 0.33661,0.3366 -53.36633,199.94455 -53.96889,200.59645 -0.14806,0.16019 -47.04274,28.26961 -110.19327,53.90051 l -116.45004,47.26357 -55.07035,-0.0222 -55.07035,-0.0222 z"
       id="path1885"
       transform="scale(0.26458333)"
       sodipodi:nodetypes="ccssscssssssscsssssssssscssscscsscssssscccc" />
    <path
       style="fill:#52341f;fill-opacity:1;stroke:#52341f;stroke-width:0.15133;stroke-opacity:1"
       d="m 68.14326,116.33564 c -0.024,-0.44826 -0.05801,-2.5687 -0.04565,-2.57821 0.07439,-0.0573 10.22407,-2.31724 10.244266,-2.29705 0.01775,0.0178 -7.803984,5.22527 -9.89488,6.49173 -0.05607,0.034 -0.270574,-0.99737 -0.303731,-1.61647 z"
       id="path2174"
       sodipodi:nodetypes="scccss" />
    <path
       style="fill:#52341f;fill-opacity:1;stroke:#52341f;stroke-width:0.15133;stroke-opacity:1"
       d="m 111.17089,125.06373 c -0.18604,-0.40854 -0.99594,-1.9638 -0.98796,-1.97714 0.0483,-0.0805 8.67559,-6.29728 8.70176,-6.28586 0.0231,0.0101 -5.35674,7.71433 -6.84072,9.6569 -0.0398,0.0521 -0.61612,-0.82967 -0.87308,-1.3939 z"
       id="path2174-8"
       sodipodi:nodetypes="scccs" />
    <path
       style="fill:#52341f;fill-opacity:1;stroke:#52341f;stroke-width:0.15133;stroke-opacity:1"
       d="m 134.71196,112.11527 c -0.0851,-0.44078 -0.13289,-2.0451 -0.122,-2.0562 0.0658,-0.0669 9.53545,-4.18501 9.55822,-4.16777 0.02,0.0152 -7.01622,6.24326 -8.91431,7.78372 -0.0509,0.0413 -0.40441,-0.951 -0.52191,-1.55975 z"
       id="path2174-8-85"
       sodipodi:nodetypes="scccs" />
    <path
       style="fill:#52341f;fill-opacity:1;stroke:#52341f;stroke-width:0.15133;stroke-opacity:1"
       d="m 74.460353,156.59209 c -0.18604,-0.40854 -0.968364,-2.14483 -0.960384,-2.15817 0.0483,-0.0805 8.648014,-6.11625 8.674184,-6.10483 0.0231,0.0101 -5.35674,7.71433 -6.84072,9.6569 -0.0398,0.0521 -0.61612,-0.82967 -0.87308,-1.3939 z"
       id="path2174-8-8"
       sodipodi:nodetypes="scccs" />
    <path
       style="fill:#52341f;fill-opacity:1;stroke:#52341f;stroke-width:0.15133;stroke-opacity:1"
       d="m 60.117156,142.8471 c -0.116435,0.43354 -0.153605,2.57541 -0.16825,2.58062 -0.08848,0.0314 -11.027323,-1.08903 -11.040245,-1.11449 -0.01139,-0.0225 9.041043,-2.54266 11.421904,-3.09698 0.06386,-0.0149 -0.05262,1.03208 -0.213409,1.63085 z"
       id="path2174-8-8-2"
       sodipodi:nodetypes="scccs" />
    <path
       style="fill:#52341f;fill-opacity:1;stroke:#52341f;stroke-width:0.15133;stroke-opacity:1"
       d="m 19.456887,140.00302 c 0.08473,0.44083 0.306397,2.44762 0.295502,2.45871 -0.06586,0.0669 -9.713628,3.77543 -9.736377,3.75818 -0.020077,-0.0153 7.020892,-6.238 8.920138,-7.77704 0.05093,-0.0413 0.403695,0.95131 0.520737,1.56015 z"
       id="path2174-8-8-2-9"
       sodipodi:nodetypes="scccs" />
    <path
       style="fill:#52341f;fill-opacity:1;stroke:#52341f;stroke-width:0.15133;stroke-opacity:1"
       d="m 45.256461,176.51982 c -0.403434,-0.19685 -2.194423,-1.18039 -2.196753,-1.19576 -0.01397,-0.0928 2.864224,-10.07899 2.891677,-10.08683 0.02428,-0.007 0.774621,9.35979 0.865458,11.80263 0.0025,0.0656 -1.003178,-0.24817 -1.560382,-0.52004 z"
       id="path2174-8-8-2-9-9"
       sodipodi:nodetypes="scccs" />
    <path
       style="fill:#52341f;fill-opacity:1;stroke:#52341f;stroke-width:0.15133;stroke-opacity:1"
       d="m 127.01947,162.88044 c -0.34827,0.28323 -1.75953,1.58073 -1.77446,1.57638 -0.0901,-0.0264 -8.17396,-6.92378 -8.16952,-6.95198 0.004,-0.0249 8.81754,3.23366 11.07204,4.17864 0.0605,0.0254 -0.64707,0.80577 -1.12806,1.19696 z"
       id="path2174-8-1"
       sodipodi:nodetypes="scccs"
       inkscape:export-filename="E:\JacksDocuments\Projects\Eiram\Assets\Resources\Sprites\New\thorns.png"
       inkscape:export-xdpi="8.1280003"
       inkscape:export-ydpi="8.1280003" />
    <path
       style="fill:#52341f;fill-opacity:1;stroke:#52341f;stroke-width:0.15133;stroke-opacity:1"
       d="m 154.35816,176.70345 c -0.43301,0.11838 -1.57641,0.45125 -1.5884,0.44088 -0.0717,-0.0606 -5.34723,-9.35501 -5.33177,-9.37901 0.0137,-0.0211 6.7563,6.52365 8.43598,8.29973 0.0451,0.0477 -0.91769,0.47521 -1.5158,0.63844 z"
       id="path2174-8-1-3"
       sodipodi:nodetypes="scccss" />
    <path
       style="fill:#52341f;fill-opacity:1;stroke:#52341f;stroke-width:0.15133;stroke-opacity:1"
       d="m 173.79258,153.77505 c -0.20973,0.3969 -0.95558,1.6677 -0.97134,1.66936 -0.0934,0.0104 -10.27555,-2.70475 -10.28249,-2.73244 -0.006,-0.0244 9.3801,-0.46847 11.82462,-0.47946 0.0656,-2.6e-4 -0.28083,0.99454 -0.57075,1.54257 z"
       id="path2174-8-1-3-8"
       sodipodi:nodetypes="scccss" />
    <path
       style="fill:#52341f;fill-opacity:1;stroke:#52341f;stroke-width:0.15133;stroke-opacity:1"
       d="m 183.39734,131.9701 c 0.14417,-0.42512 0.49542,-1.93815 0.51072,-1.94229 0.0906,-0.0251 10.75812,1.18215 10.76936,1.20845 0.009,0.0232 -9.18731,1.94911 -11.5992,2.34738 -0.0648,0.0105 0.11967,-1.02648 0.31908,-1.61354 z"
       id="path2174-8-1-3-8-9"
       sodipodi:nodetypes="scccss" />
    <path
       style="fill:#52341f;fill-opacity:1;stroke:#52341f;stroke-width:0.15133;stroke-opacity:1"
       d="m 101.574,170.43441 c -0.25383,0.37025 -1.04998,2.12894 -1.06552,2.12899 -0.0939,2e-4 -9.989884,-4.44065 -9.993615,-4.46896 -0.0033,-0.025 9.372291,0.60464 11.802105,0.87259 0.0652,0.007 -0.39243,0.95601 -0.74297,1.46738 z"
       id="path2174-8-5"
       sodipodi:nodetypes="scccs" />
  </g>
</svg>
