<?xml version="1.0" encoding="UTF-8" standalone="no"?>
<!-- Created with Inkscape (http://www.inkscape.org/) -->

<svg
   width="200mm"
   height="200mm"
   viewBox="0 0 200 200"
   version="1.1"
   id="svg10329"
   inkscape:version="1.1.1 (3bf5ae0d25, 2021-09-20)"
   sodipodi:docname="svg_thorns_0.svg"
   xmlns:inkscape="http://www.inkscape.org/namespaces/inkscape"
   xmlns:sodipodi="http://sodipodi.sourceforge.net/DTD/sodipodi-0.dtd"
   xmlns="http://www.w3.org/2000/svg"
   xmlns:svg="http://www.w3.org/2000/svg">
  <sodipodi:namedview
     id="namedview10331"
     pagecolor="#ffffff"
     bordercolor="#666666"
     borderopacity="1.0"
     inkscape:pageshadow="2"
     inkscape:pageopacity="0.0"
     inkscape:pagecheckerboard="0"
     inkscape:document-units="mm"
     showgrid="false"
     width="200mm"
     inkscape:zoom="2.1971895"
     inkscape:cx="325.64328"
     inkscape:cy="659.25129"
     inkscape:window-width="1920"
     inkscape:window-height="1057"
     inkscape:window-x="1912"
     inkscape:window-y="-8"
     inkscape:window-maximized="1"
     inkscape:current-layer="layer1" />
  <defs
     id="defs10326" />
  <g
     inkscape:label="Layer 1"
     inkscape:groupmode="layer"
     id="layer1">
    <path
       style="fill:#52341f;stroke:#52341f;stroke-width:0.808866"
       d="m 312.58998,758.4807 -21.4626,-0.27442 -58.6714,-17.20979 c -32.26927,-9.46539 -58.91058,-17.31979 -59.20293,-17.45421 -0.55522,-0.2553 -56.71197,-66.04468 -56.53,-66.22665 0.0573,-0.0573 16.178,8.2771 35.82385,18.52081 l 35.71973,18.62492 53.35415,16.26874 c 29.34477,8.94781 53.43667,16.26874 53.53755,16.26874 0.10088,0 0.10334,-0.20866 0.005,-0.46368 -0.0979,-0.25503 -9.3589,-15.64221 -20.5801,-34.19373 l -20.40215,-33.73004 -3.14192,-60.40206 c -1.72805,-33.22114 -3.08744,-60.56551 -3.02085,-60.76526 0.0666,-0.19976 7.92944,25.7502 17.47301,57.66656 l 17.35194,58.02977 18.68523,29.90302 c 10.27688,16.44666 18.83005,29.89807 19.00705,29.89203 0.177,-0.006 12.56011,-15.60027 27.51802,-34.65384 l 27.1962,-34.64285 4.33573,-55.69177 c 2.38466,-30.63047 4.37311,-55.57403 4.41879,-55.43014 0.5618,1.7697 25.806,111.38591 25.70989,111.63835 -0.0728,0.19121 -14.20855,18.07167 -31.41276,39.73435 -17.20421,21.66267 -31.13937,39.43369 -30.96702,39.49114 0.17235,0.0574 27.59423,-8.30753 60.93752,-18.58883 l 60.62417,-18.69327 40.22792,-21.66846 c 22.12535,-11.91766 40.27245,-21.62998 40.32687,-21.58295 0.0699,0.0604 -47.51801,65.35392 -48.3972,66.40402 -0.0523,0.0625 -34.72966,11.24984 -77.06084,24.86085 l -76.96575,24.7473 -6.48748,-0.0521 c -3.56811,-0.0287 -16.14565,-0.17561 -27.95009,-0.32654 z"
       id="path11397"
       transform="scale(0.26458333)" />
    <path
       style="fill:#6d4323;stroke:#6d4323;stroke-width:0.214015;fill-opacity:1;stroke-opacity:1"
       d="m 83.107007,200.76431 -6.045755,-0.0741 -5.534845,-1.62262 c -26.523483,-7.77576 -25.65626,-7.51416 -25.925283,-7.82054 -0.698414,-0.7954 -8.636013,-10.02322 -9.413817,-10.94398 -0.514288,-0.60882 -1.036846,-1.22189 -1.161241,-1.36239 -0.124398,-0.14049 -0.469341,-0.54635 -0.766546,-0.90189 -0.297202,-0.35555 -1.019346,-1.2112 -1.604761,-1.90145 -0.585418,-0.69026 -1.102712,-1.31881 -1.149547,-1.3968 -0.04684,-0.078 -0.193747,-0.28562 -0.326473,-0.46143 -0.132727,-0.17579 -0.206905,-0.31964 -0.16484,-0.31964 0.07937,0 1.654348,0.79008 4.365705,2.19003 1.88918,0.97543 1.986666,1.0261 8.95446,4.65491 l 5.505825,2.86742 9.097652,2.77308 c 5.00371,1.5252 11.329686,3.45328 14.057728,4.28462 2.728039,0.83135 4.960074,1.48055 4.960074,1.44268 0,-0.0378 -0.332061,-0.61649 -0.737915,-1.28582 -0.405853,-0.66931 -2.296501,-3.80334 -4.201444,-6.96449 -1.90494,-3.16115 -3.996804,-6.63051 -4.64859,-7.70968 l -1.185062,-1.96212 -0.495671,-9.53298 c -0.886736,-17.0542 -1.076194,-20.92929 -1.065558,-21.79443 0.0057,-0.46832 0.02808,-0.7557 0.04961,-0.63862 0.02154,0.11709 0.06979,0.2512 0.107249,0.29802 0.03746,0.0468 0.261778,0.71738 0.498478,1.49012 1.002723,3.27343 4.245669,14.04099 6.353991,21.09716 l 2.271132,7.60105 3.471594,5.55446 c 4.672176,7.47534 6.389814,10.19506 6.438682,10.19506 0.03591,0 2.28813,-2.83306 5.449178,-6.85449 1.398867,-1.77962 2.892654,-3.6763 3.319529,-4.21487 3.001555,-3.78692 5.623337,-7.18215 5.640855,-7.30498 0.01143,-0.0801 0.347623,-4.36042 0.747117,-9.51194 1.518942,-19.58691 1.529432,-19.71197 1.653092,-19.71197 0.0379,0 0.15192,0.35444 0.25344,0.78763 1.53364,6.54482 5.46126,23.63482 6.22981,27.10736 l 0.35999,1.62654 -1.63005,2.07744 c -1.65391,2.10783 -3.23066,4.10626 -6.61791,8.38771 -1.033405,1.3062 -2.970119,3.75432 -4.303815,5.44027 -3.153636,3.98656 -3.851963,4.89607 -3.759279,4.89607 0.126183,0 30.471114,-9.3185 31.570454,-9.69484 0.33161,-0.11351 10.52422,-5.55073 17.49863,-9.33459 2.1577,-1.17062 3.81999,-2.00525 3.86114,-1.93867 0.0239,0.0386 -0.33943,0.5998 -0.80741,1.24697 -0.46796,0.64718 -0.88415,1.26425 -0.92485,1.37129 -0.0835,0.21958 -1.29989,1.91217 -6.08897,8.47256 -1.82901,2.5055 -3.6117,4.94791 -3.96154,5.42758 l -0.63608,0.87212 -3.74667,1.2282 c -3.45206,1.13163 -4.87238,1.59249 -11.66575,3.78531 -1.31133,0.42328 -7.57481,2.43827 -13.91882,4.47774 l -11.53458,3.70815 -1.323293,-0.0141 c -0.727812,-0.008 -4.043881,-0.0474 -7.369046,-0.0881 z m 8.898328,-9.43446 c 0,-0.0468 -0.01691,-0.0852 -0.03755,-0.0852 -0.02066,0 -0.06123,0.0383 -0.09018,0.0852 -0.02895,0.0468 -0.01204,0.0852 0.03755,0.0852 0.0496,0 0.09018,-0.0383 0.09018,-0.0852 z"
       id="path11516" />
  </g>
</svg>
