<?xml version="1.0" encoding="UTF-8" standalone="no"?>
<!-- Created with Inkscape (http://www.inkscape.org/) -->

<svg
   width="200mm"
   height="200mm"
   viewBox="0 0 200 200"
   version="1.1"
   id="svg5"
   inkscape:version="1.1.1 (3bf5ae0, 2021-09-20)"
   sodipodi:docname="svg_copper.svg"
   inkscape:export-filename="/home/jackdelahunt/Projects/Eiram/Assets/Resources/Sprites/New/copper.png"
   inkscape:export-xdpi="8.1280003"
   inkscape:export-ydpi="8.1280003"
   xmlns:inkscape="http://www.inkscape.org/namespaces/inkscape"
   xmlns:sodipodi="http://sodipodi.sourceforge.net/DTD/sodipodi-0.dtd"
   xmlns="http://www.w3.org/2000/svg"
   xmlns:svg="http://www.w3.org/2000/svg">
  <sodipodi:namedview
     id="namedview7"
     pagecolor="#ffffff"
     bordercolor="#666666"
     borderopacity="1.0"
     inkscape:pageshadow="2"
     inkscape:pageopacity="0.0"
     inkscape:pagecheckerboard="0"
     inkscape:document-units="mm"
     showgrid="false"
     width="200mm"
     inkscape:zoom="0.54929737"
     inkscape:cx="334.06313"
     inkscape:cy="350.4477"
     inkscape:window-width="1920"
     inkscape:window-height="1016"
     inkscape:window-x="0"
     inkscape:window-y="32"
     inkscape:window-maximized="1"
     inkscape:current-layer="layer1"
     inkscape:snap-global="false" />
  <defs
     id="defs2" />
  <g
     inkscape:label="Layer 1"
     inkscape:groupmode="layer"
     id="layer1">
    <rect
       style="fill:#7f7878;stroke:#7f7878;stroke-width:0.658579;fill-opacity:1;stroke-opacity:1"
       id="rect846"
       width="199.34142"
       height="199.34142"
       x="0.32928956"
       y="0.32928956" />
    <path
       style="fill:#898989;fill-opacity:1;stroke:#898989;stroke-width:0.428024;stroke-opacity:1"
       d="m -121.27891,43.01315 c -5.86865,-5.439587 -10.6434,-9.917806 -10.61058,-9.951601 0.0328,-0.03379 5.38914,2.744195 11.90293,6.173309 6.51379,3.429113 11.94824,6.234752 12.07655,6.234752 0.12831,0 7.82311,-1.411176 17.099554,-3.135947 l 16.866266,-3.135947 8.310481,-7.246996 c 4.570764,-3.98585 8.339931,-7.217548 8.375925,-7.181554 0.06508,0.06508 -13.941597,20.423214 -14.328976,20.826582 -0.111599,0.116205 -8.82223,1.781966 -19.356956,3.701685 -10.534724,1.919721 -19.269004,3.516384 -19.409494,3.548139 -0.14902,0.03368 -4.70086,-4.062674 -10.9257,-9.832422 z"
       id="path1188" />
    <path
       style="fill:#776f6f;fill-opacity:1;stroke:#776f6f;stroke-width:0.15133;stroke-opacity:1"
       d="m -132.09552,29.716319 c 0.0412,-0.121174 14.94168,-19.242749 15.01758,-19.271878 0.15718,-0.06031 33.440272,6.643406 44.506739,8.964328 6.200929,1.300496 11.251851,2.372058 11.224273,2.38125 -0.04653,0.0155 -53.735322,-7.714583 -54.086752,-7.787389 -0.14356,-0.02974 -0.90753,0.683263 -8.00786,7.473688 -4.31703,4.128612 -8.03521,7.68621 -8.26261,7.905771 -0.22741,0.219562 -0.40352,0.369965 -0.39137,0.33423 z"
       id="path2706" />
    <path
       style="fill:#847c7c;fill-opacity:1;stroke:#847c7c;stroke-width:0.428024;stroke-opacity:1"
       d="m 69.455035,42.331957 c -5.86865,-5.439587 -10.6434,-9.917806 -10.61058,-9.951601 0.0328,-0.03379 5.38914,2.744195 11.90293,6.173309 6.51379,3.429113 11.94824,6.234752 12.07655,6.234752 0.12831,0 7.82311,-1.411176 17.099554,-3.135947 l 16.866261,-3.135947 8.31049,-7.246996 c 4.57076,-3.98585 8.33993,-7.217548 8.37592,-7.181554 0.0651,0.06508 -13.9416,20.423214 -14.32898,20.826582 -0.11159,0.116205 -8.82223,1.781966 -19.356951,3.701685 -10.534724,1.919721 -19.269004,3.516384 -19.409494,3.548139 -0.14902,0.03368 -4.70086,-4.062674 -10.9257,-9.832422 z"
       id="path3505" />
    <path
       style="fill:#7c7474;fill-opacity:1;stroke:#7c7474;stroke-width:0.15133;stroke-opacity:1"
       d="m 58.638425,29.035126 c 0.0412,-0.121174 14.94168,-19.2427486 15.01758,-19.2718776 0.15718,-0.06031 33.440275,6.6434056 44.506735,8.9643276 6.20093,1.300496 11.25185,2.372058 11.22428,2.38125 -0.0465,0.0155 -53.735325,-7.714583 -54.086755,-7.787389 -0.14356,-0.02974 -0.90753,0.683263 -8.00786,7.473688 -4.31703,4.128612 -8.03521,7.68621 -8.26261,7.905771 -0.22741,0.219562 -0.40352,0.369965 -0.39137,0.33423 z"
       id="path3507" />
    <path
       style="fill:#ff9c5a;fill-opacity:1;stroke:#ff9c5a;stroke-width:0.428024;stroke-opacity:1"
       d="m 275.27528,185.11803 c -5.86865,-5.43959 -10.6434,-9.91781 -10.61058,-9.9516 0.0328,-0.0338 5.38914,2.74419 11.90293,6.17331 6.51379,3.42911 11.94824,6.23475 12.07655,6.23475 0.12831,0 7.82311,-1.41118 17.09956,-3.13595 l 16.86626,-3.13594 8.31049,-7.247 c 4.57076,-3.98585 8.33993,-7.21755 8.37592,-7.18155 0.0651,0.0651 -13.9416,20.42321 -14.32898,20.82658 -0.11159,0.1162 -8.82223,1.78196 -19.35695,3.70168 -10.53473,1.91972 -19.26901,3.51639 -19.4095,3.54814 -0.14902,0.0337 -4.70086,-4.06267 -10.9257,-9.83242 z"
       id="path3505-1" />
    <path
       style="fill:#ff795a;fill-opacity:1;stroke:#ff795a;stroke-width:0.15133;stroke-opacity:1"
       d="m 264.72517,173.75384 c -0.002,-0.12798 14.67518,-21.17539 14.75108,-21.20452 0.15718,-0.0603 33.44028,6.64341 44.50674,8.96433 6.20093,1.30049 15.2385,5.32371 15.21093,5.3329 -0.0465,0.0155 -57.72198,-10.66623 -58.07341,-10.73904 -0.14356,-0.0297 -0.90753,0.68326 -8.00786,7.47369 -4.31703,4.12861 -8.28396,11.15948 -8.51136,11.37904 -0.22741,0.21956 0.13179,-0.70044 0.12388,-1.2064 z"
       id="path3507-2"
       sodipodi:nodetypes="ssssssss" />
    <path
       style="fill:#847c7c;fill-opacity:1;stroke:#847c7c;stroke-width:0.428024;stroke-opacity:1"
       d="m 143.04648,188.34483 c -7.80191,-1.77777 -14.17583,-3.26969 -14.16429,-3.31537 0.0115,-0.0457 6.03928,-0.31704 13.39499,-0.60302 7.35571,-0.286 13.46495,-0.57246 13.57608,-0.6366 0.11113,-0.0641 6.07026,-5.13268 13.24252,-11.26342 l 13.04047,-11.1468 3.5753,-10.43074 c 1.96641,-5.73691 3.61553,-10.41995 3.66469,-10.40677 0.0889,0.0238 -1.86621,24.65752 -2.0001,25.20051 -0.0386,0.15643 -6.75027,5.95323 -14.91488,12.88178 -8.16462,6.92856 -14.93133,12.67734 -15.03714,12.77507 -0.11222,0.10367 -6.10221,-1.16895 -14.37764,-3.05464 z"
       id="path3509" />
    <path
       style="fill:#7c7474;fill-opacity:1;stroke:#7c7474;stroke-width:0.15133;stroke-opacity:1"
       d="m 127.0316,182.23512 c -0.0249,-0.12554 3.32246,-24.135 3.37364,-24.19817 0.10598,-0.1308 32.28363,-10.96149 43.0285,-14.48298 6.02073,-1.97322 10.931,-3.56987 10.91172,-3.54813 -0.0325,0.0367 -50.39676,20.17838 -50.73753,20.29099 -0.1392,0.046 -0.44448,1.04541 -3.19988,10.4758 -1.67529,5.73373 -3.11734,10.67355 -3.20455,10.97738 -0.0872,0.30384 -0.16456,0.52213 -0.1719,0.48511 z"
       id="path3511" />
    <path
       style="fill:#898989;fill-opacity:1;stroke:#898989;stroke-width:1.61773;stroke-opacity:1"
       d="m -327.60637,546.69957 -105.22646,-8.63283 -38.15602,-28.72844 c -20.9858,-15.80064 -38.02906,-28.85539 -37.87391,-29.01054 0.15516,-0.15516 17.30692,6.86972 38.11504,15.61083 l 37.83293,15.89294 98.83098,8.71862 98.83097,8.71861 63.26209,-30.43048 c 34.79415,-16.73676 63.37607,-30.3165 63.51539,-30.17718 0.41607,0.41608 -111.80859,86.47604 -112.8998,86.5777 -0.55261,0.0515 -48.35665,-3.79118 -106.23121,-8.53923 z"
       id="path3882"
       transform="scale(0.26458333)" />
    <path
       style="fill:#776f6f;fill-opacity:1;stroke:#776f6f;stroke-width:1.61773;stroke-opacity:1"
       d="m -480.96279,434.01168 30.08834,-34.56306 89.14506,-12.06569 c 49.02978,-6.63613 90.09185,-12.08173 91.24904,-12.10132 1.93893,-0.0328 110.30707,26.33626 113.02527,27.5023 1.14457,0.491 52.58517,53.69959 52.25521,54.05121 -0.0866,0.0923 -14.97617,-8.96358 -33.08785,-20.12423 l -32.93036,-20.29208 -48.12433,-12.01427 -48.12433,-12.01428 -87.25901,13.56812 -87.25901,13.56811 -34.15512,24.52412 c -18.78531,13.48827 -34.32524,24.52412 -34.53318,24.52412 -0.20793,0 13.16169,-15.55337 29.71027,-34.56305 z"
       id="path4038"
       transform="scale(0.26458333)" />
    <path
       style="fill:#847c7c;fill-opacity:1;stroke:#847c7c;stroke-width:0.428024;stroke-opacity:1"
       d="m 181.71073,63.926262 -27.84117,-2.284103 -10.09545,-7.601066 c -5.55249,-4.180586 -10.06186,-7.634655 -10.02081,-7.675705 0.0411,-0.04105 4.57913,1.817613 10.08461,4.130365 l 10.00996,4.205007 26.14903,2.306801 26.14903,2.306799 16.7381,-8.051397 c 9.20595,-4.428268 16.76825,-8.021241 16.80511,-7.984379 0.11008,0.110088 -29.58269,22.880118 -29.87141,22.907016 -0.14621,0.01363 -12.79436,-1.003083 -28.107,-2.259338 z"
       id="path4433" />
    <path
       style="fill:#7c7474;fill-opacity:1;stroke:#7c7474;stroke-width:0.428024;stroke-opacity:1"
       d="m 141.13517,34.110925 7.96087,-9.14481 23.5863,-3.19238 c 12.97247,-1.755809 23.83681,-3.196624 24.14298,-3.201808 0.51301,-0.0087 29.18541,6.968136 29.9046,7.276651 0.30284,0.12991 13.91316,14.208016 13.82586,14.301049 -0.0229,0.02442 -3.96245,-2.371614 -8.7545,-5.324536 l -8.71282,-5.368946 -12.73289,-3.178776 -12.7329,-3.178778 -23.08728,3.589898 -23.08728,3.589896 -9.03688,6.488673 c -4.97028,3.568772 -9.08188,6.488674 -9.1369,6.488674 -0.055,0 3.48236,-4.115163 7.86084,-9.144807 z"
       id="path4435" />
    <path
       style="fill:#847c7c;fill-opacity:1;stroke:#847c7c;stroke-width:0.428024;stroke-opacity:1"
       d="m 66.778748,110.58796 27.84117,-2.2841 10.095452,-7.60106 c 5.55249,-4.180595 10.06185,-7.634665 10.0208,-7.675715 -0.041,-0.041 -4.57912,1.81761 -10.0846,4.13037 l -10.009962,4.205005 -26.14903,2.3068 -26.14903,2.3068 -16.738101,-8.051395 C 16.399497,93.496395 8.8371974,89.903419 8.8003374,89.940281 8.6902574,90.050369 38.383028,112.8204 38.671748,112.8473 c 0.14621,0.0136 12.79436,-1.00308 28.107,-2.25934 z"
       id="path4437" />
    <path
       style="fill:#7c7474;fill-opacity:1;stroke:#7c7474;stroke-width:0.428024;stroke-opacity:1"
       d="m 107.3543,80.772622 -7.960871,-9.14481 -23.586291,-3.19238 c -12.97247,-1.755809 -23.83681,-3.196624 -24.14298,-3.201808 -0.51301,-0.0087 -29.185411,6.968136 -29.904601,7.276651 -0.30284,0.12991 -13.9131596,14.208016 -13.8258596,14.301049 0.0229,0.02442 3.9624496,-2.371614 8.7544996,-5.324536 l 8.71282,-5.368946 12.732891,-3.178776 12.7329,-3.178778 23.08728,3.589898 23.08728,3.589896 9.036872,6.488673 c 4.97028,3.568772 9.08189,6.488674 9.13691,6.488674 0.055,0 -3.48237,-4.115163 -7.86085,-9.144807 z"
       id="path4439" />
    <path
       style="fill:#898989;fill-opacity:1;stroke:#898989;stroke-width:2.28782;stroke-opacity:1"
       d="m -730.02352,364.96378 c -25.78294,-0.33129 -55.27516,-0.66199 -65.53827,-0.7349 l -18.6602,-0.13257 -28.80328,-32.53897 c -15.8418,-17.89644 -28.66201,-32.68989 -28.48935,-32.87433 0.17266,-0.18445 13.74856,8.24701 30.16866,18.73658 16.4201,10.48956 30.30499,19.33077 30.8553,19.64714 0.55031,0.31636 31.47618,1.40443 68.72416,2.41793 37.24797,1.01349 71.26529,1.94912 75.59405,2.07917 l 7.87047,0.23646 34.35192,-63.51876 c 18.89356,-34.93531 34.50592,-63.36476 34.69415,-63.17654 0.18822,0.18823 -11.41418,34.19905 -25.78311,75.57962 l -26.12532,75.2374 -20.99056,-0.17794 c -11.5448,-0.0979 -42.08568,-0.449 -67.86862,-0.78029 z"
       id="path4515"
       transform="scale(0.26458333)" />
    <path
       style="fill:#776f6f;fill-opacity:1;stroke:#776f6f;stroke-width:2.28782;stroke-opacity:1"
       d="m -866.37416,282.59808 c 0.26996,-0.26996 25.01748,-19.53449 54.9945,-42.81006 l 54.50366,-42.31923 73.73055,0.58888 c 40.55181,0.32389 76.14834,0.84857 79.1034,1.16596 4.58041,0.49196 -5.3972,2.1546 -67.64959,11.27297 l -73.02242,10.69589 -60.3929,30.94822 c -54.4444,27.89991 -62.92629,32.11646 -61.2672,30.45737 z"
       id="path4554"
       transform="scale(0.26458333)" />
    <path
       style="fill:#847c7c;fill-opacity:1;stroke:#847c7c;stroke-width:0.605319;stroke-opacity:1"
       d="m 47.308955,189.88673 c -6.821736,-0.0877 -14.624886,-0.17515 -17.340333,-0.19445 l -4.937178,-0.0351 -7.620868,-8.60927 c -4.191476,-4.7351 -7.5834901,-8.6492 -7.5378071,-8.698 0.045683,-0.0488 3.6376401,2.18202 7.9821241,4.95739 4.344485,2.77536 8.018196,5.1146 8.163798,5.1983 0.145603,0.0837 8.328073,0.37159 18.183268,0.63975 9.855191,0.26815 18.855607,0.5157 20.000925,0.55011 l 2.082395,0.0626 9.088946,-16.806 c 4.998921,-9.2433 9.129691,-16.76526 9.179493,-16.71546 0.0498,0.0498 -3.020001,9.0485 -6.821781,19.99711 l -6.912324,19.90656 -5.553752,-0.0471 c -3.054562,-0.0259 -11.13517,-0.1188 -17.956906,-0.20645 z"
       id="path4869" />
    <path
       style="fill:#7c7474;fill-opacity:1;stroke:#7c7474;stroke-width:0.605319;stroke-opacity:1"
       d="m 11.232849,168.09414 c 0.07143,-0.0714 6.619208,-5.1685 14.550628,-11.32683 l 14.42076,-11.19697 19.507874,0.15581 c 10.729333,0.0857 20.147582,0.22452 20.929441,0.3085 1.2119,0.13016 -1.428009,0.57007 -17.898954,2.98264 l -19.320515,2.82995 -15.978954,8.18838 c -14.405081,7.38185 -16.649248,8.49748 -16.21028,8.05852 z"
       id="path4871" />
    <path
       style="fill:#847c7c;fill-opacity:1;stroke:#847c7c;stroke-width:0.605319;stroke-opacity:1"
       d="m 159.02455,118.0209 c -6.82173,-0.0876 -14.62488,-0.17515 -17.34033,-0.19444 l -4.93718,-0.0351 -7.62087,-8.60927 c -4.19147,-4.7351 -7.58349,-8.6492 -7.5378,-8.698 0.0457,-0.0488 3.63763,2.18203 7.98212,4.95739 4.34448,2.77536 8.01819,5.1146 8.1638,5.19831 0.1456,0.0837 8.32807,0.37159 18.18326,0.63974 9.8552,0.26815 18.85561,0.51571 20.00093,0.55011 l 2.0824,0.0626 9.08894,-16.806007 c 4.99892,-9.243301 9.12969,-16.76526 9.17949,-16.71546 0.0498,0.0498 -3.02,9.048499 -6.82178,19.997108 l -6.91232,19.906559 -5.55375,-0.0471 c -3.05456,-0.0259 -11.13517,-0.1188 -17.95691,-0.20645 z"
       id="path4873" />
    <path
       style="fill:#7c7474;fill-opacity:1;stroke:#7c7474;stroke-width:0.605319;stroke-opacity:1"
       d="m 122.94845,96.22831 c 0.0714,-0.07143 6.6192,-5.168501 14.55062,-11.326828 l 14.42076,-11.196963 19.50788,0.155808 c 10.72933,0.0857 20.14758,0.224517 20.92944,0.308493 1.2119,0.130165 -1.42801,0.570071 -17.89896,2.98264 l -19.32051,2.829954 -15.97895,8.188383 c -14.40509,7.381852 -16.64925,8.49748 -16.21028,8.058513 z"
       id="path4875" />
    <path
       style="fill:#847c7c;fill-opacity:1;stroke:#847c7c;stroke-width:0.265295;stroke-opacity:1"
       d="m 43.222071,138.45501 c 4.549655,-1.96751 8.262465,-3.59918 8.250702,-3.62592 -0.0118,-0.0267 -3.69848,0.48398 -8.192694,1.13492 -4.494213,0.65094 -8.231958,1.16154 -8.306099,1.13467 -0.07414,-0.0269 -4.219811,-2.4677 -9.212599,-5.42405 l -9.077796,-5.3752 -3.258418,-5.99922 c -1.792134,-3.29957 -3.28171,-5.98808 -3.310179,-5.97447 -0.05148,0.0246 3.705742,14.92163 3.843665,15.2398 0.03975,0.0916 4.718147,2.89485 10.396476,6.2293 5.678332,3.33444 10.385128,6.10197 10.459543,6.15005 0.07892,0.0511 3.581605,-1.40295 8.407399,-3.48988 z"
       id="path4877" />
    <path
       style="fill:#7c7474;fill-opacity:1;stroke:#7c7474;stroke-width:0.0937965;stroke-opacity:1"
       d="m 52.304342,132.90641 c 0.002,-0.0798 -4.535049,-14.43739 -4.572701,-14.4704 -0.07797,-0.0684 -20.737619,-3.09944 -27.626443,-4.05321 -3.860047,-0.53444 -7.006831,-0.96255 -6.992851,-0.95138 0.02346,0.0191 32.692749,6.7204 32.911322,6.75122 0.08929,0.0126 0.378858,0.59159 3.035273,6.06905 1.615109,3.33033 3.005808,6.19968 3.090447,6.37633 0.08463,0.17665 0.154354,0.30193 0.154953,0.27839 z"
       id="path4879" />
    <path
       style="fill:#847c7c;fill-opacity:1;stroke:#847c7c;stroke-width:0.269875;stroke-opacity:1"
       d="m 116.72693,145.12847 22.4744,3.15386 8.7694,-2.10488 c 4.82317,-1.15768 8.7456,-2.1261 8.71653,-2.15206 -0.0291,-0.0259 -3.82842,0.17288 -8.44301,0.44186 l -8.39017,0.48905 -21.12323,-2.8847 -21.123242,-2.88471 -12.648875,-6.41646 c -6.95689,-3.52905 -12.675756,-6.4066 -12.708616,-6.39455 -0.0981,0.0359 21.563632,15.48931 21.792063,15.54627 0.115617,0.0292 10.32382,1.4717 22.68475,3.20632 z"
       id="path4881" />
    <path
       style="fill:#7c7474;fill-opacity:1;stroke:#7c7474;stroke-width:0.269875;stroke-opacity:1"
       d="m 151.90555,137.02103 -5.5294,-5.60123 -18.57037,-5.13116 c -10.21369,-2.82212 -18.7703,-5.17142 -19.01469,-5.22063 -0.40951,-0.0822 -23.978209,-1.11241 -24.581606,-1.0742 -0.254067,0.0161 -12.427319,4.6911 -12.36602,4.74905 0.01608,0.0152 3.385973,-0.53273 7.488613,-1.21764 l 7.459345,-1.24531 10.473826,0.41877 10.473812,0.41877 18.1349,5.24565 18.1349,5.24565 6.63305,4.49148 c 3.64818,2.47033 6.66906,4.49837 6.71307,4.50677 0.044,0.008 -2.40825,-2.50529 -5.44943,-5.58597 z"
       id="path4883" />
    <path
       style="fill:#ff9c5a;fill-opacity:1;stroke:#ff9c5a;stroke-width:0.269875;stroke-opacity:1"
       d="m 340.61682,135.08939 22.4744,3.15386 8.7694,-2.10488 c 4.82317,-1.15768 8.7456,-2.1261 8.71653,-2.15206 -0.0291,-0.0259 -3.82842,0.17288 -8.44301,0.44186 l -8.39017,0.48905 -21.12323,-2.8847 -21.12324,-2.88471 -12.64888,-6.41646 c -6.95689,-3.52905 -12.67576,-6.4066 -12.70862,-6.39455 -0.0981,0.0359 21.56364,15.48931 21.79207,15.54627 0.11561,0.0292 10.32382,1.4717 22.68475,3.20632 z"
       id="path4881-6" />
    <path
       style="fill:#ff795a;fill-opacity:1;stroke:#ff795a;stroke-width:0.269875;stroke-opacity:1"
       d="m 375.79544,126.98195 -5.5294,-5.60123 -18.57037,-5.13116 c -10.21369,-2.82212 -18.7703,-5.17142 -19.01469,-5.22063 -0.40951,-0.0822 -23.97821,-1.11241 -24.58161,-1.0742 -0.25407,0.0161 -12.01336,6.21852 -11.95206,6.27647 0.0161,0.0152 2.97201,-2.06015 7.07466,-2.74506 l 7.45934,-1.24531 10.47383,0.41877 10.47381,0.41877 18.1349,5.24565 18.1349,5.24565 6.63305,4.49148 c 3.64818,2.47033 5.93869,5.85125 5.9827,5.85965 0.044,0.008 -1.67788,-3.85817 -4.71906,-6.93885 z"
       id="path4883-7"
       sodipodi:nodetypes="scscssscccccscs" />
    <path
       style="fill:#847c7c;fill-opacity:1;stroke:#847c7c;stroke-width:0.428024;stroke-opacity:1"
       d="M -18.28898,63.926262 -46.13015,61.642159 -56.2256,54.041093 c -5.55249,-4.180586 -10.06186,-7.634655 -10.02081,-7.675705 0.0411,-0.04105 4.57913,1.817613 10.08461,4.130365 l 10.00996,4.205007 26.14903,2.306801 L 6.1462205,59.31436 22.88432,51.262963 C 32.09027,46.834695 39.65257,43.241722 39.68943,43.278584 39.79951,43.388672 10.10674,66.158702 9.8180205,66.1856 9.6718105,66.19923 -2.9763395,65.182517 -18.28898,63.926262 Z"
       id="path6757" />
    <path
       style="fill:#7c7474;fill-opacity:1;stroke:#7c7474;stroke-width:0.428024;stroke-opacity:1"
       d="m -58.86454,34.110925 7.96087,-9.14481 23.5863,-3.19238 c 12.97247,-1.755809 23.8368105,-3.196624 24.1429805,-3.201808 0.51301,-0.0087 29.1854095,6.968136 29.9045995,7.276651 0.30284,0.12991 13.91316,14.208016 13.82586,14.301049 -0.0229,0.02442 -3.96245,-2.371614 -8.7545,-5.324536 L 23.08875,29.456145 10.35586,26.277369 -2.3770395,23.098591 -25.46432,26.688489 l -23.08728,3.589896 -9.03688,6.488673 c -4.97028,3.568772 -9.08188,6.488674 -9.1369,6.488674 -0.055,0 3.48236,-4.115163 7.86084,-9.144807 z"
       id="path6759" />
    <path
       style="fill:#ff8c5a;stroke:#ff8c5a;stroke-width:2.91779532;stroke-linecap:round;stroke-linejoin:round;stroke-miterlimit:4;stroke-dasharray:none;stroke-opacity:1;fill-opacity:1"
       d="m 1294.6936,498.34458 -79.3309,-10.86875 -31.859,-16.16954 c -17.5225,-8.89325 -38.9088,-19.69141 -47.5251,-23.99592 l -15.6661,-7.82639 3.7586,-2.0453 c 6.0832,-3.31021 11.0075,-5.24656 17.299,-6.80232 1.757,-0.43447 9.9286,-1.90693 18.1593,-3.27214 l 14.9648,-2.48221 39.5842,1.61492 39.5843,1.61493 68.2485,19.7702 68.2485,19.77019 12.5291,8.48139 c 6.8911,4.66476 13.8326,9.44656 15.4256,10.62621 5.6834,4.20863 10.9117,9.293 16.5343,16.07925 1.2421,1.49912 2.2203,2.76372 2.1738,2.81021 -0.046,0.0465 -4.2024,0.30891 -9.2354,0.58314 -5.033,0.27423 -19.0683,1.07333 -31.1897,1.77577 -12.1213,0.70244 -22.1139,1.26095 -22.2058,1.24113 -0.092,-0.0198 -35.8659,-4.92696 -79.498,-10.90477 z"
       id="path1308"
       transform="scale(0.26458333)" />
    <path
       style="fill:#ff9c5a;fill-opacity:1;stroke:#ff9c5a;stroke-width:0.235255;stroke-opacity:1"
       d="m 167.51398,55.89454 4.96741,-10.576483 -3.48714,-4.042877 c -1.91791,-2.223594 -3.52148,-4.031234 -3.56349,-4.017002 -0.0419,0.01425 0.30888,1.783772 0.77977,3.932319 l 0.85615,3.906453 -4.53939,9.938609 -4.5394,9.93861 -10.3453,6.069471 c -5.6899,3.33822 -10.32906,6.081782 -10.30922,6.096826 0.0591,0.04489 25.03838,-10.461763 25.12938,-10.569885 0.0467,-0.05473 2.31915,-4.858977 5.05123,-10.676041 z"
       id="path4881-6-2" />
    <path
       style="fill:#ff795a;fill-opacity:1;stroke:#ff795a;stroke-width:0.235255;stroke-opacity:1"
       d="m 154.07231,39.667956 -9.07076,2.723668 -8.21186,8.80283 c -4.51649,4.841553 -8.27589,8.897232 -8.35417,9.012617 -0.13074,0.193338 -1.63599,11.227434 -1.56948,11.508308 0.028,0.11826 10.20169,5.454423 10.29551,5.424327 0.0246,-0.0084 -3.37246,-1.336238 -4.51618,-3.235199 l -2.07952,-3.452649 0.60541,-4.90252 0.60541,-4.902521 8.40123,-8.602317 8.40123,-8.602317 7.2577,-3.211197 c 3.99177,-1.766162 9.47448,-2.921133 9.48783,-2.941902 0.0127,-0.0207 -6.26343,0.880855 -11.25235,2.378872 z"
       id="path4883-7-37"
       sodipodi:nodetypes="scscssscccccscs" />
    <path
       style="fill:#ff8c5a;fill-opacity:1;stroke:#ff8c5a;stroke-width:0.672969;stroke-linecap:round;stroke-linejoin:round;stroke-miterlimit:4;stroke-dasharray:none;stroke-opacity:1"
       d="m 162.23685,55.07108 -4.5257,9.87598 -6.89778,4.044825 c -3.79378,2.224651 -8.39997,4.939489 -10.23598,6.032954 l -3.3382,1.98814 -0.8874,-0.450855 c -1.43623,-0.729692 -2.27898,-1.325317 -2.96056,-2.092446 -0.19035,-0.214229 -0.83966,-1.214246 -1.44296,-2.222287 l -1.09688,-1.832778 0.61926,-4.902505 0.61927,-4.902515 8.37773,-8.565749 8.37775,-8.565769 3.62608,-1.604831 c 1.99435,-0.882672 4.03896,-1.772363 4.5436,-1.97708 1.80035,-0.73039 3.97846,-1.410373 6.88825,-2.15042 0.64278,-0.163491 1.18514,-0.292793 1.20524,-0.287364 0.0201,0.0057 0.14093,0.51727 0.26863,1.137407 0.12772,0.620147 0.49841,2.349276 0.8239,3.842535 0.32551,1.49324 0.58499,2.72439 0.57662,2.735881 -0.008,0.01142 -2.05174,4.46507 -4.54087,9.896877 z"
       id="path1308-59" />
    <path
       style="fill:#ff9c5a;fill-opacity:1;stroke:#ff9c5a;stroke-width:0.339384;stroke-opacity:1"
       d="m 115.69146,120.0292 35.83703,3.29616 13.4545,-2.07058 c 7.39997,-1.13881 13.41371,-2.09206 13.36388,-2.11834 -0.0499,-0.0262 -5.99207,0.15316 -13.20503,0.39875 l -13.11444,0.44653 -33.66989,-3.01795 -33.669898,-3.01796 -20.905576,-6.52608 c -11.498077,-3.58934 -20.946277,-6.51633 -20.996033,-6.50437 -0.14856,0.0356 36.361186,15.70516 36.729374,15.76373 0.186418,0.0299 16.465715,1.53722 36.176083,3.35011 z"
       id="path4881-6-9" />
    <path
       style="fill:#ff795a;fill-opacity:1;stroke:#ff795a;stroke-width:0.339384;stroke-opacity:1"
       d="m 169.71774,112.0615 -9.58219,-5.66696 -30.01224,-5.26482 c -16.50669,-2.895616 -30.332938,-5.306406 -30.725008,-5.357266 -0.65692,-0.0849 -37.877761,-1.2499 -38.820439,-1.21473 -0.396919,0.0148 -17.902686,6.192756 -17.797113,6.251396 0.02773,0.0154 4.346246,-2.057086 10.688302,-2.724046 l 11.530969,-1.21266 16.53459,0.47841 16.534571,0.4784 29.345668,5.377646 29.34567,5.37768 11.14152,4.55613 c 6.12784,2.5059 10.26541,5.92079 10.33593,5.92948 0.0704,0.008 -3.24999,-3.89184 -8.52023,-7.00866 z"
       id="path4883-7-2"
       sodipodi:nodetypes="scscssscccccscs" />
    <path
       style="fill:#ff8c5a;fill-opacity:1;stroke:#ff8c5a;stroke-width:0.970839;stroke-linecap:round;stroke-linejoin:round;stroke-miterlimit:4;stroke-dasharray:none;stroke-opacity:1"
       d="m 118.22473,116.78342 -33.458378,-3.00815 -13.932063,-4.35126 c -7.662652,-2.3932 -17.012614,-5.29917 -20.77768,-6.45772 l -6.845617,-2.10645 1.477793,-0.53919 c 2.391786,-0.872646 4.359083,-1.381146 6.911135,-1.786326 0.712693,-0.11317 4.050374,-0.49348 7.417144,-0.84514 l 6.121349,-0.63939 16.535127,0.48696 16.535202,0.48697 29.221488,5.362356 29.2215,5.36235 5.56807,2.27636 c 3.06249,1.252 6.15085,2.53521 6.86305,2.85161 2.54092,1.12879 4.92927,2.49012 7.55307,4.30518 0.57962,0.40094 1.03961,0.73907 1.02222,0.75138 -0.0174,0.0123 -1.73527,0.0762 -3.81755,0.14198 -2.08226,0.0658 -7.88755,0.25836 -12.90069,0.42794 -5.01308,0.1696 -9.14666,0.30394 -9.18573,0.29853 -0.039,-0.005 -15.12727,-1.3635 -33.52944,-3.01799 z"
       id="path1308-0" />
    <path
       style="fill:#ff9c5a;fill-opacity:1;stroke:#ff9c5a;stroke-width:0.269875;stroke-opacity:1"
       d="m 56.633623,176.53045 22.675975,-0.9196 8.251053,-3.64045 c 4.538087,-2.00225 8.223847,-3.65708 8.190597,-3.67742 -0.0333,-0.0203 -3.73566,0.85531 -8.227587,1.94588 l -8.167155,1.98284 -21.298448,0.94257 -21.29846,0.94256 -13.593063,-4.04892 c -7.47619,-2.2269 -13.6177442,-4.03441 -13.6479172,-4.01667 -0.09009,0.0529 23.9877512,11.37968 24.2226872,11.39483 0.11897,0.008 10.420523,-0.39984 22.892318,-0.90562 z"
       id="path4881-6-5" />
    <path
       style="fill:#ff795a;fill-opacity:1;stroke:#ff795a;stroke-width:0.269875;stroke-opacity:1"
       d="m 89.793101,162.25757 -6.44264,-4.52112 -19.188886,-1.72453 c -10.553872,-0.94848 -19.392795,-1.72836 -19.642047,-1.73304 -0.417609,-0.008 -23.790118,3.19724 -24.376935,3.34283 -0.247086,0.0613 -10.7063662,8.26828 -10.6356832,8.31433 0.01856,0.0121 2.5552882,-2.55883 6.4691022,-3.96698 l 7.116,-2.56029 10.379654,-1.46262 10.379634,-1.46262 18.780942,1.91511 18.780941,1.91512 7.329838,3.23175 c 4.031417,1.77748 6.890057,4.69384 6.934867,4.69423 0.0447,0 -2.34133,-3.49556 -5.884787,-5.98217 z"
       id="path4883-7-3"
       sodipodi:nodetypes="scscssscccccscs" />
    <path
       style="fill:#ff8c5a;fill-opacity:1;stroke:#ff8c5a;stroke-width:0.772001;stroke-linecap:round;stroke-linejoin:round;stroke-miterlimit:4;stroke-dasharray:none;stroke-opacity:1"
       d="m 57.960729,173.00019 -21.165403,0.92753 -9.058967,-2.70041 C 22.753916,169.74209 16.675473,167.94398 14.22871,167.2315 l -4.4486722,-1.29542 0.8815452,-0.7104 c 1.426762,-1.14976 2.616917,-1.887 4.180993,-2.58993 0.436789,-0.19629 2.494217,-0.96657 4.572102,-1.71171 l 3.777955,-1.35483 10.380675,-1.45416 10.380707,-1.45415 18.702056,1.91443 18.702066,1.91444 3.663104,1.61447 c 2.01473,0.88796 4.04812,1.80399 4.51866,2.03563 1.67876,0.82641 3.280507,1.90233 5.065497,3.40261 0.39433,0.33141 0.70885,0.61428 0.69895,0.62859 -0.01,0.0143 -1.07931,0.27939 -2.37647,0.58914 -1.29715,0.30977 -4.912847,1.1824 -8.034917,1.93926 -3.12204,0.75688 -5.696772,1.37547 -5.721637,1.37466 -0.0248,-5.7e-4 -9.569607,0.41591 -21.210595,0.92606 z"
       id="path1308-5" />
    <path
       style="fill:#ff8c5a;fill-opacity:1;stroke:#ff8c5a;stroke-width:3.75606;stroke-linecap:round;stroke-linejoin:round;stroke-miterlimit:4;stroke-dasharray:none;stroke-opacity:1"
       d="m 1070.3843,696.63496 c -53.7842,-27.86618 -65.7863,-34.00879 -67.5,-34.5461 -2.1326,-0.66865 7.8596,-16.7208 19.0685,-30.63289 8.1821,-10.1554 39.1648,-39.94174 41.5571,-39.95247 1.9233,-0.009 211.869,38.50135 214.5182,39.34868 0.9777,0.31271 -1.4378,3.06507 -5.7928,6.60081 -6.6299,5.38263 -42.1651,36.03233 -50.594,43.63811 -2.7588,2.48938 -12.2541,4.57237 -66.5099,14.59025 -34.8104,6.42745 -63.4848,11.67248 -63.721,11.65562 -0.2362,-0.0169 -9.6979,-4.83276 -21.0261,-10.70201 z"
       id="path5603"
       transform="scale(0.26458333)" />
    <path
       style="fill:#ff9c5a;fill-opacity:1;stroke:#ff9c5a;stroke-width:0.428024;stroke-opacity:1"
       d="m 125.33155,165.6538 c -5.86865,-5.4396 -10.6434,-9.91782 -10.61058,-9.95161 0.0328,-0.0338 5.38914,2.74419 11.90293,6.17331 6.51379,3.42911 11.94824,6.23475 12.07655,6.23475 0.12831,0 7.82311,-1.41118 17.09956,-3.13595 l 16.86626,-3.13594 8.31049,-7.247 c 4.57076,-3.98585 8.33993,-7.21755 8.37592,-7.18155 0.0651,0.0651 -13.9416,20.42321 -14.32898,20.82658 -0.11159,0.1162 -8.82223,1.78196 -19.35695,3.70168 -10.53473,1.91973 -19.26901,3.51639 -19.4095,3.54814 -0.14902,0.0337 -4.70086,-4.06267 -10.9257,-9.83241 z"
       id="path3505-1-6" />
    <path
       style="fill:#ff795a;fill-opacity:1;stroke:#ff795a;stroke-width:0.15133;stroke-opacity:1"
       d="m 114.78144,154.2896 c -0.002,-0.12798 14.67518,-21.17539 14.75108,-21.20452 0.15718,-0.0603 33.44028,6.64341 44.50674,8.96433 6.20093,1.30049 15.2385,5.32371 15.21093,5.3329 -0.0465,0.0155 -57.72198,-10.66623 -58.07341,-10.73904 -0.14356,-0.0297 -0.90753,0.68326 -8.00786,7.47369 -4.31703,4.12862 -8.28396,11.15948 -8.51136,11.37904 -0.22741,0.21956 0.13179,-0.70043 0.12388,-1.2064 z"
       id="path3507-2-2"
       sodipodi:nodetypes="ssssssss" />
    <path
       style="fill:#ff8c5a;fill-opacity:1;stroke:#ff8c5a;stroke-width:0.993791;stroke-linecap:round;stroke-linejoin:round;stroke-miterlimit:4;stroke-dasharray:none;stroke-opacity:1"
       d="m 133.26211,164.85376 c -14.2304,-7.37292 -17.40595,-8.99816 -17.85937,-9.14032 -0.56425,-0.17691 2.07952,-4.42404 5.04521,-8.10495 2.16484,-2.68695 10.36235,-10.56792 10.99531,-10.57076 0.50888,-0.002 56.05701,10.18682 56.75794,10.41101 0.25869,0.0827 -0.38042,0.81096 -1.53268,1.74646 -1.75416,1.42415 -11.15618,9.53355 -13.38632,11.54592 -0.72994,0.65864 -3.24224,1.20977 -17.59742,3.86033 -9.21025,1.7006 -16.79702,3.08835 -16.85951,3.08389 -0.0625,-0.004 -2.5659,-1.27867 -5.56316,-2.83158 z"
       id="path5603-6" />
    <path
       style="fill:#ff9c5a;fill-opacity:1;stroke:#ff9c5a;stroke-width:0.514259;stroke-opacity:1"
       d="m 96.868751,65.814467 c 9.528609,-3.250073 17.293699,-5.945364 17.255809,-5.989525 -0.0378,-0.04415 -8.21043,0.79921 -18.1612,1.874181 -9.950756,1.074963 -18.23942,1.918151 -18.41924,1.873748 -0.179819,-0.0444 -10.625337,-4.077284 -23.212269,-8.961955 L 31.446535,45.729705 21.537183,35.818113 c -5.45013,-5.451373 -9.957671,-9.893189 -10.016739,-9.870694 -0.106836,0.04068 14.642299,24.652274 15.08849,25.177938 0.128531,0.151428 11.93666,4.783007 26.24025,10.292378 14.303604,5.509375 26.161426,10.082059 26.350703,10.161501 0.200765,0.08429 7.561928,-2.317427 17.668864,-5.764769 z"
       id="path3505-1-7-3" />
    <path
       style="fill:#ff795a;fill-opacity:1;stroke:#ff795a;stroke-width:0.181819;stroke-opacity:1"
       d="M 114.37846,58.432618 C 114.41206,58.309089 98.888411,32.796236 98.789019,32.741688 98.583201,32.628754 50.33177,27.619076 34.266369,26.042672 25.264356,25.159354 11.634236,25.937726 11.67067,25.956192 c 0.06146,0.03114 83.451049,9.619993 83.961013,9.670922 0.208311,0.02085 1.108056,0.977395 9.430887,10.026943 5.06031,5.502163 8.93423,13.700802 9.20028,13.992653 0.26608,0.291856 -0.0168,-0.725621 0.11561,-1.214089 z"
       id="path3507-2-0-6"
       sodipodi:nodetypes="ssssssss" />
    <path
       style="fill:#ff8c5a;fill-opacity:1;stroke:#ff8c5a;stroke-width:1.19401;stroke-linecap:round;stroke-linejoin:round;stroke-miterlimit:4;stroke-dasharray:none;stroke-opacity:1"
       d="m 85.946319,62.293327 c 21.710601,-2.23338 26.550571,-2.712289 27.220091,-2.693405 0.83317,0.02351 -1.85374,-5.014666 -5.12756,-9.614542 C 105.64908,46.627617 96.050041,36.139639 95.163665,35.917841 94.450993,35.7398 14.160919,26.408598 13.124847,26.383684 c -0.382351,-0.0092 0.338725,0.91896 1.729284,2.22593 2.116941,1.989673 13.349267,13.116251 15.992271,15.841693 0.865057,0.892042 4.253781,2.296494 23.73632,9.837507 12.499954,4.838287 22.799691,8.811038 22.888336,8.828333 0.08855,0.01775 3.902511,-0.353428 8.475261,-0.82382 z"
       id="path5603-9-0" />
  </g>
</svg>
