<?xml version="1.0" encoding="UTF-8" standalone="no"?>
<!-- Created with Inkscape (http://www.inkscape.org/) -->

<svg
   width="200mm"
   height="200mm"
   viewBox="0 0 200 200"
   version="1.1"
   id="svg5"
   inkscape:version="1.1.1 (3bf5ae0d25, 2021-09-20)"
   sodipodi:docname="svg_copper_plant_3.svg"
   inkscape:export-filename="/home/jackdelahunt/Projects/Eiram/Assets/Resources/Sprites/New/stone_plant_3.png"
   inkscape:export-xdpi="8.1280003"
   inkscape:export-ydpi="8.1280003"
   xmlns:inkscape="http://www.inkscape.org/namespaces/inkscape"
   xmlns:sodipodi="http://sodipodi.sourceforge.net/DTD/sodipodi-0.dtd"
   xmlns="http://www.w3.org/2000/svg"
   xmlns:svg="http://www.w3.org/2000/svg">
  <sodipodi:namedview
     id="namedview7"
     pagecolor="#ffffff"
     bordercolor="#666666"
     borderopacity="1.0"
     inkscape:pageshadow="2"
     inkscape:pageopacity="0.0"
     inkscape:pagecheckerboard="0"
     inkscape:document-units="mm"
     showgrid="false"
     width="200mm"
     inkscape:snap-global="false"
     inkscape:zoom="0.74742565"
     inkscape:cx="555.90814"
     inkscape:cy="517.10829"
     inkscape:window-width="1920"
     inkscape:window-height="1017"
     inkscape:window-x="-8"
     inkscape:window-y="-8"
     inkscape:window-maximized="1"
     inkscape:current-layer="layer1" />
  <defs
     id="defs2">
    <inkscape:path-effect
       effect="bspline"
       id="path-effect6127"
       is_visible="true"
       lpeversion="1"
       weight="33.333333"
       steps="2"
       helper_size="0"
       apply_no_weight="true"
       apply_with_weight="true"
       only_selected="false" />
    <inkscape:path-effect
       effect="bspline"
       id="path-effect4838"
       is_visible="true"
       lpeversion="1"
       weight="33.333333"
       steps="2"
       helper_size="0"
       apply_no_weight="true"
       apply_with_weight="true"
       only_selected="false" />
    <inkscape:path-effect
       effect="bspline"
       id="path-effect4152"
       is_visible="true"
       lpeversion="1"
       weight="33.333333"
       steps="2"
       helper_size="0"
       apply_no_weight="true"
       apply_with_weight="true"
       only_selected="false" />
    <inkscape:path-effect
       effect="bspline"
       id="path-effect3851"
       is_visible="true"
       lpeversion="1"
       weight="33.333333"
       steps="2"
       helper_size="0"
       apply_no_weight="true"
       apply_with_weight="true"
       only_selected="false" />
    <inkscape:path-effect
       effect="bspline"
       id="path-effect3737"
       is_visible="true"
       lpeversion="1"
       weight="33.333333"
       steps="2"
       helper_size="0"
       apply_no_weight="true"
       apply_with_weight="true"
       only_selected="false" />
    <inkscape:path-effect
       effect="bspline"
       id="path-effect1053"
       is_visible="true"
       lpeversion="1"
       weight="33.333333"
       steps="2"
       helper_size="0"
       apply_no_weight="true"
       apply_with_weight="true"
       only_selected="false" />
  </defs>
  <g
     inkscape:label="Layer 1"
     inkscape:groupmode="layer"
     id="layer1">
    <path
       style="fill:#008700;fill-opacity:1;stroke:#006d00;stroke-width:0.905435;stroke-linecap:butt;stroke-linejoin:miter;stroke-miterlimit:4;stroke-dasharray:none;stroke-opacity:1"
       d="m 203.04022,200.83667 2.38135,-38.92024 8.02618,-35.64503 7.53561,34.82986 1.65778,39.61142 z"
       id="path1248"
       sodipodi:nodetypes="cccccc" />
    <g
       id="g4429">
      <path
         style="fill:none;stroke:#000000;stroke-width:0.242524px;stroke-linecap:butt;stroke-linejoin:miter;stroke-opacity:1"
         d="m 76.681827,200.69814 c 7.148074,-12.20939 14.296061,-24.41863 15.333859,-39.56851 1.037799,-15.14987 -4.034803,-33.23936 -8.773502,-42.9346 -4.7387,-9.69523 -9.143406,-10.99555 -16.510384,-6.90426 -7.366977,4.09129 -17.69544,13.57392 -22.859844,18.28327 -5.164404,4.70935 -5.164552,4.64493 -3.297632,-0.1872 1.866919,-4.83214 5.600814,-14.43151 11.05694,-21.42569 5.456127,-6.99419 12.634006,-11.382623 20.463884,-12.585918 7.829878,-1.203295 16.31104,0.778476 21.566361,5.628238 5.255322,4.84976 7.284741,12.56692 9.314121,20.28394"
         id="path3735"
         inkscape:path-effect="#path-effect3737"
         inkscape:original-d="m 76.681827,200.69814 c 7.148385,-12.20921 14.296373,-24.41845 21.444384,-36.62845 -5.072548,-18.08998 -10.145153,-36.17947 -15.218124,-54.2696 -4.404656,-1.30011 -8.80936,-2.60044 -13.214374,-3.90104 -10.328656,9.48327 -20.65712,18.96589 -30.986013,28.44844 8.7e-5,-0.0641 -5e-5,-0.12852 -4.45e-4,-0.19318 3.734269,-9.5995 7.468165,-19.19887 11.201915,-28.7987 7.178395,-4.38836 14.356278,-8.776792 21.534087,-13.165585 8.481722,1.982113 16.962884,3.963884 25.443995,5.94543 2.029719,7.717735 4.059138,15.434895 6.088378,23.151955"
         sodipodi:nodetypes="cccccccccc" />
      <path
         style="fill:none;stroke:#000000;stroke-width:0.264583px;stroke-linecap:butt;stroke-linejoin:miter;stroke-opacity:1"
         d="M 71.663872,200.68905 H 134.26369"
         id="path3887" />
      <path
         style="fill:none;stroke:#000000;stroke-width:0.242524px;stroke-linecap:butt;stroke-linejoin:miter;stroke-opacity:1"
         d="m 129.26943,200.69814 c -7.14807,-12.20939 -14.29606,-24.41863 -15.33386,-39.56851 -1.0378,-15.14987 4.03481,-33.23936 8.77351,-42.9346 4.7387,-9.69523 9.1434,-10.99555 16.51038,-6.90426 7.36698,4.09129 17.69544,13.57392 22.85985,18.28327 5.1644,4.70935 5.16455,4.64493 3.29763,-0.1872 -1.86692,-4.83214 -5.60082,-14.43151 -11.05694,-21.42569 -5.45613,-6.99418 -12.63401,-11.382626 -20.46389,-12.585921 -7.82988,-1.203296 -16.31104,0.778474 -21.56636,5.628241 -5.25532,4.84976 -7.28474,12.56692 -9.31412,20.28394"
         id="path4148"
         inkscape:path-effect="#path-effect4152"
         inkscape:original-d="m 129.26943,200.69814 c -7.14838,-12.20921 -14.29637,-24.41845 -21.44438,-36.62845 5.07255,-18.08998 10.14515,-36.17947 15.21812,-54.2696 4.40466,-1.30011 8.80936,-2.60044 13.21438,-3.90104 10.32865,9.48327 20.65712,18.96589 30.98601,28.44844 -8e-5,-0.0641 5e-5,-0.12852 4.5e-4,-0.19318 -3.73427,-9.5995 -7.46817,-19.19887 -11.20192,-28.7987 -7.17839,-4.38836 -14.35628,-8.776796 -21.53409,-13.165589 -8.48172,1.982113 -16.96288,3.963884 -25.44399,5.94543 -2.02972,7.717739 -4.05914,15.434899 -6.08838,23.151959"
         sodipodi:nodetypes="cccccccccc" />
    </g>
    <path
       style="fill:#008700;fill-opacity:1;stroke:#006700;stroke-width:2.05984255;stroke-linejoin:round;stroke-miterlimit:4;stroke-dasharray:none;stroke-opacity:1"
       d="m 292.17508,756.60857 c 7.07417,-11.71784 20.84945,-36.78068 27.16898,-49.43144 16.17415,-32.3783 24.17381,-57.13173 28.43387,-87.98325 1.56716,-11.34947 1.32877,-42.46743 -0.44213,-57.70943 -5.12976,-44.15177 -19.31109,-92.6972 -35.89172,-122.86429 -5.45245,-9.92027 -15.03367,-20.96954 -20.68231,-23.85126 -21.54907,-10.99352 -50.01179,5.56451 -122.36374,71.18443 -7.28463,6.60683 -14.46684,12.96503 -15.96045,14.12933 l -2.71567,2.11693 0.6893,-2.28698 c 4.48564,-14.88265 22.56817,-55.06234 31.96907,-71.03584 11.44743,-19.45084 27.50822,-37.55909 42.37221,-47.77389 30.27095,-20.80274 65.83786,-26.36414 98.60308,-15.41801 25.50216,8.5197 40.85175,23.58998 51.7291,50.78781 3.27288,8.18355 9.35318,27.36028 12.30756,38.81694 0.57025,2.21141 1.38022,4.02074 1.7999,4.02074 0.41969,0 2.17087,-5.21514 3.89153,-11.58919 6.92668,-25.65933 14.73419,-44.03195 23.76575,-55.92547 16.82732,-22.1596 49.60215,-34.48267 82.5711,-31.04606 13.87129,1.44592 24.92951,4.65008 37.98848,11.00732 35.57629,17.31889 59.44029,48.7919 83.96092,110.73178 6.39178,16.14582 7.21773,19.03417 5.10486,17.85175 -0.82484,-0.46161 -9.12703,-7.74596 -18.44932,-16.18745 -29.82063,-27.00311 -51.58252,-44.90425 -68.68521,-56.49988 -37.30305,-25.29146 -56.3743,-21.14198 -75.22451,16.36718 -23.34771,46.45854 -38.29862,119.20043 -34.20861,166.43793 3.56551,41.17977 16.26045,76.35407 46.77253,129.59431 l 9.89491,17.26553 h -97.41392 c -53.57766,0 -97.22116,-0.31929 -96.98556,-0.70954 z"
       id="path4486"
       transform="scale(0.26458333)" />
    <rect
       style="fill:#7f7878;fill-opacity:1;stroke:#7f7878;stroke-width:0.162003;stroke-opacity:1"
       id="rect846"
       width="49.391029"
       height="48.683048"
       x="16.279827"
       y="130.79436" />
    <path
       style="fill:#847c7c;fill-opacity:1;stroke:#847c7c;stroke-width:0.105289;stroke-opacity:1"
       d="m 33.40718,141.05222 c -1.454085,-1.32845 -2.637127,-2.42212 -2.628992,-2.43037 0.0081,-0.008 1.335267,0.67019 2.9492,1.50765 1.613926,0.83744 2.960429,1.52264 2.992218,1.52264 0.03176,0 1.938341,-0.34464 4.236777,-0.76586 l 4.17897,-0.76586 2.0591,-1.76986 c 1.132499,-0.97342 2.066392,-1.76267 2.07531,-1.75387 0.01611,0.0159 -3.454325,4.98774 -3.550309,5.08625 -0.02762,0.0284 -2.185895,0.43519 -4.796095,0.90403 -2.610192,0.46883 -4.7743,0.85877 -4.809107,0.86652 -0.03695,0.008 -1.164739,-0.99218 -2.707072,-2.40127 z"
       id="path3505" />
    <path
       style="fill:#7c7474;fill-opacity:1;stroke:#7c7474;stroke-width:0.0372255;stroke-opacity:1"
       d="m 30.727141,137.80488 c 0.01024,-0.0296 3.702112,-4.69946 3.720919,-4.70657 0.03891,-0.0147 8.285528,1.62245 11.027475,2.18927 1.536417,0.31761 2.787884,0.5793 2.781058,0.58154 -0.01151,0.004 -13.314057,-1.88405 -13.40113,-1.90183 -0.0356,-0.007 -0.224864,0.16687 -1.984121,1.82522 -1.069636,1.00829 -1.990893,1.87712 -2.047231,1.93075 -0.05637,0.0536 -0.09998,0.0903 -0.09697,0.0816 z"
       id="path3507" />
    <path
       style="fill:#847c7c;fill-opacity:1;stroke:#847c7c;stroke-width:0.105289;stroke-opacity:1"
       d="m 51.641011,176.7114 c -1.933087,-0.43416 -3.512356,-0.79852 -3.509504,-0.80968 0.003,-0.0111 1.496365,-0.0774 3.318891,-0.14727 1.822533,-0.0698 3.336222,-0.1398 3.363759,-0.15547 0.02755,-0.0157 1.504034,-1.25349 3.281111,-2.75074 l 3.231057,-2.72227 0.885856,-2.54739 c 0.487214,-1.40106 0.89582,-2.54475 0.908004,-2.54153 0.02205,0.006 -0.462393,6.02184 -0.495567,6.15446 -0.0096,0.0382 -1.672521,1.45389 -3.695475,3.14598 -2.022961,1.69209 -3.699553,3.09605 -3.725766,3.11991 -0.02777,0.0253 -1.511951,-0.28547 -3.562366,-0.746 z"
       id="path3509" />
    <path
       style="fill:#7c7474;fill-opacity:1;stroke:#7c7474;stroke-width:0.0372255;stroke-opacity:1"
       d="m 47.672982,175.21929 c -0.006,-0.0307 0.823218,-5.89423 0.835892,-5.90966 0.02626,-0.032 7.998952,-2.67701 10.661223,-3.53702 1.491759,-0.4819 2.708382,-0.87183 2.703603,-0.86653 -0.0081,0.009 -12.486858,4.92795 -12.57129,4.95546 -0.03447,0.0112 -0.110125,0.25531 -0.792836,2.55839 -0.415094,1.40029 -0.77239,2.60669 -0.793996,2.68089 -0.0216,0.0742 -0.04079,0.12751 -0.0426,0.11847 z"
       id="path3511" />
    <path
       style="fill:#847c7c;fill-opacity:1;stroke:#847c7c;stroke-width:0.105289;stroke-opacity:1"
       d="m 32.744073,157.72166 6.898235,-0.55781 2.501362,-1.85633 c 1.375748,-1.02099 2.493038,-1.86454 2.482863,-1.87456 -0.01016,-0.01 -1.134576,0.44389 -2.498675,1.00871 l -2.480177,1.02695 -6.478971,0.56337 -6.478972,0.56336 -4.147219,-1.96631 c -2.280968,-1.08147 -4.154685,-1.95894 -4.163814,-1.94994 -0.02724,0.0269 7.329735,5.58777 7.401268,5.59434 0.0362,0.003 3.170075,-0.24497 6.9641,-0.55178 z"
       id="path4437" />
    <path
       style="fill:#7c7474;fill-opacity:1;stroke:#7c7474;stroke-width:0.105289;stroke-opacity:1"
       d="m 42.79752,150.44018 -1.97247,-2.23334 -5.844004,-0.77964 c -3.214199,-0.4288 -5.906069,-0.78068 -5.98193,-0.78195 -0.127111,-0.002 -7.231297,1.70176 -7.409493,1.77711 -0.07503,0.0317 -3.447281,3.46987 -3.425652,3.49259 0.006,0.006 0.98178,-0.57919 2.169112,-1.30035 l 2.158787,-1.31121 3.154843,-0.77632 3.154843,-0.77632 5.720363,0.87672 5.720354,0.87673 2.239072,1.58466 c 1.231494,0.87156 2.250233,1.58466 2.263863,1.58466 0.01362,0 -0.862827,-1.00501 -1.947688,-2.23334 z"
       id="path4439" />
    <path
       style="fill:#847c7c;fill-opacity:1;stroke:#847c7c;stroke-width:0.148902;stroke-opacity:1"
       d="m 27.92002,177.08797 c -1.690222,-0.0214 -3.623618,-0.0428 -4.296426,-0.0475 l -1.22329,-0.009 -1.888234,-2.10255 c -1.038525,-1.1564 -1.87897,-2.1123 -1.867651,-2.12422 0.01129,-0.012 0.901307,0.53289 1.977738,1.2107 1.07644,0.67779 1.986679,1.24908 2.022758,1.26951 0.03605,0.0204 2.06345,0.0907 4.505282,0.15625 2.441833,0.0654 4.671874,0.12594 4.95565,0.13435 l 0.515962,0.0153 2.251979,-4.10435 c 1.238583,-2.25739 2.262071,-4.0944 2.274406,-4.08224 0.01234,0.0122 -0.748269,2.20982 -1.690238,4.88368 l -1.712671,4.86157 -1.376057,-0.0115 c -0.756834,-0.006 -2.758978,-0.029 -4.449208,-0.0504 z"
       id="path4869" />
    <path
       style="fill:#7c7474;fill-opacity:1;stroke:#7c7474;stroke-width:0.148902;stroke-opacity:1"
       d="m 18.98141,171.76579 c 0.01769,-0.0174 1.640048,-1.26225 3.605225,-2.76623 l 3.573045,-2.73452 4.833483,0.038 c 2.658418,0.0209 4.991992,0.0548 5.185714,0.0754 0.300272,0.0318 -0.353819,0.13922 -4.434841,0.72841 l -4.787064,0.69114 -3.959126,1.99976 c -3.569162,1.80278 -4.125199,2.07524 -4.016436,1.96804 z"
       id="path4871" />
    <path
       style="fill:#847c7c;fill-opacity:1;stroke:#847c7c;stroke-width:0.148902;stroke-opacity:1"
       d="m 55.599912,159.53694 c -1.69023,-0.0214 -3.623618,-0.0428 -4.296433,-0.0475 l -1.223291,-0.009 -1.888226,-2.10255 c -1.038525,-1.1564 -1.87897,-2.1123 -1.867651,-2.12422 0.01129,-0.0119 0.901299,0.5329 1.977738,1.21069 1.076432,0.6778 1.986679,1.24909 2.02275,1.26953 0.03605,0.0204 2.063458,0.0908 4.50529,0.15624 2.441833,0.0655 4.671874,0.12595 4.95565,0.13435 l 0.515954,0.0153 2.251979,-4.10435 c 1.238591,-2.25739 2.262079,-4.0944 2.274414,-4.08224 0.01234,0.0122 -0.748269,2.20982 -1.690238,4.88368 l -1.712671,4.86156 -1.376057,-0.0115 c -0.756834,-0.006 -2.758978,-0.029 -4.449208,-0.0504 z"
       id="path4873" />
    <path
       style="fill:#7c7474;fill-opacity:1;stroke:#7c7474;stroke-width:0.148902;stroke-opacity:1"
       d="m 46.661302,154.21476 c 0.01769,-0.0174 1.64004,-1.26225 3.605218,-2.76623 l 3.573044,-2.73452 4.833491,0.038 c 2.658418,0.0209 4.991984,0.0548 5.185713,0.0753 0.300273,0.0318 -0.353826,0.13922 -4.434848,0.72842 l -4.787063,0.69113 -3.95912,1.99976 c -3.569161,1.80279 -4.125206,2.07525 -4.016435,1.96805 z"
       id="path4875" />
    <path
       style="fill:#847c7c;fill-opacity:1;stroke:#847c7c;stroke-width:0.0652596;stroke-opacity:1"
       d="m 26.907415,164.52734 c 1.127269,-0.4805 2.047194,-0.87899 2.044281,-0.88552 -0.003,-0.006 -0.916373,0.11819 -2.029914,0.27717 -1.113535,0.15897 -2.039639,0.28367 -2.058009,0.27711 -0.01836,-0.006 -1.045546,-0.60266 -2.282617,-1.32466 l -2.249216,-1.31273 -0.807339,-1.46513 c -0.444038,-0.80582 -0.813112,-1.4624 -0.820163,-1.45908 -0.01272,0.006 0.918171,3.64416 0.952346,3.72186 0.0099,0.0223 1.169022,0.70698 2.575942,1.52131 1.406928,0.81434 2.573136,1.49022 2.591574,1.50196 0.01957,0.0125 0.887421,-0.34262 2.083115,-0.85229 z"
       id="path4877" />
    <path
       style="fill:#7c7474;fill-opacity:1;stroke:#7c7474;stroke-width:0.0230729;stroke-opacity:1"
       d="m 29.157738,163.17226 c 4.97e-4,-0.0195 -1.123657,-3.52589 -1.132989,-3.53395 -0.01934,-0.0167 -5.13818,-0.75694 -6.845027,-0.98987 -0.95641,-0.13052 -1.736092,-0.23507 -1.73263,-0.23235 0.006,0.005 8.100318,1.64125 8.154474,1.64878 0.02212,0.003 0.09387,0.14448 0.752054,1.48218 0.400177,0.81333 0.744754,1.51409 0.765721,1.55722 0.021,0.0431 0.03823,0.0738 0.03838,0.068 z"
       id="path4879" />
    <path
       style="fill:#847c7c;fill-opacity:1;stroke:#847c7c;stroke-width:0.0663862;stroke-opacity:1"
       d="m 45.11979,166.15713 5.568499,0.77024 2.172807,-0.51406 c 1.195039,-0.28273 2.166907,-0.51923 2.159705,-0.52558 -0.0075,-0.006 -0.948576,0.0422 -2.091935,0.10792 l -2.07884,0.11943 -5.233728,-0.7045 -5.233729,-0.7045 -3.134019,-1.56703 c -1.723719,-0.86186 -3.140687,-1.56461 -3.14883,-1.56167 -0.02431,0.009 5.342845,3.78279 5.39944,3.7967 0.02867,0.007 2.557948,0.35942 5.62063,0.78305 z"
       id="path4881" />
    <path
       style="fill:#7c7474;fill-opacity:1;stroke:#7c7474;stroke-width:0.0663862;stroke-opacity:1"
       d="m 53.836035,164.17714 -1.370029,-1.36794 -4.601199,-1.25312 c -2.53066,-0.68922 -4.650733,-1.26297 -4.711294,-1.27499 -0.101463,-0.0201 -5.941102,-0.27166 -6.090609,-0.26233 -0.06292,0.004 -3.079126,1.14566 -3.063939,1.15981 0.0038,0.004 0.838947,-0.13011 1.855459,-0.29738 l 1.848211,-0.30413 2.595111,0.10228 2.595103,0.10227 4.493309,1.28109 4.493301,1.28109 1.64348,1.0969 c 0.90391,0.60331 1.652397,1.09859 1.663302,1.10064 0.01091,0.002 -0.596692,-0.61184 -1.350206,-1.36419 z"
       id="path4883" />
    <path
       style="fill:#eb956f;fill-opacity:1;stroke:#eb956f;stroke-width:0.0578701;stroke-opacity:1"
       d="m 57.703347,144.36447 1.230778,-2.58298 -0.864008,-0.98735 c -0.475202,-0.54305 -0.87252,-0.9845 -0.882928,-0.98103 -0.01039,0.003 0.07653,0.43563 0.193202,0.96035 l 0.21213,0.95403 -1.124732,2.4272 -1.124733,2.42721 -2.563261,1.48227 c -1.409796,0.81526 -2.559243,1.4853 -2.554329,1.48897 0.01468,0.011 6.203783,-2.55497 6.22633,-2.58137 0.01159,-0.0134 0.574626,-1.18666 1.251551,-2.6073 z"
       id="path4881-6-2" />
    <path
       style="fill:#d97a50;fill-opacity:1;stroke:#d97a50;stroke-width:0.0578701;stroke-opacity:1"
       d="m 54.372889,140.40162 -2.247471,0.66518 -2.034664,2.14982 c -1.11905,1.1824 -2.05052,2.17287 -2.069922,2.20105 -0.03236,0.0472 -0.405347,2.74196 -0.388866,2.81056 0.0068,0.0289 2.52768,1.33208 2.550927,1.32472 0.006,-0.002 -0.835599,-0.32633 -1.118976,-0.79009 l -0.515247,-0.84321 0.150005,-1.19729 0.150004,-1.19729 2.08158,-2.10086 2.081579,-2.10085 1.798248,-0.78423 c 0.989049,-0.43134 2.347504,-0.7134 2.350808,-0.71848 0.003,-0.005 -1.551891,0.21513 -2.788005,0.58097 z"
       id="path4883-7-37"
       sodipodi:nodetypes="scscssscccccscs" />
    <path
       style="fill:#eb8457;fill-opacity:1;stroke:#eb8457;stroke-width:0.165543;stroke-linecap:round;stroke-linejoin:round;stroke-miterlimit:4;stroke-dasharray:none;stroke-opacity:1"
       d="m 56.395827,144.16337 -1.121339,2.4119 -1.709066,0.98783 c -0.939989,0.5433 -2.081271,1.20632 -2.536184,1.47336 l -0.827109,0.48554 -0.219874,-0.1101 c -0.355851,-0.17821 -0.564662,-0.32367 -0.733541,-0.51102 -0.04719,-0.0523 -0.208044,-0.29655 -0.357522,-0.54272 l -0.271772,-0.4476 0.153437,-1.19729 0.153436,-1.1973 2.075754,-2.09192 2.07577,-2.09192 0.898431,-0.39193 c 0.494145,-0.21557 1.000738,-0.43285 1.125779,-0.48285 0.44607,-0.17837 0.985746,-0.34443 1.706704,-0.52517 0.159261,-0.04 0.293642,-0.0715 0.298624,-0.0702 0.0053,0.002 0.03492,0.12632 0.06653,0.27778 0.03161,0.15145 0.123491,0.57373 0.204138,0.93842 0.08065,0.36468 0.144947,0.66534 0.14287,0.66815 -0.0023,0.002 -0.508361,1.09046 -1.125094,2.41701 z"
       id="path1308-59" />
    <path
       style="fill:#eb956f;fill-opacity:1;stroke:#eb956f;stroke-width:0.0834844;stroke-opacity:1"
       d="m 44.863227,160.0274 8.879375,0.80499 3.333641,-0.50568 c 1.833499,-0.27812 3.323527,-0.51092 3.311177,-0.51734 -0.01234,-0.006 -1.484655,0.0374 -3.271817,0.0974 l -3.249382,0.10904 -8.342423,-0.73704 -8.342423,-0.73704 -5.179798,-1.59379 c -2.848889,-0.8766 -5.189883,-1.59142 -5.20221,-1.5885 -0.0368,0.009 9.009247,3.8355 9.100475,3.84981 0.04621,0.007 4.079728,0.37542 8.963385,0.81816 z"
       id="path4881-6-9" />
    <path
       style="fill:#d97a50;fill-opacity:1;stroke:#d97a50;stroke-width:0.0834844;stroke-opacity:1"
       d="m 58.249374,158.08153 -2.37419,-1.38398 -7.436157,-1.28577 c -4.08988,-0.70716 -7.51563,-1.29593 -7.612773,-1.30835 -0.162761,-0.0207 -9.385012,-0.30524 -9.618583,-0.29666 -0.09834,0.003 -4.435766,1.51239 -4.409606,1.52671 0.0068,0.004 1.076876,-0.50238 2.64825,-0.66526 l 2.857039,-0.29616 4.096797,0.11684 4.096788,0.11684 7.271003,1.31332 7.271011,1.31333 2.760543,1.1127 c 1.518303,0.61199 2.543469,1.44597 2.560944,1.44809 0.01746,0.002 -0.805255,-0.95046 -2.111066,-1.71165 z"
       id="path4883-7-2"
       sodipodi:nodetypes="scscssscccccscs" />
    <path
       style="fill:#eb8457;fill-opacity:1;stroke:#eb8457;stroke-width:0.238816;stroke-linecap:round;stroke-linejoin:round;stroke-miterlimit:4;stroke-dasharray:none;stroke-opacity:1"
       d="m 45.490895,159.23472 -8.290013,-0.73465 -3.451962,-1.06267 c -1.898582,-0.58446 -4.21523,-1.29416 -5.148107,-1.5771 l -1.696145,-0.51443 0.366153,-0.13168 c 0.592613,-0.21312 1.080052,-0.3373 1.712378,-0.43626 0.176586,-0.0276 1.003567,-0.12051 1.837751,-0.2064 l 1.516699,-0.15614 4.096925,0.11892 4.096946,0.11893 7.240231,1.30959 7.240245,1.30959 1.379609,0.55592 c 0.75879,0.30577 1.524,0.61916 1.700465,0.69643 0.629564,0.27567 1.221326,0.60814 1.871428,1.05141 0.143615,0.0979 0.257586,0.18049 0.253282,0.1835 -0.0045,0.003 -0.42995,0.0186 -0.945882,0.0347 -0.515925,0.0161 -1.95431,0.0631 -3.196416,0.10451 -1.242097,0.0414 -2.266278,0.0743 -2.275963,0.0729 -0.0096,-0.002 -3.748096,-0.33299 -8.307624,-0.73704 z"
       id="path1308-0" />
    <path
       style="fill:#eb956f;fill-opacity:1;stroke:#eb956f;stroke-width:0.0663862;stroke-opacity:1"
       d="m 30.230407,173.8261 5.618448,-0.22459 2.044372,-0.88906 c 1.124409,-0.48899 2.037628,-0.89313 2.029395,-0.8981 -0.0083,-0.005 -0.925592,0.20888 -2.038554,0.47523 l -2.023593,0.48424 -5.277138,0.23019 -5.277137,0.2302 -3.367966,-0.98883 c -1.852388,-0.54385 -3.374085,-0.98528 -3.381566,-0.98094 -0.02235,0.0129 5.943473,2.77914 6.001685,2.78283 0.0295,0.002 2.581903,-0.0977 5.672054,-0.22117 z"
       id="path4881-6-5" />
    <path
       style="fill:#d97a50;fill-opacity:1;stroke:#d97a50;stroke-width:0.0663862;stroke-opacity:1"
       d="m 38.446366,170.34039 -1.5963,-1.10415 -4.754454,-0.42116 c -2.614941,-0.23164 -4.804968,-0.4221 -4.866725,-0.42324 -0.103472,-0.002 -5.894509,0.78083 -6.0399,0.81638 -0.06126,0.015 -2.652729,2.01928 -2.635216,2.03052 0.0045,0.003 0.633124,-0.62492 1.602855,-0.96881 l 1.76314,-0.62527 2.57178,-0.35721 2.571773,-0.35719 4.653368,0.4677 4.653375,0.46771 1.816122,0.78926 c 0.998871,0.43409 1.707155,1.14632 1.718263,1.14642 0.01106,0 -0.58012,-0.85368 -1.458081,-1.46096 z"
       id="path4883-7-3"
       sodipodi:nodetypes="scscssscccccscs" />
    <path
       style="fill:#eb8457;fill-opacity:1;stroke:#eb8457;stroke-width:0.189904;stroke-linecap:round;stroke-linejoin:round;stroke-miterlimit:4;stroke-dasharray:none;stroke-opacity:1"
       d="m 30.559225,172.96394 -5.244174,0.22652 -2.244551,-0.65949 c -1.234504,-0.36272 -2.74057,-0.80185 -3.346804,-0.97585 l -1.102253,-0.31637 0.218422,-0.1735 c 0.35351,-0.28078 0.648393,-0.46084 1.035928,-0.63251 0.108228,-0.0479 0.617997,-0.23605 1.132837,-0.41802 l 0.936069,-0.33088 2.572029,-0.35514 2.572036,-0.35513 4.633831,0.46755 4.633831,0.46754 0.907613,0.39428 c 0.499187,0.21686 1.003002,0.44057 1.119592,0.49714 0.415944,0.20183 0.81281,0.46459 1.25508,0.83099 0.09771,0.0809 0.17563,0.15001 0.173184,0.15351 -0.0023,0.003 -0.267423,0.0682 -0.588827,0.14388 -0.32139,0.0756 -1.217255,0.28877 -1.990819,0.4736 -0.773548,0.18485 -1.411496,0.33592 -1.417652,0.33572 -0.006,-1.4e-4 -2.371075,0.10158 -5.255372,0.22616 z"
       id="path1308-5" />
    <path
       style="fill:#eb956f;fill-opacity:1;stroke:#eb956f;stroke-width:0.105289;stroke-opacity:1"
       d="m 47.251762,171.16981 c -1.454085,-1.32846 -2.637127,-2.42213 -2.628992,-2.43037 0.0081,-0.008 1.335267,0.67018 2.9492,1.50764 1.613926,0.83746 2.960429,1.52265 2.992218,1.52265 0.03176,0 1.938341,-0.34464 4.236776,-0.76586 l 4.178971,-0.76586 2.0591,-1.76986 c 1.132499,-0.97342 2.066392,-1.76266 2.07531,-1.75387 0.0161,0.0159 -3.454325,4.98774 -3.550309,5.08625 -0.02762,0.0284 -2.185895,0.43519 -4.796087,0.90402 -2.6102,0.46884 -4.774308,0.85877 -4.809115,0.86653 -0.03695,0.008 -1.16474,-0.99219 -2.707072,-2.40127 z"
       id="path3505-1-6" />
    <path
       style="fill:#d97a50;fill-opacity:1;stroke:#d97a50;stroke-width:0.0372255;stroke-opacity:1"
       d="m 44.637746,168.39445 c -4.89e-4,-0.0312 3.636089,-5.17144 3.654896,-5.17855 0.03891,-0.0147 8.285535,1.62245 11.027482,2.18926 1.53641,0.31761 3.775663,1.30016 3.768829,1.3024 -0.01151,0.004 -14.301835,-2.6049 -14.388909,-2.62268 -0.0356,-0.007 -0.224863,0.16686 -1.98412,1.82522 -1.069636,1.00829 -2.052522,2.72536 -2.108868,2.77898 -0.05637,0.0536 0.03266,-0.17105 0.03071,-0.29463 z"
       id="path3507-2-2"
       sodipodi:nodetypes="ssssssss" />
    <path
       style="fill:#eb8457;fill-opacity:1;stroke:#eb8457;stroke-width:0.244461;stroke-linecap:round;stroke-linejoin:round;stroke-miterlimit:4;stroke-dasharray:none;stroke-opacity:1"
       d="m 49.216729,170.97442 c -3.525888,-1.80061 -4.312697,-2.19752 -4.425042,-2.23224 -0.1398,-0.0432 0.515247,-1.08043 1.25006,-1.97938 0.536387,-0.65621 2.567491,-2.58089 2.724321,-2.58159 0.126088,-4.9e-4 13.889308,2.48782 14.062974,2.54257 0.06412,0.0202 -0.09425,0.19806 -0.379753,0.42652 -0.43463,0.34781 -2.764178,2.32828 -3.316746,2.81974 -0.18086,0.16085 -0.803335,0.29545 -4.360132,0.94277 -2.282029,0.41531 -4.161811,0.75423 -4.177299,0.75315 -0.0155,-8.1e-4 -0.635751,-0.31228 -1.378383,-0.69154 z"
       id="path5603-6" />
    <path
       style="fill:#eb956f;fill-opacity:1;stroke:#eb956f;stroke-width:0.126502;stroke-opacity:1"
       d="m 40.199504,146.78711 c 2.360915,-0.79373 4.284881,-1.45197 4.275489,-1.46276 -0.0093,-0.0108 -2.034302,0.19518 -4.499818,0.45772 -2.465509,0.26252 -4.519198,0.46844 -4.563758,0.4576 -0.04455,-0.0108 -2.632642,-0.99575 -5.751324,-2.18868 l -5.670315,-2.16897 -2.455251,-2.4206 c -1.350387,-1.33134 -2.467225,-2.41611 -2.481863,-2.41062 -0.02649,0.01 3.627939,6.02057 3.738493,6.14894 0.03183,0.037 2.957561,1.1681 6.501571,2.5136 3.544018,1.3455 6.482043,2.46223 6.528943,2.48164 0.04975,0.0206 1.873627,-0.56596 4.377833,-1.40787 z"
       id="path3505-1-7-3" />
    <path
       style="fill:#d97a50;fill-opacity:1;stroke:#d97a50;stroke-width:0.0447254;stroke-opacity:1"
       d="m 44.537902,144.98432 c 0.0084,-0.0302 -3.837984,-6.2609 -3.862609,-6.27423 -0.05103,-0.0276 -12.006304,-1.25103 -15.986841,-1.63603 -2.23044,-0.21572 -5.607588,-0.0257 -5.598565,-0.0211 0.0152,0.007 20.676755,2.34939 20.803106,2.36183 0.05163,0.005 0.274549,0.2387 2.336704,2.44877 1.253793,1.34374 2.213643,3.346 2.279561,3.41728 0.06593,0.0713 -0.0045,-0.17721 0.02867,-0.29651 z"
       id="path3507-2-0-6"
       sodipodi:nodetypes="ssssssss" />
    <path
       style="fill:#eb8457;fill-opacity:1;stroke:#eb8457;stroke-width:0.293713;stroke-linecap:round;stroke-linejoin:round;stroke-miterlimit:4;stroke-dasharray:none;stroke-opacity:1"
       d="m 37.493245,145.92718 c 5.379254,-0.54543 6.578463,-0.6624 6.744346,-0.65778 0.206434,0.006 -0.4593,-1.22468 -1.270462,-2.34806 -0.592116,-0.82003 -2.970476,-3.3814 -3.190094,-3.43557 -0.176578,-0.0435 -20.070137,-2.32234 -20.326842,-2.32842 -0.09474,-0.002 0.08393,0.22443 0.428467,0.54361 0.524511,0.48592 3.307557,3.20325 3.962423,3.86885 0.214335,0.21785 1.05396,0.56085 5.881166,2.40251 3.097128,1.18161 5.649108,2.15182 5.671068,2.15605 0.0219,0.004 0.966932,-0.0863 2.099928,-0.20119 z"
       id="path5603-9-0" />
    <rect
       style="fill:#7f7878;fill-opacity:1;stroke:#7f7878;stroke-width:0.162003;stroke-opacity:1"
       id="rect846-8"
       width="49.391029"
       height="48.683048"
       x="140.26515"
       y="131.76933" />
    <path
       style="fill:#847c7c;fill-opacity:1;stroke:#847c7c;stroke-width:0.105289;stroke-opacity:1"
       d="m 157.3925,142.02718 c -1.45408,-1.32845 -2.63712,-2.42212 -2.62899,-2.43037 0.008,-0.008 1.33527,0.67019 2.9492,1.50765 1.61393,0.83744 2.96043,1.52264 2.99222,1.52264 0.0318,0 1.93834,-0.34464 4.23678,-0.76586 l 4.17897,-0.76586 2.0591,-1.76986 c 1.1325,-0.97342 2.06639,-1.76267 2.07531,-1.75387 0.0161,0.0159 -3.45433,4.98774 -3.55031,5.08625 -0.0276,0.0284 -2.1859,0.43519 -4.7961,0.90403 -2.61019,0.46883 -4.7743,0.85877 -4.8091,0.86652 -0.0369,0.008 -1.16474,-0.99218 -2.70708,-2.40127 z"
       id="path3505-0" />
    <path
       style="fill:#7c7474;fill-opacity:1;stroke:#7c7474;stroke-width:0.0372255;stroke-opacity:1"
       d="m 154.71247,138.77984 c 0.0102,-0.0296 3.70211,-4.69946 3.72091,-4.70657 0.0389,-0.0147 8.28553,1.62245 11.02748,2.18927 1.53642,0.31761 2.78788,0.5793 2.78106,0.58154 -0.0115,0.004 -13.31406,-1.88405 -13.40113,-1.90183 -0.0356,-0.007 -0.22487,0.16687 -1.98412,1.82522 -1.06964,1.00829 -1.9909,1.87712 -2.04723,1.93075 -0.0564,0.0536 -0.1,0.0903 -0.097,0.0816 z"
       id="path3507-8" />
    <path
       style="fill:#847c7c;fill-opacity:1;stroke:#847c7c;stroke-width:0.105289;stroke-opacity:1"
       d="m 175.62634,177.68636 c -1.93309,-0.43416 -3.51236,-0.79852 -3.50951,-0.80968 0.003,-0.0111 1.49637,-0.0774 3.31889,-0.14727 1.82254,-0.0698 3.33623,-0.1398 3.36376,-0.15547 0.0275,-0.0157 1.50404,-1.25349 3.28111,-2.75074 l 3.23106,-2.72227 0.88586,-2.54739 c 0.48721,-1.40106 0.89582,-2.54475 0.908,-2.54153 0.0221,0.006 -0.46239,6.02184 -0.49557,6.15446 -0.01,0.0382 -1.67252,1.45389 -3.69547,3.14598 -2.02296,1.69209 -3.69956,3.09605 -3.72577,3.11991 -0.0278,0.0253 -1.51195,-0.28547 -3.56236,-0.746 z"
       id="path3509-9" />
    <path
       style="fill:#7c7474;fill-opacity:1;stroke:#7c7474;stroke-width:0.0372255;stroke-opacity:1"
       d="m 171.65831,176.19425 c -0.006,-0.0307 0.82321,-5.89423 0.83589,-5.90966 0.0263,-0.032 7.99895,-2.67701 10.66122,-3.53702 1.49176,-0.4819 2.70838,-0.87183 2.7036,-0.86653 -0.008,0.009 -12.48685,4.92795 -12.57128,4.95546 -0.0345,0.0112 -0.11013,0.25531 -0.79284,2.55839 -0.4151,1.40029 -0.77239,2.60669 -0.794,2.68089 -0.0216,0.0742 -0.0408,0.12751 -0.0426,0.11847 z"
       id="path3511-5" />
    <path
       style="fill:#847c7c;fill-opacity:1;stroke:#847c7c;stroke-width:0.105289;stroke-opacity:1"
       d="m 156.7294,158.69662 6.89823,-0.55781 2.50136,-1.85633 c 1.37575,-1.02099 2.49304,-1.86454 2.48287,-1.87456 -0.0102,-0.01 -1.13458,0.44389 -2.49868,1.00871 l -2.48017,1.02695 -6.47898,0.56337 -6.47897,0.56336 -4.14722,-1.96631 c -2.28096,-1.08147 -4.15468,-1.95894 -4.16381,-1.94994 -0.0272,0.0269 7.32973,5.58777 7.40127,5.59434 0.0362,0.003 3.17007,-0.24497 6.9641,-0.55178 z"
       id="path4437-0" />
    <path
       style="fill:#7c7474;fill-opacity:1;stroke:#7c7474;stroke-width:0.105289;stroke-opacity:1"
       d="m 166.78284,151.41514 -1.97247,-2.23334 -5.844,-0.77964 c -3.2142,-0.4288 -5.90607,-0.78068 -5.98193,-0.78195 -0.12711,-0.002 -7.2313,1.70176 -7.40949,1.77711 -0.075,0.0317 -3.44728,3.46987 -3.42565,3.49259 0.006,0.006 0.98178,-0.57919 2.16911,-1.30035 l 2.15878,-1.31121 3.15485,-0.77632 3.15484,-0.77632 5.72036,0.87672 5.72036,0.87673 2.23907,1.58466 c 1.23149,0.87156 2.25023,1.58466 2.26386,1.58466 0.0136,0 -0.86282,-1.00501 -1.94769,-2.23334 z"
       id="path4439-6" />
    <path
       style="fill:#847c7c;fill-opacity:1;stroke:#847c7c;stroke-width:0.148902;stroke-opacity:1"
       d="m 151.90534,178.06293 c -1.69022,-0.0214 -3.62361,-0.0428 -4.29642,-0.0475 l -1.22329,-0.009 -1.88824,-2.10255 c -1.03852,-1.1564 -1.87897,-2.1123 -1.86765,-2.12422 0.0113,-0.012 0.90131,0.53289 1.97774,1.2107 1.07644,0.67779 1.98668,1.24908 2.02276,1.26951 0.0361,0.0204 2.06345,0.0907 4.50528,0.15625 2.44183,0.0654 4.67188,0.12594 4.95565,0.13435 l 0.51596,0.0153 2.25198,-4.10435 c 1.23859,-2.25739 2.26207,-4.0944 2.27441,-4.08224 0.0123,0.0122 -0.74827,2.20982 -1.69024,4.88368 l -1.71267,4.86157 -1.37606,-0.0115 c -0.75683,-0.006 -2.75898,-0.029 -4.44921,-0.0504 z"
       id="path4869-6" />
    <path
       style="fill:#7c7474;fill-opacity:1;stroke:#7c7474;stroke-width:0.148902;stroke-opacity:1"
       d="m 142.96673,172.74075 c 0.0177,-0.0174 1.64005,-1.26225 3.60523,-2.76623 l 3.57304,-2.73452 4.83349,0.038 c 2.65842,0.0209 4.99199,0.0548 5.18571,0.0754 0.30027,0.0318 -0.35382,0.13922 -4.43484,0.72841 l -4.78706,0.69114 -3.95913,1.99976 c -3.56916,1.80278 -4.1252,2.07524 -4.01644,1.96804 z"
       id="path4871-5" />
    <path
       style="fill:#847c7c;fill-opacity:1;stroke:#847c7c;stroke-width:0.148902;stroke-opacity:1"
       d="m 179.58524,160.5119 c -1.69023,-0.0214 -3.62362,-0.0428 -4.29644,-0.0475 l -1.22329,-0.009 -1.88822,-2.10255 c -1.03853,-1.1564 -1.87897,-2.1123 -1.86765,-2.12422 0.0113,-0.0119 0.90129,0.5329 1.97773,1.21069 1.07644,0.6778 1.98668,1.24909 2.02275,1.26953 0.0361,0.0204 2.06346,0.0908 4.50529,0.15624 2.44184,0.0655 4.67188,0.12595 4.95565,0.13435 l 0.51596,0.0153 2.25198,-4.10435 c 1.23859,-2.25739 2.26208,-4.0944 2.27441,-4.08224 0.0123,0.0122 -0.74827,2.20982 -1.69024,4.88368 l -1.71267,4.86156 -1.37606,-0.0115 c -0.75683,-0.006 -2.75897,-0.029 -4.4492,-0.0504 z"
       id="path4873-7" />
    <path
       style="fill:#7c7474;fill-opacity:1;stroke:#7c7474;stroke-width:0.148902;stroke-opacity:1"
       d="m 170.64663,155.18972 c 0.0177,-0.0174 1.64004,-1.26225 3.60521,-2.76623 l 3.57305,-2.73452 4.83349,0.038 c 2.65842,0.0209 4.99198,0.0548 5.18571,0.0753 0.30028,0.0318 -0.35382,0.13922 -4.43484,0.72842 l -4.78707,0.69113 -3.95912,1.99976 c -3.56916,1.80279 -4.1252,2.07525 -4.01643,1.96805 z"
       id="path4875-3" />
    <path
       style="fill:#847c7c;fill-opacity:1;stroke:#847c7c;stroke-width:0.0652596;stroke-opacity:1"
       d="m 150.89274,165.5023 c 1.12727,-0.4805 2.04719,-0.87899 2.04428,-0.88552 -0.003,-0.006 -0.91637,0.11819 -2.02991,0.27717 -1.11354,0.15897 -2.03964,0.28367 -2.05801,0.27711 -0.0184,-0.006 -1.04555,-0.60266 -2.28262,-1.32466 l -2.24922,-1.31273 -0.80733,-1.46513 c -0.44404,-0.80582 -0.81312,-1.4624 -0.82017,-1.45908 -0.0127,0.006 0.91817,3.64416 0.95235,3.72186 0.01,0.0223 1.16902,0.70698 2.57594,1.52131 1.40693,0.81434 2.57314,1.49022 2.59157,1.50196 0.0196,0.0125 0.88743,-0.34262 2.08312,-0.85229 z"
       id="path4877-2" />
    <path
       style="fill:#7c7474;fill-opacity:1;stroke:#7c7474;stroke-width:0.0230729;stroke-opacity:1"
       d="m 153.14306,164.14722 c 5e-4,-0.0195 -1.12365,-3.52589 -1.13299,-3.53395 -0.0193,-0.0167 -5.13818,-0.75694 -6.84502,-0.98987 -0.95641,-0.13052 -1.7361,-0.23507 -1.73263,-0.23235 0.006,0.005 8.10031,1.64125 8.15447,1.64878 0.0221,0.003 0.0939,0.14448 0.75205,1.48218 0.40018,0.81333 0.74476,1.51409 0.76573,1.55722 0.021,0.0431 0.0382,0.0738 0.0384,0.068 z"
       id="path4879-9" />
    <path
       style="fill:#847c7c;fill-opacity:1;stroke:#847c7c;stroke-width:0.0663862;stroke-opacity:1"
       d="m 169.10511,167.13209 5.5685,0.77024 2.17281,-0.51406 c 1.19504,-0.28273 2.16691,-0.51923 2.15971,-0.52558 -0.008,-0.006 -0.94858,0.0422 -2.09194,0.10792 l -2.07884,0.11943 -5.23373,-0.7045 -5.23373,-0.7045 -3.13402,-1.56703 c -1.72371,-0.86186 -3.14068,-1.56461 -3.14883,-1.56167 -0.0243,0.009 5.34285,3.78279 5.39944,3.7967 0.0287,0.007 2.55795,0.35942 5.62063,0.78305 z"
       id="path4881-0" />
    <path
       style="fill:#7c7474;fill-opacity:1;stroke:#7c7474;stroke-width:0.0663862;stroke-opacity:1"
       d="m 177.82136,165.1521 -1.37003,-1.36794 -4.6012,-1.25312 c -2.53066,-0.68922 -4.65073,-1.26297 -4.71129,-1.27499 -0.10147,-0.0201 -5.9411,-0.27166 -6.09061,-0.26233 -0.0629,0.004 -3.07913,1.14566 -3.06394,1.15981 0.004,0.004 0.83895,-0.13011 1.85546,-0.29738 l 1.84821,-0.30413 2.59511,0.10228 2.5951,0.10227 4.49331,1.28109 4.4933,1.28109 1.64348,1.0969 c 0.90391,0.60331 1.6524,1.09859 1.66331,1.10064 0.0109,0.002 -0.5967,-0.61184 -1.35021,-1.36419 z"
       id="path4883-0" />
    <path
       style="fill:#eb956f;fill-opacity:1;stroke:#eb956f;stroke-width:0.0578701;stroke-opacity:1"
       d="m 181.68867,145.33943 1.23078,-2.58298 -0.86401,-0.98735 c -0.4752,-0.54305 -0.87252,-0.9845 -0.88293,-0.98103 -0.0104,0.003 0.0765,0.43563 0.19321,0.96035 l 0.21213,0.95403 -1.12474,2.4272 -1.12473,2.42721 -2.56326,1.48227 c -1.4098,0.81526 -2.55924,1.4853 -2.55433,1.48897 0.0147,0.011 6.20378,-2.55497 6.22633,-2.58137 0.0116,-0.0134 0.57463,-1.18666 1.25155,-2.6073 z"
       id="path4881-6-2-9" />
    <path
       style="fill:#d97a50;fill-opacity:1;stroke:#d97a50;stroke-width:0.0578701;stroke-opacity:1"
       d="m 178.35821,141.37658 -2.24747,0.66518 -2.03466,2.14982 c -1.11905,1.1824 -2.05052,2.17287 -2.06992,2.20105 -0.0324,0.0472 -0.40535,2.74196 -0.38887,2.81056 0.007,0.0289 2.52768,1.33208 2.55093,1.32472 0.006,-0.002 -0.8356,-0.32633 -1.11898,-0.79009 l -0.51525,-0.84321 0.15001,-1.19729 0.15,-1.19729 2.08158,-2.10086 2.08158,-2.10085 1.79825,-0.78423 c 0.98905,-0.43134 2.34751,-0.7134 2.35081,-0.71848 0.003,-0.005 -1.55189,0.21513 -2.78801,0.58097 z"
       id="path4883-7-37-4"
       sodipodi:nodetypes="scscssscccccscs" />
    <path
       style="fill:#eb8457;fill-opacity:1;stroke:#eb8457;stroke-width:0.165543;stroke-linecap:round;stroke-linejoin:round;stroke-miterlimit:4;stroke-dasharray:none;stroke-opacity:1"
       d="m 180.38115,145.13833 -1.12134,2.4119 -1.70906,0.98783 c -0.93999,0.5433 -2.08127,1.20632 -2.53619,1.47336 l -0.82711,0.48554 -0.21987,-0.1101 c -0.35585,-0.17821 -0.56466,-0.32367 -0.73354,-0.51102 -0.0472,-0.0523 -0.20805,-0.29655 -0.35752,-0.54272 l -0.27178,-0.4476 0.15344,-1.19729 0.15344,-1.1973 2.07575,-2.09192 2.07577,-2.09192 0.89843,-0.39193 c 0.49415,-0.21557 1.00074,-0.43285 1.12578,-0.48285 0.44607,-0.17837 0.98575,-0.34443 1.70671,-0.52517 0.15926,-0.04 0.29364,-0.0715 0.29862,-0.0702 0.005,0.002 0.0349,0.12632 0.0665,0.27778 0.0316,0.15145 0.12349,0.57373 0.20414,0.93842 0.0807,0.36468 0.14494,0.66534 0.14287,0.66815 -0.002,0.002 -0.50836,1.09046 -1.1251,2.41701 z"
       id="path1308-59-8" />
    <path
       style="fill:#eb956f;fill-opacity:1;stroke:#eb956f;stroke-width:0.0834844;stroke-opacity:1"
       d="m 168.84855,161.00236 8.87938,0.80499 3.33364,-0.50568 c 1.8335,-0.27812 3.32352,-0.51092 3.31117,-0.51734 -0.0123,-0.006 -1.48465,0.0374 -3.27181,0.0974 l -3.24938,0.10904 -8.34243,-0.73704 -8.34242,-0.73704 -5.1798,-1.59379 c -2.84889,-0.8766 -5.18988,-1.59142 -5.20221,-1.5885 -0.0368,0.009 9.00925,3.8355 9.10048,3.84981 0.0462,0.007 4.07972,0.37542 8.96338,0.81816 z"
       id="path4881-6-9-7" />
    <path
       style="fill:#d97a50;fill-opacity:1;stroke:#d97a50;stroke-width:0.0834844;stroke-opacity:1"
       d="m 182.2347,159.05649 -2.37419,-1.38398 -7.43616,-1.28577 c -4.08988,-0.70716 -7.51563,-1.29593 -7.61277,-1.30835 -0.16276,-0.0207 -9.38501,-0.30524 -9.61858,-0.29666 -0.0983,0.003 -4.43577,1.51239 -4.40961,1.52671 0.007,0.004 1.07688,-0.50238 2.64825,-0.66526 l 2.85704,-0.29616 4.0968,0.11684 4.09678,0.11684 7.27101,1.31332 7.27101,1.31333 2.76054,1.1127 c 1.5183,0.61199 2.54347,1.44597 2.56095,1.44809 0.0175,0.002 -0.80526,-0.95046 -2.11107,-1.71165 z"
       id="path4883-7-2-3"
       sodipodi:nodetypes="scscssscccccscs" />
    <path
       style="fill:#eb8457;fill-opacity:1;stroke:#eb8457;stroke-width:0.238816;stroke-linecap:round;stroke-linejoin:round;stroke-miterlimit:4;stroke-dasharray:none;stroke-opacity:1"
       d="m 169.47622,160.20968 -8.29001,-0.73465 -3.45197,-1.06267 c -1.89858,-0.58446 -4.21523,-1.29416 -5.1481,-1.5771 l -1.69615,-0.51443 0.36616,-0.13168 c 0.59261,-0.21312 1.08005,-0.3373 1.71237,-0.43626 0.17659,-0.0276 1.00357,-0.12051 1.83775,-0.2064 l 1.5167,-0.15614 4.09693,0.11892 4.09694,0.11893 7.24024,1.30959 7.24024,1.30959 1.37961,0.55592 c 0.75879,0.30577 1.524,0.61916 1.70047,0.69643 0.62956,0.27567 1.22132,0.60814 1.87142,1.05141 0.14362,0.0979 0.25759,0.18049 0.25329,0.1835 -0.005,0.003 -0.42995,0.0186 -0.94589,0.0347 -0.51592,0.0161 -1.95431,0.0631 -3.19641,0.10451 -1.2421,0.0414 -2.26628,0.0743 -2.27597,0.0729 -0.01,-0.002 -3.74809,-0.33299 -8.30762,-0.73704 z"
       id="path1308-0-5" />
    <path
       style="fill:#eb956f;fill-opacity:1;stroke:#eb956f;stroke-width:0.0663862;stroke-opacity:1"
       d="m 154.21573,174.80106 5.61845,-0.22459 2.04437,-0.88906 c 1.12441,-0.48899 2.03763,-0.89313 2.0294,-0.8981 -0.008,-0.005 -0.9256,0.20888 -2.03856,0.47523 l -2.02359,0.48424 -5.27714,0.23019 -5.27714,0.2302 -3.36796,-0.98883 c -1.85239,-0.54385 -3.37409,-0.98528 -3.38157,-0.98094 -0.0223,0.0129 5.94348,2.77914 6.00169,2.78283 0.0295,0.002 2.5819,-0.0977 5.67205,-0.22117 z"
       id="path4881-6-5-9" />
    <path
       style="fill:#d97a50;fill-opacity:1;stroke:#d97a50;stroke-width:0.0663862;stroke-opacity:1"
       d="m 162.43169,171.31535 -1.5963,-1.10415 -4.75445,-0.42116 c -2.61494,-0.23164 -4.80497,-0.4221 -4.86673,-0.42324 -0.10347,-0.002 -5.89451,0.78083 -6.0399,0.81638 -0.0613,0.015 -2.65273,2.01928 -2.63521,2.03052 0.005,0.003 0.63312,-0.62492 1.60285,-0.96881 l 1.76314,-0.62527 2.57178,-0.35721 2.57177,-0.35719 4.65337,0.4677 4.65338,0.46771 1.81612,0.78926 c 0.99887,0.43409 1.70715,1.14632 1.71826,1.14642 0.0111,0 -0.58012,-0.85368 -1.45808,-1.46096 z"
       id="path4883-7-3-0"
       sodipodi:nodetypes="scscssscccccscs" />
    <path
       style="fill:#eb8457;fill-opacity:1;stroke:#eb8457;stroke-width:0.189904;stroke-linecap:round;stroke-linejoin:round;stroke-miterlimit:4;stroke-dasharray:none;stroke-opacity:1"
       d="m 154.54455,173.9389 -5.24417,0.22652 -2.24456,-0.65949 c -1.2345,-0.36272 -2.74057,-0.80185 -3.3468,-0.97585 l -1.10225,-0.31637 0.21842,-0.1735 c 0.35351,-0.28078 0.64839,-0.46084 1.03593,-0.63251 0.10823,-0.0479 0.61799,-0.23605 1.13283,-0.41802 l 0.93607,-0.33088 2.57203,-0.35514 2.57204,-0.35513 4.63383,0.46755 4.63383,0.46754 0.90761,0.39428 c 0.49919,0.21686 1.00301,0.44057 1.1196,0.49714 0.41594,0.20183 0.81281,0.46459 1.25508,0.83099 0.0977,0.0809 0.17563,0.15001 0.17318,0.15351 -0.002,0.003 -0.26742,0.0682 -0.58883,0.14388 -0.32139,0.0756 -1.21725,0.28877 -1.99082,0.4736 -0.77354,0.18485 -1.41149,0.33592 -1.41765,0.33572 -0.006,-1.4e-4 -2.37107,0.10158 -5.25537,0.22616 z"
       id="path1308-5-1" />
    <path
       style="fill:#eb956f;fill-opacity:1;stroke:#eb956f;stroke-width:0.105289;stroke-opacity:1"
       d="m 171.23709,172.14477 c -1.45409,-1.32846 -2.63713,-2.42213 -2.629,-2.43037 0.008,-0.008 1.33527,0.67018 2.9492,1.50764 1.61393,0.83746 2.96043,1.52265 2.99222,1.52265 0.0318,0 1.93834,-0.34464 4.23678,-0.76586 l 4.17897,-0.76586 2.0591,-1.76986 c 1.1325,-0.97342 2.06639,-1.76266 2.07531,-1.75387 0.0161,0.0159 -3.45432,4.98774 -3.55031,5.08625 -0.0276,0.0284 -2.18589,0.43519 -4.79609,0.90402 -2.6102,0.46884 -4.7743,0.85877 -4.80911,0.86653 -0.037,0.008 -1.16474,-0.99219 -2.70707,-2.40127 z"
       id="path3505-1-6-0" />
    <path
       style="fill:#d97a50;fill-opacity:1;stroke:#d97a50;stroke-width:0.0372255;stroke-opacity:1"
       d="m 168.62307,169.36941 c -4.9e-4,-0.0312 3.63609,-5.17144 3.6549,-5.17855 0.0389,-0.0147 8.28553,1.62245 11.02748,2.18926 1.53641,0.31761 3.77566,1.30016 3.76883,1.3024 -0.0115,0.004 -14.30184,-2.6049 -14.38891,-2.62268 -0.0356,-0.007 -0.22486,0.16686 -1.98412,1.82522 -1.06964,1.00829 -2.05252,2.72536 -2.10887,2.77898 -0.0564,0.0536 0.0327,-0.17105 0.0307,-0.29463 z"
       id="path3507-2-2-3"
       sodipodi:nodetypes="ssssssss" />
    <path
       style="fill:#eb8457;fill-opacity:1;stroke:#eb8457;stroke-width:0.244461;stroke-linecap:round;stroke-linejoin:round;stroke-miterlimit:4;stroke-dasharray:none;stroke-opacity:1"
       d="m 173.20205,171.94938 c -3.52588,-1.80061 -4.31269,-2.19752 -4.42504,-2.23224 -0.1398,-0.0432 0.51525,-1.08043 1.25006,-1.97938 0.53639,-0.65621 2.56749,-2.58089 2.72432,-2.58159 0.12609,-4.9e-4 13.88931,2.48782 14.06298,2.54257 0.0641,0.0202 -0.0943,0.19806 -0.37976,0.42652 -0.43463,0.34781 -2.76417,2.32828 -3.31674,2.81974 -0.18086,0.16085 -0.80334,0.29545 -4.36013,0.94277 -2.28203,0.41531 -4.16182,0.75423 -4.1773,0.75315 -0.0155,-8.1e-4 -0.63575,-0.31228 -1.37839,-0.69154 z"
       id="path5603-6-3" />
    <path
       style="fill:#eb956f;fill-opacity:1;stroke:#eb956f;stroke-width:0.126502;stroke-opacity:1"
       d="m 164.18483,147.76207 c 2.36091,-0.79373 4.28488,-1.45197 4.27549,-1.46276 -0.009,-0.0108 -2.0343,0.19518 -4.49982,0.45772 -2.46551,0.26252 -4.5192,0.46844 -4.56376,0.4576 -0.0445,-0.0108 -2.63264,-0.99575 -5.75132,-2.18868 l -5.67032,-2.16897 -2.45525,-2.4206 c -1.35039,-1.33134 -2.46722,-2.41611 -2.48186,-2.41062 -0.0265,0.01 3.62794,6.02057 3.73849,6.14894 0.0318,0.037 2.95756,1.1681 6.50157,2.5136 3.54402,1.3455 6.48205,2.46223 6.52895,2.48164 0.0498,0.0206 1.87362,-0.56596 4.37783,-1.40787 z"
       id="path3505-1-7-3-9" />
    <path
       style="fill:#d97a50;fill-opacity:1;stroke:#d97a50;stroke-width:0.0447254;stroke-opacity:1"
       d="m 168.52323,145.95928 c 0.008,-0.0302 -3.83799,-6.2609 -3.86261,-6.27423 -0.051,-0.0276 -12.00631,-1.25103 -15.98684,-1.63603 -2.23044,-0.21572 -5.60759,-0.0257 -5.59857,-0.0211 0.0152,0.007 20.67676,2.34939 20.80311,2.36183 0.0516,0.005 0.27455,0.2387 2.3367,2.44877 1.25379,1.34374 2.21364,3.346 2.27956,3.41728 0.0659,0.0713 -0.005,-0.17721 0.0287,-0.29651 z"
       id="path3507-2-0-6-3"
       sodipodi:nodetypes="ssssssss" />
    <path
       style="fill:#eb8457;fill-opacity:1;stroke:#eb8457;stroke-width:0.293713;stroke-linecap:round;stroke-linejoin:round;stroke-miterlimit:4;stroke-dasharray:none;stroke-opacity:1"
       d="m 161.47857,146.90214 c 5.37925,-0.54543 6.57846,-0.6624 6.74435,-0.65778 0.20643,0.006 -0.4593,-1.22468 -1.27047,-2.34806 -0.59211,-0.82003 -2.97047,-3.3814 -3.19009,-3.43557 -0.17658,-0.0435 -20.07014,-2.32234 -20.32684,-2.32842 -0.0947,-0.002 0.0839,0.22443 0.42846,0.54361 0.52452,0.48592 3.30756,3.20325 3.96243,3.86885 0.21433,0.21785 1.05396,0.56085 5.88116,2.40251 3.09713,1.18161 5.64911,2.15182 5.67107,2.15605 0.0219,0.004 0.96693,-0.0863 2.09993,-0.20119 z"
       id="path5603-9-0-8" />
  </g>
</svg>
