<?xml version="1.0" encoding="UTF-8" standalone="no"?>
<!-- Created with Inkscape (http://www.inkscape.org/) -->

<svg
   width="200mm"
   height="200mm"
   viewBox="0 0 200 200"
   version="1.1"
   id="svg2586"
   inkscape:version="1.1.1 (3bf5ae0d25, 2021-09-20)"
   sodipodi:docname="svg_gold.svg"
   xmlns:inkscape="http://www.inkscape.org/namespaces/inkscape"
   xmlns:sodipodi="http://sodipodi.sourceforge.net/DTD/sodipodi-0.dtd"
   xmlns="http://www.w3.org/2000/svg"
   xmlns:svg="http://www.w3.org/2000/svg">
  <sodipodi:namedview
     id="namedview2588"
     pagecolor="#ffffff"
     bordercolor="#666666"
     borderopacity="1.0"
     inkscape:pageshadow="2"
     inkscape:pageopacity="0.0"
     inkscape:pagecheckerboard="0"
     inkscape:document-units="mm"
     showgrid="false"
     width="200mm"
     inkscape:zoom="0.77682379"
     inkscape:cx="187.30116"
     inkscape:cy="413.86477"
     inkscape:window-width="1920"
     inkscape:window-height="1057"
     inkscape:window-x="-8"
     inkscape:window-y="-8"
     inkscape:window-maximized="1"
     inkscape:current-layer="layer1" />
  <defs
     id="defs2583" />
  <g
     inkscape:label="Layer 1"
     inkscape:groupmode="layer"
     id="layer1">
    <rect
       style="fill:#7f7878;fill-opacity:1;stroke:#7f7878;stroke-width:0.658579;stroke-opacity:1"
       id="rect846"
       width="199.34142"
       height="199.34142"
       x="0.3292895"
       y="0.3292895" />
    <path
       style="fill:#847c7c;fill-opacity:1;stroke:#847c7c;stroke-width:0.428024;stroke-opacity:1"
       d="m 69.455036,42.331955 c -5.86865,-5.43959 -10.64339,-9.91781 -10.61057,-9.9516 0.0328,-0.0338 5.38914,2.74419 11.90293,6.17331 6.51378,3.42911 11.94823,6.23475 12.07655,6.23475 0.1283,0 7.82311,-1.41118 17.099551,-3.13595 l 16.866263,-3.13595 8.31049,-7.24699 c 4.57076,-3.98585 8.33993,-7.21755 8.37592,-7.18156 0.0651,0.0651 -13.9416,20.42322 -14.32898,20.82658 -0.11159,0.11621 -8.82223,1.78197 -19.356954,3.70169 -10.53473,1.91972 -19.26901,3.51638 -19.4095,3.54814 -0.14901,0.0337 -4.70085,-4.06268 -10.9257,-9.83242 z"
       id="path3505" />
    <path
       style="fill:#7c7474;fill-opacity:1;stroke:#7c7474;stroke-width:0.15133;stroke-opacity:1"
       d="m 58.638426,29.035125 c 0.0412,-0.12118 14.94169,-19.2427493 15.01758,-19.2718793 0.15718,-0.0603 33.440284,6.6433993 44.506744,8.9643293 6.20093,1.30049 11.25185,2.37205 11.22428,2.38125 -0.0465,0.0155 -53.735324,-7.71459 -54.086764,-7.78739 -0.14355,-0.0297 -0.90752,0.68326 -8.00785,7.47368 -4.31704,4.12862 -8.03521,7.68621 -8.26262,7.90578 -0.22741,0.21956 -0.40352,0.36996 -0.39137,0.33423 z"
       id="path3507" />
    <path
       style="fill:#847c7c;fill-opacity:1;stroke:#847c7c;stroke-width:0.428024;stroke-opacity:1"
       d="m 143.04649,188.34483 c -7.80191,-1.77777 -14.17583,-3.26969 -14.16429,-3.31537 0.0115,-0.0457 6.03928,-0.31704 13.39499,-0.60302 7.35571,-0.286 13.46495,-0.57246 13.57608,-0.6366 0.11113,-0.0641 6.07026,-5.13268 13.24252,-11.26342 l 13.04047,-11.1468 3.5753,-10.43074 c 1.96641,-5.73691 3.61553,-10.41995 3.66469,-10.40677 0.0889,0.0238 -1.86621,24.65752 -2.0001,25.20051 -0.0386,0.15643 -6.75027,5.95323 -14.91488,12.88178 -8.16462,6.92856 -14.93133,12.67734 -15.03714,12.77507 -0.11222,0.10367 -6.10221,-1.16895 -14.37764,-3.05464 z"
       id="path3509" />
    <path
       style="fill:#7c7474;fill-opacity:1;stroke:#7c7474;stroke-width:0.15133;stroke-opacity:1"
       d="m 127.03161,182.23512 c -0.0249,-0.12554 3.32246,-24.135 3.37364,-24.19817 0.10598,-0.1308 32.28363,-10.96149 43.0285,-14.48298 6.02073,-1.97322 10.931,-3.56987 10.91172,-3.54813 -0.0325,0.0367 -50.39676,20.17838 -50.73753,20.29099 -0.1392,0.046 -0.44448,1.04541 -3.19988,10.4758 -1.67529,5.73373 -3.11734,10.67355 -3.20455,10.97738 -0.0872,0.30384 -0.16456,0.52213 -0.1719,0.48511 z"
       id="path3511" />
    <path
       style="fill:#847c7c;fill-opacity:1;stroke:#847c7c;stroke-width:0.428024;stroke-opacity:1"
       d="m 66.778756,110.58796 27.84117,-2.2841 10.095454,-7.60106 c 5.55249,-4.180605 10.06185,-7.634675 10.0208,-7.675725 -0.041,-0.041 -4.57912,1.81761 -10.0846,4.13038 l -10.009964,4.205005 -26.14903,2.3068 -26.14903,2.3068 -16.7381,-8.051405 c -9.20595,-4.42827 -16.7682495,-8.02124 -16.8051095,-7.98438 -0.11008,0.11009 29.5826895,22.880125 29.8714095,22.907025 0.14621,0.0136 12.79436,-1.00308 28.107,-2.25934 z"
       id="path4437" />
    <path
       style="fill:#7c7474;fill-opacity:1;stroke:#7c7474;stroke-width:0.428024;stroke-opacity:1"
       d="m 107.35431,80.772615 -7.960874,-9.14481 -23.58629,-3.19238 c -12.97247,-1.75581 -23.83681,-3.19662 -24.14298,-3.20181 -0.51301,-0.009 -29.18541,6.96814 -29.9046,7.27665 -0.30284,0.12991 -13.9131595,14.20802 -13.8258595,14.30105 0.0229,0.0244 3.9624495,-2.37161 8.7544995,-5.32453 l 8.71282,-5.36895 12.73289,-3.17877 12.7329,-3.17878 23.08728,3.5899 23.08728,3.58989 9.036874,6.48868 c 4.97028,3.56877 9.08189,6.48867 9.13691,6.48867 0.055,0 -3.48237,-4.11516 -7.86085,-9.14481 z"
       id="path4439" />
    <path
       style="fill:#847c7c;fill-opacity:1;stroke:#847c7c;stroke-width:0.605319;stroke-opacity:1"
       d="m 47.308956,189.88673 c -6.82173,-0.0877 -14.62488,-0.17515 -17.34033,-0.19445 l -4.93718,-0.0351 -7.62086,-8.60927 c -4.19148,-4.7351 -7.5834895,-8.6492 -7.5378096,-8.698 0.0457,-0.0488 3.6376396,2.18202 7.9821196,4.95739 4.34449,2.77536 8.0182,5.1146 8.1638,5.1983 0.1456,0.0837 8.32807,0.37159 18.18327,0.63975 9.85519,0.26815 18.85561,0.5157 20.00092,0.55011 l 2.0824,0.0626 9.08895,-16.806 c 4.99892,-9.2433 9.12969,-16.76526 9.17949,-16.71546 0.0498,0.0498 -3.02,9.0485 -6.82178,19.99711 l -6.91233,19.90656 -5.55375,-0.0471 c -3.05456,-0.0259 -11.13517,-0.1188 -17.95691,-0.20645 z"
       id="path4869" />
    <path
       style="fill:#7c7474;fill-opacity:1;stroke:#7c7474;stroke-width:0.605319;stroke-opacity:1"
       d="m 11.232856,168.09414 c 0.0714,-0.0714 6.61921,-5.1685 14.55063,-11.32683 l 14.42076,-11.19697 19.50787,0.15581 c 10.72933,0.0857 20.14758,0.22452 20.92944,0.3085 1.2119,0.13016 -1.42801,0.57007 -17.89895,2.98264 l -19.32052,2.82995 -15.97895,8.18838 c -14.40508,7.38185 -16.64925,8.49748 -16.21028,8.05852 z"
       id="path4871" />
    <path
       style="fill:#847c7c;fill-opacity:1;stroke:#847c7c;stroke-width:0.605319;stroke-opacity:1"
       d="m 159.02456,118.0209 c -6.82173,-0.0876 -14.62488,-0.17515 -17.34033,-0.19444 l -4.93718,-0.0351 -7.62087,-8.60927 c -4.19147,-4.7351 -7.58349,-8.64921 -7.5378,-8.69801 0.0457,-0.0488 3.63763,2.18204 7.98212,4.9574 4.34448,2.77536 8.01819,5.1146 8.1638,5.19831 0.1456,0.0837 8.32807,0.37159 18.18326,0.63974 9.8552,0.26815 18.85561,0.51571 20.00093,0.55011 l 2.0824,0.0626 9.08894,-16.806015 c 4.99892,-9.2433 9.12969,-16.76526 9.17949,-16.71546 0.0498,0.0498 -3.02,9.0485 -6.82178,19.99711 l -6.91232,19.906565 -5.55375,-0.0471 c -3.05456,-0.0259 -11.13517,-0.1188 -17.95691,-0.20645 z"
       id="path4873" />
    <path
       style="fill:#7c7474;fill-opacity:1;stroke:#7c7474;stroke-width:0.605319;stroke-opacity:1"
       d="m 122.94846,96.228305 c 0.0714,-0.0714 6.6192,-5.1685 14.55062,-11.32683 l 14.42076,-11.19696 19.50788,0.15581 c 10.72933,0.0857 20.14758,0.22451 20.92944,0.30849 1.2119,0.13017 -1.42801,0.57007 -17.89896,2.98264 l -19.32051,2.82995 -15.97895,8.18839 c -14.40509,7.38185 -16.64925,8.49748 -16.21028,8.05851 z"
       id="path4875" />
    <path
       style="fill:#847c7c;fill-opacity:1;stroke:#847c7c;stroke-width:0.265295;stroke-opacity:1"
       d="m 43.222076,138.45501 c 4.54966,-1.96751 8.26247,-3.59918 8.2507,-3.62592 -0.0118,-0.0267 -3.69848,0.48398 -8.19269,1.13492 -4.49421,0.65094 -8.23196,1.16154 -8.3061,1.13467 -0.0741,-0.0269 -4.21981,-2.4677 -9.2126,-5.42405 l -9.07779,-5.3752 -3.25842,-5.99922 c -1.79214,-3.29957 -3.28171,-5.98808 -3.31018,-5.97447 -0.0515,0.0246 3.70574,14.92163 3.84366,15.2398 0.0398,0.0916 4.71815,2.89485 10.39648,6.2293 5.67833,3.33444 10.38513,6.10197 10.45954,6.15005 0.0789,0.0511 3.58161,-1.40295 8.4074,-3.48988 z"
       id="path4877" />
    <path
       style="fill:#7c7474;fill-opacity:1;stroke:#7c7474;stroke-width:0.0937965;stroke-opacity:1"
       d="m 52.304346,132.90641 c 0.002,-0.0798 -4.53505,-14.43739 -4.5727,-14.4704 -0.078,-0.0684 -20.73762,-3.09944 -27.62644,-4.05321 -3.86005,-0.53444 -7.00683,-0.96255 -6.99285,-0.95138 0.0235,0.0191 32.69275,6.7204 32.91132,6.75122 0.0893,0.0126 0.37886,0.59159 3.03527,6.06905 1.61511,3.33033 3.00581,6.19968 3.09045,6.37633 0.0846,0.17665 0.15435,0.30193 0.15495,0.27839 z"
       id="path4879" />
    <path
       style="fill:#847c7c;fill-opacity:1;stroke:#847c7c;stroke-width:0.269875;stroke-opacity:1"
       d="m 116.72694,145.12847 22.4744,3.15386 8.7694,-2.10488 c 4.82317,-1.15768 8.7456,-2.1261 8.71653,-2.15206 -0.0291,-0.0259 -3.82842,0.17288 -8.44301,0.44186 l -8.39017,0.48905 -21.12323,-2.8847 -21.123244,-2.88471 -12.64888,-6.41646 c -6.95689,-3.52905 -12.67575,-6.4066 -12.70861,-6.39455 -0.0981,0.0359 21.56363,15.48931 21.79206,15.54627 0.11562,0.0292 10.323824,1.4717 22.684754,3.20632 z"
       id="path4881" />
    <path
       style="fill:#7c7474;fill-opacity:1;stroke:#7c7474;stroke-width:0.269875;stroke-opacity:1"
       d="m 151.90556,137.02103 -5.5294,-5.60123 -18.57037,-5.13116 c -10.21369,-2.82212 -18.7703,-5.17142 -19.01469,-5.22063 -0.40951,-0.0822 -23.978214,-1.11241 -24.581614,-1.0742 -0.25406,0.0161 -12.42732,4.6911 -12.36602,4.74905 0.0161,0.0152 3.38598,-0.53273 7.48862,-1.21764 l 7.45934,-1.24531 10.47383,0.41877 10.473814,0.41877 18.1349,5.24565 18.1349,5.24565 6.63305,4.49148 c 3.64818,2.47033 6.66906,4.49837 6.71307,4.50677 0.044,0.008 -2.40825,-2.50529 -5.44943,-5.58597 z"
       id="path4883" />
    <path
       style="fill:#ebd576;fill-opacity:1;stroke:#ebd576;stroke-width:0.235255;stroke-opacity:1"
       d="m 167.51399,55.894535 4.96741,-10.57648 -3.48714,-4.04288 c -1.91791,-2.22359 -3.52148,-4.03123 -3.56349,-4.017 -0.0419,0.0143 0.30888,1.78377 0.77977,3.93232 l 0.85615,3.90645 -4.53939,9.93861 -4.5394,9.93861 -10.3453,6.06947 c -5.6899,3.33822 -10.32906,6.08178 -10.30922,6.09683 0.0591,0.0449 25.03838,-10.46177 25.12938,-10.56989 0.0467,-0.0547 2.31915,-4.85898 5.05123,-10.67604 z"
       id="path4881-6-2" />
    <path
       style="fill:#d6bd4f;fill-opacity:1;stroke:#d6bd4f;stroke-width:0.235255;stroke-opacity:1"
       d="m 154.07232,39.667955 -9.07076,2.72366 -8.21186,8.80283 c -4.51649,4.84156 -8.27589,8.89724 -8.35417,9.01262 -0.13074,0.19334 -1.63599,11.22743 -1.56948,11.50831 0.028,0.11826 10.20169,5.45442 10.29551,5.42433 0.0246,-0.008 -3.37246,-1.33624 -4.51618,-3.2352 l -2.07952,-3.45265 0.60541,-4.90252 0.60541,-4.90252 8.40123,-8.60232 8.40123,-8.60232 7.2577,-3.21119 c 3.99177,-1.76617 9.47448,-2.92114 9.48783,-2.94191 0.0127,-0.0207 -6.26343,0.88086 -11.25235,2.37888 z"
       id="path4883-7-37"
       sodipodi:nodetypes="scscssscccccscs" />
    <path
       style="fill:#ebcf57;fill-opacity:1;stroke:#ebcf57;stroke-width:0.672969;stroke-linecap:round;stroke-linejoin:round;stroke-miterlimit:4;stroke-dasharray:none;stroke-opacity:1"
       d="m 162.23686,55.071075 -4.5257,9.87598 -6.89778,4.04483 c -3.79378,2.22465 -8.39997,4.93948 -10.23598,6.03295 l -3.3382,1.98814 -0.8874,-0.45086 c -1.43623,-0.72969 -2.27898,-1.32531 -2.96056,-2.09244 -0.19035,-0.21423 -0.83966,-1.21425 -1.44296,-2.22229 l -1.09688,-1.83278 0.61926,-4.9025 0.61927,-4.90252 8.37773,-8.56575 8.37775,-8.56577 3.62608,-1.60483 c 1.99435,-0.88267 4.03896,-1.77236 4.5436,-1.97708 1.80035,-0.73039 3.97846,-1.41037 6.88825,-2.15042 0.64278,-0.16349 1.18514,-0.29279 1.20524,-0.28736 0.0201,0.006 0.14093,0.51727 0.26863,1.13741 0.12772,0.62014 0.49841,2.34927 0.8239,3.84253 0.32551,1.49324 0.58499,2.72439 0.57662,2.73588 -0.008,0.0114 -2.05174,4.46507 -4.54087,9.89688 z"
       id="path1308-59" />
    <path
       style="fill:#ebd576;fill-opacity:1;stroke:#ebd576;stroke-width:0.339384;stroke-opacity:1"
       d="m 115.69147,120.0292 35.83703,3.29616 13.4545,-2.07058 c 7.39997,-1.13881 13.41371,-2.09206 13.36388,-2.11834 -0.0499,-0.0262 -5.99207,0.15316 -13.20503,0.39875 l -13.11444,0.44653 -33.66989,-3.01795 -33.669904,-3.01796 -20.90557,-6.52608 c -11.49808,-3.58934 -20.94628,-6.51633 -20.99604,-6.50437 -0.14856,0.0356 36.36119,15.70516 36.72938,15.76373 0.18642,0.0299 16.46571,1.53722 36.176084,3.35011 z"
       id="path4881-6-9" />
    <path
       style="fill:#d6bd4f;fill-opacity:1;stroke:#d6bd4f;stroke-width:0.339384;stroke-opacity:1"
       d="m 169.71775,112.0615 -9.58219,-5.66696 -30.01224,-5.26482 c -16.50669,-2.895625 -30.332944,-5.306415 -30.725014,-5.357275 -0.65692,-0.0849 -37.87776,-1.2499 -38.82044,-1.21473 -0.39692,0.0148 -17.90268,6.192765 -17.79711,6.251405 0.0277,0.0154 4.34625,-2.057095 10.6883,-2.724055 l 11.53097,-1.21266 16.53459,0.47841 16.53457,0.4784 29.345674,5.377655 29.34567,5.37768 11.14152,4.55613 c 6.12784,2.5059 10.26541,5.92079 10.33593,5.92948 0.0704,0.008 -3.24999,-3.89184 -8.52023,-7.00866 z"
       id="path4883-7-2"
       sodipodi:nodetypes="scscssscccccscs" />
    <path
       style="fill:#ebcf57;fill-opacity:1;stroke:#ebcf57;stroke-width:0.970839;stroke-linecap:round;stroke-linejoin:round;stroke-miterlimit:4;stroke-dasharray:none;stroke-opacity:1"
       d="m 118.22474,116.78342 -33.458384,-3.00815 -13.93206,-4.35126 c -7.66265,-2.3932 -17.01261,-5.29917 -20.77768,-6.45772 l -6.84562,-2.10645 1.47779,-0.5392 c 2.39179,-0.872645 4.35909,-1.381145 6.91114,-1.786325 0.71269,-0.11317 4.05037,-0.49348 7.41714,-0.84514 l 6.12135,-0.63939 16.53513,0.48696 16.5352,0.48697 29.221494,5.362365 29.2215,5.36235 5.56807,2.27636 c 3.06249,1.252 6.15085,2.53521 6.86305,2.85161 2.54092,1.12879 4.92927,2.49012 7.55307,4.30518 0.57962,0.40094 1.03961,0.73907 1.02222,0.75138 -0.0174,0.0123 -1.73527,0.0762 -3.81755,0.14198 -2.08226,0.0658 -7.88755,0.25836 -12.90069,0.42794 -5.01308,0.1696 -9.14666,0.30394 -9.18573,0.29853 -0.039,-0.005 -15.12727,-1.3635 -33.52944,-3.01799 z"
       id="path1308-0" />
    <path
       style="fill:#ebd576;fill-opacity:1;stroke:#ebd576;stroke-width:0.269875;stroke-opacity:1"
       d="m 56.633626,176.53045 22.67598,-0.9196 8.25105,-3.64045 c 4.53809,-2.00225 8.22385,-3.65708 8.1906,-3.67742 -0.0333,-0.0203 -3.73566,0.85531 -8.22759,1.94588 l -8.16715,1.98284 -21.29845,0.94257 -21.29846,0.94256 -13.59307,-4.04892 c -7.47619,-2.2269 -13.6177395,-4.03441 -13.6479095,-4.01667 -0.0901,0.0529 23.9877495,11.37968 24.2226895,11.39483 0.11897,0.008 10.42052,-0.39984 22.89231,-0.90562 z"
       id="path4881-6-5" />
    <path
       style="fill:#d6bd4f;fill-opacity:1;stroke:#d6bd4f;stroke-width:0.269875;stroke-opacity:1"
       d="m 89.793106,162.25757 -6.44264,-4.52112 -19.18889,-1.72453 c -10.55387,-0.94848 -19.39279,-1.72836 -19.64204,-1.73304 -0.41761,-0.008 -23.79012,3.19724 -24.37694,3.34283 -0.24708,0.0613 -10.7063595,8.26828 -10.6356795,8.31433 0.0186,0.0121 2.5552895,-2.55883 6.4690995,-3.96698 l 7.116,-2.56029 10.37966,-1.46262 10.37963,-1.46262 18.78094,1.91511 18.78094,1.91512 7.32984,3.23175 c 4.03142,1.77748 6.89006,4.69384 6.93487,4.69423 0.0447,0 -2.34133,-3.49556 -5.88479,-5.98217 z"
       id="path4883-7-3"
       sodipodi:nodetypes="scscssscccccscs" />
    <path
       style="fill:#ebcf57;fill-opacity:1;stroke:#ebcf57;stroke-width:0.772001;stroke-linecap:round;stroke-linejoin:round;stroke-miterlimit:4;stroke-dasharray:none;stroke-opacity:1"
       d="m 57.960736,173.00019 -21.1654,0.92753 -9.05897,-2.70041 c -4.98244,-1.48522 -11.06089,-3.28333 -13.50765,-3.99581 l -4.4486695,-1.29542 0.8815395,-0.7104 c 1.42677,-1.14976 2.61692,-1.887 4.181,-2.58993 0.43678,-0.19629 2.49421,-0.96657 4.5721,-1.71171 l 3.77795,-1.35483 10.38068,-1.45416 10.38071,-1.45415 18.70205,1.91443 18.70207,1.91444 3.6631,1.61447 c 2.01473,0.88796 4.04812,1.80399 4.51866,2.03563 1.67876,0.82641 3.28051,1.90233 5.0655,3.40261 0.39433,0.33141 0.70885,0.61428 0.69895,0.62859 -0.01,0.0143 -1.07931,0.27939 -2.37647,0.58914 -1.29715,0.30977 -4.91285,1.1824 -8.03492,1.93926 -3.12204,0.75688 -5.69677,1.37547 -5.72164,1.37466 -0.0248,-5.7e-4 -9.5696,0.41591 -21.21059,0.92606 z"
       id="path1308-5" />
    <path
       style="fill:#ebd576;fill-opacity:1;stroke:#ebd576;stroke-width:0.428024;stroke-opacity:1"
       d="m 125.33156,165.6538 c -5.86865,-5.4396 -10.6434,-9.91782 -10.61058,-9.95161 0.0328,-0.0338 5.38914,2.74419 11.90293,6.17331 6.51379,3.42911 11.94824,6.23475 12.07655,6.23475 0.12831,0 7.82311,-1.41118 17.09956,-3.13595 l 16.86626,-3.13594 8.31049,-7.247 c 4.57076,-3.98585 8.33993,-7.21755 8.37592,-7.18155 0.0651,0.0651 -13.9416,20.42321 -14.32898,20.82658 -0.11159,0.1162 -8.82223,1.78196 -19.35695,3.70168 -10.53473,1.91973 -19.26901,3.51639 -19.4095,3.54814 -0.14902,0.0337 -4.70086,-4.06267 -10.9257,-9.83241 z"
       id="path3505-1-6" />
    <path
       style="fill:#d6bd4f;fill-opacity:1;stroke:#d6bd4f;stroke-width:0.15133;stroke-opacity:1"
       d="m 114.78145,154.2896 c -0.002,-0.12798 14.67518,-21.17539 14.75108,-21.20452 0.15718,-0.0603 33.44028,6.64341 44.50674,8.96433 6.20093,1.30049 15.2385,5.32371 15.21093,5.3329 -0.0465,0.0155 -57.72198,-10.66623 -58.07341,-10.73904 -0.14356,-0.0297 -0.90753,0.68326 -8.00786,7.47369 -4.31703,4.12862 -8.28396,11.15948 -8.51136,11.37904 -0.22741,0.21956 0.13179,-0.70043 0.12388,-1.2064 z"
       id="path3507-2-2"
       sodipodi:nodetypes="ssssssss" />
    <path
       style="fill:#ebcf57;fill-opacity:1;stroke:#ebcf57;stroke-width:0.993791;stroke-linecap:round;stroke-linejoin:round;stroke-miterlimit:4;stroke-dasharray:none;stroke-opacity:1"
       d="m 133.26212,164.85376 c -14.2304,-7.37292 -17.40595,-8.99816 -17.85937,-9.14032 -0.56425,-0.17691 2.07952,-4.42404 5.04521,-8.10495 2.16484,-2.68695 10.36235,-10.56792 10.99531,-10.57076 0.50888,-0.002 56.05701,10.18682 56.75794,10.41101 0.25869,0.0827 -0.38042,0.81096 -1.53268,1.74646 -1.75416,1.42415 -11.15618,9.53355 -13.38632,11.54592 -0.72994,0.65864 -3.24224,1.20977 -17.59742,3.86033 -9.21025,1.7006 -16.79702,3.08835 -16.85951,3.08389 -0.0625,-0.004 -2.5659,-1.27867 -5.56316,-2.83158 z"
       id="path5603-6" />
    <path
       style="fill:#ebd576;fill-opacity:1;stroke:#ebd576;stroke-width:0.514259;stroke-opacity:1"
       d="m 96.868756,65.814465 c 9.528614,-3.25008 17.293704,-5.94537 17.255814,-5.98953 -0.0378,-0.0441 -8.21043,0.79921 -18.161204,1.87418 -9.95076,1.07497 -18.23942,1.91815 -18.41924,1.87375 -0.17982,-0.0444 -10.62534,-4.07728 -23.21227,-8.96195 l -22.88531,-8.88121 -9.90936,-9.9116 c -5.45013,-5.45137 -9.95767,-9.89319 -10.01674,-9.87069 -0.10683,0.0407 14.6423,24.65227 15.08849,25.17794 0.12854,0.15143 11.93666,4.783 26.24025,10.29237 14.30361,5.50938 26.16143,10.08206 26.35071,10.16151 0.20076,0.0843 7.56192,-2.31743 17.66886,-5.76477 z"
       id="path3505-1-7-3" />
    <path
       style="fill:#d6bd4f;fill-opacity:1;stroke:#d6bd4f;stroke-width:0.181819;stroke-opacity:1"
       d="m 114.37847,58.432615 c 0.0336,-0.12353 -15.490054,-25.63638 -15.589444,-25.69093 -0.20582,-0.11294 -48.45725,-5.12261 -64.52265,-6.69902 -9.00201,-0.88332 -22.63213,-0.10494 -22.5957,-0.0865 0.0615,0.0311 83.45105,9.61999 83.96101,9.67092 0.20831,0.0208 1.10806,0.9774 9.430894,10.02695 5.06031,5.50216 8.93423,13.7008 9.20028,13.99265 0.26608,0.29186 -0.0168,-0.72562 0.11561,-1.21409 z"
       id="path3507-2-0-6"
       sodipodi:nodetypes="ssssssss" />
    <path
       style="fill:#ebcf57;fill-opacity:1;stroke:#ebcf57;stroke-width:1.19401;stroke-linecap:round;stroke-linejoin:round;stroke-miterlimit:4;stroke-dasharray:none;stroke-opacity:1"
       d="m 85.946326,62.293325 c 21.710604,-2.23338 26.550574,-2.71229 27.220094,-2.69341 0.83317,0.0235 -1.85374,-5.01466 -5.12756,-9.61454 -2.38977,-3.35776 -11.988814,-13.84574 -12.875184,-14.06754 -0.71268,-0.17804 -81.00275,-9.50924 -82.03882,-9.53416 -0.38235,-0.009 0.33872,0.91896 1.72928,2.22593 2.11694,1.98968 13.34927,13.11625 15.99227,15.8417 0.86506,0.89204 4.25378,2.29649 23.73632,9.8375 12.49996,4.83829 22.79969,8.81104 22.88834,8.82834 0.0886,0.0178 3.90251,-0.35343 8.47526,-0.82382 z"
       id="path5603-9-0" />
  </g>
</svg>
